M48
;GenerationSoftware,Autodesk,EAGLE,9.6.2*%
;CreationDate,2021-05-05T22:25:39Z*%
FMAT,2
ICI,OFF
METRIC,TZ,000.000
T7C0.300
T6C0.813
T5C0.914
T4C1.016
T3C1.321
T2C2.800
%
G90
M71
T2
X3810Y82550
X97790Y82550
X97790Y3810
X3810Y3810
T3
X33655Y17780
T4
X53340Y80645
X73025Y17780
X73025Y15240
X73025Y12700
X35560Y80645
X33020Y80645
X30480Y80645
X55880Y80645
X85090Y2540
X82550Y2540
X80010Y2540
X8890Y2540
X11430Y2540
X13970Y2540
X50800Y80645
T5
X3810Y52070
X6350Y49530
X3810Y49530
X6350Y46990
X3810Y46990
X6350Y44450
X3810Y44450
X6350Y41910
X3810Y41910
X6350Y39370
X3810Y39370
X6350Y36830
X3810Y36830
X6350Y34290
X3810Y34290
X6350Y31750
X3810Y31750
X6350Y77470
X3810Y67310
X3810Y54610
X3810Y77470
X6350Y74930
X3810Y74930
X6350Y72390
X3810Y72390
X6350Y69850
X3810Y69850
X6350Y67310
X6350Y52070
X6350Y64770
X3810Y64770
X6350Y62230
X3810Y62230
X6350Y59690
X3810Y59690
X6350Y57150
X3810Y57150
X6350Y54610
X97790Y39370
X97790Y52070
X95250Y52070
X97790Y49530
X95250Y49530
X97790Y46990
X95250Y46990
X97790Y44450
X95250Y44450
X97790Y41910
X95250Y41910
X95250Y54610
X95250Y39370
X97790Y36830
X95250Y36830
X97790Y34290
X95250Y34290
X97790Y31750
X95250Y31750
X97790Y29210
X95250Y29210
X95250Y67310
X3810Y29210
X97790Y77470
X95250Y77470
X97790Y74930
X95250Y74930
X97790Y72390
X95250Y72390
X97790Y69850
X95250Y69850
X97790Y67310
X6350Y29210
X97790Y64770
X95250Y64770
X97790Y62230
X95250Y62230
X97790Y59690
X95250Y59690
X97790Y57150
X95250Y57150
X97790Y54610
T6
X12065Y17780
X52070Y7620
X52070Y10160
X52070Y12700
X52070Y15240
X52070Y25400
X52070Y22860
X52070Y27940
X52070Y30480
X52070Y17780
X52070Y20320
X52070Y33020
X52070Y35560
X40640Y1905
X40640Y9525
X9525Y17780
X52070Y5080
X24765Y17780
X24765Y25400
X14605Y17780
X17145Y17780
X22225Y17780
X19685Y17780
X22225Y25400
X19685Y25400
X17145Y25400
X14605Y25400
X12065Y25400
X9525Y25400
X9525Y6350
X12065Y6350
X24765Y6350
X71755Y26035
X52070Y49530
X52070Y52070
X52070Y54610
X52070Y57150
X52070Y59690
X52070Y62230
X52070Y67310
X52070Y69850
X52070Y72390
X52070Y74930
X23495Y2540
X18415Y2540
X48260Y1905
X48260Y9525
X71755Y20955
X24765Y13970
X67310Y35560
X67310Y33020
X67310Y30480
X67310Y27940
X67310Y25400
X67310Y22860
X67310Y20320
X67310Y17780
X67310Y15240
X67310Y12700
X67310Y10160
X67310Y7620
X67310Y5080
X67310Y2540
X52070Y2540
X10160Y52070
X31115Y20955
X28575Y20955
X36830Y9525
X36830Y1905
X43180Y13335
X44450Y11430
X45720Y13335
X44450Y1905
X44450Y9525
X32385Y26035
X32385Y28575
X32385Y31115
X32385Y33655
X32385Y36195
X32385Y38735
X28575Y3810
X10160Y46990
X45720Y80645
X40640Y80645
X66040Y79375
X60960Y79375
X91440Y41910
X91440Y36830
X5715Y23495
X5715Y18415
X5715Y13335
X5715Y8255
X46990Y38735
X41910Y38735
X36830Y21590
X36830Y13970
X40640Y27940
X14605Y6350
X17145Y6350
X22225Y6350
X19685Y6350
X22225Y13970
X19685Y13970
X17145Y13970
X14605Y13970
X12065Y13970
X9525Y13970
X40640Y35560
X40640Y33020
X40640Y20320
X40640Y17780
X40640Y30480
X52070Y64770
X40640Y22860
X40640Y25400
X48260Y17780
X48260Y20320
X48260Y22860
X48260Y25400
X48260Y27940
X48260Y30480
X48260Y33020
X48260Y35560
X29210Y9652
X29210Y14478
X34290Y7620
X34290Y15240
X31115Y3810
X32385Y54610
X47625Y46990
X47625Y44450
X47625Y41910
X32385Y41910
X32385Y44450
X32385Y46990
X32385Y49530
X32385Y52070
X47625Y49530
X32385Y57150
X32385Y59690
X32385Y62230
X32385Y64770
X32385Y67310
X32385Y69850
X32385Y72390
X32385Y74930
X47625Y69850
X71755Y69850
X71755Y72390
X71755Y59690
X71755Y62230
X71755Y74930
X71755Y77470
X47625Y74930
X47625Y72390
X27940Y77470
X47625Y67310
X47625Y64770
X47625Y62230
X47625Y59690
X47625Y57150
X47625Y54610
X47625Y52070
X12700Y44450
X27940Y31750
X27940Y29210
X12700Y29210
X12700Y31750
X12700Y34290
X12700Y36830
X12700Y39370
X12700Y41910
X27940Y34290
X12700Y46990
X12700Y49530
X12700Y52070
X12700Y54610
X12700Y57150
X12700Y67310
X12700Y64770
X12700Y69850
X27940Y54610
X27940Y74930
X27940Y72390
X27940Y69850
X27940Y67310
X27940Y64770
X27940Y62230
X27940Y59690
X27940Y57150
X71755Y64770
X27940Y52070
X27940Y49530
X27940Y46990
X27940Y44450
X27940Y41910
X27940Y39370
X27940Y36830
X86995Y74930
X80772Y12700
X84328Y12700
X12700Y72390
X12700Y77470
X12700Y74930
X12700Y62230
X12700Y59690
X86995Y77470
X67310Y74930
X86995Y72390
X86995Y69850
X86995Y67310
X86995Y64770
X86995Y62230
X52070Y46990
X86995Y57150
X86995Y59690
X67310Y72390
X67310Y69850
X67310Y67310
X67310Y64770
X67310Y62230
X67310Y59690
X67310Y57150
X67310Y54610
X67310Y52070
X67310Y49530
X67310Y46990
X67310Y44450
X67310Y41910
X52070Y41910
X52070Y44450
X86995Y52070
X71755Y67310
X71755Y57150
X71755Y54610
X71755Y52070
X71755Y49530
X71755Y46990
X71755Y44450
X71755Y41910
X71755Y39370
X71755Y36830
X71755Y34290
X71755Y31750
X71755Y29210
X86995Y54610
X86995Y49530
X86995Y46990
X86995Y44450
X86995Y41910
X86995Y39370
X86995Y36830
X86995Y29210
X86995Y34290
X86995Y31750
T7
X7620Y47625
X93345Y49530
X79375Y19685
X46355Y84455
X91440Y21590
X64770Y40640
X74930Y27305
X83185Y64135
X29845Y24130
X60325Y68580
X50165Y9525
X22225Y31115
X43815Y44450
X80645Y73660
X91440Y52705
X92710Y50165
X80010Y63500
X74295Y34925
X88265Y60960
X76200Y68580
X84455Y57150
X81280Y51435
X80645Y71120
X91440Y59055
X77470Y42545
X58420Y47625
X89535Y43815
X63500Y20320
X59690Y26670
X64135Y54610
X64135Y39370
X45720Y35560
X44450Y26035
X24765Y11430
X15240Y11430
X78740Y33020
X88900Y16510
X94615Y19050
X58420Y29845
X69850Y23495
X55880Y37465
X99060Y20320
X93345Y17780
X38735Y53340
X24765Y34290
X44450Y21590
X41275Y5080
X73660Y43815
X68580Y13970
X47625Y40005
X38100Y51435
X99695Y22225
X95250Y38100
X26670Y66040
X64770Y44450
X65405Y42545
X34925Y43180
X69215Y45720
X63500Y48895
X37465Y32385
X20955Y33020
X44450Y75565
X34925Y64770
X22860Y46990
X56515Y31750
X64135Y66040
X61595Y53975
X62865Y13335
X64135Y63500
X62230Y50165
X43180Y36830
X43180Y6985
X29845Y37465
X55880Y49530
X93345Y29845
X80645Y57785
X81280Y35560
X36830Y59055
X33020Y22860
X45085Y28575
X50165Y52705
X56515Y51435
X15240Y50165
X15240Y27940
X44450Y58420
X83820Y40005
X55245Y46355
X43180Y63500
X82550Y47625
X53975Y45085
X43180Y60960
X81915Y36830
M30