G04 EAGLE Gerber RS-274X export*
G75*
%MOMM*%
%FSLAX34Y34*%
%LPD*%
%INBottom Copper*%
%IPPOS*%
%AMOC8*
5,1,8,0,0,1.08239X$1,22.5*%
G01*
%ADD10C,1.645919*%
%ADD11P,1.781526X8X292.500000*%
%ADD12P,1.732040X8X202.500000*%
%ADD13P,1.732040X8X22.500000*%
%ADD14P,1.583577X8X292.500000*%
%ADD15P,1.732040X8X112.500000*%
%ADD16C,1.600200*%
%ADD17C,1.463037*%
%ADD18P,1.979475X8X22.500000*%
%ADD19C,1.828800*%
%ADD20C,1.260000*%
%ADD21R,1.260000X1.260000*%
%ADD22P,1.583577X8X22.500000*%
%ADD23P,1.979475X8X292.500000*%
%ADD24C,0.203200*%
%ADD25C,0.452400*%


D10*
X63500Y774700D03*
D11*
X38100Y774700D03*
X63500Y749300D03*
X38100Y749300D03*
X63500Y723900D03*
X38100Y723900D03*
X63500Y698500D03*
X38100Y698500D03*
X63500Y673100D03*
X38100Y673100D03*
X63500Y647700D03*
X38100Y647700D03*
X63500Y622300D03*
X38100Y622300D03*
X63500Y596900D03*
X38100Y596900D03*
X63500Y571500D03*
X38100Y571500D03*
X63500Y546100D03*
X38100Y546100D03*
X63500Y520700D03*
X38100Y520700D03*
X63500Y495300D03*
X38100Y495300D03*
X63500Y469900D03*
X38100Y469900D03*
X63500Y444500D03*
X38100Y444500D03*
X63500Y419100D03*
X38100Y419100D03*
X63500Y393700D03*
X38100Y393700D03*
X63500Y368300D03*
X38100Y368300D03*
X63500Y342900D03*
X38100Y342900D03*
X63500Y317500D03*
X38100Y317500D03*
X63500Y292100D03*
X38100Y292100D03*
D10*
X977900Y774700D03*
D11*
X952500Y774700D03*
X977900Y749300D03*
X952500Y749300D03*
X977900Y723900D03*
X952500Y723900D03*
X977900Y698500D03*
X952500Y698500D03*
X977900Y673100D03*
X952500Y673100D03*
X977900Y647700D03*
X952500Y647700D03*
X977900Y622300D03*
X952500Y622300D03*
X977900Y596900D03*
X952500Y596900D03*
X977900Y571500D03*
X952500Y571500D03*
X977900Y546100D03*
X952500Y546100D03*
X977900Y520700D03*
X952500Y520700D03*
X977900Y495300D03*
X952500Y495300D03*
X977900Y469900D03*
X952500Y469900D03*
X977900Y444500D03*
X952500Y444500D03*
X977900Y419100D03*
X952500Y419100D03*
X977900Y393700D03*
X952500Y393700D03*
X977900Y368300D03*
X952500Y368300D03*
X977900Y342900D03*
X952500Y342900D03*
X977900Y317500D03*
X952500Y317500D03*
X977900Y292100D03*
X952500Y292100D03*
D12*
X215900Y787400D03*
X165100Y787400D03*
X412750Y787400D03*
X361950Y787400D03*
D13*
X774700Y787400D03*
X825500Y787400D03*
X577850Y787400D03*
X628650Y787400D03*
D14*
X501650Y603250D03*
X501650Y527050D03*
D15*
X146050Y360680D03*
D16*
X146050Y325120D03*
D17*
X526085Y749300D02*
X540715Y749300D01*
X540715Y723900D02*
X526085Y723900D01*
X526085Y596900D02*
X540715Y596900D01*
X540715Y571500D02*
X526085Y571500D01*
X526085Y698500D02*
X540715Y698500D01*
X540715Y673100D02*
X526085Y673100D01*
X526085Y622300D02*
X540715Y622300D01*
X540715Y647700D02*
X526085Y647700D01*
X526085Y546100D02*
X540715Y546100D01*
X540715Y520700D02*
X526085Y520700D01*
X526085Y495300D02*
X540715Y495300D01*
X540715Y469900D02*
X526085Y469900D01*
X526085Y444500D02*
X540715Y444500D01*
X540715Y419100D02*
X526085Y419100D01*
X526085Y393700D02*
X540715Y393700D01*
X540715Y368300D02*
X526085Y368300D01*
X526085Y342900D02*
X540715Y342900D01*
X540715Y317500D02*
X526085Y317500D01*
X526085Y292100D02*
X540715Y292100D01*
X540715Y266700D02*
X526085Y266700D01*
X678485Y266700D02*
X693115Y266700D01*
X693115Y292100D02*
X678485Y292100D01*
X678485Y317500D02*
X693115Y317500D01*
X693115Y342900D02*
X678485Y342900D01*
X678485Y368300D02*
X693115Y368300D01*
X693115Y393700D02*
X678485Y393700D01*
X678485Y419100D02*
X693115Y419100D01*
X693115Y444500D02*
X678485Y444500D01*
X678485Y469900D02*
X693115Y469900D01*
X693115Y495300D02*
X678485Y495300D01*
X678485Y520700D02*
X693115Y520700D01*
X693115Y546100D02*
X678485Y546100D01*
X678485Y571500D02*
X693115Y571500D01*
X693115Y596900D02*
X678485Y596900D01*
X678485Y622300D02*
X693115Y622300D01*
X693115Y647700D02*
X678485Y647700D01*
X678485Y673100D02*
X693115Y673100D01*
X693115Y698500D02*
X678485Y698500D01*
X678485Y723900D02*
X693115Y723900D01*
X693115Y749300D02*
X678485Y749300D01*
D18*
X184150Y38100D03*
X209550Y38100D03*
X234950Y38100D03*
X260350Y38100D03*
X285750Y38100D03*
X311150Y38100D03*
X184150Y63500D03*
X209550Y63500D03*
X234950Y63500D03*
X260350Y63500D03*
X285750Y63500D03*
X311150Y63500D03*
X336550Y38100D03*
X361950Y38100D03*
X336550Y63500D03*
X361950Y63500D03*
X387350Y38100D03*
X387350Y63500D03*
D17*
X127965Y749300D02*
X113335Y749300D01*
X113335Y723900D02*
X127965Y723900D01*
X127965Y698500D02*
X113335Y698500D01*
X113335Y673100D02*
X127965Y673100D01*
X127965Y647700D02*
X113335Y647700D01*
X113335Y622300D02*
X127965Y622300D01*
X127965Y596900D02*
X113335Y596900D01*
X113335Y571500D02*
X127965Y571500D01*
X127965Y546100D02*
X113335Y546100D01*
X113335Y520700D02*
X127965Y520700D01*
X127965Y495300D02*
X113335Y495300D01*
X113335Y469900D02*
X127965Y469900D01*
X127965Y444500D02*
X113335Y444500D01*
X113335Y419100D02*
X127965Y419100D01*
X265735Y419100D02*
X280365Y419100D01*
X280365Y444500D02*
X265735Y444500D01*
X265735Y469900D02*
X280365Y469900D01*
X280365Y495300D02*
X265735Y495300D01*
X265735Y520700D02*
X280365Y520700D01*
X280365Y546100D02*
X265735Y546100D01*
X265735Y571500D02*
X280365Y571500D01*
X280365Y596900D02*
X265735Y596900D01*
X265735Y622300D02*
X280365Y622300D01*
X280365Y647700D02*
X265735Y647700D01*
X265735Y673100D02*
X280365Y673100D01*
X280365Y698500D02*
X265735Y698500D01*
X265735Y723900D02*
X280365Y723900D01*
X280365Y749300D02*
X265735Y749300D01*
X310185Y749300D02*
X324815Y749300D01*
X324815Y723900D02*
X310185Y723900D01*
X310185Y698500D02*
X324815Y698500D01*
X324815Y673100D02*
X310185Y673100D01*
X310185Y647700D02*
X324815Y647700D01*
X324815Y622300D02*
X310185Y622300D01*
X310185Y596900D02*
X324815Y596900D01*
X324815Y571500D02*
X310185Y571500D01*
X310185Y546100D02*
X324815Y546100D01*
X324815Y520700D02*
X310185Y520700D01*
X310185Y495300D02*
X324815Y495300D01*
X324815Y469900D02*
X310185Y469900D01*
X310185Y444500D02*
X324815Y444500D01*
X324815Y419100D02*
X310185Y419100D01*
X462585Y419100D02*
X477215Y419100D01*
X477215Y444500D02*
X462585Y444500D01*
X462585Y469900D02*
X477215Y469900D01*
X477215Y495300D02*
X462585Y495300D01*
X462585Y520700D02*
X477215Y520700D01*
X477215Y546100D02*
X462585Y546100D01*
X462585Y571500D02*
X477215Y571500D01*
X477215Y596900D02*
X462585Y596900D01*
X462585Y622300D02*
X477215Y622300D01*
X477215Y647700D02*
X462585Y647700D01*
X462585Y673100D02*
X477215Y673100D01*
X477215Y698500D02*
X462585Y698500D01*
X462585Y723900D02*
X477215Y723900D01*
X477215Y749300D02*
X462585Y749300D01*
D19*
X771906Y393700D02*
X790194Y393700D01*
X790194Y419100D02*
X771906Y419100D01*
X771906Y444500D02*
X790194Y444500D01*
X745744Y393700D02*
X727456Y393700D01*
X727456Y419100D02*
X745744Y419100D01*
X745744Y444500D02*
X727456Y444500D01*
D20*
X762000Y717550D03*
X838200Y717550D03*
X838200Y641350D03*
D21*
X762000Y641350D03*
D19*
X431800Y47244D02*
X431800Y28956D01*
X457200Y28956D02*
X457200Y47244D01*
X482600Y47244D02*
X482600Y28956D01*
X508000Y28956D02*
X508000Y47244D01*
X533400Y47244D02*
X533400Y28956D01*
X558800Y28956D02*
X558800Y47244D01*
X584200Y47244D02*
X584200Y28956D01*
X609600Y28956D02*
X609600Y47244D01*
X635000Y47244D02*
X635000Y28956D01*
X660400Y28956D02*
X660400Y47244D01*
X698500Y47244D02*
X698500Y28956D01*
X723900Y28956D02*
X723900Y47244D01*
X749300Y47244D02*
X749300Y28956D01*
X774700Y28956D02*
X774700Y47244D01*
X800100Y47244D02*
X800100Y28956D01*
X825500Y28956D02*
X825500Y47244D01*
X850900Y47244D02*
X850900Y28956D01*
X876300Y28956D02*
X876300Y47244D01*
X901700Y47244D02*
X901700Y28956D01*
X927100Y28956D02*
X927100Y47244D01*
D22*
X584200Y76200D03*
X660400Y76200D03*
X850900Y76200D03*
X927100Y76200D03*
D23*
X31750Y222250D03*
X31750Y196850D03*
X31750Y171450D03*
X31750Y146050D03*
X31750Y120650D03*
X57150Y222250D03*
X57150Y196850D03*
X57150Y171450D03*
X57150Y146050D03*
X57150Y120650D03*
X952500Y222250D03*
X952500Y196850D03*
X952500Y171450D03*
X952500Y146050D03*
X952500Y120650D03*
X977900Y222250D03*
X977900Y196850D03*
X977900Y171450D03*
X977900Y146050D03*
X977900Y120650D03*
D19*
X889000Y129794D02*
X889000Y111506D01*
X863600Y111506D02*
X863600Y129794D01*
X838200Y129794D02*
X838200Y111506D01*
X812800Y111506D02*
X812800Y129794D01*
X787400Y129794D02*
X787400Y111506D01*
X762000Y111506D02*
X762000Y129794D01*
X736600Y129794D02*
X736600Y111506D01*
X711200Y111506D02*
X711200Y129794D01*
D24*
X839216Y617728D02*
X839216Y640080D01*
X865632Y591312D02*
X906272Y550672D01*
X865632Y591312D02*
X839216Y617728D01*
X906272Y550672D02*
X922528Y550672D01*
X952500Y520700D01*
X839216Y640080D02*
X838200Y641350D01*
X201168Y788416D02*
X166624Y788416D01*
X201168Y788416D02*
X211328Y798576D01*
X351536Y798576D01*
X361696Y788416D01*
X166624Y788416D02*
X165100Y787400D01*
X361696Y788416D02*
X361950Y787400D01*
X363728Y788416D02*
X396240Y788416D01*
X406400Y798576D01*
X617728Y798576D01*
X627888Y788416D01*
X363728Y788416D02*
X361950Y787400D01*
X627888Y788416D02*
X628650Y787400D01*
X804672Y766064D02*
X804672Y672592D01*
X804672Y766064D02*
X824992Y786384D01*
X825500Y787400D01*
X62992Y493776D02*
X62992Y485648D01*
X50800Y473456D01*
X50800Y440944D01*
X40640Y430784D01*
X32512Y430784D01*
X26416Y424688D01*
X26416Y388112D01*
X32512Y382016D01*
X83312Y382016D01*
X119888Y418592D01*
X62992Y493776D02*
X63500Y495300D01*
X119888Y418592D02*
X120650Y419100D01*
X56896Y128016D02*
X56896Y121920D01*
X56896Y128016D02*
X44704Y140208D01*
X44704Y150368D01*
X36576Y158496D01*
X26416Y158496D01*
X18288Y166624D01*
X18288Y229616D01*
X144272Y355600D01*
X144272Y359664D01*
X56896Y121920D02*
X57150Y120650D01*
X144272Y359664D02*
X146050Y360680D01*
X969264Y119888D02*
X977392Y119888D01*
X969264Y119888D02*
X936752Y87376D01*
X902208Y87376D01*
X875792Y60960D01*
X977392Y119888D02*
X977900Y120650D01*
X723392Y107696D02*
X711200Y119888D01*
X723392Y107696D02*
X723392Y105664D01*
X731520Y97536D01*
X792480Y97536D01*
X800608Y105664D01*
X800608Y136144D01*
X806704Y142240D01*
X818896Y142240D01*
X824992Y136144D01*
X824992Y101600D01*
X849376Y77216D01*
X711200Y119888D02*
X711200Y120650D01*
X849376Y77216D02*
X850900Y76200D01*
X193040Y36576D02*
X184912Y36576D01*
X193040Y36576D02*
X205232Y24384D01*
X392176Y24384D01*
X418592Y50800D01*
X418592Y52832D01*
X426720Y60960D01*
X461264Y60960D01*
X469392Y52832D01*
X469392Y24384D01*
X481584Y12192D01*
X534416Y12192D01*
X546608Y24384D01*
X546608Y52832D01*
X568960Y75184D01*
X583184Y75184D01*
X184912Y36576D02*
X184150Y38100D01*
X583184Y75184D02*
X584200Y76200D01*
X796544Y522224D02*
X865632Y591312D01*
D25*
X804672Y672592D03*
X875792Y60960D03*
X796544Y522224D03*
D24*
X36576Y520192D02*
X36576Y510032D01*
X24384Y497840D01*
X24384Y428752D01*
X22352Y426720D01*
X22352Y367792D01*
X34544Y355600D01*
X123952Y355600D01*
X140208Y371856D01*
X152400Y371856D01*
X158496Y365760D01*
X158496Y337312D01*
X146304Y325120D01*
X38100Y520700D02*
X36576Y520192D01*
X146050Y325120D02*
X146304Y325120D01*
X762000Y717550D02*
X762000Y774192D01*
X774192Y786384D01*
X774700Y787400D01*
X272288Y699008D02*
X254000Y717296D01*
X254000Y729488D01*
X264160Y739648D02*
X272288Y747776D01*
X264160Y739648D02*
X254000Y729488D01*
X272288Y699008D02*
X273050Y698500D01*
X272288Y747776D02*
X273050Y749300D01*
X264160Y739648D02*
X217424Y786384D01*
X215900Y787400D01*
X508000Y786384D02*
X577088Y786384D01*
X508000Y786384D02*
X471424Y749808D01*
X577088Y786384D02*
X577850Y787400D01*
X471424Y749808D02*
X469900Y749300D01*
X294640Y749808D02*
X274320Y749808D01*
X294640Y749808D02*
X321056Y776224D01*
X402336Y776224D01*
X412496Y786384D01*
X274320Y749808D02*
X273050Y749300D01*
X412496Y786384D02*
X412750Y787400D01*
X501904Y528320D02*
X512064Y528320D01*
X528320Y544576D01*
X532384Y544576D01*
X501904Y528320D02*
X501650Y527050D01*
X532384Y544576D02*
X533400Y546100D01*
X552704Y603504D02*
X534416Y621792D01*
X552704Y603504D02*
X552704Y564896D01*
X534416Y546608D01*
X534416Y621792D02*
X533400Y622300D01*
X534416Y546608D02*
X533400Y546100D01*
X591312Y774192D02*
X762000Y774192D01*
X591312Y774192D02*
X579120Y786384D01*
X577850Y787400D01*
X18288Y323088D02*
X18288Y310896D01*
X36576Y292608D01*
X38100Y292100D01*
D25*
X18288Y323088D03*
D24*
X686816Y546608D02*
X705104Y564896D01*
X705104Y601472D01*
X694944Y611632D01*
X670560Y611632D01*
X619760Y662432D01*
X260096Y662432D01*
X132080Y790448D01*
X30480Y790448D01*
X14224Y774192D01*
X14224Y461264D01*
X20320Y455168D01*
X20320Y430784D01*
X18288Y428752D01*
X18288Y345440D01*
X34544Y329184D01*
X42672Y329184D01*
X50800Y321056D01*
X50800Y304800D01*
X63500Y292100D01*
X685800Y546100D02*
X686816Y546608D01*
X532384Y646176D02*
X516128Y646176D01*
X477520Y607568D01*
X345440Y607568D01*
X341376Y603504D01*
X341376Y471424D01*
X325120Y455168D01*
X304800Y455168D01*
X292608Y442976D01*
X292608Y440944D01*
X282448Y430784D01*
X91440Y430784D01*
X67056Y406400D01*
X50800Y406400D01*
X38100Y393700D01*
X532384Y646176D02*
X533400Y647700D01*
X684784Y266192D02*
X684784Y260096D01*
X658368Y233680D01*
X629920Y233680D01*
X684784Y266192D02*
X685800Y266700D01*
D25*
X629920Y233680D03*
D24*
X532384Y268224D02*
X420624Y268224D01*
X416560Y272288D01*
X375920Y489712D02*
X375920Y497840D01*
X347472Y526288D01*
X347472Y601472D01*
X532384Y268224D02*
X533400Y266700D01*
D25*
X416560Y272288D03*
X375920Y489712D03*
X347472Y601472D03*
D24*
X316992Y522224D02*
X294640Y522224D01*
X284480Y532384D01*
X316992Y522224D02*
X317500Y520700D01*
X408432Y583184D02*
X497840Y583184D01*
X408432Y583184D02*
X353568Y528320D01*
X284480Y38608D02*
X278384Y38608D01*
X266192Y50800D01*
X83312Y50800D01*
X12192Y121920D01*
X12192Y451104D01*
X14224Y453136D01*
X284480Y38608D02*
X285750Y38100D01*
D25*
X284480Y532384D03*
X497840Y583184D03*
X353568Y528320D03*
X14224Y453136D03*
D24*
X625856Y512064D02*
X684784Y570992D01*
X625856Y512064D02*
X625856Y465328D01*
X560832Y400304D01*
X560832Y237744D01*
X388112Y65024D01*
X684784Y570992D02*
X685800Y571500D01*
X388112Y65024D02*
X387350Y63500D01*
X447040Y546608D02*
X459232Y558800D01*
X497840Y558800D01*
D25*
X447040Y546608D03*
X497840Y558800D03*
D24*
X119888Y699008D02*
X65024Y699008D01*
X119888Y699008D02*
X120650Y698500D01*
X65024Y699008D02*
X63500Y698500D01*
X274320Y674624D02*
X296672Y674624D01*
X306832Y684784D01*
X459232Y684784D01*
X469392Y674624D01*
X274320Y674624D02*
X273050Y673100D01*
X469392Y674624D02*
X469900Y673100D01*
X294640Y648208D02*
X274320Y648208D01*
X294640Y648208D02*
X304800Y658368D01*
X459232Y658368D01*
X469900Y647700D01*
X274320Y648208D02*
X273050Y647700D01*
X99568Y747776D02*
X65024Y747776D01*
X99568Y747776D02*
X111760Y735584D01*
X180848Y735584D01*
X268224Y648208D01*
X272288Y648208D01*
X65024Y747776D02*
X63500Y749300D01*
X272288Y648208D02*
X273050Y647700D01*
X62992Y776224D02*
X52832Y776224D01*
X42672Y786384D01*
X32512Y786384D01*
X26416Y780288D01*
X26416Y719328D01*
X34544Y711200D01*
X42672Y711200D01*
X50800Y703072D01*
X50800Y694944D01*
X60960Y684784D01*
X160528Y684784D01*
X272288Y573024D01*
X63500Y774700D02*
X62992Y776224D01*
X272288Y573024D02*
X273050Y571500D01*
X274320Y621792D02*
X294640Y621792D01*
X304800Y611632D01*
X459232Y611632D01*
X469900Y622300D01*
X274320Y621792D02*
X273050Y622300D01*
X38608Y766064D02*
X38608Y774192D01*
X38608Y766064D02*
X50800Y753872D01*
X50800Y745744D01*
X60960Y735584D01*
X85344Y735584D01*
X111760Y709168D01*
X186944Y709168D01*
X272288Y623824D01*
X38608Y774192D02*
X38100Y774700D01*
X272288Y623824D02*
X273050Y622300D01*
X296672Y495808D02*
X316992Y495808D01*
X296672Y495808D02*
X286512Y505968D01*
X316992Y495808D02*
X317500Y495300D01*
X554736Y747776D02*
X684784Y747776D01*
X554736Y747776D02*
X542544Y735584D01*
X404368Y735584D01*
X379984Y711200D01*
X335280Y564896D02*
X335280Y512064D01*
X319024Y495808D01*
X684784Y747776D02*
X685800Y749300D01*
X319024Y495808D02*
X317500Y495300D01*
X286512Y156464D02*
X286512Y65024D01*
X286512Y156464D02*
X345440Y215392D01*
X351536Y215392D01*
X398272Y262128D01*
X286512Y65024D02*
X285750Y63500D01*
D25*
X286512Y505968D03*
X379984Y711200D03*
X335280Y564896D03*
X398272Y262128D03*
D24*
X119888Y469392D02*
X105664Y469392D01*
X67056Y430784D01*
X48768Y430784D01*
X38608Y420624D01*
X119888Y469392D02*
X120650Y469900D01*
X38608Y420624D02*
X38100Y419100D01*
X302768Y471424D02*
X316992Y471424D01*
X302768Y471424D02*
X290576Y483616D01*
X316992Y471424D02*
X317500Y469900D01*
D25*
X290576Y483616D03*
D24*
X560832Y591312D02*
X621792Y652272D01*
X560832Y591312D02*
X560832Y524256D01*
X546608Y510032D01*
X404368Y510032D01*
X339344Y445008D01*
X319024Y445008D01*
X317500Y444500D01*
X390144Y142240D02*
X432816Y142240D01*
X556768Y266192D01*
X556768Y499872D01*
X546608Y510032D01*
D25*
X621792Y652272D03*
X390144Y142240D03*
D24*
X274320Y357632D02*
X274320Y418592D01*
X274320Y357632D02*
X341376Y290576D01*
X345440Y290576D01*
X469392Y414528D01*
X469392Y418592D01*
X274320Y418592D02*
X273050Y419100D01*
X469392Y418592D02*
X469900Y419100D01*
X556768Y546608D02*
X556768Y617728D01*
X556768Y546608D02*
X542544Y532384D01*
X522224Y532384D01*
X514096Y524256D01*
X514096Y516128D01*
X20320Y546608D02*
X20320Y597408D01*
X20320Y546608D02*
X34544Y532384D01*
X150368Y532384D01*
X245872Y436880D01*
X355600Y280416D02*
X355600Y270256D01*
X355600Y280416D02*
X345440Y290576D01*
D25*
X556768Y617728D03*
X514096Y516128D03*
X20320Y597408D03*
X245872Y436880D03*
X355600Y270256D03*
D24*
X274320Y445008D02*
X274320Y449072D01*
X292608Y467360D01*
X292608Y473456D01*
X282448Y483616D01*
X256032Y483616D01*
X130048Y609600D01*
X50800Y609600D01*
X38100Y622300D01*
X273050Y444500D02*
X274320Y445008D01*
X351536Y442976D02*
X469392Y442976D01*
X469900Y444500D01*
X615696Y570992D02*
X615696Y636016D01*
X615696Y570992D02*
X554736Y510032D01*
X337312Y201168D02*
X337312Y65024D01*
X337312Y201168D02*
X347472Y211328D01*
X355600Y211328D01*
X398272Y254000D01*
X337312Y65024D02*
X336550Y63500D01*
D25*
X351536Y442976D03*
X615696Y636016D03*
X554736Y510032D03*
X398272Y254000D03*
D24*
X254000Y471424D02*
X217424Y471424D01*
X254000Y471424D02*
X272288Y471424D01*
X217424Y471424D02*
X130048Y558800D01*
X50800Y558800D01*
X38100Y571500D01*
X272288Y471424D02*
X273050Y469900D01*
X369824Y469392D02*
X469392Y469392D01*
X369824Y469392D02*
X333248Y432816D01*
X292608Y432816D01*
X254000Y440944D02*
X254000Y471424D01*
X469392Y469392D02*
X469900Y469900D01*
X361696Y44704D02*
X361696Y38608D01*
X361696Y44704D02*
X349504Y56896D01*
X349504Y205232D01*
X343408Y296672D02*
X343408Y422656D01*
X333248Y432816D01*
X361696Y38608D02*
X361950Y38100D01*
D25*
X292608Y432816D03*
X254000Y440944D03*
X349504Y205232D03*
X343408Y296672D03*
D24*
X272288Y495808D02*
X134112Y633984D01*
X32512Y633984D01*
X26416Y627888D01*
X26416Y556768D01*
X36576Y546608D01*
X272288Y495808D02*
X273050Y495300D01*
X38100Y546100D02*
X36576Y546608D01*
X331216Y483616D02*
X335280Y487680D01*
X331216Y483616D02*
X298704Y483616D01*
X288544Y493776D01*
X274320Y493776D01*
X273050Y495300D01*
X686816Y672592D02*
X721360Y638048D01*
X721360Y583184D01*
X711200Y573024D01*
X686816Y672592D02*
X685800Y673100D01*
X363728Y211328D02*
X363728Y65024D01*
X363728Y211328D02*
X404368Y251968D01*
X404368Y268224D01*
X363728Y65024D02*
X361950Y63500D01*
D25*
X335280Y487680D03*
X711200Y573024D03*
X404368Y268224D03*
D24*
X469900Y520700D02*
X503936Y554736D01*
X503936Y585216D01*
X489712Y599440D01*
X489712Y611632D01*
X514096Y636016D01*
X363728Y290576D02*
X363728Y276352D01*
X363728Y290576D02*
X487680Y414528D01*
X487680Y503936D01*
X469392Y522224D02*
X453136Y538480D01*
X469392Y522224D02*
X469900Y520700D01*
D25*
X514096Y636016D03*
X363728Y276352D03*
X487680Y503936D03*
X453136Y538480D03*
D24*
X861568Y473456D02*
X861568Y410464D01*
X715264Y615696D02*
X694944Y636016D01*
X652272Y636016D01*
X603504Y684784D01*
X503936Y684784D01*
D25*
X861568Y410464D03*
X861568Y473456D03*
X715264Y615696D03*
X503936Y684784D03*
D24*
X294640Y723392D02*
X274320Y723392D01*
X294640Y723392D02*
X308864Y709168D01*
X373888Y709168D01*
X377952Y705104D01*
X451104Y705104D01*
X469900Y723900D01*
X274320Y723392D02*
X273050Y723900D01*
X853440Y524256D02*
X853440Y410464D01*
X749808Y627888D02*
X749808Y631952D01*
X694944Y686816D01*
X607568Y686816D01*
X581152Y713232D01*
X481584Y713232D01*
X471424Y723392D01*
X469900Y723900D01*
D25*
X853440Y410464D03*
X853440Y524256D03*
X749808Y627888D03*
D24*
X867664Y774192D02*
X950976Y774192D01*
X867664Y774192D02*
X810768Y717296D01*
X810768Y664464D01*
X784352Y638048D01*
X784352Y623824D01*
X717296Y556768D01*
X575056Y282448D02*
X575056Y182880D01*
X950976Y774192D02*
X952500Y774700D01*
D25*
X717296Y556768D03*
X575056Y282448D03*
X575056Y182880D03*
D24*
X973328Y776224D02*
X977392Y776224D01*
X973328Y776224D02*
X946912Y802640D01*
X36576Y802640D01*
X8128Y774192D01*
X8128Y119888D01*
X111760Y16256D01*
X436880Y16256D01*
X457200Y36576D01*
X977900Y774700D02*
X977392Y776224D01*
X457200Y38100D02*
X457200Y36576D01*
X847344Y747776D02*
X950976Y747776D01*
X847344Y747776D02*
X814832Y715264D01*
X814832Y662432D01*
X788416Y636016D01*
X788416Y617728D01*
X703072Y532384D01*
X674624Y532384D01*
X631952Y489712D01*
X631952Y473456D01*
X631952Y447040D02*
X568960Y384048D01*
X568960Y101600D01*
X520192Y52832D01*
X520192Y22352D01*
X514096Y16256D01*
X501904Y16256D01*
X481584Y36576D01*
X950976Y747776D02*
X952500Y749300D01*
X482600Y38100D02*
X481584Y36576D01*
D25*
X631952Y473456D03*
X631952Y447040D03*
D24*
X967232Y747776D02*
X977392Y747776D01*
X967232Y747776D02*
X955040Y735584D01*
X841248Y735584D01*
X818896Y713232D01*
X818896Y660400D01*
X792480Y633984D01*
X792480Y603504D01*
X694944Y505968D01*
X672592Y505968D01*
X564896Y398272D01*
X564896Y103632D01*
X508000Y46736D01*
X508000Y38100D01*
X977392Y747776D02*
X977900Y749300D01*
X619760Y642112D02*
X619760Y640080D01*
X621792Y638048D01*
X621792Y469392D01*
X599440Y447040D01*
X599440Y270256D02*
X599440Y111760D01*
X534416Y46736D01*
X534416Y38608D01*
X533400Y38100D01*
D25*
X619760Y642112D03*
X599440Y447040D03*
X599440Y270256D03*
D24*
X979424Y725424D02*
X979424Y733552D01*
X989584Y743712D01*
X989584Y753872D01*
X981456Y762000D01*
X973328Y762000D01*
X965200Y770128D01*
X965200Y778256D01*
X944880Y798576D01*
X820928Y798576D01*
X780288Y757936D01*
X780288Y627888D01*
X705104Y552704D01*
X705104Y542544D01*
X611632Y408432D02*
X611632Y227584D01*
X603504Y219456D01*
X603504Y79248D01*
X585216Y60960D01*
X579120Y60960D01*
X558800Y40640D01*
X558800Y38100D01*
X977900Y723900D02*
X979424Y725424D01*
D25*
X705104Y542544D03*
X611632Y408432D03*
D24*
X920496Y544576D02*
X932688Y532384D01*
X932688Y518160D01*
X871728Y457200D01*
X871728Y394208D01*
X701040Y223520D01*
X672592Y195072D02*
X644144Y166624D01*
D25*
X920496Y544576D03*
X701040Y223520D03*
X672592Y195072D03*
X644144Y166624D03*
D24*
X774192Y629920D02*
X774192Y741680D01*
X774192Y629920D02*
X755904Y611632D01*
X827024Y524256D02*
X827024Y410464D01*
X696976Y280416D01*
X668528Y280416D01*
X664464Y284480D01*
X660400Y284480D01*
X636016Y260096D01*
D25*
X774192Y741680D03*
X755904Y611632D03*
X827024Y524256D03*
X636016Y260096D03*
D24*
X926592Y518160D02*
X926592Y530352D01*
X926592Y518160D02*
X867664Y459232D01*
X867664Y408432D01*
X682752Y223520D01*
X652272Y223520D01*
D25*
X926592Y530352D03*
X652272Y223520D03*
D24*
X969264Y672592D02*
X977392Y672592D01*
X969264Y672592D02*
X957072Y660400D01*
X851408Y660400D01*
X847344Y664464D01*
X829056Y664464D01*
X796544Y631952D01*
X796544Y583184D01*
X694944Y481584D01*
X674624Y481584D01*
X617728Y424688D01*
X617728Y406400D01*
X615696Y404368D01*
X615696Y225552D01*
X613664Y223520D01*
X613664Y123952D01*
X660400Y77216D01*
X977392Y672592D02*
X977900Y673100D01*
X660400Y77216D02*
X660400Y76200D01*
X857504Y648208D02*
X950976Y648208D01*
X857504Y648208D02*
X845312Y660400D01*
X831088Y660400D01*
X800608Y629920D01*
X800608Y560832D01*
X699008Y459232D01*
X668528Y459232D01*
X662432Y278384D02*
X662432Y245872D01*
X656336Y239776D01*
X950976Y648208D02*
X952500Y647700D01*
D25*
X668528Y459232D03*
X662432Y278384D03*
X656336Y239776D03*
D24*
X967232Y646176D02*
X977392Y646176D01*
X967232Y646176D02*
X957072Y636016D01*
X863600Y636016D01*
X843280Y656336D01*
X833120Y656336D01*
X806704Y629920D01*
X806704Y560832D01*
X701040Y455168D01*
X672592Y455168D01*
X619760Y402336D01*
X619760Y223520D01*
X617728Y221488D01*
X617728Y178816D01*
X690880Y105664D01*
X690880Y79248D01*
X723392Y46736D01*
X723392Y38608D01*
X977392Y646176D02*
X977900Y647700D01*
X723392Y38608D02*
X723900Y38100D01*
X906272Y562864D02*
X942848Y562864D01*
X906272Y562864D02*
X904240Y560832D01*
X847344Y503936D02*
X847344Y404368D01*
X672592Y229616D01*
X650240Y229616D01*
X644144Y223520D01*
X636016Y152400D02*
X636016Y128016D01*
X711200Y52832D01*
X711200Y24384D01*
X719328Y16256D01*
X729488Y16256D01*
X749808Y36576D01*
X749300Y38100D01*
D25*
X942848Y562864D03*
X904240Y560832D03*
X847344Y503936D03*
X644144Y223520D03*
X636016Y152400D03*
D24*
X953008Y595376D02*
X963168Y595376D01*
X975360Y583184D01*
X983488Y583184D01*
X1007872Y558800D01*
X1007872Y95504D01*
X940816Y28448D01*
X940816Y24384D01*
X928624Y12192D01*
X824992Y12192D01*
X800608Y36576D01*
X953008Y595376D02*
X952500Y596900D01*
X800100Y38100D02*
X800608Y36576D01*
X920496Y573024D02*
X950976Y573024D01*
X920496Y573024D02*
X841248Y652272D01*
X835152Y652272D01*
X827024Y644144D01*
X827024Y558800D01*
X796544Y528320D01*
X792480Y528320D01*
X694944Y430784D01*
X674624Y430784D01*
X623824Y379984D01*
X623824Y221488D01*
X621792Y219456D01*
X621792Y180848D01*
X694944Y107696D01*
X694944Y103632D01*
X737616Y60960D01*
X829056Y60960D01*
X851408Y38608D01*
X952500Y571500D02*
X950976Y573024D01*
X851408Y38608D02*
X850900Y38100D01*
X969264Y570992D02*
X977392Y570992D01*
X969264Y570992D02*
X957072Y558800D01*
X948944Y558800D01*
X940816Y550672D01*
X940816Y540512D01*
X948944Y532384D01*
X957072Y532384D01*
X965200Y524256D01*
X965200Y491744D01*
X975360Y481584D01*
X983488Y481584D01*
X993648Y471424D01*
X993648Y233680D01*
X991616Y115824D02*
X940816Y65024D01*
X902208Y65024D01*
X875792Y38608D01*
X977392Y570992D02*
X977900Y571500D01*
X875792Y38608D02*
X876300Y38100D01*
D25*
X993648Y233680D03*
X991616Y115824D03*
D24*
X963168Y544576D02*
X953008Y544576D01*
X963168Y544576D02*
X975360Y532384D01*
X983488Y532384D01*
X1003808Y512064D01*
X1003808Y119888D01*
X944880Y60960D01*
X922528Y60960D01*
X900176Y38608D01*
X953008Y544576D02*
X952500Y546100D01*
X900176Y38608D02*
X901700Y38100D01*
X997712Y237744D02*
X997712Y475488D01*
X997712Y237744D02*
X999744Y235712D01*
X999744Y174752D01*
X983488Y158496D01*
X946912Y158496D01*
X902208Y113792D01*
X902208Y95504D01*
X863600Y56896D01*
X863600Y24384D01*
X871728Y16256D01*
X906272Y16256D01*
X926592Y36576D01*
X927100Y38100D01*
D25*
X997712Y475488D03*
D24*
X977392Y469392D02*
X969264Y469392D01*
X957072Y457200D01*
X942848Y457200D01*
X703072Y217424D01*
X627888Y217424D01*
X475488Y65024D02*
X406400Y65024D01*
X392176Y50800D01*
X369824Y50800D01*
X977392Y469392D02*
X977900Y469900D01*
D25*
X627888Y217424D03*
X475488Y65024D03*
X369824Y50800D03*
D24*
X274320Y546608D02*
X274320Y550672D01*
X308864Y585216D01*
X329184Y585216D01*
X335280Y591312D01*
X335280Y605536D01*
X341376Y617728D02*
X442976Y617728D01*
X461264Y636016D01*
X497840Y636016D01*
X520192Y658368D01*
X585216Y658368D01*
X601472Y642112D01*
X936752Y514096D02*
X936752Y510032D01*
X950976Y495808D01*
X274320Y546608D02*
X273050Y546100D01*
X950976Y495808D02*
X952500Y495300D01*
D25*
X335280Y605536D03*
X341376Y617728D03*
X601472Y642112D03*
X936752Y514096D03*
D24*
X532384Y597408D02*
X505968Y597408D01*
X501904Y601472D01*
X532384Y597408D02*
X533400Y596900D01*
X501904Y601472D02*
X501650Y603250D01*
X979424Y392176D02*
X979424Y384048D01*
X989584Y373888D01*
X989584Y278384D01*
X839216Y128016D01*
X839216Y121920D01*
X979424Y392176D02*
X977900Y393700D01*
X839216Y121920D02*
X838200Y120650D01*
X812800Y120650D02*
X812800Y111760D01*
X794512Y93472D01*
X711200Y93472D01*
X699008Y105664D01*
X699008Y140208D01*
X952500Y393700D01*
X969264Y367792D02*
X977392Y367792D01*
X969264Y367792D02*
X957072Y355600D01*
X948944Y355600D01*
X786384Y193040D01*
X786384Y121920D01*
X977392Y367792D02*
X977900Y368300D01*
X786384Y121920D02*
X787400Y120650D01*
X950976Y363728D02*
X950976Y367792D01*
X950976Y363728D02*
X762000Y174752D01*
X762000Y120650D01*
X950976Y367792D02*
X952500Y368300D01*
X532384Y469392D02*
X491744Y428752D01*
X491744Y396240D01*
X335280Y239776D01*
X48768Y239776D01*
X32512Y223520D01*
X532384Y469392D02*
X533400Y469900D01*
X32512Y223520D02*
X31750Y222250D01*
X58928Y146304D02*
X178816Y146304D01*
X245872Y213360D01*
X58928Y146304D02*
X57150Y146050D01*
X768096Y406400D02*
X780288Y418592D01*
X768096Y406400D02*
X766064Y406400D01*
X757936Y398272D01*
X757936Y357632D01*
X703072Y302768D01*
X644144Y302768D01*
X629920Y288544D01*
X780288Y418592D02*
X781050Y419100D01*
D25*
X245872Y213360D03*
X629920Y288544D03*
D24*
X532384Y392176D02*
X493776Y392176D01*
X337312Y235712D01*
X71120Y235712D01*
X58928Y223520D01*
X532384Y392176D02*
X533400Y393700D01*
X58928Y223520D02*
X57150Y222250D01*
X449072Y341376D02*
X532384Y341376D01*
X449072Y341376D02*
X339344Y231648D01*
X85344Y231648D01*
X62992Y209296D01*
X44704Y209296D01*
X32512Y197104D01*
X532384Y341376D02*
X533400Y342900D01*
X32512Y197104D02*
X31750Y196850D01*
X430784Y316992D02*
X532384Y316992D01*
X430784Y316992D02*
X341376Y227584D01*
X89408Y227584D01*
X58928Y197104D01*
X532384Y316992D02*
X533400Y317500D01*
X58928Y197104D02*
X57150Y196850D01*
X686816Y418592D02*
X735584Y418592D01*
X686816Y418592D02*
X685800Y419100D01*
X735584Y418592D02*
X736600Y419100D01*
X711200Y392176D02*
X686816Y392176D01*
X711200Y392176D02*
X747776Y355600D01*
X686816Y392176D02*
X685800Y393700D01*
D25*
X747776Y355600D03*
D24*
X930656Y209296D02*
X965200Y209296D01*
X977392Y197104D01*
X977900Y196850D01*
D25*
X930656Y209296D03*
D24*
X552704Y349504D02*
X534416Y367792D01*
X552704Y349504D02*
X552704Y288544D01*
X542544Y278384D01*
X406400Y278384D01*
X347472Y219456D01*
X123952Y219456D01*
X62992Y158496D01*
X44704Y158496D01*
X31750Y171450D01*
X533400Y368300D02*
X534416Y367792D01*
X532384Y290576D02*
X412496Y290576D01*
X345440Y223520D01*
X109728Y223520D01*
X58928Y172720D01*
X532384Y290576D02*
X533400Y292100D01*
X58928Y172720D02*
X57150Y171450D01*
X837184Y680720D02*
X837184Y717296D01*
X837184Y680720D02*
X824992Y668528D01*
X839216Y556768D02*
X839216Y546608D01*
X802640Y510032D01*
X802640Y412496D01*
X782320Y392176D01*
X837184Y717296D02*
X838200Y717550D01*
X781050Y393700D02*
X782320Y392176D01*
D25*
X824992Y668528D03*
X839216Y556768D03*
D24*
X967232Y341376D02*
X977392Y341376D01*
X967232Y341376D02*
X955040Y329184D01*
X942848Y329184D01*
X792480Y178816D01*
X977392Y341376D02*
X977900Y342900D01*
D25*
X792480Y178816D03*
M02*
