G04 EAGLE Gerber RS-274X export*
G75*
%MOMM*%
%FSLAX34Y34*%
%LPD*%
%INSilkscreen Top*%
%IPPOS*%
%AMOC8*
5,1,8,0,0,1.08239X$1,22.5*%
G01*
%ADD10C,0.152400*%
%ADD11C,0.076200*%
%ADD12C,0.127000*%
%ADD13C,0.304800*%
%ADD14R,0.508000X0.381000*%
%ADD15C,0.101600*%
%ADD16C,0.177800*%
%ADD17C,0.200000*%
%ADD18R,0.381000X0.508000*%


D10*
X661162Y848882D02*
X672009Y848882D01*
X672009Y846170D01*
X661162Y835324D01*
X661162Y832612D01*
X672009Y832612D01*
X677534Y846170D02*
X680245Y848882D01*
X685669Y848882D01*
X688380Y846170D01*
X688380Y843459D01*
X685669Y840747D01*
X688380Y838035D01*
X688380Y835324D01*
X685669Y832612D01*
X680245Y832612D01*
X677534Y835324D01*
X677534Y838035D01*
X680245Y840747D01*
X677534Y843459D01*
X677534Y846170D01*
X680245Y840747D02*
X685669Y840747D01*
X693905Y835324D02*
X693905Y846170D01*
X696617Y848882D01*
X702040Y848882D01*
X704752Y846170D01*
X704752Y835324D01*
X702040Y832612D01*
X696617Y832612D01*
X693905Y835324D01*
X704752Y846170D01*
X726648Y848882D02*
X737495Y848882D01*
X726648Y848882D02*
X726648Y832612D01*
X737495Y832612D01*
X732072Y840747D02*
X726648Y840747D01*
X751155Y848882D02*
X753866Y846170D01*
X751155Y848882D02*
X745731Y848882D01*
X743020Y846170D01*
X743020Y843459D01*
X745731Y840747D01*
X751155Y840747D01*
X753866Y838035D01*
X753866Y835324D01*
X751155Y832612D01*
X745731Y832612D01*
X743020Y835324D01*
X759391Y838035D02*
X759391Y848882D01*
X759391Y838035D02*
X764815Y832612D01*
X770238Y838035D01*
X770238Y848882D01*
X775763Y843459D02*
X781186Y848882D01*
X781186Y832612D01*
X775763Y832612D02*
X786610Y832612D01*
X792135Y832612D02*
X792135Y835324D01*
X794846Y835324D01*
X794846Y832612D01*
X792135Y832612D01*
X800320Y835324D02*
X800320Y846170D01*
X803032Y848882D01*
X808455Y848882D01*
X811167Y846170D01*
X811167Y835324D01*
X808455Y832612D01*
X803032Y832612D01*
X800320Y835324D01*
X811167Y846170D01*
X833063Y848882D02*
X843910Y848882D01*
X833063Y848882D02*
X833063Y832612D01*
X843910Y832612D01*
X838487Y840747D02*
X833063Y840747D01*
X849435Y848882D02*
X860282Y832612D01*
X849435Y832612D02*
X860282Y848882D01*
X865807Y848882D02*
X865807Y832612D01*
X865807Y848882D02*
X873941Y848882D01*
X876653Y846170D01*
X876653Y840747D01*
X873941Y838035D01*
X865807Y838035D01*
X882178Y840747D02*
X893025Y840747D01*
X898550Y832612D02*
X898550Y848882D01*
X906685Y848882D01*
X909396Y846170D01*
X909396Y843459D01*
X906685Y840747D01*
X909396Y838035D01*
X909396Y835324D01*
X906685Y832612D01*
X898550Y832612D01*
X898550Y840747D02*
X906685Y840747D01*
X914921Y832612D02*
X914921Y848882D01*
X923056Y848882D01*
X925768Y846170D01*
X925768Y840747D01*
X923056Y838035D01*
X914921Y838035D01*
X920345Y838035D02*
X925768Y832612D01*
X931293Y832612D02*
X931293Y848882D01*
X931293Y832612D02*
X939428Y832612D01*
X942139Y835324D01*
X942139Y846170D01*
X939428Y848882D01*
X931293Y848882D01*
D11*
X813181Y397137D02*
X813181Y387731D01*
X813181Y397137D02*
X817884Y397137D01*
X819452Y395569D01*
X819452Y394002D01*
X817884Y392434D01*
X819452Y390866D01*
X819452Y389299D01*
X817884Y387731D01*
X813181Y387731D01*
X813181Y392434D02*
X817884Y392434D01*
X822536Y394002D02*
X822536Y387731D01*
X822536Y394002D02*
X825672Y397137D01*
X828807Y394002D01*
X828807Y387731D01*
X828807Y392434D02*
X822536Y392434D01*
X831891Y389299D02*
X831891Y397137D01*
X831891Y389299D02*
X833459Y387731D01*
X836594Y387731D01*
X838162Y389299D01*
X838162Y397137D01*
X841247Y397137D02*
X841247Y387731D01*
X845950Y387731D01*
X847517Y389299D01*
X847517Y395569D01*
X845950Y397137D01*
X841247Y397137D01*
X864660Y397137D02*
X866228Y395569D01*
X864660Y397137D02*
X861525Y397137D01*
X859957Y395569D01*
X859957Y389299D01*
X861525Y387731D01*
X864660Y387731D01*
X866228Y389299D01*
X869312Y387731D02*
X869312Y397137D01*
X869312Y387731D02*
X875583Y387731D01*
X880235Y397137D02*
X883370Y397137D01*
X880235Y397137D02*
X878667Y395569D01*
X878667Y389299D01*
X880235Y387731D01*
X883370Y387731D01*
X884938Y389299D01*
X884938Y395569D01*
X883370Y397137D01*
X892726Y397137D02*
X894293Y395569D01*
X892726Y397137D02*
X889590Y397137D01*
X888023Y395569D01*
X888023Y389299D01*
X889590Y387731D01*
X892726Y387731D01*
X894293Y389299D01*
X897378Y387731D02*
X897378Y397137D01*
X903648Y397137D02*
X897378Y390866D01*
X898945Y392434D02*
X903648Y387731D01*
X819452Y452719D02*
X817884Y454287D01*
X814749Y454287D01*
X813181Y452719D01*
X813181Y446449D01*
X814749Y444881D01*
X817884Y444881D01*
X819452Y446449D01*
X825672Y444881D02*
X825672Y454287D01*
X828807Y454287D02*
X822536Y454287D01*
X836594Y454287D02*
X838162Y452719D01*
X836594Y454287D02*
X833459Y454287D01*
X831891Y452719D01*
X831891Y446449D01*
X833459Y444881D01*
X836594Y444881D01*
X838162Y446449D01*
X841247Y451152D02*
X844382Y454287D01*
X844382Y444881D01*
X841247Y444881D02*
X847517Y444881D01*
X850602Y444881D02*
X856872Y454287D01*
X864660Y454287D02*
X866228Y452719D01*
X864660Y454287D02*
X861525Y454287D01*
X859957Y452719D01*
X859957Y446449D01*
X861525Y444881D01*
X864660Y444881D01*
X866228Y446449D01*
X872447Y444881D02*
X872447Y454287D01*
X869312Y454287D02*
X875583Y454287D01*
X883370Y454287D02*
X884938Y452719D01*
X883370Y454287D02*
X880235Y454287D01*
X878667Y452719D01*
X878667Y446449D01*
X880235Y444881D01*
X883370Y444881D01*
X884938Y446449D01*
X888023Y446449D02*
X888023Y452719D01*
X889590Y454287D01*
X892726Y454287D01*
X894293Y452719D01*
X894293Y446449D01*
X892726Y444881D01*
X889590Y444881D01*
X888023Y446449D01*
X894293Y452719D01*
X413052Y14569D02*
X411484Y16137D01*
X408349Y16137D01*
X406781Y14569D01*
X406781Y8299D01*
X408349Y6731D01*
X411484Y6731D01*
X413052Y8299D01*
X413052Y11434D01*
X409916Y11434D01*
X416136Y6731D02*
X416136Y16137D01*
X422407Y6731D01*
X422407Y16137D01*
X425491Y16137D02*
X425491Y6731D01*
X430194Y6731D01*
X431762Y8299D01*
X431762Y14569D01*
X430194Y16137D01*
X425491Y16137D01*
X444202Y16137D02*
X444202Y6731D01*
X448905Y6731D01*
X450472Y8299D01*
X450472Y14569D01*
X448905Y16137D01*
X444202Y16137D01*
X453557Y14569D02*
X453557Y8299D01*
X453557Y14569D02*
X455125Y16137D01*
X458260Y16137D01*
X459828Y14569D01*
X459828Y8299D01*
X458260Y6731D01*
X455125Y6731D01*
X453557Y8299D01*
X459828Y14569D01*
X472267Y16137D02*
X472267Y6731D01*
X476970Y6731D01*
X478538Y8299D01*
X478538Y14569D01*
X476970Y16137D01*
X472267Y16137D01*
X481623Y13002D02*
X484758Y16137D01*
X484758Y6731D01*
X481623Y6731D02*
X487893Y6731D01*
X500333Y6731D02*
X500333Y16137D01*
X500333Y6731D02*
X505036Y6731D01*
X506604Y8299D01*
X506604Y14569D01*
X505036Y16137D01*
X500333Y16137D01*
X509688Y6731D02*
X515959Y6731D01*
X509688Y6731D02*
X515959Y13002D01*
X515959Y14569D01*
X514391Y16137D01*
X511256Y16137D01*
X509688Y14569D01*
X528398Y16137D02*
X528398Y6731D01*
X533101Y6731D01*
X534669Y8299D01*
X534669Y14569D01*
X533101Y16137D01*
X528398Y16137D01*
X537754Y14569D02*
X539321Y16137D01*
X542457Y16137D01*
X544024Y14569D01*
X544024Y13002D01*
X542457Y11434D01*
X540889Y11434D01*
X542457Y11434D02*
X544024Y9866D01*
X544024Y8299D01*
X542457Y6731D01*
X539321Y6731D01*
X537754Y8299D01*
X556464Y6731D02*
X556464Y16137D01*
X556464Y6731D02*
X561167Y6731D01*
X562735Y8299D01*
X562735Y14569D01*
X561167Y16137D01*
X556464Y16137D01*
X570522Y16137D02*
X570522Y6731D01*
X565819Y11434D02*
X570522Y16137D01*
X572090Y11434D02*
X565819Y11434D01*
X584530Y16137D02*
X584530Y6731D01*
X589233Y6731D01*
X590800Y8299D01*
X590800Y14569D01*
X589233Y16137D01*
X584530Y16137D01*
X593885Y16137D02*
X600155Y16137D01*
X593885Y16137D02*
X593885Y11434D01*
X597020Y13002D01*
X598588Y13002D01*
X600155Y11434D01*
X600155Y8299D01*
X598588Y6731D01*
X595452Y6731D01*
X593885Y8299D01*
X612595Y6731D02*
X612595Y16137D01*
X612595Y6731D02*
X617298Y6731D01*
X618866Y8299D01*
X618866Y14569D01*
X617298Y16137D01*
X612595Y16137D01*
X625086Y14569D02*
X628221Y16137D01*
X625086Y14569D02*
X621950Y11434D01*
X621950Y8299D01*
X623518Y6731D01*
X626653Y6731D01*
X628221Y8299D01*
X628221Y9866D01*
X626653Y11434D01*
X621950Y11434D01*
X640661Y16137D02*
X640661Y6731D01*
X645364Y6731D01*
X646931Y8299D01*
X646931Y14569D01*
X645364Y16137D01*
X640661Y16137D01*
X650016Y16137D02*
X656287Y16137D01*
X656287Y14569D01*
X650016Y8299D01*
X650016Y6731D01*
X668726Y6731D02*
X668726Y16137D01*
X673429Y16137D01*
X674997Y14569D01*
X674997Y11434D01*
X673429Y9866D01*
X668726Y9866D01*
X671862Y9866D02*
X674997Y6731D01*
X678081Y6731D02*
X678081Y16137D01*
X678081Y6731D02*
X682784Y6731D01*
X684352Y8299D01*
X684352Y14569D01*
X682784Y16137D01*
X678081Y16137D01*
X687437Y16137D02*
X687437Y14569D01*
X690572Y11434D01*
X693707Y14569D01*
X693707Y16137D01*
X690572Y11434D02*
X690572Y6731D01*
X710850Y16137D02*
X712418Y14569D01*
X710850Y16137D02*
X707715Y16137D01*
X706147Y14569D01*
X706147Y13002D01*
X707715Y11434D01*
X710850Y11434D01*
X712418Y9866D01*
X712418Y8299D01*
X710850Y6731D01*
X707715Y6731D01*
X706147Y8299D01*
X718638Y6731D02*
X718638Y16137D01*
X721773Y16137D02*
X715502Y16137D01*
X724857Y16137D02*
X724857Y6731D01*
X724857Y16137D02*
X729560Y16137D01*
X731128Y14569D01*
X731128Y13002D01*
X729560Y11434D01*
X731128Y9866D01*
X731128Y8299D01*
X729560Y6731D01*
X724857Y6731D01*
X724857Y11434D02*
X729560Y11434D01*
X692452Y14569D02*
X690884Y16137D01*
X687749Y16137D01*
X686181Y14569D01*
X686181Y8299D01*
X687749Y6731D01*
X690884Y6731D01*
X692452Y8299D01*
X692452Y11434D01*
X689316Y11434D01*
X695536Y6731D02*
X695536Y16137D01*
X701807Y6731D01*
X701807Y16137D01*
X704891Y16137D02*
X704891Y6731D01*
X709594Y6731D01*
X711162Y8299D01*
X711162Y14569D01*
X709594Y16137D01*
X704891Y16137D01*
X723602Y16137D02*
X723602Y6731D01*
X728305Y6731D01*
X729872Y8299D01*
X729872Y14569D01*
X728305Y16137D01*
X723602Y16137D01*
X732957Y14569D02*
X732957Y8299D01*
X732957Y14569D02*
X734525Y16137D01*
X737660Y16137D01*
X739228Y14569D01*
X739228Y8299D01*
X737660Y6731D01*
X734525Y6731D01*
X732957Y8299D01*
X739228Y14569D01*
X751667Y16137D02*
X751667Y6731D01*
X756370Y6731D01*
X757938Y8299D01*
X757938Y14569D01*
X756370Y16137D01*
X751667Y16137D01*
X761023Y13002D02*
X764158Y16137D01*
X764158Y6731D01*
X761023Y6731D02*
X767293Y6731D01*
X779733Y6731D02*
X779733Y16137D01*
X779733Y6731D02*
X784436Y6731D01*
X786004Y8299D01*
X786004Y14569D01*
X784436Y16137D01*
X779733Y16137D01*
X789088Y6731D02*
X795359Y6731D01*
X789088Y6731D02*
X795359Y13002D01*
X795359Y14569D01*
X793791Y16137D01*
X790656Y16137D01*
X789088Y14569D01*
X807798Y16137D02*
X807798Y6731D01*
X812501Y6731D01*
X814069Y8299D01*
X814069Y14569D01*
X812501Y16137D01*
X807798Y16137D01*
X817154Y14569D02*
X818721Y16137D01*
X821857Y16137D01*
X823424Y14569D01*
X823424Y13002D01*
X821857Y11434D01*
X820289Y11434D01*
X821857Y11434D02*
X823424Y9866D01*
X823424Y8299D01*
X821857Y6731D01*
X818721Y6731D01*
X817154Y8299D01*
X835864Y6731D02*
X835864Y16137D01*
X835864Y6731D02*
X840567Y6731D01*
X842135Y8299D01*
X842135Y14569D01*
X840567Y16137D01*
X835864Y16137D01*
X849922Y16137D02*
X849922Y6731D01*
X845219Y11434D02*
X849922Y16137D01*
X851490Y11434D02*
X845219Y11434D01*
X863930Y16137D02*
X863930Y6731D01*
X868633Y6731D01*
X870200Y8299D01*
X870200Y14569D01*
X868633Y16137D01*
X863930Y16137D01*
X873285Y16137D02*
X879555Y16137D01*
X873285Y16137D02*
X873285Y11434D01*
X876420Y13002D01*
X877988Y13002D01*
X879555Y11434D01*
X879555Y8299D01*
X877988Y6731D01*
X874852Y6731D01*
X873285Y8299D01*
X891995Y6731D02*
X891995Y16137D01*
X891995Y6731D02*
X896698Y6731D01*
X898266Y8299D01*
X898266Y14569D01*
X896698Y16137D01*
X891995Y16137D01*
X904486Y14569D02*
X907621Y16137D01*
X904486Y14569D02*
X901350Y11434D01*
X901350Y8299D01*
X902918Y6731D01*
X906053Y6731D01*
X907621Y8299D01*
X907621Y9866D01*
X906053Y11434D01*
X901350Y11434D01*
X920061Y16137D02*
X920061Y6731D01*
X924764Y6731D01*
X926331Y8299D01*
X926331Y14569D01*
X924764Y16137D01*
X920061Y16137D01*
X929416Y16137D02*
X935687Y16137D01*
X935687Y14569D01*
X929416Y8299D01*
X929416Y6731D01*
X948126Y6731D02*
X948126Y16137D01*
X952829Y16137D01*
X954397Y14569D01*
X954397Y11434D01*
X952829Y9866D01*
X948126Y9866D01*
X951262Y9866D02*
X954397Y6731D01*
X957481Y6731D02*
X957481Y16137D01*
X957481Y6731D02*
X962184Y6731D01*
X963752Y8299D01*
X963752Y14569D01*
X962184Y16137D01*
X957481Y16137D01*
X966837Y16137D02*
X966837Y14569D01*
X969972Y11434D01*
X973107Y14569D01*
X973107Y16137D01*
X969972Y11434D02*
X969972Y6731D01*
X990250Y16137D02*
X991818Y14569D01*
X990250Y16137D02*
X987115Y16137D01*
X985547Y14569D01*
X985547Y13002D01*
X987115Y11434D01*
X990250Y11434D01*
X991818Y9866D01*
X991818Y8299D01*
X990250Y6731D01*
X987115Y6731D01*
X985547Y8299D01*
X998038Y6731D02*
X998038Y16137D01*
X1001173Y16137D02*
X994902Y16137D01*
X1004257Y16137D02*
X1004257Y6731D01*
X1004257Y16137D02*
X1008960Y16137D01*
X1010528Y14569D01*
X1010528Y13002D01*
X1008960Y11434D01*
X1010528Y9866D01*
X1010528Y8299D01*
X1008960Y6731D01*
X1004257Y6731D01*
X1004257Y11434D02*
X1008960Y11434D01*
X672046Y158925D02*
X670817Y160153D01*
X668360Y160153D01*
X667131Y158925D01*
X667131Y154010D01*
X668360Y152781D01*
X670817Y152781D01*
X672046Y154010D01*
X672046Y156467D01*
X669588Y156467D01*
X674615Y152781D02*
X674615Y160153D01*
X679530Y152781D01*
X679530Y160153D01*
X682099Y160153D02*
X682099Y152781D01*
X685785Y152781D01*
X687014Y154010D01*
X687014Y158925D01*
X685785Y160153D01*
X682099Y160153D01*
X699525Y160153D02*
X699525Y152781D01*
X697068Y160153D02*
X701982Y160153D01*
X704552Y160153D02*
X704552Y152781D01*
X704552Y160153D02*
X708238Y160153D01*
X709467Y158925D01*
X709467Y156467D01*
X708238Y155238D01*
X704552Y155238D01*
X707009Y155238D02*
X709467Y152781D01*
X715722Y160153D02*
X716951Y158925D01*
X715722Y160153D02*
X713265Y160153D01*
X712036Y158925D01*
X712036Y154010D01*
X713265Y152781D01*
X715722Y152781D01*
X716951Y154010D01*
X716951Y156467D01*
X714493Y156467D01*
X719520Y158925D02*
X720749Y160153D01*
X723206Y160153D01*
X724435Y158925D01*
X724435Y157696D01*
X723206Y156467D01*
X721978Y156467D01*
X723206Y156467D02*
X724435Y155238D01*
X724435Y154010D01*
X723206Y152781D01*
X720749Y152781D01*
X719520Y154010D01*
X736946Y152781D02*
X736946Y160153D01*
X739403Y160153D02*
X734488Y160153D01*
X743201Y160153D02*
X745659Y160153D01*
X743201Y160153D02*
X741973Y158925D01*
X741973Y154010D01*
X743201Y152781D01*
X745659Y152781D01*
X746887Y154010D01*
X746887Y158925D01*
X745659Y160153D01*
X749457Y152781D02*
X754372Y152781D01*
X749457Y152781D02*
X754372Y157696D01*
X754372Y158925D01*
X753143Y160153D01*
X750685Y160153D01*
X749457Y158925D01*
X766882Y160153D02*
X766882Y152781D01*
X764425Y160153D02*
X769340Y160153D01*
X771909Y160153D02*
X771909Y152781D01*
X771909Y160153D02*
X775595Y160153D01*
X776824Y158925D01*
X776824Y156467D01*
X775595Y155238D01*
X771909Y155238D01*
X774367Y155238D02*
X776824Y152781D01*
X783079Y160153D02*
X784308Y158925D01*
X783079Y160153D02*
X780622Y160153D01*
X779393Y158925D01*
X779393Y154010D01*
X780622Y152781D01*
X783079Y152781D01*
X784308Y154010D01*
X784308Y156467D01*
X781851Y156467D01*
X786878Y152781D02*
X791792Y152781D01*
X786878Y152781D02*
X791792Y157696D01*
X791792Y158925D01*
X790564Y160153D01*
X788106Y160153D01*
X786878Y158925D01*
X804303Y160153D02*
X804303Y152781D01*
X801846Y160153D02*
X806761Y160153D01*
X810559Y160153D02*
X813016Y160153D01*
X810559Y160153D02*
X809330Y158925D01*
X809330Y154010D01*
X810559Y152781D01*
X813016Y152781D01*
X814245Y154010D01*
X814245Y158925D01*
X813016Y160153D01*
X816814Y157696D02*
X819272Y160153D01*
X819272Y152781D01*
X821729Y152781D02*
X816814Y152781D01*
X834240Y152781D02*
X834240Y160153D01*
X836697Y160153D02*
X831782Y160153D01*
X839267Y160153D02*
X839267Y152781D01*
X839267Y160153D02*
X842953Y160153D01*
X844181Y158925D01*
X844181Y156467D01*
X842953Y155238D01*
X839267Y155238D01*
X841724Y155238D02*
X844181Y152781D01*
X850437Y160153D02*
X851666Y158925D01*
X850437Y160153D02*
X847979Y160153D01*
X846751Y158925D01*
X846751Y154010D01*
X847979Y152781D01*
X850437Y152781D01*
X851666Y154010D01*
X851666Y156467D01*
X849208Y156467D01*
X854235Y157696D02*
X856692Y160153D01*
X856692Y152781D01*
X854235Y152781D02*
X859150Y152781D01*
X871661Y152781D02*
X871661Y160153D01*
X874118Y160153D02*
X869203Y160153D01*
X877916Y160153D02*
X880374Y160153D01*
X877916Y160153D02*
X876687Y158925D01*
X876687Y154010D01*
X877916Y152781D01*
X880374Y152781D01*
X881602Y154010D01*
X881602Y158925D01*
X880374Y160153D01*
X884172Y158925D02*
X884172Y154010D01*
X884172Y158925D02*
X885400Y160153D01*
X887858Y160153D01*
X889086Y158925D01*
X889086Y154010D01*
X887858Y152781D01*
X885400Y152781D01*
X884172Y154010D01*
X889086Y158925D01*
X901597Y160153D02*
X901597Y152781D01*
X899140Y160153D02*
X904055Y160153D01*
X906624Y160153D02*
X906624Y152781D01*
X906624Y160153D02*
X910310Y160153D01*
X911539Y158925D01*
X911539Y156467D01*
X910310Y155238D01*
X906624Y155238D01*
X909081Y155238D02*
X911539Y152781D01*
X917794Y160153D02*
X919023Y158925D01*
X917794Y160153D02*
X915337Y160153D01*
X914108Y158925D01*
X914108Y154010D01*
X915337Y152781D01*
X917794Y152781D01*
X919023Y154010D01*
X919023Y156467D01*
X916566Y156467D01*
X922821Y160153D02*
X925278Y160153D01*
X922821Y160153D02*
X921592Y158925D01*
X921592Y154010D01*
X922821Y152781D01*
X925278Y152781D01*
X926507Y154010D01*
X926507Y158925D01*
X925278Y160153D01*
X171752Y106009D02*
X170184Y107577D01*
X167049Y107577D01*
X165481Y106009D01*
X165481Y99739D01*
X167049Y98171D01*
X170184Y98171D01*
X171752Y99739D01*
X171752Y102874D01*
X168616Y102874D01*
X174836Y98171D02*
X174836Y107577D01*
X181107Y98171D01*
X181107Y107577D01*
X184191Y107577D02*
X184191Y98171D01*
X188894Y98171D01*
X190462Y99739D01*
X190462Y106009D01*
X188894Y107577D01*
X184191Y107577D01*
X277743Y107577D02*
X277743Y98171D01*
X277743Y107577D02*
X282446Y107577D01*
X284014Y106009D01*
X284014Y102874D01*
X282446Y101306D01*
X277743Y101306D01*
X280879Y101306D02*
X284014Y98171D01*
X287098Y98171D02*
X287098Y107577D01*
X287098Y98171D02*
X291801Y98171D01*
X293369Y99739D01*
X293369Y106009D01*
X291801Y107577D01*
X287098Y107577D01*
X310512Y107577D02*
X312080Y106009D01*
X310512Y107577D02*
X307376Y107577D01*
X305809Y106009D01*
X305809Y104442D01*
X307376Y102874D01*
X310512Y102874D01*
X312080Y101306D01*
X312080Y99739D01*
X310512Y98171D01*
X307376Y98171D01*
X305809Y99739D01*
X315164Y107577D02*
X321435Y107577D01*
X315164Y107577D02*
X315164Y98171D01*
X321435Y98171D01*
X318299Y102874D02*
X315164Y102874D01*
X324519Y107577D02*
X324519Y98171D01*
X330790Y98171D01*
X333874Y99739D02*
X333874Y106009D01*
X335442Y107577D01*
X338577Y107577D01*
X340145Y106009D01*
X340145Y99739D01*
X338577Y98171D01*
X335442Y98171D01*
X333874Y99739D01*
X340145Y106009D01*
X343230Y106009D02*
X344797Y107577D01*
X347933Y107577D01*
X349500Y106009D01*
X349500Y104442D01*
X347933Y102874D01*
X346365Y102874D01*
X347933Y102874D02*
X349500Y101306D01*
X349500Y99739D01*
X347933Y98171D01*
X344797Y98171D01*
X343230Y99739D01*
X361940Y98171D02*
X361940Y107577D01*
X361940Y98171D02*
X366643Y98171D01*
X368211Y99739D01*
X368211Y106009D01*
X366643Y107577D01*
X361940Y107577D01*
X371295Y106009D02*
X371295Y99739D01*
X371295Y106009D02*
X372863Y107577D01*
X375998Y107577D01*
X377566Y106009D01*
X377566Y99739D01*
X375998Y98171D01*
X372863Y98171D01*
X371295Y99739D01*
X377566Y106009D01*
X390006Y107577D02*
X390006Y98171D01*
X394709Y98171D01*
X396276Y99739D01*
X396276Y106009D01*
X394709Y107577D01*
X390006Y107577D01*
X399361Y98171D02*
X405631Y98171D01*
X399361Y98171D02*
X405631Y104442D01*
X405631Y106009D01*
X404064Y107577D01*
X400928Y107577D01*
X399361Y106009D01*
X418071Y107577D02*
X418071Y98171D01*
X422774Y98171D01*
X424342Y99739D01*
X424342Y106009D01*
X422774Y107577D01*
X418071Y107577D01*
X432129Y107577D02*
X432129Y98171D01*
X427426Y102874D02*
X432129Y107577D01*
X433697Y102874D02*
X427426Y102874D01*
X446137Y107577D02*
X446137Y98171D01*
X450840Y98171D01*
X452407Y99739D01*
X452407Y106009D01*
X450840Y107577D01*
X446137Y107577D01*
X458627Y106009D02*
X461763Y107577D01*
X458627Y106009D02*
X455492Y102874D01*
X455492Y99739D01*
X457059Y98171D01*
X460195Y98171D01*
X461763Y99739D01*
X461763Y101306D01*
X460195Y102874D01*
X455492Y102874D01*
X474202Y104442D02*
X474202Y98171D01*
X474202Y104442D02*
X477338Y107577D01*
X480473Y104442D01*
X480473Y98171D01*
X480473Y102874D02*
X474202Y102874D01*
X483557Y104442D02*
X486693Y107577D01*
X486693Y98171D01*
X489828Y98171D02*
X483557Y98171D01*
X171752Y90769D02*
X170184Y92337D01*
X167049Y92337D01*
X165481Y90769D01*
X165481Y84499D01*
X167049Y82931D01*
X170184Y82931D01*
X171752Y84499D01*
X171752Y87634D01*
X168616Y87634D01*
X174836Y82931D02*
X174836Y92337D01*
X181107Y82931D01*
X181107Y92337D01*
X184191Y92337D02*
X184191Y82931D01*
X188894Y82931D01*
X190462Y84499D01*
X190462Y90769D01*
X188894Y92337D01*
X184191Y92337D01*
X202902Y92337D02*
X202902Y86066D01*
X206037Y82931D01*
X209172Y86066D01*
X209172Y92337D01*
X216960Y92337D02*
X218528Y90769D01*
X216960Y92337D02*
X213825Y92337D01*
X212257Y90769D01*
X212257Y84499D01*
X213825Y82931D01*
X216960Y82931D01*
X218528Y84499D01*
X226315Y92337D02*
X227883Y90769D01*
X226315Y92337D02*
X223180Y92337D01*
X221612Y90769D01*
X221612Y84499D01*
X223180Y82931D01*
X226315Y82931D01*
X227883Y84499D01*
X240323Y82931D02*
X240323Y92337D01*
X245026Y92337D01*
X246593Y90769D01*
X246593Y87634D01*
X245026Y86066D01*
X240323Y86066D01*
X243458Y86066D02*
X246593Y82931D01*
X249678Y92337D02*
X255948Y92337D01*
X249678Y92337D02*
X249678Y82931D01*
X255948Y82931D01*
X252813Y87634D02*
X249678Y87634D01*
X263736Y92337D02*
X265304Y90769D01*
X263736Y92337D02*
X260601Y92337D01*
X259033Y90769D01*
X259033Y89202D01*
X260601Y87634D01*
X263736Y87634D01*
X265304Y86066D01*
X265304Y84499D01*
X263736Y82931D01*
X260601Y82931D01*
X259033Y84499D01*
X268388Y92337D02*
X274659Y92337D01*
X268388Y92337D02*
X268388Y82931D01*
X274659Y82931D01*
X271523Y87634D02*
X268388Y87634D01*
X280879Y82931D02*
X280879Y92337D01*
X284014Y92337D02*
X277743Y92337D01*
X296454Y92337D02*
X296454Y82931D01*
X299589Y86066D01*
X302724Y82931D01*
X302724Y92337D01*
X305809Y92337D02*
X305809Y82931D01*
X305809Y92337D02*
X310512Y92337D01*
X312080Y90769D01*
X312080Y87634D01*
X310512Y86066D01*
X305809Y86066D01*
X308944Y86066D02*
X312080Y82931D01*
X324519Y82931D02*
X324519Y89202D01*
X327655Y92337D01*
X330790Y89202D01*
X330790Y82931D01*
X330790Y87634D02*
X324519Y87634D01*
X333874Y84499D02*
X333874Y90769D01*
X335442Y92337D01*
X338577Y92337D01*
X340145Y90769D01*
X340145Y84499D01*
X338577Y82931D01*
X335442Y82931D01*
X333874Y84499D01*
X340145Y90769D01*
X352585Y92337D02*
X352585Y82931D01*
X357288Y82931D01*
X358855Y84499D01*
X358855Y90769D01*
X357288Y92337D01*
X352585Y92337D01*
X361940Y89202D02*
X365075Y92337D01*
X365075Y82931D01*
X361940Y82931D02*
X368211Y82931D01*
X380650Y82931D02*
X380650Y92337D01*
X380650Y82931D02*
X385353Y82931D01*
X386921Y84499D01*
X386921Y90769D01*
X385353Y92337D01*
X380650Y92337D01*
X390006Y90769D02*
X391573Y92337D01*
X394709Y92337D01*
X396276Y90769D01*
X396276Y89202D01*
X394709Y87634D01*
X393141Y87634D01*
X394709Y87634D02*
X396276Y86066D01*
X396276Y84499D01*
X394709Y82931D01*
X391573Y82931D01*
X390006Y84499D01*
X408716Y82931D02*
X408716Y92337D01*
X408716Y82931D02*
X413419Y82931D01*
X414987Y84499D01*
X414987Y90769D01*
X413419Y92337D01*
X408716Y92337D01*
X418071Y92337D02*
X424342Y92337D01*
X418071Y92337D02*
X418071Y87634D01*
X421206Y89202D01*
X422774Y89202D01*
X424342Y87634D01*
X424342Y84499D01*
X422774Y82931D01*
X419639Y82931D01*
X418071Y84499D01*
X436781Y82931D02*
X436781Y92337D01*
X436781Y82931D02*
X441484Y82931D01*
X443052Y84499D01*
X443052Y90769D01*
X441484Y92337D01*
X436781Y92337D01*
X446137Y92337D02*
X452407Y92337D01*
X452407Y90769D01*
X446137Y84499D01*
X446137Y82931D01*
X902073Y192528D02*
X908344Y192528D01*
X911479Y195663D01*
X908344Y198798D01*
X902073Y198798D01*
X902073Y206586D02*
X903641Y208154D01*
X902073Y206586D02*
X902073Y203451D01*
X903641Y201883D01*
X909911Y201883D01*
X911479Y203451D01*
X911479Y206586D01*
X909911Y208154D01*
X902073Y215941D02*
X903641Y217509D01*
X902073Y215941D02*
X902073Y212806D01*
X903641Y211238D01*
X909911Y211238D01*
X911479Y212806D01*
X911479Y215941D01*
X909911Y217509D01*
X911479Y239304D02*
X902073Y239304D01*
X911479Y239304D02*
X911479Y244007D01*
X909911Y245574D01*
X903641Y245574D01*
X902073Y244007D01*
X902073Y239304D01*
X902073Y251794D02*
X911479Y251794D01*
X902073Y248659D02*
X902073Y254930D01*
X902073Y258014D02*
X911479Y258014D01*
X902073Y258014D02*
X902073Y262717D01*
X903641Y264285D01*
X906776Y264285D01*
X908344Y262717D01*
X908344Y258014D01*
X908344Y261149D02*
X911479Y264285D01*
X911479Y267369D02*
X902073Y267369D01*
X902073Y272072D01*
X903641Y273640D01*
X905208Y273640D01*
X906776Y272072D01*
X908344Y273640D01*
X909911Y273640D01*
X911479Y272072D01*
X911479Y267369D01*
X906776Y267369D02*
X906776Y272072D01*
X911479Y286080D02*
X902073Y286080D01*
X902073Y290783D01*
X903641Y292350D01*
X906776Y292350D01*
X908344Y290783D01*
X908344Y286080D01*
X908344Y289215D02*
X911479Y292350D01*
X911479Y298570D02*
X902073Y298570D01*
X902073Y295435D02*
X902073Y301705D01*
X902073Y309493D02*
X903641Y311061D01*
X902073Y309493D02*
X902073Y306358D01*
X903641Y304790D01*
X905208Y304790D01*
X906776Y306358D01*
X906776Y309493D01*
X908344Y311061D01*
X909911Y311061D01*
X911479Y309493D01*
X911479Y306358D01*
X909911Y304790D01*
X911479Y314145D02*
X902073Y314145D01*
X902073Y318848D01*
X903641Y320416D01*
X905208Y320416D01*
X906776Y318848D01*
X908344Y320416D01*
X909911Y320416D01*
X911479Y318848D01*
X911479Y314145D01*
X906776Y314145D02*
X906776Y318848D01*
X911479Y332856D02*
X902073Y332856D01*
X902073Y337559D01*
X903641Y339126D01*
X906776Y339126D01*
X908344Y337559D01*
X908344Y332856D01*
X908344Y335991D02*
X911479Y339126D01*
X911479Y348481D02*
X902073Y342211D01*
X902073Y348481D02*
X911479Y342211D01*
X911479Y351566D02*
X902073Y351566D01*
X911479Y351566D02*
X911479Y356269D01*
X909911Y357837D01*
X903641Y357837D01*
X902073Y356269D01*
X902073Y351566D01*
X902073Y360921D02*
X911479Y360921D01*
X902073Y360921D02*
X902073Y365624D01*
X903641Y367192D01*
X905208Y367192D01*
X906776Y365624D01*
X908344Y367192D01*
X909911Y367192D01*
X911479Y365624D01*
X911479Y360921D01*
X906776Y360921D02*
X906776Y365624D01*
X918881Y114602D02*
X917313Y113034D01*
X917313Y109899D01*
X918881Y108331D01*
X925151Y108331D01*
X926719Y109899D01*
X926719Y113034D01*
X925151Y114602D01*
X922016Y114602D01*
X922016Y111466D01*
X926719Y117686D02*
X917313Y117686D01*
X926719Y123957D01*
X917313Y123957D01*
X917313Y127041D02*
X926719Y127041D01*
X926719Y131744D01*
X925151Y133312D01*
X918881Y133312D01*
X917313Y131744D01*
X917313Y127041D01*
X917313Y145752D02*
X926719Y145752D01*
X917313Y145752D02*
X917313Y150455D01*
X918881Y152022D01*
X922016Y152022D01*
X923584Y150455D01*
X923584Y145752D01*
X923584Y148887D02*
X926719Y152022D01*
X926719Y161378D02*
X917313Y155107D01*
X917313Y161378D02*
X926719Y155107D01*
X917313Y169165D02*
X918881Y170733D01*
X917313Y169165D02*
X917313Y166030D01*
X918881Y164462D01*
X925151Y164462D01*
X926719Y166030D01*
X926719Y169165D01*
X925151Y170733D01*
X926719Y173817D02*
X917313Y173817D01*
X917313Y178520D01*
X918881Y180088D01*
X920448Y180088D01*
X922016Y178520D01*
X923584Y180088D01*
X925151Y180088D01*
X926719Y178520D01*
X926719Y173817D01*
X922016Y173817D02*
X922016Y178520D01*
X917313Y192528D02*
X926719Y192528D01*
X926719Y197231D01*
X925151Y198798D01*
X918881Y198798D01*
X917313Y197231D01*
X917313Y192528D01*
X917313Y206586D02*
X918881Y208154D01*
X917313Y206586D02*
X917313Y203451D01*
X918881Y201883D01*
X925151Y201883D01*
X926719Y203451D01*
X926719Y206586D01*
X925151Y208154D01*
X926719Y211238D02*
X917313Y211238D01*
X926719Y211238D02*
X926719Y215941D01*
X925151Y217509D01*
X918881Y217509D01*
X917313Y215941D01*
X917313Y211238D01*
X917313Y220593D02*
X926719Y220593D01*
X917313Y220593D02*
X917313Y225296D01*
X918881Y226864D01*
X920448Y226864D01*
X922016Y225296D01*
X923584Y226864D01*
X925151Y226864D01*
X926719Y225296D01*
X926719Y220593D01*
X922016Y220593D02*
X922016Y225296D01*
X917313Y244007D02*
X918881Y245574D01*
X917313Y244007D02*
X917313Y240871D01*
X918881Y239304D01*
X925151Y239304D01*
X926719Y240871D01*
X926719Y244007D01*
X925151Y245574D01*
X926719Y251794D02*
X917313Y251794D01*
X917313Y248659D02*
X917313Y254930D01*
X917313Y262717D02*
X918881Y264285D01*
X917313Y262717D02*
X917313Y259582D01*
X918881Y258014D01*
X920448Y258014D01*
X922016Y259582D01*
X922016Y262717D01*
X923584Y264285D01*
X925151Y264285D01*
X926719Y262717D01*
X926719Y259582D01*
X925151Y258014D01*
X926719Y267369D02*
X917313Y267369D01*
X917313Y272072D01*
X918881Y273640D01*
X920448Y273640D01*
X922016Y272072D01*
X923584Y273640D01*
X925151Y273640D01*
X926719Y272072D01*
X926719Y267369D01*
X922016Y267369D02*
X922016Y272072D01*
X926719Y289215D02*
X917313Y289215D01*
X917313Y286080D02*
X917313Y292350D01*
X917313Y295435D02*
X926719Y301705D01*
X926719Y295435D02*
X917313Y301705D01*
X917313Y304790D02*
X926719Y304790D01*
X926719Y309493D01*
X925151Y311061D01*
X918881Y311061D01*
X917313Y309493D01*
X917313Y304790D01*
X920448Y314145D02*
X926719Y314145D01*
X920448Y314145D02*
X917313Y317280D01*
X920448Y320416D01*
X926719Y320416D01*
X922016Y320416D02*
X922016Y314145D01*
X101894Y148078D02*
X95623Y148078D01*
X101894Y148078D02*
X105029Y151213D01*
X101894Y154348D01*
X95623Y154348D01*
X95623Y162136D02*
X97191Y163704D01*
X95623Y162136D02*
X95623Y159001D01*
X97191Y157433D01*
X103461Y157433D01*
X105029Y159001D01*
X105029Y162136D01*
X103461Y163704D01*
X95623Y171491D02*
X97191Y173059D01*
X95623Y171491D02*
X95623Y168356D01*
X97191Y166788D01*
X103461Y166788D01*
X105029Y168356D01*
X105029Y171491D01*
X103461Y173059D01*
X105029Y194854D02*
X95623Y194854D01*
X105029Y194854D02*
X105029Y199557D01*
X103461Y201124D01*
X97191Y201124D01*
X95623Y199557D01*
X95623Y194854D01*
X95623Y207344D02*
X105029Y207344D01*
X95623Y204209D02*
X95623Y210480D01*
X95623Y213564D02*
X105029Y213564D01*
X95623Y213564D02*
X95623Y218267D01*
X97191Y219835D01*
X100326Y219835D01*
X101894Y218267D01*
X101894Y213564D01*
X101894Y216699D02*
X105029Y219835D01*
X105029Y222919D02*
X98758Y222919D01*
X95623Y226055D01*
X98758Y229190D01*
X105029Y229190D01*
X100326Y229190D02*
X100326Y222919D01*
X105029Y241630D02*
X95623Y241630D01*
X95623Y246333D01*
X97191Y247900D01*
X100326Y247900D01*
X101894Y246333D01*
X101894Y241630D01*
X101894Y244765D02*
X105029Y247900D01*
X105029Y254120D02*
X95623Y254120D01*
X95623Y250985D02*
X95623Y257255D01*
X95623Y265043D02*
X97191Y266611D01*
X95623Y265043D02*
X95623Y261908D01*
X97191Y260340D01*
X98758Y260340D01*
X100326Y261908D01*
X100326Y265043D01*
X101894Y266611D01*
X103461Y266611D01*
X105029Y265043D01*
X105029Y261908D01*
X103461Y260340D01*
X105029Y269695D02*
X98758Y269695D01*
X95623Y272830D01*
X98758Y275966D01*
X105029Y275966D01*
X100326Y275966D02*
X100326Y269695D01*
X105029Y288406D02*
X95623Y288406D01*
X95623Y293109D01*
X97191Y294676D01*
X100326Y294676D01*
X101894Y293109D01*
X101894Y288406D01*
X101894Y291541D02*
X105029Y294676D01*
X105029Y304031D02*
X95623Y297761D01*
X95623Y304031D02*
X105029Y297761D01*
X105029Y307116D02*
X95623Y307116D01*
X105029Y307116D02*
X105029Y311819D01*
X103461Y313387D01*
X97191Y313387D01*
X95623Y311819D01*
X95623Y307116D01*
X98758Y316471D02*
X105029Y316471D01*
X98758Y316471D02*
X95623Y319606D01*
X98758Y322742D01*
X105029Y322742D01*
X100326Y322742D02*
X100326Y316471D01*
X112431Y70152D02*
X110863Y68584D01*
X110863Y65449D01*
X112431Y63881D01*
X118701Y63881D01*
X120269Y65449D01*
X120269Y68584D01*
X118701Y70152D01*
X115566Y70152D01*
X115566Y67016D01*
X120269Y73236D02*
X110863Y73236D01*
X120269Y79507D01*
X110863Y79507D01*
X110863Y82591D02*
X120269Y82591D01*
X120269Y87294D01*
X118701Y88862D01*
X112431Y88862D01*
X110863Y87294D01*
X110863Y82591D01*
X110863Y101302D02*
X120269Y101302D01*
X110863Y101302D02*
X110863Y106005D01*
X112431Y107572D01*
X115566Y107572D01*
X117134Y106005D01*
X117134Y101302D01*
X117134Y104437D02*
X120269Y107572D01*
X120269Y116928D02*
X110863Y110657D01*
X110863Y116928D02*
X120269Y110657D01*
X110863Y124715D02*
X112431Y126283D01*
X110863Y124715D02*
X110863Y121580D01*
X112431Y120012D01*
X118701Y120012D01*
X120269Y121580D01*
X120269Y124715D01*
X118701Y126283D01*
X120269Y129367D02*
X113998Y129367D01*
X110863Y132503D01*
X113998Y135638D01*
X120269Y135638D01*
X115566Y135638D02*
X115566Y129367D01*
X110863Y148078D02*
X120269Y148078D01*
X120269Y152781D01*
X118701Y154348D01*
X112431Y154348D01*
X110863Y152781D01*
X110863Y148078D01*
X110863Y162136D02*
X112431Y163704D01*
X110863Y162136D02*
X110863Y159001D01*
X112431Y157433D01*
X118701Y157433D01*
X120269Y159001D01*
X120269Y162136D01*
X118701Y163704D01*
X120269Y166788D02*
X110863Y166788D01*
X120269Y166788D02*
X120269Y171491D01*
X118701Y173059D01*
X112431Y173059D01*
X110863Y171491D01*
X110863Y166788D01*
X113998Y176143D02*
X120269Y176143D01*
X113998Y176143D02*
X110863Y179279D01*
X113998Y182414D01*
X120269Y182414D01*
X115566Y182414D02*
X115566Y176143D01*
X110863Y199557D02*
X112431Y201124D01*
X110863Y199557D02*
X110863Y196421D01*
X112431Y194854D01*
X118701Y194854D01*
X120269Y196421D01*
X120269Y199557D01*
X118701Y201124D01*
X120269Y207344D02*
X110863Y207344D01*
X110863Y204209D02*
X110863Y210480D01*
X110863Y218267D02*
X112431Y219835D01*
X110863Y218267D02*
X110863Y215132D01*
X112431Y213564D01*
X113998Y213564D01*
X115566Y215132D01*
X115566Y218267D01*
X117134Y219835D01*
X118701Y219835D01*
X120269Y218267D01*
X120269Y215132D01*
X118701Y213564D01*
X120269Y222919D02*
X113998Y222919D01*
X110863Y226055D01*
X113998Y229190D01*
X120269Y229190D01*
X115566Y229190D02*
X115566Y222919D01*
X120269Y244765D02*
X110863Y244765D01*
X110863Y241630D02*
X110863Y247900D01*
X110863Y250985D02*
X120269Y257255D01*
X120269Y250985D02*
X110863Y257255D01*
X110863Y260340D02*
X120269Y260340D01*
X120269Y265043D01*
X118701Y266611D01*
X112431Y266611D01*
X110863Y265043D01*
X110863Y260340D01*
X113998Y269695D02*
X120269Y269695D01*
X113998Y269695D02*
X110863Y272830D01*
X113998Y275966D01*
X120269Y275966D01*
X115566Y275966D02*
X115566Y269695D01*
D10*
X74930Y787400D02*
X26670Y787400D01*
X74930Y787400D02*
X75088Y787398D01*
X75247Y787392D01*
X75405Y787382D01*
X75562Y787368D01*
X75720Y787351D01*
X75876Y787329D01*
X76033Y787304D01*
X76188Y787274D01*
X76343Y787241D01*
X76497Y787204D01*
X76650Y787163D01*
X76802Y787118D01*
X76952Y787069D01*
X77102Y787017D01*
X77250Y786961D01*
X77397Y786901D01*
X77542Y786838D01*
X77685Y786771D01*
X77827Y786701D01*
X77967Y786627D01*
X78105Y786549D01*
X78241Y786468D01*
X78375Y786384D01*
X78507Y786297D01*
X78637Y786206D01*
X78764Y786112D01*
X78889Y786015D01*
X79012Y785914D01*
X79132Y785811D01*
X79249Y785705D01*
X79364Y785596D01*
X79476Y785484D01*
X79585Y785369D01*
X79691Y785252D01*
X79794Y785132D01*
X79895Y785009D01*
X79992Y784884D01*
X80086Y784757D01*
X80177Y784627D01*
X80264Y784495D01*
X80348Y784361D01*
X80429Y784225D01*
X80507Y784087D01*
X80581Y783947D01*
X80651Y783805D01*
X80718Y783662D01*
X80781Y783517D01*
X80841Y783370D01*
X80897Y783222D01*
X80949Y783072D01*
X80998Y782922D01*
X81043Y782770D01*
X81084Y782617D01*
X81121Y782463D01*
X81154Y782308D01*
X81184Y782153D01*
X81209Y781996D01*
X81231Y781840D01*
X81248Y781682D01*
X81262Y781525D01*
X81272Y781367D01*
X81278Y781208D01*
X81280Y781050D01*
X26670Y787400D02*
X26512Y787398D01*
X26353Y787392D01*
X26195Y787382D01*
X26038Y787368D01*
X25880Y787351D01*
X25724Y787329D01*
X25567Y787304D01*
X25412Y787274D01*
X25257Y787241D01*
X25103Y787204D01*
X24950Y787163D01*
X24798Y787118D01*
X24648Y787069D01*
X24498Y787017D01*
X24350Y786961D01*
X24203Y786901D01*
X24058Y786838D01*
X23915Y786771D01*
X23773Y786701D01*
X23633Y786627D01*
X23495Y786549D01*
X23359Y786468D01*
X23225Y786384D01*
X23093Y786297D01*
X22963Y786206D01*
X22836Y786112D01*
X22711Y786015D01*
X22588Y785914D01*
X22468Y785811D01*
X22351Y785705D01*
X22236Y785596D01*
X22124Y785484D01*
X22015Y785369D01*
X21909Y785252D01*
X21806Y785132D01*
X21705Y785009D01*
X21608Y784884D01*
X21514Y784757D01*
X21423Y784627D01*
X21336Y784495D01*
X21252Y784361D01*
X21171Y784225D01*
X21093Y784087D01*
X21019Y783947D01*
X20949Y783805D01*
X20882Y783662D01*
X20819Y783517D01*
X20759Y783370D01*
X20703Y783222D01*
X20651Y783072D01*
X20602Y782922D01*
X20557Y782770D01*
X20516Y782617D01*
X20479Y782463D01*
X20446Y782308D01*
X20416Y782153D01*
X20391Y781996D01*
X20369Y781840D01*
X20352Y781682D01*
X20338Y781525D01*
X20328Y781367D01*
X20322Y781208D01*
X20320Y781050D01*
X81280Y781050D02*
X81280Y285750D01*
X74930Y279400D02*
X26670Y279400D01*
X20320Y285750D02*
X20320Y781050D01*
X81280Y285750D02*
X81278Y285592D01*
X81272Y285433D01*
X81262Y285275D01*
X81248Y285118D01*
X81231Y284960D01*
X81209Y284804D01*
X81184Y284647D01*
X81154Y284492D01*
X81121Y284337D01*
X81084Y284183D01*
X81043Y284030D01*
X80998Y283878D01*
X80949Y283728D01*
X80897Y283578D01*
X80841Y283430D01*
X80781Y283283D01*
X80718Y283138D01*
X80651Y282995D01*
X80581Y282853D01*
X80507Y282713D01*
X80429Y282575D01*
X80348Y282439D01*
X80264Y282305D01*
X80177Y282173D01*
X80086Y282043D01*
X79992Y281916D01*
X79895Y281791D01*
X79794Y281668D01*
X79691Y281548D01*
X79585Y281431D01*
X79476Y281316D01*
X79364Y281204D01*
X79249Y281095D01*
X79132Y280989D01*
X79012Y280886D01*
X78889Y280785D01*
X78764Y280688D01*
X78637Y280594D01*
X78507Y280503D01*
X78375Y280416D01*
X78241Y280332D01*
X78105Y280251D01*
X77967Y280173D01*
X77827Y280099D01*
X77685Y280029D01*
X77542Y279962D01*
X77397Y279899D01*
X77250Y279839D01*
X77102Y279783D01*
X76952Y279731D01*
X76802Y279682D01*
X76650Y279637D01*
X76497Y279596D01*
X76343Y279559D01*
X76188Y279526D01*
X76033Y279496D01*
X75876Y279471D01*
X75720Y279449D01*
X75562Y279432D01*
X75405Y279418D01*
X75247Y279408D01*
X75088Y279402D01*
X74930Y279400D01*
X26670Y279400D02*
X26512Y279402D01*
X26353Y279408D01*
X26195Y279418D01*
X26038Y279432D01*
X25880Y279449D01*
X25724Y279471D01*
X25567Y279496D01*
X25412Y279526D01*
X25257Y279559D01*
X25103Y279596D01*
X24950Y279637D01*
X24798Y279682D01*
X24648Y279731D01*
X24498Y279783D01*
X24350Y279839D01*
X24203Y279899D01*
X24058Y279962D01*
X23915Y280029D01*
X23773Y280099D01*
X23633Y280173D01*
X23495Y280251D01*
X23359Y280332D01*
X23225Y280416D01*
X23093Y280503D01*
X22963Y280594D01*
X22836Y280688D01*
X22711Y280785D01*
X22588Y280886D01*
X22468Y280989D01*
X22351Y281095D01*
X22236Y281204D01*
X22124Y281316D01*
X22015Y281431D01*
X21909Y281548D01*
X21806Y281668D01*
X21705Y281791D01*
X21608Y281916D01*
X21514Y282043D01*
X21423Y282173D01*
X21336Y282305D01*
X21252Y282439D01*
X21171Y282575D01*
X21093Y282713D01*
X21019Y282853D01*
X20949Y282995D01*
X20882Y283138D01*
X20819Y283283D01*
X20759Y283430D01*
X20703Y283578D01*
X20651Y283728D01*
X20602Y283878D01*
X20557Y284030D01*
X20516Y284183D01*
X20479Y284337D01*
X20446Y284492D01*
X20416Y284647D01*
X20391Y284804D01*
X20369Y284960D01*
X20352Y285118D01*
X20338Y285275D01*
X20328Y285433D01*
X20322Y285592D01*
X20320Y285750D01*
D12*
X89529Y767451D02*
X85715Y771264D01*
X97155Y771264D01*
X97155Y767451D02*
X97155Y775078D01*
X15875Y283957D02*
X4435Y283957D01*
X10155Y278237D01*
X10155Y285864D01*
X13968Y289931D02*
X6342Y289931D01*
X4435Y291838D01*
X4435Y295651D01*
X6342Y297558D01*
X13968Y297558D01*
X15875Y295651D01*
X15875Y291838D01*
X13968Y289931D01*
X6342Y297558D01*
X85715Y707873D02*
X87622Y709780D01*
X85715Y707873D02*
X85715Y704060D01*
X87622Y702153D01*
X89529Y702153D01*
X91435Y704060D01*
X91435Y707873D01*
X93342Y709780D01*
X95248Y709780D01*
X97155Y707873D01*
X97155Y704060D01*
X95248Y702153D01*
X93342Y713847D02*
X85715Y713847D01*
X93342Y713847D02*
X97155Y717660D01*
X93342Y721474D01*
X85715Y721474D01*
X89529Y725541D02*
X85715Y729354D01*
X97155Y729354D01*
X97155Y725541D02*
X97155Y733167D01*
D10*
X941070Y787400D02*
X989330Y787400D01*
X989488Y787398D01*
X989647Y787392D01*
X989805Y787382D01*
X989962Y787368D01*
X990120Y787351D01*
X990276Y787329D01*
X990433Y787304D01*
X990588Y787274D01*
X990743Y787241D01*
X990897Y787204D01*
X991050Y787163D01*
X991202Y787118D01*
X991352Y787069D01*
X991502Y787017D01*
X991650Y786961D01*
X991797Y786901D01*
X991942Y786838D01*
X992085Y786771D01*
X992227Y786701D01*
X992367Y786627D01*
X992505Y786549D01*
X992641Y786468D01*
X992775Y786384D01*
X992907Y786297D01*
X993037Y786206D01*
X993164Y786112D01*
X993289Y786015D01*
X993412Y785914D01*
X993532Y785811D01*
X993649Y785705D01*
X993764Y785596D01*
X993876Y785484D01*
X993985Y785369D01*
X994091Y785252D01*
X994194Y785132D01*
X994295Y785009D01*
X994392Y784884D01*
X994486Y784757D01*
X994577Y784627D01*
X994664Y784495D01*
X994748Y784361D01*
X994829Y784225D01*
X994907Y784087D01*
X994981Y783947D01*
X995051Y783805D01*
X995118Y783662D01*
X995181Y783517D01*
X995241Y783370D01*
X995297Y783222D01*
X995349Y783072D01*
X995398Y782922D01*
X995443Y782770D01*
X995484Y782617D01*
X995521Y782463D01*
X995554Y782308D01*
X995584Y782153D01*
X995609Y781996D01*
X995631Y781840D01*
X995648Y781682D01*
X995662Y781525D01*
X995672Y781367D01*
X995678Y781208D01*
X995680Y781050D01*
X941070Y787400D02*
X940912Y787398D01*
X940753Y787392D01*
X940595Y787382D01*
X940438Y787368D01*
X940280Y787351D01*
X940124Y787329D01*
X939967Y787304D01*
X939812Y787274D01*
X939657Y787241D01*
X939503Y787204D01*
X939350Y787163D01*
X939198Y787118D01*
X939048Y787069D01*
X938898Y787017D01*
X938750Y786961D01*
X938603Y786901D01*
X938458Y786838D01*
X938315Y786771D01*
X938173Y786701D01*
X938033Y786627D01*
X937895Y786549D01*
X937759Y786468D01*
X937625Y786384D01*
X937493Y786297D01*
X937363Y786206D01*
X937236Y786112D01*
X937111Y786015D01*
X936988Y785914D01*
X936868Y785811D01*
X936751Y785705D01*
X936636Y785596D01*
X936524Y785484D01*
X936415Y785369D01*
X936309Y785252D01*
X936206Y785132D01*
X936105Y785009D01*
X936008Y784884D01*
X935914Y784757D01*
X935823Y784627D01*
X935736Y784495D01*
X935652Y784361D01*
X935571Y784225D01*
X935493Y784087D01*
X935419Y783947D01*
X935349Y783805D01*
X935282Y783662D01*
X935219Y783517D01*
X935159Y783370D01*
X935103Y783222D01*
X935051Y783072D01*
X935002Y782922D01*
X934957Y782770D01*
X934916Y782617D01*
X934879Y782463D01*
X934846Y782308D01*
X934816Y782153D01*
X934791Y781996D01*
X934769Y781840D01*
X934752Y781682D01*
X934738Y781525D01*
X934728Y781367D01*
X934722Y781208D01*
X934720Y781050D01*
X995680Y781050D02*
X995680Y285750D01*
X989330Y279400D02*
X941070Y279400D01*
X934720Y285750D02*
X934720Y781050D01*
X995680Y285750D02*
X995678Y285592D01*
X995672Y285433D01*
X995662Y285275D01*
X995648Y285118D01*
X995631Y284960D01*
X995609Y284804D01*
X995584Y284647D01*
X995554Y284492D01*
X995521Y284337D01*
X995484Y284183D01*
X995443Y284030D01*
X995398Y283878D01*
X995349Y283728D01*
X995297Y283578D01*
X995241Y283430D01*
X995181Y283283D01*
X995118Y283138D01*
X995051Y282995D01*
X994981Y282853D01*
X994907Y282713D01*
X994829Y282575D01*
X994748Y282439D01*
X994664Y282305D01*
X994577Y282173D01*
X994486Y282043D01*
X994392Y281916D01*
X994295Y281791D01*
X994194Y281668D01*
X994091Y281548D01*
X993985Y281431D01*
X993876Y281316D01*
X993764Y281204D01*
X993649Y281095D01*
X993532Y280989D01*
X993412Y280886D01*
X993289Y280785D01*
X993164Y280688D01*
X993037Y280594D01*
X992907Y280503D01*
X992775Y280416D01*
X992641Y280332D01*
X992505Y280251D01*
X992367Y280173D01*
X992227Y280099D01*
X992085Y280029D01*
X991942Y279962D01*
X991797Y279899D01*
X991650Y279839D01*
X991502Y279783D01*
X991352Y279731D01*
X991202Y279682D01*
X991050Y279637D01*
X990897Y279596D01*
X990743Y279559D01*
X990588Y279526D01*
X990433Y279496D01*
X990276Y279471D01*
X990120Y279449D01*
X989962Y279432D01*
X989805Y279418D01*
X989647Y279408D01*
X989488Y279402D01*
X989330Y279400D01*
X941070Y279400D02*
X940912Y279402D01*
X940753Y279408D01*
X940595Y279418D01*
X940438Y279432D01*
X940280Y279449D01*
X940124Y279471D01*
X939967Y279496D01*
X939812Y279526D01*
X939657Y279559D01*
X939503Y279596D01*
X939350Y279637D01*
X939198Y279682D01*
X939048Y279731D01*
X938898Y279783D01*
X938750Y279839D01*
X938603Y279899D01*
X938458Y279962D01*
X938315Y280029D01*
X938173Y280099D01*
X938033Y280173D01*
X937895Y280251D01*
X937759Y280332D01*
X937625Y280416D01*
X937493Y280503D01*
X937363Y280594D01*
X937236Y280688D01*
X937111Y280785D01*
X936988Y280886D01*
X936868Y280989D01*
X936751Y281095D01*
X936636Y281204D01*
X936524Y281316D01*
X936415Y281431D01*
X936309Y281548D01*
X936206Y281668D01*
X936105Y281791D01*
X936008Y281916D01*
X935914Y282043D01*
X935823Y282173D01*
X935736Y282305D01*
X935652Y282439D01*
X935571Y282575D01*
X935493Y282713D01*
X935419Y282853D01*
X935349Y282995D01*
X935282Y283138D01*
X935219Y283283D01*
X935159Y283430D01*
X935103Y283578D01*
X935051Y283728D01*
X935002Y283878D01*
X934957Y284030D01*
X934916Y284183D01*
X934879Y284337D01*
X934846Y284492D01*
X934816Y284647D01*
X934791Y284804D01*
X934769Y284960D01*
X934752Y285118D01*
X934738Y285275D01*
X934728Y285433D01*
X934722Y285592D01*
X934720Y285750D01*
D12*
X1003929Y767451D02*
X1000115Y771264D01*
X1011555Y771264D01*
X1011555Y767451D02*
X1011555Y775078D01*
X930275Y283957D02*
X918835Y283957D01*
X924555Y278237D01*
X924555Y285864D01*
X928368Y289931D02*
X920742Y289931D01*
X918835Y291838D01*
X918835Y295651D01*
X920742Y297558D01*
X928368Y297558D01*
X930275Y295651D01*
X930275Y291838D01*
X928368Y289931D01*
X920742Y297558D01*
X1000115Y707873D02*
X1002022Y709780D01*
X1000115Y707873D02*
X1000115Y704060D01*
X1002022Y702153D01*
X1003929Y702153D01*
X1005835Y704060D01*
X1005835Y707873D01*
X1007742Y709780D01*
X1009648Y709780D01*
X1011555Y707873D01*
X1011555Y704060D01*
X1009648Y702153D01*
X1007742Y713847D02*
X1000115Y713847D01*
X1007742Y713847D02*
X1011555Y717660D01*
X1007742Y721474D01*
X1000115Y721474D01*
X1002022Y725541D02*
X1000115Y727448D01*
X1000115Y731261D01*
X1002022Y733167D01*
X1003929Y733167D01*
X1005835Y731261D01*
X1005835Y729354D01*
X1005835Y731261D02*
X1007742Y733167D01*
X1009648Y733167D01*
X1011555Y731261D01*
X1011555Y727448D01*
X1009648Y725541D01*
D13*
X193548Y781050D02*
X193548Y787400D01*
X193548Y793750D01*
D10*
X193548Y787400D02*
X205740Y787400D01*
D13*
X187198Y787400D02*
X187198Y781050D01*
X187198Y787400D02*
X187198Y793750D01*
D10*
X187198Y787400D02*
X175260Y787400D01*
X227330Y774700D02*
X227330Y800100D01*
X224790Y802640D02*
X156210Y802640D01*
X153670Y800100D02*
X153670Y774700D01*
X156210Y772160D02*
X224790Y772160D01*
X156210Y772160D02*
X156110Y772162D01*
X156011Y772168D01*
X155911Y772178D01*
X155813Y772191D01*
X155714Y772209D01*
X155617Y772230D01*
X155521Y772255D01*
X155425Y772284D01*
X155331Y772317D01*
X155238Y772353D01*
X155147Y772393D01*
X155057Y772437D01*
X154969Y772484D01*
X154883Y772534D01*
X154799Y772588D01*
X154717Y772645D01*
X154638Y772705D01*
X154560Y772769D01*
X154486Y772835D01*
X154414Y772904D01*
X154345Y772976D01*
X154279Y773050D01*
X154215Y773128D01*
X154155Y773207D01*
X154098Y773289D01*
X154044Y773373D01*
X153994Y773459D01*
X153947Y773547D01*
X153903Y773637D01*
X153863Y773728D01*
X153827Y773821D01*
X153794Y773915D01*
X153765Y774011D01*
X153740Y774107D01*
X153719Y774204D01*
X153701Y774303D01*
X153688Y774401D01*
X153678Y774501D01*
X153672Y774600D01*
X153670Y774700D01*
X153670Y800100D02*
X153672Y800200D01*
X153678Y800299D01*
X153688Y800399D01*
X153701Y800497D01*
X153719Y800596D01*
X153740Y800693D01*
X153765Y800789D01*
X153794Y800885D01*
X153827Y800979D01*
X153863Y801072D01*
X153903Y801163D01*
X153947Y801253D01*
X153994Y801341D01*
X154044Y801427D01*
X154098Y801511D01*
X154155Y801593D01*
X154215Y801672D01*
X154279Y801750D01*
X154345Y801824D01*
X154414Y801896D01*
X154486Y801965D01*
X154560Y802031D01*
X154638Y802095D01*
X154717Y802155D01*
X154799Y802212D01*
X154883Y802266D01*
X154969Y802316D01*
X155057Y802363D01*
X155147Y802407D01*
X155238Y802447D01*
X155331Y802483D01*
X155425Y802516D01*
X155521Y802545D01*
X155617Y802570D01*
X155714Y802591D01*
X155813Y802609D01*
X155911Y802622D01*
X156011Y802632D01*
X156110Y802638D01*
X156210Y802640D01*
X224790Y802640D02*
X224890Y802638D01*
X224989Y802632D01*
X225089Y802622D01*
X225187Y802609D01*
X225286Y802591D01*
X225383Y802570D01*
X225479Y802545D01*
X225575Y802516D01*
X225669Y802483D01*
X225762Y802447D01*
X225853Y802407D01*
X225943Y802363D01*
X226031Y802316D01*
X226117Y802266D01*
X226201Y802212D01*
X226283Y802155D01*
X226362Y802095D01*
X226440Y802031D01*
X226514Y801965D01*
X226586Y801896D01*
X226655Y801824D01*
X226721Y801750D01*
X226785Y801672D01*
X226845Y801593D01*
X226902Y801511D01*
X226956Y801427D01*
X227006Y801341D01*
X227053Y801253D01*
X227097Y801163D01*
X227137Y801072D01*
X227173Y800979D01*
X227206Y800885D01*
X227235Y800789D01*
X227260Y800693D01*
X227281Y800596D01*
X227299Y800497D01*
X227312Y800399D01*
X227322Y800299D01*
X227328Y800200D01*
X227330Y800100D01*
X227330Y774700D02*
X227328Y774600D01*
X227322Y774501D01*
X227312Y774401D01*
X227299Y774303D01*
X227281Y774204D01*
X227260Y774107D01*
X227235Y774011D01*
X227206Y773915D01*
X227173Y773821D01*
X227137Y773728D01*
X227097Y773637D01*
X227053Y773547D01*
X227006Y773459D01*
X226956Y773373D01*
X226902Y773289D01*
X226845Y773207D01*
X226785Y773128D01*
X226721Y773050D01*
X226655Y772976D01*
X226586Y772904D01*
X226514Y772835D01*
X226440Y772769D01*
X226362Y772705D01*
X226283Y772645D01*
X226201Y772588D01*
X226117Y772534D01*
X226031Y772484D01*
X225943Y772437D01*
X225853Y772393D01*
X225762Y772353D01*
X225669Y772317D01*
X225575Y772284D01*
X225479Y772255D01*
X225383Y772230D01*
X225286Y772209D01*
X225187Y772191D01*
X225089Y772178D01*
X224989Y772168D01*
X224890Y772162D01*
X224790Y772160D01*
D12*
X200774Y767088D02*
X198867Y768995D01*
X195054Y768995D01*
X193147Y767088D01*
X193147Y759462D01*
X195054Y757555D01*
X198867Y757555D01*
X200774Y759462D01*
X204841Y757555D02*
X212468Y757555D01*
X204841Y757555D02*
X212468Y765182D01*
X212468Y767088D01*
X210561Y768995D01*
X206748Y768995D01*
X204841Y767088D01*
D13*
X390398Y781050D02*
X390398Y787400D01*
X390398Y793750D01*
D10*
X390398Y787400D02*
X402590Y787400D01*
D13*
X384048Y787400D02*
X384048Y781050D01*
X384048Y787400D02*
X384048Y793750D01*
D10*
X384048Y787400D02*
X372110Y787400D01*
X424180Y774700D02*
X424180Y800100D01*
X421640Y802640D02*
X353060Y802640D01*
X350520Y800100D02*
X350520Y774700D01*
X353060Y772160D02*
X421640Y772160D01*
X353060Y772160D02*
X352960Y772162D01*
X352861Y772168D01*
X352761Y772178D01*
X352663Y772191D01*
X352564Y772209D01*
X352467Y772230D01*
X352371Y772255D01*
X352275Y772284D01*
X352181Y772317D01*
X352088Y772353D01*
X351997Y772393D01*
X351907Y772437D01*
X351819Y772484D01*
X351733Y772534D01*
X351649Y772588D01*
X351567Y772645D01*
X351488Y772705D01*
X351410Y772769D01*
X351336Y772835D01*
X351264Y772904D01*
X351195Y772976D01*
X351129Y773050D01*
X351065Y773128D01*
X351005Y773207D01*
X350948Y773289D01*
X350894Y773373D01*
X350844Y773459D01*
X350797Y773547D01*
X350753Y773637D01*
X350713Y773728D01*
X350677Y773821D01*
X350644Y773915D01*
X350615Y774011D01*
X350590Y774107D01*
X350569Y774204D01*
X350551Y774303D01*
X350538Y774401D01*
X350528Y774501D01*
X350522Y774600D01*
X350520Y774700D01*
X350520Y800100D02*
X350522Y800200D01*
X350528Y800299D01*
X350538Y800399D01*
X350551Y800497D01*
X350569Y800596D01*
X350590Y800693D01*
X350615Y800789D01*
X350644Y800885D01*
X350677Y800979D01*
X350713Y801072D01*
X350753Y801163D01*
X350797Y801253D01*
X350844Y801341D01*
X350894Y801427D01*
X350948Y801511D01*
X351005Y801593D01*
X351065Y801672D01*
X351129Y801750D01*
X351195Y801824D01*
X351264Y801896D01*
X351336Y801965D01*
X351410Y802031D01*
X351488Y802095D01*
X351567Y802155D01*
X351649Y802212D01*
X351733Y802266D01*
X351819Y802316D01*
X351907Y802363D01*
X351997Y802407D01*
X352088Y802447D01*
X352181Y802483D01*
X352275Y802516D01*
X352371Y802545D01*
X352467Y802570D01*
X352564Y802591D01*
X352663Y802609D01*
X352761Y802622D01*
X352861Y802632D01*
X352960Y802638D01*
X353060Y802640D01*
X421640Y802640D02*
X421740Y802638D01*
X421839Y802632D01*
X421939Y802622D01*
X422037Y802609D01*
X422136Y802591D01*
X422233Y802570D01*
X422329Y802545D01*
X422425Y802516D01*
X422519Y802483D01*
X422612Y802447D01*
X422703Y802407D01*
X422793Y802363D01*
X422881Y802316D01*
X422967Y802266D01*
X423051Y802212D01*
X423133Y802155D01*
X423212Y802095D01*
X423290Y802031D01*
X423364Y801965D01*
X423436Y801896D01*
X423505Y801824D01*
X423571Y801750D01*
X423635Y801672D01*
X423695Y801593D01*
X423752Y801511D01*
X423806Y801427D01*
X423856Y801341D01*
X423903Y801253D01*
X423947Y801163D01*
X423987Y801072D01*
X424023Y800979D01*
X424056Y800885D01*
X424085Y800789D01*
X424110Y800693D01*
X424131Y800596D01*
X424149Y800497D01*
X424162Y800399D01*
X424172Y800299D01*
X424178Y800200D01*
X424180Y800100D01*
X424180Y774700D02*
X424178Y774600D01*
X424172Y774501D01*
X424162Y774401D01*
X424149Y774303D01*
X424131Y774204D01*
X424110Y774107D01*
X424085Y774011D01*
X424056Y773915D01*
X424023Y773821D01*
X423987Y773728D01*
X423947Y773637D01*
X423903Y773547D01*
X423856Y773459D01*
X423806Y773373D01*
X423752Y773289D01*
X423695Y773207D01*
X423635Y773128D01*
X423571Y773050D01*
X423505Y772976D01*
X423436Y772904D01*
X423364Y772835D01*
X423290Y772769D01*
X423212Y772705D01*
X423133Y772645D01*
X423051Y772588D01*
X422967Y772534D01*
X422881Y772484D01*
X422793Y772437D01*
X422703Y772393D01*
X422612Y772353D01*
X422519Y772317D01*
X422425Y772284D01*
X422329Y772255D01*
X422233Y772230D01*
X422136Y772209D01*
X422037Y772191D01*
X421939Y772178D01*
X421839Y772168D01*
X421740Y772162D01*
X421640Y772160D01*
D12*
X397624Y767088D02*
X395717Y768995D01*
X391904Y768995D01*
X389997Y767088D01*
X389997Y759462D01*
X391904Y757555D01*
X395717Y757555D01*
X397624Y759462D01*
X401691Y767088D02*
X403598Y768995D01*
X407411Y768995D01*
X409318Y767088D01*
X409318Y765182D01*
X407411Y763275D01*
X405504Y763275D01*
X407411Y763275D02*
X409318Y761368D01*
X409318Y759462D01*
X407411Y757555D01*
X403598Y757555D01*
X401691Y759462D01*
D13*
X797052Y787400D02*
X797052Y793750D01*
X797052Y787400D02*
X797052Y781050D01*
D10*
X797052Y787400D02*
X784860Y787400D01*
D13*
X803402Y787400D02*
X803402Y793750D01*
X803402Y787400D02*
X803402Y781050D01*
D10*
X803402Y787400D02*
X815340Y787400D01*
X763270Y800100D02*
X763270Y774700D01*
X765810Y772160D02*
X834390Y772160D01*
X836930Y774700D02*
X836930Y800100D01*
X834390Y802640D02*
X765810Y802640D01*
X834390Y802640D02*
X834490Y802638D01*
X834589Y802632D01*
X834689Y802622D01*
X834787Y802609D01*
X834886Y802591D01*
X834983Y802570D01*
X835079Y802545D01*
X835175Y802516D01*
X835269Y802483D01*
X835362Y802447D01*
X835453Y802407D01*
X835543Y802363D01*
X835631Y802316D01*
X835717Y802266D01*
X835801Y802212D01*
X835883Y802155D01*
X835962Y802095D01*
X836040Y802031D01*
X836114Y801965D01*
X836186Y801896D01*
X836255Y801824D01*
X836321Y801750D01*
X836385Y801672D01*
X836445Y801593D01*
X836502Y801511D01*
X836556Y801427D01*
X836606Y801341D01*
X836653Y801253D01*
X836697Y801163D01*
X836737Y801072D01*
X836773Y800979D01*
X836806Y800885D01*
X836835Y800789D01*
X836860Y800693D01*
X836881Y800596D01*
X836899Y800497D01*
X836912Y800399D01*
X836922Y800299D01*
X836928Y800200D01*
X836930Y800100D01*
X836930Y774700D02*
X836928Y774600D01*
X836922Y774501D01*
X836912Y774401D01*
X836899Y774303D01*
X836881Y774204D01*
X836860Y774107D01*
X836835Y774011D01*
X836806Y773915D01*
X836773Y773821D01*
X836737Y773728D01*
X836697Y773637D01*
X836653Y773547D01*
X836606Y773459D01*
X836556Y773373D01*
X836502Y773289D01*
X836445Y773207D01*
X836385Y773128D01*
X836321Y773050D01*
X836255Y772976D01*
X836186Y772904D01*
X836114Y772835D01*
X836040Y772769D01*
X835962Y772705D01*
X835883Y772645D01*
X835801Y772588D01*
X835717Y772534D01*
X835631Y772484D01*
X835543Y772437D01*
X835453Y772393D01*
X835362Y772353D01*
X835269Y772317D01*
X835175Y772284D01*
X835079Y772255D01*
X834983Y772230D01*
X834886Y772209D01*
X834787Y772191D01*
X834689Y772178D01*
X834589Y772168D01*
X834490Y772162D01*
X834390Y772160D01*
X765810Y772160D02*
X765710Y772162D01*
X765611Y772168D01*
X765511Y772178D01*
X765413Y772191D01*
X765314Y772209D01*
X765217Y772230D01*
X765121Y772255D01*
X765025Y772284D01*
X764931Y772317D01*
X764838Y772353D01*
X764747Y772393D01*
X764657Y772437D01*
X764569Y772484D01*
X764483Y772534D01*
X764399Y772588D01*
X764317Y772645D01*
X764238Y772705D01*
X764160Y772769D01*
X764086Y772835D01*
X764014Y772904D01*
X763945Y772976D01*
X763879Y773050D01*
X763815Y773128D01*
X763755Y773207D01*
X763698Y773289D01*
X763644Y773373D01*
X763594Y773459D01*
X763547Y773547D01*
X763503Y773637D01*
X763463Y773728D01*
X763427Y773821D01*
X763394Y773915D01*
X763365Y774011D01*
X763340Y774107D01*
X763319Y774204D01*
X763301Y774303D01*
X763288Y774401D01*
X763278Y774501D01*
X763272Y774600D01*
X763270Y774700D01*
X763270Y800100D02*
X763272Y800200D01*
X763278Y800299D01*
X763288Y800399D01*
X763301Y800497D01*
X763319Y800596D01*
X763340Y800693D01*
X763365Y800789D01*
X763394Y800885D01*
X763427Y800979D01*
X763463Y801072D01*
X763503Y801163D01*
X763547Y801253D01*
X763594Y801341D01*
X763644Y801427D01*
X763698Y801511D01*
X763755Y801593D01*
X763815Y801672D01*
X763879Y801750D01*
X763945Y801824D01*
X764014Y801896D01*
X764086Y801965D01*
X764160Y802031D01*
X764238Y802095D01*
X764317Y802155D01*
X764399Y802212D01*
X764483Y802266D01*
X764569Y802316D01*
X764657Y802363D01*
X764747Y802407D01*
X764838Y802447D01*
X764931Y802483D01*
X765025Y802516D01*
X765121Y802545D01*
X765217Y802570D01*
X765314Y802591D01*
X765413Y802609D01*
X765511Y802622D01*
X765611Y802632D01*
X765710Y802638D01*
X765810Y802640D01*
D12*
X781055Y817255D02*
X782962Y815348D01*
X781055Y817255D02*
X777242Y817255D01*
X775335Y815348D01*
X775335Y807722D01*
X777242Y805815D01*
X781055Y805815D01*
X782962Y807722D01*
X792749Y805815D02*
X792749Y817255D01*
X787029Y811535D01*
X794655Y811535D01*
D13*
X600202Y793750D02*
X600202Y787400D01*
X600202Y781050D01*
D10*
X600202Y787400D02*
X588010Y787400D01*
D13*
X606552Y787400D02*
X606552Y793750D01*
X606552Y787400D02*
X606552Y781050D01*
D10*
X606552Y787400D02*
X618490Y787400D01*
X566420Y800100D02*
X566420Y774700D01*
X568960Y772160D02*
X637540Y772160D01*
X640080Y774700D02*
X640080Y800100D01*
X637540Y802640D02*
X568960Y802640D01*
X637540Y802640D02*
X637640Y802638D01*
X637739Y802632D01*
X637839Y802622D01*
X637937Y802609D01*
X638036Y802591D01*
X638133Y802570D01*
X638229Y802545D01*
X638325Y802516D01*
X638419Y802483D01*
X638512Y802447D01*
X638603Y802407D01*
X638693Y802363D01*
X638781Y802316D01*
X638867Y802266D01*
X638951Y802212D01*
X639033Y802155D01*
X639112Y802095D01*
X639190Y802031D01*
X639264Y801965D01*
X639336Y801896D01*
X639405Y801824D01*
X639471Y801750D01*
X639535Y801672D01*
X639595Y801593D01*
X639652Y801511D01*
X639706Y801427D01*
X639756Y801341D01*
X639803Y801253D01*
X639847Y801163D01*
X639887Y801072D01*
X639923Y800979D01*
X639956Y800885D01*
X639985Y800789D01*
X640010Y800693D01*
X640031Y800596D01*
X640049Y800497D01*
X640062Y800399D01*
X640072Y800299D01*
X640078Y800200D01*
X640080Y800100D01*
X640080Y774700D02*
X640078Y774600D01*
X640072Y774501D01*
X640062Y774401D01*
X640049Y774303D01*
X640031Y774204D01*
X640010Y774107D01*
X639985Y774011D01*
X639956Y773915D01*
X639923Y773821D01*
X639887Y773728D01*
X639847Y773637D01*
X639803Y773547D01*
X639756Y773459D01*
X639706Y773373D01*
X639652Y773289D01*
X639595Y773207D01*
X639535Y773128D01*
X639471Y773050D01*
X639405Y772976D01*
X639336Y772904D01*
X639264Y772835D01*
X639190Y772769D01*
X639112Y772705D01*
X639033Y772645D01*
X638951Y772588D01*
X638867Y772534D01*
X638781Y772484D01*
X638693Y772437D01*
X638603Y772393D01*
X638512Y772353D01*
X638419Y772317D01*
X638325Y772284D01*
X638229Y772255D01*
X638133Y772230D01*
X638036Y772209D01*
X637937Y772191D01*
X637839Y772178D01*
X637739Y772168D01*
X637640Y772162D01*
X637540Y772160D01*
X568960Y772160D02*
X568860Y772162D01*
X568761Y772168D01*
X568661Y772178D01*
X568563Y772191D01*
X568464Y772209D01*
X568367Y772230D01*
X568271Y772255D01*
X568175Y772284D01*
X568081Y772317D01*
X567988Y772353D01*
X567897Y772393D01*
X567807Y772437D01*
X567719Y772484D01*
X567633Y772534D01*
X567549Y772588D01*
X567467Y772645D01*
X567388Y772705D01*
X567310Y772769D01*
X567236Y772835D01*
X567164Y772904D01*
X567095Y772976D01*
X567029Y773050D01*
X566965Y773128D01*
X566905Y773207D01*
X566848Y773289D01*
X566794Y773373D01*
X566744Y773459D01*
X566697Y773547D01*
X566653Y773637D01*
X566613Y773728D01*
X566577Y773821D01*
X566544Y773915D01*
X566515Y774011D01*
X566490Y774107D01*
X566469Y774204D01*
X566451Y774303D01*
X566438Y774401D01*
X566428Y774501D01*
X566422Y774600D01*
X566420Y774700D01*
X566420Y800100D02*
X566422Y800200D01*
X566428Y800299D01*
X566438Y800399D01*
X566451Y800497D01*
X566469Y800596D01*
X566490Y800693D01*
X566515Y800789D01*
X566544Y800885D01*
X566577Y800979D01*
X566613Y801072D01*
X566653Y801163D01*
X566697Y801253D01*
X566744Y801341D01*
X566794Y801427D01*
X566848Y801511D01*
X566905Y801593D01*
X566965Y801672D01*
X567029Y801750D01*
X567095Y801824D01*
X567164Y801896D01*
X567236Y801965D01*
X567310Y802031D01*
X567388Y802095D01*
X567467Y802155D01*
X567549Y802212D01*
X567633Y802266D01*
X567719Y802316D01*
X567807Y802363D01*
X567897Y802407D01*
X567988Y802447D01*
X568081Y802483D01*
X568175Y802516D01*
X568271Y802545D01*
X568367Y802570D01*
X568464Y802591D01*
X568563Y802609D01*
X568661Y802622D01*
X568761Y802632D01*
X568860Y802638D01*
X568960Y802640D01*
D12*
X584205Y817255D02*
X586112Y815348D01*
X584205Y817255D02*
X580392Y817255D01*
X578485Y815348D01*
X578485Y807722D01*
X580392Y805815D01*
X584205Y805815D01*
X586112Y807722D01*
X590179Y813442D02*
X593992Y817255D01*
X593992Y805815D01*
X590179Y805815D02*
X597805Y805815D01*
D10*
X509270Y590550D02*
X509370Y590548D01*
X509469Y590542D01*
X509569Y590532D01*
X509667Y590519D01*
X509766Y590501D01*
X509863Y590480D01*
X509959Y590455D01*
X510055Y590426D01*
X510149Y590393D01*
X510242Y590357D01*
X510333Y590317D01*
X510423Y590273D01*
X510511Y590226D01*
X510597Y590176D01*
X510681Y590122D01*
X510763Y590065D01*
X510842Y590005D01*
X510920Y589941D01*
X510994Y589875D01*
X511066Y589806D01*
X511135Y589734D01*
X511201Y589660D01*
X511265Y589582D01*
X511325Y589503D01*
X511382Y589421D01*
X511436Y589337D01*
X511486Y589251D01*
X511533Y589163D01*
X511577Y589073D01*
X511617Y588982D01*
X511653Y588889D01*
X511686Y588795D01*
X511715Y588699D01*
X511740Y588603D01*
X511761Y588506D01*
X511779Y588407D01*
X511792Y588309D01*
X511802Y588209D01*
X511808Y588110D01*
X511810Y588010D01*
X494030Y590550D02*
X493930Y590548D01*
X493831Y590542D01*
X493731Y590532D01*
X493633Y590519D01*
X493534Y590501D01*
X493437Y590480D01*
X493341Y590455D01*
X493245Y590426D01*
X493151Y590393D01*
X493058Y590357D01*
X492967Y590317D01*
X492877Y590273D01*
X492789Y590226D01*
X492703Y590176D01*
X492619Y590122D01*
X492537Y590065D01*
X492458Y590005D01*
X492380Y589941D01*
X492306Y589875D01*
X492234Y589806D01*
X492165Y589734D01*
X492099Y589660D01*
X492035Y589582D01*
X491975Y589503D01*
X491918Y589421D01*
X491864Y589337D01*
X491814Y589251D01*
X491767Y589163D01*
X491723Y589073D01*
X491683Y588982D01*
X491647Y588889D01*
X491614Y588795D01*
X491585Y588699D01*
X491560Y588603D01*
X491539Y588506D01*
X491521Y588407D01*
X491508Y588309D01*
X491498Y588209D01*
X491492Y588110D01*
X491490Y588010D01*
X491490Y542290D02*
X491492Y542190D01*
X491498Y542091D01*
X491508Y541991D01*
X491521Y541893D01*
X491539Y541794D01*
X491560Y541697D01*
X491585Y541601D01*
X491614Y541505D01*
X491647Y541411D01*
X491683Y541318D01*
X491723Y541227D01*
X491767Y541137D01*
X491814Y541049D01*
X491864Y540963D01*
X491918Y540879D01*
X491975Y540797D01*
X492035Y540718D01*
X492099Y540640D01*
X492165Y540566D01*
X492234Y540494D01*
X492306Y540425D01*
X492380Y540359D01*
X492458Y540295D01*
X492537Y540235D01*
X492619Y540178D01*
X492703Y540124D01*
X492789Y540074D01*
X492877Y540027D01*
X492967Y539983D01*
X493058Y539943D01*
X493151Y539907D01*
X493245Y539874D01*
X493341Y539845D01*
X493437Y539820D01*
X493534Y539799D01*
X493633Y539781D01*
X493731Y539768D01*
X493831Y539758D01*
X493930Y539752D01*
X494030Y539750D01*
X509270Y539750D02*
X509370Y539752D01*
X509469Y539758D01*
X509569Y539768D01*
X509667Y539781D01*
X509766Y539799D01*
X509863Y539820D01*
X509959Y539845D01*
X510055Y539874D01*
X510149Y539907D01*
X510242Y539943D01*
X510333Y539983D01*
X510423Y540027D01*
X510511Y540074D01*
X510597Y540124D01*
X510681Y540178D01*
X510763Y540235D01*
X510842Y540295D01*
X510920Y540359D01*
X510994Y540425D01*
X511066Y540494D01*
X511135Y540566D01*
X511201Y540640D01*
X511265Y540718D01*
X511325Y540797D01*
X511382Y540879D01*
X511436Y540963D01*
X511486Y541049D01*
X511533Y541137D01*
X511577Y541227D01*
X511617Y541318D01*
X511653Y541411D01*
X511686Y541505D01*
X511715Y541601D01*
X511740Y541697D01*
X511761Y541794D01*
X511779Y541893D01*
X511792Y541991D01*
X511802Y542091D01*
X511808Y542190D01*
X511810Y542290D01*
X509270Y590550D02*
X494030Y590550D01*
X511810Y588010D02*
X511810Y584200D01*
X510540Y582930D01*
X491490Y584200D02*
X491490Y588010D01*
X491490Y584200D02*
X492760Y582930D01*
X510540Y547370D02*
X511810Y546100D01*
X510540Y547370D02*
X510540Y582930D01*
X492760Y547370D02*
X491490Y546100D01*
X492760Y547370D02*
X492760Y582930D01*
X511810Y546100D02*
X511810Y542290D01*
X491490Y542290D02*
X491490Y546100D01*
X494030Y539750D02*
X509270Y539750D01*
D14*
X501650Y537845D03*
X501650Y592455D03*
D15*
X515104Y572815D02*
X524002Y572815D01*
X515104Y572815D02*
X515104Y577264D01*
X516587Y578747D01*
X519553Y578747D01*
X521036Y577264D01*
X521036Y572815D01*
X521036Y575781D02*
X524002Y578747D01*
X524002Y581937D02*
X524002Y587868D01*
X524002Y581937D02*
X518070Y587868D01*
X516587Y587868D01*
X515104Y586385D01*
X515104Y583420D01*
X516587Y581937D01*
D10*
X134620Y316230D02*
X134620Y308610D01*
X138430Y312420D02*
X130810Y312420D01*
X95250Y342900D02*
X95265Y344147D01*
X95311Y345393D01*
X95388Y346637D01*
X95495Y347879D01*
X95632Y349118D01*
X95800Y350354D01*
X95998Y351585D01*
X96226Y352811D01*
X96484Y354030D01*
X96772Y355243D01*
X97090Y356449D01*
X97437Y357646D01*
X97814Y358835D01*
X98220Y360014D01*
X98654Y361183D01*
X99117Y362340D01*
X99608Y363486D01*
X100127Y364620D01*
X100674Y365740D01*
X101248Y366847D01*
X101850Y367939D01*
X102477Y369016D01*
X103131Y370078D01*
X103811Y371123D01*
X104517Y372151D01*
X105247Y373162D01*
X106002Y374154D01*
X106781Y375127D01*
X107584Y376081D01*
X108410Y377015D01*
X109258Y377929D01*
X110129Y378821D01*
X111021Y379692D01*
X111935Y380540D01*
X112869Y381366D01*
X113823Y382169D01*
X114796Y382948D01*
X115788Y383703D01*
X116799Y384433D01*
X117827Y385139D01*
X118872Y385819D01*
X119934Y386473D01*
X121011Y387100D01*
X122103Y387702D01*
X123210Y388276D01*
X124330Y388823D01*
X125464Y389342D01*
X126610Y389833D01*
X127767Y390296D01*
X128936Y390730D01*
X130115Y391136D01*
X131304Y391513D01*
X132501Y391860D01*
X133707Y392178D01*
X134920Y392466D01*
X136139Y392724D01*
X137365Y392952D01*
X138596Y393150D01*
X139832Y393318D01*
X141071Y393455D01*
X142313Y393562D01*
X143557Y393639D01*
X144803Y393685D01*
X146050Y393700D01*
X147297Y393685D01*
X148543Y393639D01*
X149787Y393562D01*
X151029Y393455D01*
X152268Y393318D01*
X153504Y393150D01*
X154735Y392952D01*
X155961Y392724D01*
X157180Y392466D01*
X158393Y392178D01*
X159599Y391860D01*
X160796Y391513D01*
X161985Y391136D01*
X163164Y390730D01*
X164333Y390296D01*
X165490Y389833D01*
X166636Y389342D01*
X167770Y388823D01*
X168890Y388276D01*
X169997Y387702D01*
X171089Y387100D01*
X172166Y386473D01*
X173228Y385819D01*
X174273Y385139D01*
X175301Y384433D01*
X176312Y383703D01*
X177304Y382948D01*
X178277Y382169D01*
X179231Y381366D01*
X180165Y380540D01*
X181079Y379692D01*
X181971Y378821D01*
X182842Y377929D01*
X183690Y377015D01*
X184516Y376081D01*
X185319Y375127D01*
X186098Y374154D01*
X186853Y373162D01*
X187583Y372151D01*
X188289Y371123D01*
X188969Y370078D01*
X189623Y369016D01*
X190250Y367939D01*
X190852Y366847D01*
X191426Y365740D01*
X191973Y364620D01*
X192492Y363486D01*
X192983Y362340D01*
X193446Y361183D01*
X193880Y360014D01*
X194286Y358835D01*
X194663Y357646D01*
X195010Y356449D01*
X195328Y355243D01*
X195616Y354030D01*
X195874Y352811D01*
X196102Y351585D01*
X196300Y350354D01*
X196468Y349118D01*
X196605Y347879D01*
X196712Y346637D01*
X196789Y345393D01*
X196835Y344147D01*
X196850Y342900D01*
X196835Y341653D01*
X196789Y340407D01*
X196712Y339163D01*
X196605Y337921D01*
X196468Y336682D01*
X196300Y335446D01*
X196102Y334215D01*
X195874Y332989D01*
X195616Y331770D01*
X195328Y330557D01*
X195010Y329351D01*
X194663Y328154D01*
X194286Y326965D01*
X193880Y325786D01*
X193446Y324617D01*
X192983Y323460D01*
X192492Y322314D01*
X191973Y321180D01*
X191426Y320060D01*
X190852Y318953D01*
X190250Y317861D01*
X189623Y316784D01*
X188969Y315722D01*
X188289Y314677D01*
X187583Y313649D01*
X186853Y312638D01*
X186098Y311646D01*
X185319Y310673D01*
X184516Y309719D01*
X183690Y308785D01*
X182842Y307871D01*
X181971Y306979D01*
X181079Y306108D01*
X180165Y305260D01*
X179231Y304434D01*
X178277Y303631D01*
X177304Y302852D01*
X176312Y302097D01*
X175301Y301367D01*
X174273Y300661D01*
X173228Y299981D01*
X172166Y299327D01*
X171089Y298700D01*
X169997Y298098D01*
X168890Y297524D01*
X167770Y296977D01*
X166636Y296458D01*
X165490Y295967D01*
X164333Y295504D01*
X163164Y295070D01*
X161985Y294664D01*
X160796Y294287D01*
X159599Y293940D01*
X158393Y293622D01*
X157180Y293334D01*
X155961Y293076D01*
X154735Y292848D01*
X153504Y292650D01*
X152268Y292482D01*
X151029Y292345D01*
X149787Y292238D01*
X148543Y292161D01*
X147297Y292115D01*
X146050Y292100D01*
X144803Y292115D01*
X143557Y292161D01*
X142313Y292238D01*
X141071Y292345D01*
X139832Y292482D01*
X138596Y292650D01*
X137365Y292848D01*
X136139Y293076D01*
X134920Y293334D01*
X133707Y293622D01*
X132501Y293940D01*
X131304Y294287D01*
X130115Y294664D01*
X128936Y295070D01*
X127767Y295504D01*
X126610Y295967D01*
X125464Y296458D01*
X124330Y296977D01*
X123210Y297524D01*
X122103Y298098D01*
X121011Y298700D01*
X119934Y299327D01*
X118872Y299981D01*
X117827Y300661D01*
X116799Y301367D01*
X115788Y302097D01*
X114796Y302852D01*
X113823Y303631D01*
X112869Y304434D01*
X111935Y305260D01*
X111021Y306108D01*
X110129Y306979D01*
X109258Y307871D01*
X108410Y308785D01*
X107584Y309719D01*
X106781Y310673D01*
X106002Y311646D01*
X105247Y312638D01*
X104517Y313649D01*
X103811Y314677D01*
X103131Y315722D01*
X102477Y316784D01*
X101850Y317861D01*
X101248Y318953D01*
X100674Y320060D01*
X100127Y321180D01*
X99608Y322314D01*
X99117Y323460D01*
X98654Y324617D01*
X98220Y325786D01*
X97814Y326965D01*
X97437Y328154D01*
X97090Y329351D01*
X96772Y330557D01*
X96484Y331770D01*
X96226Y332989D01*
X95998Y334215D01*
X95800Y335446D01*
X95632Y336682D01*
X95495Y337921D01*
X95388Y339163D01*
X95311Y340407D01*
X95265Y341653D01*
X95250Y342900D01*
D12*
X169535Y275595D02*
X171442Y277502D01*
X169535Y275595D02*
X169535Y271782D01*
X171442Y269875D01*
X179068Y269875D01*
X180975Y271782D01*
X180975Y275595D01*
X179068Y277502D01*
X179068Y281569D02*
X180975Y283476D01*
X180975Y287289D01*
X179068Y289195D01*
X171442Y289195D01*
X169535Y287289D01*
X169535Y283476D01*
X171442Y281569D01*
X173349Y281569D01*
X175255Y283476D01*
X175255Y289195D01*
D10*
X676910Y254000D02*
X676910Y762000D01*
X542290Y762000D02*
X542290Y254000D01*
X676910Y254000D01*
X676910Y762000D02*
X618490Y762000D01*
X598170Y762000D02*
X542290Y762000D01*
X598170Y762000D02*
X598173Y761753D01*
X598182Y761505D01*
X598197Y761258D01*
X598218Y761012D01*
X598245Y760766D01*
X598278Y760521D01*
X598317Y760276D01*
X598362Y760033D01*
X598413Y759791D01*
X598470Y759550D01*
X598532Y759311D01*
X598601Y759073D01*
X598675Y758837D01*
X598755Y758603D01*
X598840Y758371D01*
X598932Y758141D01*
X599028Y757913D01*
X599131Y757688D01*
X599238Y757465D01*
X599352Y757245D01*
X599470Y757028D01*
X599594Y756813D01*
X599723Y756602D01*
X599857Y756394D01*
X599996Y756189D01*
X600140Y755988D01*
X600288Y755790D01*
X600442Y755596D01*
X600600Y755406D01*
X600763Y755220D01*
X600930Y755038D01*
X601102Y754860D01*
X601278Y754686D01*
X601458Y754516D01*
X601643Y754351D01*
X601831Y754191D01*
X602023Y754035D01*
X602219Y753883D01*
X602418Y753737D01*
X602621Y753595D01*
X602828Y753459D01*
X603037Y753327D01*
X603250Y753201D01*
X603466Y753080D01*
X603684Y752964D01*
X603906Y752854D01*
X604130Y752749D01*
X604356Y752649D01*
X604585Y752555D01*
X604816Y752467D01*
X605050Y752384D01*
X605285Y752307D01*
X605522Y752236D01*
X605760Y752170D01*
X606000Y752111D01*
X606242Y752057D01*
X606485Y752009D01*
X606728Y751967D01*
X606973Y751931D01*
X607219Y751901D01*
X607465Y751877D01*
X607712Y751859D01*
X607959Y751847D01*
X608206Y751841D01*
X608454Y751841D01*
X608701Y751847D01*
X608948Y751859D01*
X609195Y751877D01*
X609441Y751901D01*
X609687Y751931D01*
X609932Y751967D01*
X610175Y752009D01*
X610418Y752057D01*
X610660Y752111D01*
X610900Y752170D01*
X611138Y752236D01*
X611375Y752307D01*
X611610Y752384D01*
X611844Y752467D01*
X612075Y752555D01*
X612304Y752649D01*
X612530Y752749D01*
X612754Y752854D01*
X612976Y752964D01*
X613194Y753080D01*
X613410Y753201D01*
X613623Y753327D01*
X613832Y753459D01*
X614039Y753595D01*
X614242Y753737D01*
X614441Y753883D01*
X614637Y754035D01*
X614829Y754191D01*
X615017Y754351D01*
X615202Y754516D01*
X615382Y754686D01*
X615558Y754860D01*
X615730Y755038D01*
X615897Y755220D01*
X616060Y755406D01*
X616218Y755596D01*
X616372Y755790D01*
X616520Y755988D01*
X616664Y756189D01*
X616803Y756394D01*
X616937Y756602D01*
X617066Y756813D01*
X617190Y757028D01*
X617308Y757245D01*
X617422Y757465D01*
X617529Y757688D01*
X617632Y757913D01*
X617728Y758141D01*
X617820Y758371D01*
X617905Y758603D01*
X617985Y758837D01*
X618059Y759073D01*
X618128Y759311D01*
X618190Y759550D01*
X618247Y759791D01*
X618298Y760033D01*
X618343Y760276D01*
X618382Y760521D01*
X618415Y760766D01*
X618442Y761012D01*
X618463Y761258D01*
X618478Y761505D01*
X618487Y761753D01*
X618490Y762000D01*
X600545Y501142D02*
X595122Y501142D01*
X597834Y501142D02*
X597834Y517412D01*
X600545Y517412D02*
X595122Y517412D01*
X614171Y517412D02*
X616883Y514700D01*
X614171Y517412D02*
X608748Y517412D01*
X606036Y514700D01*
X606036Y503854D01*
X608748Y501142D01*
X614171Y501142D01*
X616883Y503854D01*
X622408Y511989D02*
X627831Y517412D01*
X627831Y501142D01*
X622408Y501142D02*
X633255Y501142D01*
X190500Y76200D02*
X177800Y76200D01*
X190500Y76200D02*
X196850Y69850D01*
X203200Y76200D01*
X215900Y76200D01*
X222250Y69850D01*
X177800Y76200D02*
X171450Y69850D01*
X222250Y69850D02*
X228600Y76200D01*
X241300Y76200D01*
X247650Y69850D01*
X254000Y76200D02*
X266700Y76200D01*
X273050Y69850D01*
X279400Y76200D01*
X292100Y76200D01*
X298450Y69850D01*
X254000Y76200D02*
X247650Y69850D01*
X298450Y69850D02*
X304800Y76200D01*
X317500Y76200D01*
X323850Y69850D01*
X196850Y31750D02*
X190500Y25400D01*
X215900Y25400D02*
X222250Y31750D01*
X215900Y25400D02*
X203200Y25400D01*
X196850Y31750D01*
X171450Y31750D02*
X171450Y69850D01*
X171450Y31750D02*
X177800Y25400D01*
X190500Y25400D01*
X241300Y25400D02*
X247650Y31750D01*
X241300Y25400D02*
X228600Y25400D01*
X222250Y31750D01*
X266700Y25400D02*
X273050Y31750D01*
X292100Y25400D02*
X298450Y31750D01*
X292100Y25400D02*
X279400Y25400D01*
X273050Y31750D01*
X254000Y25400D02*
X247650Y31750D01*
X254000Y25400D02*
X266700Y25400D01*
X317500Y25400D02*
X323850Y31750D01*
X317500Y25400D02*
X304800Y25400D01*
X298450Y31750D01*
X330200Y76200D02*
X342900Y76200D01*
X349250Y69850D01*
X355600Y76200D01*
X393700Y76200D02*
X400050Y69850D01*
X330200Y76200D02*
X323850Y69850D01*
X400050Y69850D02*
X400050Y31750D01*
X349250Y31750D02*
X342900Y25400D01*
X393700Y25400D02*
X400050Y31750D01*
X355600Y25400D02*
X349250Y31750D01*
X330200Y25400D02*
X323850Y31750D01*
X330200Y25400D02*
X342900Y25400D01*
X355600Y25400D02*
X368300Y25400D01*
X374650Y31750D01*
X381000Y25400D01*
X393700Y25400D01*
X368300Y76200D02*
X355600Y76200D01*
X368300Y76200D02*
X374650Y69850D01*
X381000Y76200D01*
X393700Y76200D01*
D12*
X183518Y20965D02*
X179705Y17152D01*
X183518Y20965D02*
X183518Y9525D01*
X179705Y9525D02*
X187332Y9525D01*
X375285Y88272D02*
X379098Y92085D01*
X379098Y80645D01*
X375285Y80645D02*
X382912Y80645D01*
X386979Y90178D02*
X388886Y92085D01*
X392699Y92085D01*
X394605Y90178D01*
X394605Y88272D01*
X392699Y86365D01*
X394605Y84458D01*
X394605Y82552D01*
X392699Y80645D01*
X388886Y80645D01*
X386979Y82552D01*
X386979Y84458D01*
X388886Y86365D01*
X386979Y88272D01*
X386979Y90178D01*
X388886Y86365D02*
X392699Y86365D01*
X141612Y90178D02*
X139705Y92085D01*
X135892Y92085D01*
X133985Y90178D01*
X133985Y88272D01*
X135892Y86365D01*
X139705Y86365D01*
X141612Y84458D01*
X141612Y82552D01*
X139705Y80645D01*
X135892Y80645D01*
X133985Y82552D01*
X145679Y84458D02*
X145679Y92085D01*
X145679Y84458D02*
X149492Y80645D01*
X153305Y84458D01*
X153305Y92085D01*
X157373Y80645D02*
X164999Y80645D01*
X157373Y80645D02*
X164999Y88272D01*
X164999Y90178D01*
X163093Y92085D01*
X159280Y92085D01*
X157373Y90178D01*
D10*
X130810Y760730D02*
X184150Y760730D01*
X184154Y760421D01*
X184165Y760112D01*
X184184Y759803D01*
X184210Y759495D01*
X184244Y759187D01*
X184285Y758881D01*
X184334Y758575D01*
X184390Y758271D01*
X184454Y757969D01*
X184525Y757668D01*
X184603Y757368D01*
X184688Y757071D01*
X184781Y756776D01*
X184881Y756483D01*
X184988Y756193D01*
X185102Y755906D01*
X185223Y755621D01*
X185351Y755339D01*
X185485Y755061D01*
X185627Y754786D01*
X185775Y754514D01*
X185930Y754247D01*
X186091Y753983D01*
X186258Y753723D01*
X186432Y753467D01*
X186612Y753215D01*
X186798Y752968D01*
X186990Y752726D01*
X187188Y752488D01*
X187391Y752255D01*
X187601Y752027D01*
X187815Y751805D01*
X188035Y751587D01*
X188261Y751375D01*
X188491Y751169D01*
X188726Y750968D01*
X188966Y750773D01*
X189211Y750584D01*
X189460Y750401D01*
X189714Y750224D01*
X189972Y750054D01*
X190234Y749889D01*
X190500Y749731D01*
X190770Y749580D01*
X191043Y749435D01*
X191320Y749297D01*
X191600Y749166D01*
X191883Y749042D01*
X192169Y748924D01*
X192458Y748814D01*
X192749Y748710D01*
X193043Y748614D01*
X193339Y748525D01*
X193638Y748443D01*
X193938Y748368D01*
X194240Y748301D01*
X194543Y748241D01*
X194848Y748189D01*
X195154Y748144D01*
X195461Y748106D01*
X195769Y748076D01*
X196077Y748054D01*
X196386Y748038D01*
X196695Y748031D01*
X197005Y748031D01*
X197314Y748038D01*
X197623Y748054D01*
X197931Y748076D01*
X198239Y748106D01*
X198546Y748144D01*
X198852Y748189D01*
X199157Y748241D01*
X199460Y748301D01*
X199762Y748368D01*
X200062Y748443D01*
X200361Y748525D01*
X200657Y748614D01*
X200951Y748710D01*
X201242Y748814D01*
X201531Y748924D01*
X201817Y749042D01*
X202100Y749166D01*
X202380Y749297D01*
X202657Y749435D01*
X202930Y749580D01*
X203200Y749731D01*
X203466Y749889D01*
X203728Y750054D01*
X203986Y750224D01*
X204240Y750401D01*
X204489Y750584D01*
X204734Y750773D01*
X204974Y750968D01*
X205209Y751169D01*
X205439Y751375D01*
X205665Y751587D01*
X205885Y751805D01*
X206099Y752027D01*
X206309Y752255D01*
X206512Y752488D01*
X206710Y752726D01*
X206902Y752968D01*
X207088Y753215D01*
X207268Y753467D01*
X207442Y753723D01*
X207609Y753983D01*
X207770Y754247D01*
X207925Y754514D01*
X208073Y754786D01*
X208215Y755061D01*
X208349Y755339D01*
X208477Y755621D01*
X208598Y755906D01*
X208712Y756193D01*
X208819Y756483D01*
X208919Y756776D01*
X209012Y757071D01*
X209097Y757368D01*
X209175Y757668D01*
X209246Y757969D01*
X209310Y758271D01*
X209366Y758575D01*
X209415Y758881D01*
X209456Y759187D01*
X209490Y759495D01*
X209516Y759803D01*
X209535Y760112D01*
X209546Y760421D01*
X209550Y760730D01*
X262890Y407670D02*
X130810Y407670D01*
X209550Y760730D02*
X262890Y760730D01*
X262890Y407670D01*
X130810Y407670D02*
X130810Y760730D01*
D16*
X172339Y604139D02*
X177678Y604139D01*
X175008Y604139D02*
X175008Y620155D01*
X172339Y620155D02*
X177678Y620155D01*
X191261Y620155D02*
X193931Y617485D01*
X191261Y620155D02*
X185923Y620155D01*
X183253Y617485D01*
X183253Y606808D01*
X185923Y604139D01*
X191261Y604139D01*
X193931Y606808D01*
X199625Y604139D02*
X210302Y604139D01*
X199625Y604139D02*
X210302Y614816D01*
X210302Y617485D01*
X207633Y620155D01*
X202294Y620155D01*
X199625Y617485D01*
D10*
X327660Y760730D02*
X381000Y760730D01*
X381004Y760421D01*
X381015Y760112D01*
X381034Y759803D01*
X381060Y759495D01*
X381094Y759187D01*
X381135Y758881D01*
X381184Y758575D01*
X381240Y758271D01*
X381304Y757969D01*
X381375Y757668D01*
X381453Y757368D01*
X381538Y757071D01*
X381631Y756776D01*
X381731Y756483D01*
X381838Y756193D01*
X381952Y755906D01*
X382073Y755621D01*
X382201Y755339D01*
X382335Y755061D01*
X382477Y754786D01*
X382625Y754514D01*
X382780Y754247D01*
X382941Y753983D01*
X383108Y753723D01*
X383282Y753467D01*
X383462Y753215D01*
X383648Y752968D01*
X383840Y752726D01*
X384038Y752488D01*
X384241Y752255D01*
X384451Y752027D01*
X384665Y751805D01*
X384885Y751587D01*
X385111Y751375D01*
X385341Y751169D01*
X385576Y750968D01*
X385816Y750773D01*
X386061Y750584D01*
X386310Y750401D01*
X386564Y750224D01*
X386822Y750054D01*
X387084Y749889D01*
X387350Y749731D01*
X387620Y749580D01*
X387893Y749435D01*
X388170Y749297D01*
X388450Y749166D01*
X388733Y749042D01*
X389019Y748924D01*
X389308Y748814D01*
X389599Y748710D01*
X389893Y748614D01*
X390189Y748525D01*
X390488Y748443D01*
X390788Y748368D01*
X391090Y748301D01*
X391393Y748241D01*
X391698Y748189D01*
X392004Y748144D01*
X392311Y748106D01*
X392619Y748076D01*
X392927Y748054D01*
X393236Y748038D01*
X393545Y748031D01*
X393855Y748031D01*
X394164Y748038D01*
X394473Y748054D01*
X394781Y748076D01*
X395089Y748106D01*
X395396Y748144D01*
X395702Y748189D01*
X396007Y748241D01*
X396310Y748301D01*
X396612Y748368D01*
X396912Y748443D01*
X397211Y748525D01*
X397507Y748614D01*
X397801Y748710D01*
X398092Y748814D01*
X398381Y748924D01*
X398667Y749042D01*
X398950Y749166D01*
X399230Y749297D01*
X399507Y749435D01*
X399780Y749580D01*
X400050Y749731D01*
X400316Y749889D01*
X400578Y750054D01*
X400836Y750224D01*
X401090Y750401D01*
X401339Y750584D01*
X401584Y750773D01*
X401824Y750968D01*
X402059Y751169D01*
X402289Y751375D01*
X402515Y751587D01*
X402735Y751805D01*
X402949Y752027D01*
X403159Y752255D01*
X403362Y752488D01*
X403560Y752726D01*
X403752Y752968D01*
X403938Y753215D01*
X404118Y753467D01*
X404292Y753723D01*
X404459Y753983D01*
X404620Y754247D01*
X404775Y754514D01*
X404923Y754786D01*
X405065Y755061D01*
X405199Y755339D01*
X405327Y755621D01*
X405448Y755906D01*
X405562Y756193D01*
X405669Y756483D01*
X405769Y756776D01*
X405862Y757071D01*
X405947Y757368D01*
X406025Y757668D01*
X406096Y757969D01*
X406160Y758271D01*
X406216Y758575D01*
X406265Y758881D01*
X406306Y759187D01*
X406340Y759495D01*
X406366Y759803D01*
X406385Y760112D01*
X406396Y760421D01*
X406400Y760730D01*
X459740Y407670D02*
X327660Y407670D01*
X406400Y760730D02*
X459740Y760730D01*
X459740Y407670D01*
X327660Y407670D02*
X327660Y760730D01*
D16*
X375539Y604139D02*
X380878Y604139D01*
X378208Y604139D02*
X378208Y620155D01*
X375539Y620155D02*
X380878Y620155D01*
X394461Y620155D02*
X397131Y617485D01*
X394461Y620155D02*
X389123Y620155D01*
X386453Y617485D01*
X386453Y606808D01*
X389123Y604139D01*
X394461Y604139D01*
X397131Y606808D01*
X402825Y617485D02*
X405494Y620155D01*
X410833Y620155D01*
X413502Y617485D01*
X413502Y614816D01*
X410833Y612147D01*
X408164Y612147D01*
X410833Y612147D02*
X413502Y609478D01*
X413502Y606808D01*
X410833Y604139D01*
X405494Y604139D01*
X402825Y606808D01*
D10*
X768350Y400050D02*
X768350Y387350D01*
X768350Y400050D02*
X774700Y406400D01*
X787400Y406400D02*
X793750Y400050D01*
X774700Y406400D02*
X768350Y412750D01*
X768350Y425450D01*
X774700Y431800D01*
X787400Y431800D02*
X793750Y425450D01*
X793750Y412750D01*
X787400Y406400D01*
X787400Y381000D02*
X774700Y381000D01*
X768350Y387350D01*
X787400Y381000D02*
X793750Y387350D01*
X793750Y400050D01*
X774700Y431800D02*
X768350Y438150D01*
X768350Y450850D01*
X774700Y457200D01*
X787400Y457200D02*
X793750Y450850D01*
X793750Y438150D01*
X787400Y431800D01*
X787400Y457200D02*
X774700Y457200D01*
D12*
X775325Y372748D02*
X779139Y368935D01*
X775325Y372748D02*
X786765Y372748D01*
X786765Y368935D02*
X786765Y376562D01*
X790565Y476255D02*
X792472Y478162D01*
X790565Y476255D02*
X790565Y472442D01*
X792472Y470535D01*
X794379Y470535D01*
X796285Y472442D01*
X796285Y476255D01*
X798192Y478162D01*
X800098Y478162D01*
X802005Y476255D01*
X802005Y472442D01*
X800098Y470535D01*
X798192Y482229D02*
X790565Y482229D01*
X798192Y482229D02*
X802005Y486042D01*
X798192Y489855D01*
X790565Y489855D01*
X790565Y493923D02*
X790565Y501549D01*
X790565Y493923D02*
X796285Y493923D01*
X794379Y497736D01*
X794379Y499643D01*
X796285Y501549D01*
X800098Y501549D01*
X802005Y499643D01*
X802005Y495830D01*
X800098Y493923D01*
D10*
X723900Y400050D02*
X723900Y387350D01*
X723900Y400050D02*
X730250Y406400D01*
X742950Y406400D02*
X749300Y400050D01*
X730250Y406400D02*
X723900Y412750D01*
X723900Y425450D01*
X730250Y431800D01*
X742950Y431800D02*
X749300Y425450D01*
X749300Y412750D01*
X742950Y406400D01*
X742950Y381000D02*
X730250Y381000D01*
X723900Y387350D01*
X742950Y381000D02*
X749300Y387350D01*
X749300Y400050D01*
X730250Y431800D02*
X723900Y438150D01*
X723900Y450850D01*
X730250Y457200D01*
X742950Y457200D02*
X749300Y450850D01*
X749300Y438150D01*
X742950Y431800D01*
X742950Y457200D02*
X730250Y457200D01*
D12*
X730875Y372748D02*
X734689Y368935D01*
X730875Y372748D02*
X742315Y372748D01*
X742315Y368935D02*
X742315Y376562D01*
X714365Y469905D02*
X716272Y471812D01*
X714365Y469905D02*
X714365Y466092D01*
X716272Y464185D01*
X718179Y464185D01*
X720085Y466092D01*
X720085Y469905D01*
X721992Y471812D01*
X723898Y471812D01*
X725805Y469905D01*
X725805Y466092D01*
X723898Y464185D01*
X721992Y475879D02*
X714365Y475879D01*
X721992Y475879D02*
X725805Y479692D01*
X721992Y483505D01*
X714365Y483505D01*
X714365Y487573D02*
X714365Y495199D01*
X716272Y495199D01*
X723898Y487573D01*
X725805Y487573D01*
X734100Y613450D02*
X734100Y745450D01*
X734100Y613450D02*
X866100Y613450D01*
X866100Y745450D01*
X734100Y745450D01*
D17*
X728100Y641250D02*
X728102Y641313D01*
X728108Y641375D01*
X728118Y641437D01*
X728131Y641499D01*
X728149Y641559D01*
X728170Y641618D01*
X728195Y641676D01*
X728224Y641732D01*
X728256Y641786D01*
X728291Y641838D01*
X728329Y641887D01*
X728371Y641935D01*
X728415Y641979D01*
X728463Y642021D01*
X728512Y642059D01*
X728564Y642094D01*
X728618Y642126D01*
X728674Y642155D01*
X728732Y642180D01*
X728791Y642201D01*
X728851Y642219D01*
X728913Y642232D01*
X728975Y642242D01*
X729037Y642248D01*
X729100Y642250D01*
X729163Y642248D01*
X729225Y642242D01*
X729287Y642232D01*
X729349Y642219D01*
X729409Y642201D01*
X729468Y642180D01*
X729526Y642155D01*
X729582Y642126D01*
X729636Y642094D01*
X729688Y642059D01*
X729737Y642021D01*
X729785Y641979D01*
X729829Y641935D01*
X729871Y641887D01*
X729909Y641838D01*
X729944Y641786D01*
X729976Y641732D01*
X730005Y641676D01*
X730030Y641618D01*
X730051Y641559D01*
X730069Y641499D01*
X730082Y641437D01*
X730092Y641375D01*
X730098Y641313D01*
X730100Y641250D01*
X730098Y641187D01*
X730092Y641125D01*
X730082Y641063D01*
X730069Y641001D01*
X730051Y640941D01*
X730030Y640882D01*
X730005Y640824D01*
X729976Y640768D01*
X729944Y640714D01*
X729909Y640662D01*
X729871Y640613D01*
X729829Y640565D01*
X729785Y640521D01*
X729737Y640479D01*
X729688Y640441D01*
X729636Y640406D01*
X729582Y640374D01*
X729526Y640345D01*
X729468Y640320D01*
X729409Y640299D01*
X729349Y640281D01*
X729287Y640268D01*
X729225Y640258D01*
X729163Y640252D01*
X729100Y640250D01*
X729037Y640252D01*
X728975Y640258D01*
X728913Y640268D01*
X728851Y640281D01*
X728791Y640299D01*
X728732Y640320D01*
X728674Y640345D01*
X728618Y640374D01*
X728564Y640406D01*
X728512Y640441D01*
X728463Y640479D01*
X728415Y640521D01*
X728371Y640565D01*
X728329Y640613D01*
X728291Y640662D01*
X728256Y640714D01*
X728224Y640768D01*
X728195Y640824D01*
X728170Y640882D01*
X728149Y640941D01*
X728131Y641001D01*
X728118Y641063D01*
X728108Y641125D01*
X728102Y641187D01*
X728100Y641250D01*
D11*
X724281Y762175D02*
X724281Y763403D01*
X724281Y762175D02*
X726738Y759717D01*
X729196Y762175D01*
X729196Y763403D01*
X726738Y759717D02*
X726738Y756031D01*
X731765Y760946D02*
X734223Y763403D01*
X734223Y756031D01*
X736680Y756031D02*
X731765Y756031D01*
D10*
X438150Y50800D02*
X425450Y50800D01*
X438150Y50800D02*
X444500Y44450D01*
X444500Y31750D02*
X438150Y25400D01*
X444500Y44450D02*
X450850Y50800D01*
X463550Y50800D01*
X469900Y44450D01*
X469900Y31750D02*
X463550Y25400D01*
X450850Y25400D01*
X444500Y31750D01*
X419100Y31750D02*
X419100Y44450D01*
X425450Y50800D01*
X419100Y31750D02*
X425450Y25400D01*
X438150Y25400D01*
X469900Y44450D02*
X476250Y50800D01*
X488950Y50800D01*
X495300Y44450D01*
X495300Y31750D02*
X488950Y25400D01*
X476250Y25400D01*
X469900Y31750D01*
X501650Y50800D02*
X514350Y50800D01*
X520700Y44450D01*
X520700Y31750D02*
X514350Y25400D01*
X495300Y44450D02*
X501650Y50800D01*
X495300Y31750D02*
X501650Y25400D01*
X514350Y25400D01*
X527050Y50800D02*
X539750Y50800D01*
X546100Y44450D01*
X546100Y31750D02*
X539750Y25400D01*
X546100Y44450D02*
X552450Y50800D01*
X565150Y50800D01*
X571500Y44450D01*
X571500Y31750D02*
X565150Y25400D01*
X552450Y25400D01*
X546100Y31750D01*
X527050Y50800D02*
X520700Y44450D01*
X520700Y31750D02*
X527050Y25400D01*
X539750Y25400D01*
X571500Y44450D02*
X577850Y50800D01*
X590550Y50800D01*
X596900Y44450D01*
X596900Y31750D02*
X590550Y25400D01*
X577850Y25400D01*
X571500Y31750D01*
X603250Y50800D02*
X615950Y50800D01*
X622300Y44450D01*
X622300Y31750D02*
X615950Y25400D01*
X596900Y44450D02*
X603250Y50800D01*
X596900Y31750D02*
X603250Y25400D01*
X615950Y25400D01*
X628650Y50800D02*
X641350Y50800D01*
X647700Y44450D01*
X647700Y31750D02*
X641350Y25400D01*
X647700Y44450D02*
X654050Y50800D01*
X666750Y50800D01*
X673100Y44450D01*
X673100Y31750D02*
X666750Y25400D01*
X654050Y25400D01*
X647700Y31750D01*
X628650Y50800D02*
X622300Y44450D01*
X622300Y31750D02*
X628650Y25400D01*
X641350Y25400D01*
X673100Y31750D02*
X673100Y44450D01*
D12*
X431168Y20965D02*
X427355Y17152D01*
X431168Y20965D02*
X431168Y9525D01*
X427355Y9525D02*
X434982Y9525D01*
X654685Y62872D02*
X658498Y66685D01*
X658498Y55245D01*
X654685Y55245D02*
X662312Y55245D01*
X666379Y57152D02*
X666379Y64778D01*
X668286Y66685D01*
X672099Y66685D01*
X674005Y64778D01*
X674005Y57152D01*
X672099Y55245D01*
X668286Y55245D01*
X666379Y57152D01*
X674005Y64778D01*
X427362Y71128D02*
X425455Y73035D01*
X421642Y73035D01*
X419735Y71128D01*
X419735Y69222D01*
X421642Y67315D01*
X425455Y67315D01*
X427362Y65408D01*
X427362Y63502D01*
X425455Y61595D01*
X421642Y61595D01*
X419735Y63502D01*
X431429Y65408D02*
X431429Y73035D01*
X431429Y65408D02*
X435242Y61595D01*
X439055Y65408D01*
X439055Y73035D01*
X443123Y69222D02*
X446936Y73035D01*
X446936Y61595D01*
X443123Y61595D02*
X450749Y61595D01*
X454817Y61595D02*
X462443Y61595D01*
X454817Y61595D02*
X462443Y69222D01*
X462443Y71128D01*
X460537Y73035D01*
X456724Y73035D01*
X454817Y71128D01*
D10*
X692150Y50800D02*
X704850Y50800D01*
X711200Y44450D01*
X711200Y31750D02*
X704850Y25400D01*
X711200Y44450D02*
X717550Y50800D01*
X730250Y50800D01*
X736600Y44450D01*
X736600Y31750D02*
X730250Y25400D01*
X717550Y25400D01*
X711200Y31750D01*
X685800Y31750D02*
X685800Y44450D01*
X692150Y50800D01*
X685800Y31750D02*
X692150Y25400D01*
X704850Y25400D01*
X736600Y44450D02*
X742950Y50800D01*
X755650Y50800D01*
X762000Y44450D01*
X762000Y31750D02*
X755650Y25400D01*
X742950Y25400D01*
X736600Y31750D01*
X768350Y50800D02*
X781050Y50800D01*
X787400Y44450D01*
X787400Y31750D02*
X781050Y25400D01*
X762000Y44450D02*
X768350Y50800D01*
X762000Y31750D02*
X768350Y25400D01*
X781050Y25400D01*
X793750Y50800D02*
X806450Y50800D01*
X812800Y44450D01*
X812800Y31750D02*
X806450Y25400D01*
X812800Y44450D02*
X819150Y50800D01*
X831850Y50800D01*
X838200Y44450D01*
X838200Y31750D02*
X831850Y25400D01*
X819150Y25400D01*
X812800Y31750D01*
X793750Y50800D02*
X787400Y44450D01*
X787400Y31750D02*
X793750Y25400D01*
X806450Y25400D01*
X838200Y44450D02*
X844550Y50800D01*
X857250Y50800D01*
X863600Y44450D01*
X863600Y31750D02*
X857250Y25400D01*
X844550Y25400D01*
X838200Y31750D01*
X869950Y50800D02*
X882650Y50800D01*
X889000Y44450D01*
X889000Y31750D02*
X882650Y25400D01*
X863600Y44450D02*
X869950Y50800D01*
X863600Y31750D02*
X869950Y25400D01*
X882650Y25400D01*
X895350Y50800D02*
X908050Y50800D01*
X914400Y44450D01*
X914400Y31750D02*
X908050Y25400D01*
X914400Y44450D02*
X920750Y50800D01*
X933450Y50800D01*
X939800Y44450D01*
X939800Y31750D02*
X933450Y25400D01*
X920750Y25400D01*
X914400Y31750D01*
X895350Y50800D02*
X889000Y44450D01*
X889000Y31750D02*
X895350Y25400D01*
X908050Y25400D01*
X939800Y31750D02*
X939800Y44450D01*
D12*
X697868Y20965D02*
X694055Y17152D01*
X697868Y20965D02*
X697868Y9525D01*
X694055Y9525D02*
X701682Y9525D01*
X921385Y62872D02*
X925198Y66685D01*
X925198Y55245D01*
X921385Y55245D02*
X929012Y55245D01*
X933079Y57152D02*
X933079Y64778D01*
X934986Y66685D01*
X938799Y66685D01*
X940705Y64778D01*
X940705Y57152D01*
X938799Y55245D01*
X934986Y55245D01*
X933079Y57152D01*
X940705Y64778D01*
X694062Y71128D02*
X692155Y73035D01*
X688342Y73035D01*
X686435Y71128D01*
X686435Y69222D01*
X688342Y67315D01*
X692155Y67315D01*
X694062Y65408D01*
X694062Y63502D01*
X692155Y61595D01*
X688342Y61595D01*
X686435Y63502D01*
X698129Y65408D02*
X698129Y73035D01*
X698129Y65408D02*
X701942Y61595D01*
X705755Y65408D01*
X705755Y73035D01*
X709823Y69222D02*
X713636Y73035D01*
X713636Y61595D01*
X709823Y61595D02*
X717449Y61595D01*
X721517Y71128D02*
X723424Y73035D01*
X727237Y73035D01*
X729143Y71128D01*
X729143Y69222D01*
X727237Y67315D01*
X725330Y67315D01*
X727237Y67315D02*
X729143Y65408D01*
X729143Y63502D01*
X727237Y61595D01*
X723424Y61595D01*
X721517Y63502D01*
D10*
X599440Y86360D02*
X599340Y86358D01*
X599241Y86352D01*
X599141Y86342D01*
X599043Y86329D01*
X598944Y86311D01*
X598847Y86290D01*
X598751Y86265D01*
X598655Y86236D01*
X598561Y86203D01*
X598468Y86167D01*
X598377Y86127D01*
X598287Y86083D01*
X598199Y86036D01*
X598113Y85986D01*
X598029Y85932D01*
X597947Y85875D01*
X597868Y85815D01*
X597790Y85751D01*
X597716Y85685D01*
X597644Y85616D01*
X597575Y85544D01*
X597509Y85470D01*
X597445Y85392D01*
X597385Y85313D01*
X597328Y85231D01*
X597274Y85147D01*
X597224Y85061D01*
X597177Y84973D01*
X597133Y84883D01*
X597093Y84792D01*
X597057Y84699D01*
X597024Y84605D01*
X596995Y84509D01*
X596970Y84413D01*
X596949Y84316D01*
X596931Y84217D01*
X596918Y84119D01*
X596908Y84019D01*
X596902Y83920D01*
X596900Y83820D01*
X596900Y68580D02*
X596902Y68480D01*
X596908Y68381D01*
X596918Y68281D01*
X596931Y68183D01*
X596949Y68084D01*
X596970Y67987D01*
X596995Y67891D01*
X597024Y67795D01*
X597057Y67701D01*
X597093Y67608D01*
X597133Y67517D01*
X597177Y67427D01*
X597224Y67339D01*
X597274Y67253D01*
X597328Y67169D01*
X597385Y67087D01*
X597445Y67008D01*
X597509Y66930D01*
X597575Y66856D01*
X597644Y66784D01*
X597716Y66715D01*
X597790Y66649D01*
X597868Y66585D01*
X597947Y66525D01*
X598029Y66468D01*
X598113Y66414D01*
X598199Y66364D01*
X598287Y66317D01*
X598377Y66273D01*
X598468Y66233D01*
X598561Y66197D01*
X598655Y66164D01*
X598751Y66135D01*
X598847Y66110D01*
X598944Y66089D01*
X599043Y66071D01*
X599141Y66058D01*
X599241Y66048D01*
X599340Y66042D01*
X599440Y66040D01*
X645160Y66040D02*
X645260Y66042D01*
X645359Y66048D01*
X645459Y66058D01*
X645557Y66071D01*
X645656Y66089D01*
X645753Y66110D01*
X645849Y66135D01*
X645945Y66164D01*
X646039Y66197D01*
X646132Y66233D01*
X646223Y66273D01*
X646313Y66317D01*
X646401Y66364D01*
X646487Y66414D01*
X646571Y66468D01*
X646653Y66525D01*
X646732Y66585D01*
X646810Y66649D01*
X646884Y66715D01*
X646956Y66784D01*
X647025Y66856D01*
X647091Y66930D01*
X647155Y67008D01*
X647215Y67087D01*
X647272Y67169D01*
X647326Y67253D01*
X647376Y67339D01*
X647423Y67427D01*
X647467Y67517D01*
X647507Y67608D01*
X647543Y67701D01*
X647576Y67795D01*
X647605Y67891D01*
X647630Y67987D01*
X647651Y68084D01*
X647669Y68183D01*
X647682Y68281D01*
X647692Y68381D01*
X647698Y68480D01*
X647700Y68580D01*
X647700Y83820D02*
X647698Y83920D01*
X647692Y84019D01*
X647682Y84119D01*
X647669Y84217D01*
X647651Y84316D01*
X647630Y84413D01*
X647605Y84509D01*
X647576Y84605D01*
X647543Y84699D01*
X647507Y84792D01*
X647467Y84883D01*
X647423Y84973D01*
X647376Y85061D01*
X647326Y85147D01*
X647272Y85231D01*
X647215Y85313D01*
X647155Y85392D01*
X647091Y85470D01*
X647025Y85544D01*
X646956Y85616D01*
X646884Y85685D01*
X646810Y85751D01*
X646732Y85815D01*
X646653Y85875D01*
X646571Y85932D01*
X646487Y85986D01*
X646401Y86036D01*
X646313Y86083D01*
X646223Y86127D01*
X646132Y86167D01*
X646039Y86203D01*
X645945Y86236D01*
X645849Y86265D01*
X645753Y86290D01*
X645656Y86311D01*
X645557Y86329D01*
X645459Y86342D01*
X645359Y86352D01*
X645260Y86358D01*
X645160Y86360D01*
X596900Y83820D02*
X596900Y68580D01*
X599440Y86360D02*
X603250Y86360D01*
X604520Y85090D01*
X603250Y66040D02*
X599440Y66040D01*
X603250Y66040D02*
X604520Y67310D01*
X640080Y85090D02*
X641350Y86360D01*
X640080Y85090D02*
X604520Y85090D01*
X640080Y67310D02*
X641350Y66040D01*
X640080Y67310D02*
X604520Y67310D01*
X641350Y86360D02*
X645160Y86360D01*
X645160Y66040D02*
X641350Y66040D01*
X647700Y68580D02*
X647700Y83820D01*
D18*
X649605Y76200D03*
X594995Y76200D03*
D15*
X597408Y89662D02*
X597408Y98560D01*
X601857Y98560D01*
X603340Y97077D01*
X603340Y94111D01*
X601857Y92628D01*
X597408Y92628D01*
X600374Y92628D02*
X603340Y89662D01*
X606529Y95594D02*
X609495Y98560D01*
X609495Y89662D01*
X606529Y89662D02*
X612461Y89662D01*
D10*
X863600Y83820D02*
X863602Y83920D01*
X863608Y84019D01*
X863618Y84119D01*
X863631Y84217D01*
X863649Y84316D01*
X863670Y84413D01*
X863695Y84509D01*
X863724Y84605D01*
X863757Y84699D01*
X863793Y84792D01*
X863833Y84883D01*
X863877Y84973D01*
X863924Y85061D01*
X863974Y85147D01*
X864028Y85231D01*
X864085Y85313D01*
X864145Y85392D01*
X864209Y85470D01*
X864275Y85544D01*
X864344Y85616D01*
X864416Y85685D01*
X864490Y85751D01*
X864568Y85815D01*
X864647Y85875D01*
X864729Y85932D01*
X864813Y85986D01*
X864899Y86036D01*
X864987Y86083D01*
X865077Y86127D01*
X865168Y86167D01*
X865261Y86203D01*
X865355Y86236D01*
X865451Y86265D01*
X865547Y86290D01*
X865644Y86311D01*
X865743Y86329D01*
X865841Y86342D01*
X865941Y86352D01*
X866040Y86358D01*
X866140Y86360D01*
X863600Y68580D02*
X863602Y68480D01*
X863608Y68381D01*
X863618Y68281D01*
X863631Y68183D01*
X863649Y68084D01*
X863670Y67987D01*
X863695Y67891D01*
X863724Y67795D01*
X863757Y67701D01*
X863793Y67608D01*
X863833Y67517D01*
X863877Y67427D01*
X863924Y67339D01*
X863974Y67253D01*
X864028Y67169D01*
X864085Y67087D01*
X864145Y67008D01*
X864209Y66930D01*
X864275Y66856D01*
X864344Y66784D01*
X864416Y66715D01*
X864490Y66649D01*
X864568Y66585D01*
X864647Y66525D01*
X864729Y66468D01*
X864813Y66414D01*
X864899Y66364D01*
X864987Y66317D01*
X865077Y66273D01*
X865168Y66233D01*
X865261Y66197D01*
X865355Y66164D01*
X865451Y66135D01*
X865547Y66110D01*
X865644Y66089D01*
X865743Y66071D01*
X865841Y66058D01*
X865941Y66048D01*
X866040Y66042D01*
X866140Y66040D01*
X911860Y66040D02*
X911960Y66042D01*
X912059Y66048D01*
X912159Y66058D01*
X912257Y66071D01*
X912356Y66089D01*
X912453Y66110D01*
X912549Y66135D01*
X912645Y66164D01*
X912739Y66197D01*
X912832Y66233D01*
X912923Y66273D01*
X913013Y66317D01*
X913101Y66364D01*
X913187Y66414D01*
X913271Y66468D01*
X913353Y66525D01*
X913432Y66585D01*
X913510Y66649D01*
X913584Y66715D01*
X913656Y66784D01*
X913725Y66856D01*
X913791Y66930D01*
X913855Y67008D01*
X913915Y67087D01*
X913972Y67169D01*
X914026Y67253D01*
X914076Y67339D01*
X914123Y67427D01*
X914167Y67517D01*
X914207Y67608D01*
X914243Y67701D01*
X914276Y67795D01*
X914305Y67891D01*
X914330Y67987D01*
X914351Y68084D01*
X914369Y68183D01*
X914382Y68281D01*
X914392Y68381D01*
X914398Y68480D01*
X914400Y68580D01*
X914400Y83820D02*
X914398Y83920D01*
X914392Y84019D01*
X914382Y84119D01*
X914369Y84217D01*
X914351Y84316D01*
X914330Y84413D01*
X914305Y84509D01*
X914276Y84605D01*
X914243Y84699D01*
X914207Y84792D01*
X914167Y84883D01*
X914123Y84973D01*
X914076Y85061D01*
X914026Y85147D01*
X913972Y85231D01*
X913915Y85313D01*
X913855Y85392D01*
X913791Y85470D01*
X913725Y85544D01*
X913656Y85616D01*
X913584Y85685D01*
X913510Y85751D01*
X913432Y85815D01*
X913353Y85875D01*
X913271Y85932D01*
X913187Y85986D01*
X913101Y86036D01*
X913013Y86083D01*
X912923Y86127D01*
X912832Y86167D01*
X912739Y86203D01*
X912645Y86236D01*
X912549Y86265D01*
X912453Y86290D01*
X912356Y86311D01*
X912257Y86329D01*
X912159Y86342D01*
X912059Y86352D01*
X911960Y86358D01*
X911860Y86360D01*
X863600Y83820D02*
X863600Y68580D01*
X866140Y86360D02*
X869950Y86360D01*
X871220Y85090D01*
X869950Y66040D02*
X866140Y66040D01*
X869950Y66040D02*
X871220Y67310D01*
X906780Y85090D02*
X908050Y86360D01*
X906780Y85090D02*
X871220Y85090D01*
X906780Y67310D02*
X908050Y66040D01*
X906780Y67310D02*
X871220Y67310D01*
X908050Y86360D02*
X911860Y86360D01*
X911860Y66040D02*
X908050Y66040D01*
X914400Y68580D02*
X914400Y83820D01*
D18*
X916305Y76200D03*
X861695Y76200D03*
D15*
X813308Y76962D02*
X813308Y85860D01*
X817757Y85860D01*
X819240Y84377D01*
X819240Y81411D01*
X817757Y79928D01*
X813308Y79928D01*
X816274Y79928D02*
X819240Y76962D01*
X822429Y84377D02*
X823912Y85860D01*
X826878Y85860D01*
X828361Y84377D01*
X828361Y82894D01*
X826878Y81411D01*
X825395Y81411D01*
X826878Y81411D02*
X828361Y79928D01*
X828361Y78445D01*
X826878Y76962D01*
X823912Y76962D01*
X822429Y78445D01*
D10*
X69850Y215900D02*
X69850Y228600D01*
X69850Y215900D02*
X63500Y209550D01*
X69850Y203200D01*
X69850Y190500D01*
X63500Y184150D01*
X69850Y228600D02*
X63500Y234950D01*
X63500Y184150D02*
X69850Y177800D01*
X69850Y165100D01*
X63500Y158750D01*
X69850Y152400D02*
X69850Y139700D01*
X63500Y133350D01*
X69850Y127000D01*
X69850Y114300D01*
X69850Y152400D02*
X63500Y158750D01*
X25400Y209550D02*
X19050Y215900D01*
X19050Y190500D02*
X25400Y184150D01*
X19050Y190500D02*
X19050Y203200D01*
X25400Y209550D01*
X25400Y234950D02*
X63500Y234950D01*
X25400Y234950D02*
X19050Y228600D01*
X19050Y215900D01*
X19050Y165100D02*
X25400Y158750D01*
X19050Y165100D02*
X19050Y177800D01*
X25400Y184150D01*
X19050Y139700D02*
X25400Y133350D01*
X19050Y127000D02*
X19050Y114300D01*
X19050Y127000D02*
X25400Y133350D01*
X19050Y152400D02*
X25400Y158750D01*
X19050Y152400D02*
X19050Y139700D01*
X25400Y107950D02*
X63500Y107950D01*
X69850Y114300D01*
X25400Y107950D02*
X19050Y114300D01*
D12*
X6979Y216271D02*
X3165Y220084D01*
X14605Y220084D01*
X14605Y216271D02*
X14605Y223898D01*
X74285Y106790D02*
X78099Y102977D01*
X74285Y106790D02*
X85725Y106790D01*
X85725Y102977D02*
X85725Y110604D01*
X83818Y114671D02*
X76192Y114671D01*
X74285Y116578D01*
X74285Y120391D01*
X76192Y122298D01*
X83818Y122298D01*
X85725Y120391D01*
X85725Y116578D01*
X83818Y114671D01*
X76192Y122298D01*
X74285Y181829D02*
X76192Y183736D01*
X74285Y181829D02*
X74285Y178016D01*
X76192Y176109D01*
X78099Y176109D01*
X80005Y178016D01*
X80005Y181829D01*
X81912Y183736D01*
X83818Y183736D01*
X85725Y181829D01*
X85725Y178016D01*
X83818Y176109D01*
X81912Y187803D02*
X74285Y187803D01*
X81912Y187803D02*
X85725Y191616D01*
X81912Y195430D01*
X74285Y195430D01*
X78099Y199497D02*
X74285Y203310D01*
X85725Y203310D01*
X85725Y199497D02*
X85725Y207123D01*
X85725Y216911D02*
X74285Y216911D01*
X80005Y211191D01*
X80005Y218817D01*
D10*
X990600Y215900D02*
X990600Y228600D01*
X990600Y215900D02*
X984250Y209550D01*
X990600Y203200D01*
X990600Y190500D01*
X984250Y184150D01*
X990600Y228600D02*
X984250Y234950D01*
X984250Y184150D02*
X990600Y177800D01*
X990600Y165100D01*
X984250Y158750D01*
X990600Y152400D02*
X990600Y139700D01*
X984250Y133350D01*
X990600Y127000D01*
X990600Y114300D01*
X990600Y152400D02*
X984250Y158750D01*
X946150Y209550D02*
X939800Y215900D01*
X939800Y190500D02*
X946150Y184150D01*
X939800Y190500D02*
X939800Y203200D01*
X946150Y209550D01*
X946150Y234950D02*
X984250Y234950D01*
X946150Y234950D02*
X939800Y228600D01*
X939800Y215900D01*
X939800Y165100D02*
X946150Y158750D01*
X939800Y165100D02*
X939800Y177800D01*
X946150Y184150D01*
X939800Y139700D02*
X946150Y133350D01*
X939800Y127000D02*
X939800Y114300D01*
X939800Y127000D02*
X946150Y133350D01*
X939800Y152400D02*
X946150Y158750D01*
X939800Y152400D02*
X939800Y139700D01*
X946150Y107950D02*
X984250Y107950D01*
X990600Y114300D01*
X946150Y107950D02*
X939800Y114300D01*
D12*
X927729Y216271D02*
X923915Y220084D01*
X935355Y220084D01*
X935355Y216271D02*
X935355Y223898D01*
X995035Y106790D02*
X998849Y102977D01*
X995035Y106790D02*
X1006475Y106790D01*
X1006475Y102977D02*
X1006475Y110604D01*
X1004568Y114671D02*
X996942Y114671D01*
X995035Y116578D01*
X995035Y120391D01*
X996942Y122298D01*
X1004568Y122298D01*
X1006475Y120391D01*
X1006475Y116578D01*
X1004568Y114671D01*
X996942Y122298D01*
X995035Y181829D02*
X996942Y183736D01*
X995035Y181829D02*
X995035Y178016D01*
X996942Y176109D01*
X998849Y176109D01*
X1000755Y178016D01*
X1000755Y181829D01*
X1002662Y183736D01*
X1004568Y183736D01*
X1006475Y181829D01*
X1006475Y178016D01*
X1004568Y176109D01*
X1002662Y187803D02*
X995035Y187803D01*
X1002662Y187803D02*
X1006475Y191616D01*
X1002662Y195430D01*
X995035Y195430D01*
X998849Y199497D02*
X995035Y203310D01*
X1006475Y203310D01*
X1006475Y199497D02*
X1006475Y207123D01*
X995035Y211191D02*
X995035Y218817D01*
X995035Y211191D02*
X1000755Y211191D01*
X998849Y215004D01*
X998849Y216911D01*
X1000755Y218817D01*
X1004568Y218817D01*
X1006475Y216911D01*
X1006475Y213098D01*
X1004568Y211191D01*
D10*
X895350Y107950D02*
X882650Y107950D01*
X876300Y114300D01*
X876300Y127000D02*
X882650Y133350D01*
X876300Y114300D02*
X869950Y107950D01*
X857250Y107950D01*
X850900Y114300D01*
X850900Y127000D02*
X857250Y133350D01*
X869950Y133350D01*
X876300Y127000D01*
X901700Y127000D02*
X901700Y114300D01*
X895350Y107950D01*
X901700Y127000D02*
X895350Y133350D01*
X882650Y133350D01*
X850900Y114300D02*
X844550Y107950D01*
X831850Y107950D01*
X825500Y114300D01*
X825500Y127000D02*
X831850Y133350D01*
X844550Y133350D01*
X850900Y127000D01*
X819150Y107950D02*
X806450Y107950D01*
X800100Y114300D01*
X800100Y127000D02*
X806450Y133350D01*
X825500Y114300D02*
X819150Y107950D01*
X825500Y127000D02*
X819150Y133350D01*
X806450Y133350D01*
X793750Y107950D02*
X781050Y107950D01*
X774700Y114300D01*
X774700Y127000D02*
X781050Y133350D01*
X774700Y114300D02*
X768350Y107950D01*
X755650Y107950D01*
X749300Y114300D01*
X749300Y127000D02*
X755650Y133350D01*
X768350Y133350D01*
X774700Y127000D01*
X793750Y107950D02*
X800100Y114300D01*
X800100Y127000D02*
X793750Y133350D01*
X781050Y133350D01*
X749300Y114300D02*
X742950Y107950D01*
X730250Y107950D01*
X723900Y114300D01*
X723900Y127000D02*
X730250Y133350D01*
X742950Y133350D01*
X749300Y127000D01*
X717550Y107950D02*
X704850Y107950D01*
X698500Y114300D01*
X698500Y127000D01*
X704850Y133350D01*
X723900Y114300D02*
X717550Y107950D01*
X723900Y127000D02*
X717550Y133350D01*
X704850Y133350D01*
D12*
X883021Y145422D02*
X886834Y149235D01*
X886834Y137795D01*
X883021Y137795D02*
X890648Y137795D01*
X708398Y103515D02*
X706491Y101608D01*
X708398Y103515D02*
X712211Y103515D01*
X714118Y101608D01*
X714118Y99702D01*
X712211Y97795D01*
X714118Y95888D01*
X714118Y93982D01*
X712211Y92075D01*
X708398Y92075D01*
X706491Y93982D01*
X706491Y95888D01*
X708398Y97795D01*
X706491Y99702D01*
X706491Y101608D01*
X708398Y97795D02*
X712211Y97795D01*
X659986Y139708D02*
X658079Y141615D01*
X654266Y141615D01*
X652359Y139708D01*
X652359Y137802D01*
X654266Y135895D01*
X658079Y135895D01*
X659986Y133988D01*
X659986Y132082D01*
X658079Y130175D01*
X654266Y130175D01*
X652359Y132082D01*
X664053Y133988D02*
X664053Y141615D01*
X664053Y133988D02*
X667866Y130175D01*
X671680Y133988D01*
X671680Y141615D01*
X675747Y137802D02*
X679560Y141615D01*
X679560Y130175D01*
X675747Y130175D02*
X683373Y130175D01*
X687441Y132082D02*
X687441Y139708D01*
X689348Y141615D01*
X693161Y141615D01*
X695067Y139708D01*
X695067Y132082D01*
X693161Y130175D01*
X689348Y130175D01*
X687441Y132082D01*
X695067Y139708D01*
M02*
