G04 EAGLE Gerber RS-274X export*
G75*
%MOMM*%
%FSLAX34Y34*%
%LPD*%
%INSoldermask Bottom*%
%IPPOS*%
%AMOC8*
5,1,8,0,0,1.08239X$1,22.5*%
G01*
%ADD10C,3.003200*%
%ADD11C,1.849119*%
%ADD12P,2.001468X8X292.500000*%
%ADD13P,1.951982X8X202.500000*%
%ADD14P,1.951982X8X22.500000*%
%ADD15P,1.803519X8X292.500000*%
%ADD16P,1.951982X8X112.500000*%
%ADD17C,1.803400*%
%ADD18C,1.666238*%
%ADD19P,2.199416X8X22.500000*%
%ADD20C,2.032000*%
%ADD21C,1.463200*%
%ADD22R,1.463200X1.463200*%
%ADD23P,1.803519X8X22.500000*%
%ADD24P,2.199416X8X292.500000*%
%ADD25C,0.655600*%


D10*
X38100Y825500D03*
X977900Y825500D03*
X977900Y38100D03*
X38100Y38100D03*
D11*
X63500Y774700D03*
D12*
X38100Y774700D03*
X63500Y749300D03*
X38100Y749300D03*
X63500Y723900D03*
X38100Y723900D03*
X63500Y698500D03*
X38100Y698500D03*
X63500Y673100D03*
X38100Y673100D03*
X63500Y647700D03*
X38100Y647700D03*
X63500Y622300D03*
X38100Y622300D03*
X63500Y596900D03*
X38100Y596900D03*
X63500Y571500D03*
X38100Y571500D03*
X63500Y546100D03*
X38100Y546100D03*
X63500Y520700D03*
X38100Y520700D03*
X63500Y495300D03*
X38100Y495300D03*
X63500Y469900D03*
X38100Y469900D03*
X63500Y444500D03*
X38100Y444500D03*
X63500Y419100D03*
X38100Y419100D03*
X63500Y393700D03*
X38100Y393700D03*
X63500Y368300D03*
X38100Y368300D03*
X63500Y342900D03*
X38100Y342900D03*
X63500Y317500D03*
X38100Y317500D03*
X63500Y292100D03*
X38100Y292100D03*
D11*
X977900Y774700D03*
D12*
X952500Y774700D03*
X977900Y749300D03*
X952500Y749300D03*
X977900Y723900D03*
X952500Y723900D03*
X977900Y698500D03*
X952500Y698500D03*
X977900Y673100D03*
X952500Y673100D03*
X977900Y647700D03*
X952500Y647700D03*
X977900Y622300D03*
X952500Y622300D03*
X977900Y596900D03*
X952500Y596900D03*
X977900Y571500D03*
X952500Y571500D03*
X977900Y546100D03*
X952500Y546100D03*
X977900Y520700D03*
X952500Y520700D03*
X977900Y495300D03*
X952500Y495300D03*
X977900Y469900D03*
X952500Y469900D03*
X977900Y444500D03*
X952500Y444500D03*
X977900Y419100D03*
X952500Y419100D03*
X977900Y393700D03*
X952500Y393700D03*
X977900Y368300D03*
X952500Y368300D03*
X977900Y342900D03*
X952500Y342900D03*
X977900Y317500D03*
X952500Y317500D03*
X977900Y292100D03*
X952500Y292100D03*
D13*
X215900Y787400D03*
X165100Y787400D03*
X412750Y787400D03*
X361950Y787400D03*
D14*
X774700Y787400D03*
X825500Y787400D03*
X577850Y787400D03*
X628650Y787400D03*
D15*
X501650Y603250D03*
X501650Y527050D03*
D16*
X146050Y360680D03*
D17*
X146050Y325120D03*
D18*
X526085Y749300D02*
X540715Y749300D01*
X540715Y723900D02*
X526085Y723900D01*
X526085Y596900D02*
X540715Y596900D01*
X540715Y571500D02*
X526085Y571500D01*
X526085Y698500D02*
X540715Y698500D01*
X540715Y673100D02*
X526085Y673100D01*
X526085Y622300D02*
X540715Y622300D01*
X540715Y647700D02*
X526085Y647700D01*
X526085Y546100D02*
X540715Y546100D01*
X540715Y520700D02*
X526085Y520700D01*
X526085Y495300D02*
X540715Y495300D01*
X540715Y469900D02*
X526085Y469900D01*
X526085Y444500D02*
X540715Y444500D01*
X540715Y419100D02*
X526085Y419100D01*
X526085Y393700D02*
X540715Y393700D01*
X540715Y368300D02*
X526085Y368300D01*
X526085Y342900D02*
X540715Y342900D01*
X540715Y317500D02*
X526085Y317500D01*
X526085Y292100D02*
X540715Y292100D01*
X540715Y266700D02*
X526085Y266700D01*
X678485Y266700D02*
X693115Y266700D01*
X693115Y292100D02*
X678485Y292100D01*
X678485Y317500D02*
X693115Y317500D01*
X693115Y342900D02*
X678485Y342900D01*
X678485Y368300D02*
X693115Y368300D01*
X693115Y393700D02*
X678485Y393700D01*
X678485Y419100D02*
X693115Y419100D01*
X693115Y444500D02*
X678485Y444500D01*
X678485Y469900D02*
X693115Y469900D01*
X693115Y495300D02*
X678485Y495300D01*
X678485Y520700D02*
X693115Y520700D01*
X693115Y546100D02*
X678485Y546100D01*
X678485Y571500D02*
X693115Y571500D01*
X693115Y596900D02*
X678485Y596900D01*
X678485Y622300D02*
X693115Y622300D01*
X693115Y647700D02*
X678485Y647700D01*
X678485Y673100D02*
X693115Y673100D01*
X693115Y698500D02*
X678485Y698500D01*
X678485Y723900D02*
X693115Y723900D01*
X693115Y749300D02*
X678485Y749300D01*
D19*
X184150Y38100D03*
X209550Y38100D03*
X234950Y38100D03*
X260350Y38100D03*
X285750Y38100D03*
X311150Y38100D03*
X184150Y63500D03*
X209550Y63500D03*
X234950Y63500D03*
X260350Y63500D03*
X285750Y63500D03*
X311150Y63500D03*
X336550Y38100D03*
X361950Y38100D03*
X336550Y63500D03*
X361950Y63500D03*
X387350Y38100D03*
X387350Y63500D03*
D18*
X127965Y749300D02*
X113335Y749300D01*
X113335Y723900D02*
X127965Y723900D01*
X127965Y698500D02*
X113335Y698500D01*
X113335Y673100D02*
X127965Y673100D01*
X127965Y647700D02*
X113335Y647700D01*
X113335Y622300D02*
X127965Y622300D01*
X127965Y596900D02*
X113335Y596900D01*
X113335Y571500D02*
X127965Y571500D01*
X127965Y546100D02*
X113335Y546100D01*
X113335Y520700D02*
X127965Y520700D01*
X127965Y495300D02*
X113335Y495300D01*
X113335Y469900D02*
X127965Y469900D01*
X127965Y444500D02*
X113335Y444500D01*
X113335Y419100D02*
X127965Y419100D01*
X265735Y419100D02*
X280365Y419100D01*
X280365Y444500D02*
X265735Y444500D01*
X265735Y469900D02*
X280365Y469900D01*
X280365Y495300D02*
X265735Y495300D01*
X265735Y520700D02*
X280365Y520700D01*
X280365Y546100D02*
X265735Y546100D01*
X265735Y571500D02*
X280365Y571500D01*
X280365Y596900D02*
X265735Y596900D01*
X265735Y622300D02*
X280365Y622300D01*
X280365Y647700D02*
X265735Y647700D01*
X265735Y673100D02*
X280365Y673100D01*
X280365Y698500D02*
X265735Y698500D01*
X265735Y723900D02*
X280365Y723900D01*
X280365Y749300D02*
X265735Y749300D01*
X310185Y749300D02*
X324815Y749300D01*
X324815Y723900D02*
X310185Y723900D01*
X310185Y698500D02*
X324815Y698500D01*
X324815Y673100D02*
X310185Y673100D01*
X310185Y647700D02*
X324815Y647700D01*
X324815Y622300D02*
X310185Y622300D01*
X310185Y596900D02*
X324815Y596900D01*
X324815Y571500D02*
X310185Y571500D01*
X310185Y546100D02*
X324815Y546100D01*
X324815Y520700D02*
X310185Y520700D01*
X310185Y495300D02*
X324815Y495300D01*
X324815Y469900D02*
X310185Y469900D01*
X310185Y444500D02*
X324815Y444500D01*
X324815Y419100D02*
X310185Y419100D01*
X462585Y419100D02*
X477215Y419100D01*
X477215Y444500D02*
X462585Y444500D01*
X462585Y469900D02*
X477215Y469900D01*
X477215Y495300D02*
X462585Y495300D01*
X462585Y520700D02*
X477215Y520700D01*
X477215Y546100D02*
X462585Y546100D01*
X462585Y571500D02*
X477215Y571500D01*
X477215Y596900D02*
X462585Y596900D01*
X462585Y622300D02*
X477215Y622300D01*
X477215Y647700D02*
X462585Y647700D01*
X462585Y673100D02*
X477215Y673100D01*
X477215Y698500D02*
X462585Y698500D01*
X462585Y723900D02*
X477215Y723900D01*
X477215Y749300D02*
X462585Y749300D01*
D20*
X771906Y393700D02*
X790194Y393700D01*
X790194Y419100D02*
X771906Y419100D01*
X771906Y444500D02*
X790194Y444500D01*
X745744Y393700D02*
X727456Y393700D01*
X727456Y419100D02*
X745744Y419100D01*
X745744Y444500D02*
X727456Y444500D01*
D21*
X762000Y717550D03*
X838200Y717550D03*
X838200Y641350D03*
D22*
X762000Y641350D03*
D20*
X431800Y47244D02*
X431800Y28956D01*
X457200Y28956D02*
X457200Y47244D01*
X482600Y47244D02*
X482600Y28956D01*
X508000Y28956D02*
X508000Y47244D01*
X533400Y47244D02*
X533400Y28956D01*
X558800Y28956D02*
X558800Y47244D01*
X584200Y47244D02*
X584200Y28956D01*
X609600Y28956D02*
X609600Y47244D01*
X635000Y47244D02*
X635000Y28956D01*
X660400Y28956D02*
X660400Y47244D01*
X698500Y47244D02*
X698500Y28956D01*
X723900Y28956D02*
X723900Y47244D01*
X749300Y47244D02*
X749300Y28956D01*
X774700Y28956D02*
X774700Y47244D01*
X800100Y47244D02*
X800100Y28956D01*
X825500Y28956D02*
X825500Y47244D01*
X850900Y47244D02*
X850900Y28956D01*
X876300Y28956D02*
X876300Y47244D01*
X901700Y47244D02*
X901700Y28956D01*
X927100Y28956D02*
X927100Y47244D01*
D23*
X584200Y76200D03*
X660400Y76200D03*
X850900Y76200D03*
X927100Y76200D03*
D24*
X31750Y222250D03*
X31750Y196850D03*
X31750Y171450D03*
X31750Y146050D03*
X31750Y120650D03*
X57150Y222250D03*
X57150Y196850D03*
X57150Y171450D03*
X57150Y146050D03*
X57150Y120650D03*
X952500Y222250D03*
X952500Y196850D03*
X952500Y171450D03*
X952500Y146050D03*
X952500Y120650D03*
X977900Y222250D03*
X977900Y196850D03*
X977900Y171450D03*
X977900Y146050D03*
X977900Y120650D03*
D20*
X889000Y129794D02*
X889000Y111506D01*
X863600Y111506D02*
X863600Y129794D01*
X838200Y129794D02*
X838200Y111506D01*
X812800Y111506D02*
X812800Y129794D01*
X787400Y129794D02*
X787400Y111506D01*
X762000Y111506D02*
X762000Y129794D01*
X736600Y129794D02*
X736600Y111506D01*
X711200Y111506D02*
X711200Y129794D01*
D25*
X804672Y672592D03*
X875792Y60960D03*
X796544Y522224D03*
X18288Y323088D03*
X629920Y233680D03*
X416560Y272288D03*
X375920Y489712D03*
X347472Y601472D03*
X284480Y532384D03*
X497840Y583184D03*
X353568Y528320D03*
X14224Y453136D03*
X447040Y546608D03*
X497840Y558800D03*
X286512Y505968D03*
X379984Y711200D03*
X335280Y564896D03*
X398272Y262128D03*
X290576Y483616D03*
X621792Y652272D03*
X390144Y142240D03*
X556768Y617728D03*
X514096Y516128D03*
X20320Y597408D03*
X245872Y436880D03*
X355600Y270256D03*
X351536Y442976D03*
X615696Y636016D03*
X554736Y510032D03*
X398272Y254000D03*
X292608Y432816D03*
X254000Y440944D03*
X349504Y205232D03*
X343408Y296672D03*
X335280Y487680D03*
X711200Y573024D03*
X404368Y268224D03*
X514096Y636016D03*
X363728Y276352D03*
X487680Y503936D03*
X453136Y538480D03*
X861568Y410464D03*
X861568Y473456D03*
X715264Y615696D03*
X503936Y684784D03*
X853440Y410464D03*
X853440Y524256D03*
X749808Y627888D03*
X717296Y556768D03*
X575056Y282448D03*
X575056Y182880D03*
X631952Y473456D03*
X631952Y447040D03*
X619760Y642112D03*
X599440Y447040D03*
X599440Y270256D03*
X705104Y542544D03*
X611632Y408432D03*
X920496Y544576D03*
X701040Y223520D03*
X672592Y195072D03*
X644144Y166624D03*
X774192Y741680D03*
X755904Y611632D03*
X827024Y524256D03*
X636016Y260096D03*
X926592Y530352D03*
X652272Y223520D03*
X668528Y459232D03*
X662432Y278384D03*
X656336Y239776D03*
X942848Y562864D03*
X904240Y560832D03*
X847344Y503936D03*
X644144Y223520D03*
X636016Y152400D03*
X993648Y233680D03*
X991616Y115824D03*
X997712Y475488D03*
X627888Y217424D03*
X475488Y65024D03*
X369824Y50800D03*
X335280Y605536D03*
X341376Y617728D03*
X601472Y642112D03*
X936752Y514096D03*
X245872Y213360D03*
X629920Y288544D03*
X747776Y355600D03*
X930656Y209296D03*
X824992Y668528D03*
X839216Y556768D03*
X792480Y178816D03*
M02*
