G04 EAGLE Gerber RS-274X export*
G75*
%MOMM*%
%FSLAX34Y34*%
%LPD*%
%INBottom Copper*%
%IPPOS*%
%AMOC8*
5,1,8,0,0,1.08239X$1,22.5*%
G01*
%ADD10C,1.463037*%
%ADD11C,1.645919*%
%ADD12P,1.781526X8X292.500000*%
%ADD13C,1.828800*%
%ADD14C,1.463037*%
%ADD15P,1.583577X8X112.500000*%
%ADD16P,1.732040X8X202.500000*%
%ADD17P,1.583577X8X292.500000*%
%ADD18P,1.583577X8X202.500000*%
%ADD19P,1.732040X8X292.500000*%
%ADD20P,1.732040X8X22.500000*%
%ADD21C,1.600200*%
%ADD22P,2.573315X8X22.500000*%
%ADD23C,0.203200*%
%ADD24C,0.452400*%


D10*
X119685Y774700D02*
X134315Y774700D01*
X134315Y749300D02*
X119685Y749300D01*
X119685Y622300D02*
X134315Y622300D01*
X134315Y596900D02*
X119685Y596900D01*
X119685Y723900D02*
X134315Y723900D01*
X134315Y698500D02*
X119685Y698500D01*
X119685Y647700D02*
X134315Y647700D01*
X134315Y673100D02*
X119685Y673100D01*
X119685Y571500D02*
X134315Y571500D01*
X134315Y546100D02*
X119685Y546100D01*
X119685Y520700D02*
X134315Y520700D01*
X134315Y495300D02*
X119685Y495300D01*
X119685Y469900D02*
X134315Y469900D01*
X134315Y444500D02*
X119685Y444500D01*
X119685Y419100D02*
X134315Y419100D01*
X134315Y393700D02*
X119685Y393700D01*
X119685Y368300D02*
X134315Y368300D01*
X134315Y342900D02*
X119685Y342900D01*
X119685Y317500D02*
X134315Y317500D01*
X134315Y292100D02*
X119685Y292100D01*
X272085Y292100D02*
X286715Y292100D01*
X286715Y317500D02*
X272085Y317500D01*
X272085Y342900D02*
X286715Y342900D01*
X286715Y368300D02*
X272085Y368300D01*
X272085Y393700D02*
X286715Y393700D01*
X286715Y419100D02*
X272085Y419100D01*
X272085Y444500D02*
X286715Y444500D01*
X286715Y469900D02*
X272085Y469900D01*
X272085Y495300D02*
X286715Y495300D01*
X286715Y520700D02*
X272085Y520700D01*
X272085Y546100D02*
X286715Y546100D01*
X286715Y571500D02*
X272085Y571500D01*
X272085Y596900D02*
X286715Y596900D01*
X286715Y622300D02*
X272085Y622300D01*
X272085Y647700D02*
X286715Y647700D01*
X286715Y673100D02*
X272085Y673100D01*
X272085Y698500D02*
X286715Y698500D01*
X286715Y723900D02*
X272085Y723900D01*
X272085Y749300D02*
X286715Y749300D01*
X286715Y774700D02*
X272085Y774700D01*
X316535Y749300D02*
X331165Y749300D01*
X331165Y723900D02*
X316535Y723900D01*
X316535Y698500D02*
X331165Y698500D01*
X331165Y673100D02*
X316535Y673100D01*
X316535Y647700D02*
X331165Y647700D01*
X331165Y622300D02*
X316535Y622300D01*
X316535Y596900D02*
X331165Y596900D01*
X331165Y571500D02*
X316535Y571500D01*
X316535Y546100D02*
X331165Y546100D01*
X331165Y520700D02*
X316535Y520700D01*
X316535Y495300D02*
X331165Y495300D01*
X331165Y469900D02*
X316535Y469900D01*
X316535Y444500D02*
X331165Y444500D01*
X331165Y419100D02*
X316535Y419100D01*
X468935Y419100D02*
X483565Y419100D01*
X483565Y444500D02*
X468935Y444500D01*
X468935Y469900D02*
X483565Y469900D01*
X483565Y495300D02*
X468935Y495300D01*
X468935Y520700D02*
X483565Y520700D01*
X483565Y546100D02*
X468935Y546100D01*
X468935Y571500D02*
X483565Y571500D01*
X483565Y596900D02*
X468935Y596900D01*
X468935Y622300D02*
X483565Y622300D01*
X483565Y647700D02*
X468935Y647700D01*
X468935Y673100D02*
X483565Y673100D01*
X483565Y698500D02*
X468935Y698500D01*
X468935Y723900D02*
X483565Y723900D01*
X483565Y749300D02*
X468935Y749300D01*
X710235Y774700D02*
X724865Y774700D01*
X724865Y749300D02*
X710235Y749300D01*
X710235Y622300D02*
X724865Y622300D01*
X724865Y596900D02*
X710235Y596900D01*
X710235Y723900D02*
X724865Y723900D01*
X724865Y698500D02*
X710235Y698500D01*
X710235Y647700D02*
X724865Y647700D01*
X724865Y673100D02*
X710235Y673100D01*
X710235Y571500D02*
X724865Y571500D01*
X724865Y546100D02*
X710235Y546100D01*
X710235Y520700D02*
X724865Y520700D01*
X724865Y495300D02*
X710235Y495300D01*
X710235Y469900D02*
X724865Y469900D01*
X724865Y444500D02*
X710235Y444500D01*
X710235Y419100D02*
X724865Y419100D01*
X724865Y393700D02*
X710235Y393700D01*
X710235Y368300D02*
X724865Y368300D01*
X724865Y342900D02*
X710235Y342900D01*
X710235Y317500D02*
X724865Y317500D01*
X724865Y292100D02*
X710235Y292100D01*
X862635Y292100D02*
X877265Y292100D01*
X877265Y317500D02*
X862635Y317500D01*
X862635Y342900D02*
X877265Y342900D01*
X877265Y368300D02*
X862635Y368300D01*
X862635Y393700D02*
X877265Y393700D01*
X877265Y419100D02*
X862635Y419100D01*
X862635Y444500D02*
X877265Y444500D01*
X877265Y469900D02*
X862635Y469900D01*
X862635Y495300D02*
X877265Y495300D01*
X877265Y520700D02*
X862635Y520700D01*
X862635Y546100D02*
X877265Y546100D01*
X877265Y571500D02*
X862635Y571500D01*
X862635Y596900D02*
X877265Y596900D01*
X877265Y622300D02*
X862635Y622300D01*
X862635Y647700D02*
X877265Y647700D01*
X877265Y673100D02*
X862635Y673100D01*
X862635Y698500D02*
X877265Y698500D01*
X877265Y723900D02*
X862635Y723900D01*
X862635Y749300D02*
X877265Y749300D01*
X877265Y774700D02*
X862635Y774700D01*
D11*
X63500Y774700D03*
D12*
X38100Y774700D03*
X63500Y749300D03*
X38100Y749300D03*
X63500Y723900D03*
X38100Y723900D03*
X63500Y698500D03*
X38100Y698500D03*
X63500Y673100D03*
X38100Y673100D03*
X63500Y647700D03*
X38100Y647700D03*
X63500Y622300D03*
X38100Y622300D03*
X63500Y596900D03*
X38100Y596900D03*
X63500Y571500D03*
X38100Y571500D03*
X63500Y546100D03*
X38100Y546100D03*
X63500Y520700D03*
X38100Y520700D03*
X63500Y495300D03*
X38100Y495300D03*
X63500Y469900D03*
X38100Y469900D03*
X63500Y444500D03*
X38100Y444500D03*
X63500Y419100D03*
X38100Y419100D03*
X63500Y393700D03*
X38100Y393700D03*
X63500Y368300D03*
X38100Y368300D03*
X63500Y342900D03*
X38100Y342900D03*
X63500Y317500D03*
X38100Y317500D03*
X63500Y292100D03*
X38100Y292100D03*
D13*
X304800Y797306D02*
X304800Y815594D01*
X330200Y815594D02*
X330200Y797306D01*
X355600Y797306D02*
X355600Y815594D01*
D11*
X977900Y774700D03*
D12*
X952500Y774700D03*
X977900Y749300D03*
X952500Y749300D03*
X977900Y723900D03*
X952500Y723900D03*
X977900Y698500D03*
X952500Y698500D03*
X977900Y673100D03*
X952500Y673100D03*
X977900Y647700D03*
X952500Y647700D03*
X977900Y622300D03*
X952500Y622300D03*
X977900Y596900D03*
X952500Y596900D03*
X977900Y571500D03*
X952500Y571500D03*
X977900Y546100D03*
X952500Y546100D03*
X977900Y520700D03*
X952500Y520700D03*
X977900Y495300D03*
X952500Y495300D03*
X977900Y469900D03*
X952500Y469900D03*
X977900Y444500D03*
X952500Y444500D03*
X977900Y419100D03*
X952500Y419100D03*
X977900Y393700D03*
X952500Y393700D03*
X977900Y368300D03*
X952500Y368300D03*
X977900Y342900D03*
X952500Y342900D03*
X977900Y317500D03*
X952500Y317500D03*
X977900Y292100D03*
X952500Y292100D03*
D10*
X95250Y185115D02*
X95250Y170485D01*
X120650Y170485D02*
X120650Y185115D01*
X247650Y185115D02*
X247650Y170485D01*
X247650Y246685D02*
X247650Y261315D01*
X146050Y185115D02*
X146050Y170485D01*
X171450Y170485D02*
X171450Y185115D01*
X222250Y185115D02*
X222250Y170485D01*
X196850Y170485D02*
X196850Y185115D01*
X222250Y246685D02*
X222250Y261315D01*
X196850Y261315D02*
X196850Y246685D01*
X171450Y246685D02*
X171450Y261315D01*
X146050Y261315D02*
X146050Y246685D01*
X120650Y246685D02*
X120650Y261315D01*
X95250Y261315D02*
X95250Y246685D01*
X95250Y70815D02*
X95250Y56185D01*
X120650Y56185D02*
X120650Y70815D01*
X247650Y70815D02*
X247650Y56185D01*
X247650Y132385D02*
X247650Y147015D01*
X146050Y70815D02*
X146050Y56185D01*
X171450Y56185D02*
X171450Y70815D01*
X222250Y70815D02*
X222250Y56185D01*
X196850Y56185D02*
X196850Y70815D01*
X222250Y132385D02*
X222250Y147015D01*
X196850Y147015D02*
X196850Y132385D01*
X171450Y132385D02*
X171450Y147015D01*
X146050Y147015D02*
X146050Y132385D01*
X120650Y132385D02*
X120650Y147015D01*
X95250Y147015D02*
X95250Y132385D01*
X399085Y355600D02*
X413715Y355600D01*
X413715Y330200D02*
X399085Y330200D01*
X399085Y203200D02*
X413715Y203200D01*
X413715Y177800D02*
X399085Y177800D01*
X399085Y304800D02*
X413715Y304800D01*
X413715Y279400D02*
X399085Y279400D01*
X399085Y228600D02*
X413715Y228600D01*
X413715Y254000D02*
X399085Y254000D01*
X475285Y177800D02*
X489915Y177800D01*
X489915Y203200D02*
X475285Y203200D01*
X475285Y228600D02*
X489915Y228600D01*
X489915Y254000D02*
X475285Y254000D01*
X475285Y279400D02*
X489915Y279400D01*
X489915Y304800D02*
X475285Y304800D01*
X475285Y330200D02*
X489915Y330200D01*
X489915Y355600D02*
X475285Y355600D01*
D14*
X292100Y96520D03*
X292100Y144780D03*
D15*
X342900Y76200D03*
X342900Y152400D03*
D16*
X311150Y38100D03*
X285750Y38100D03*
X311150Y209550D03*
X285750Y209550D03*
D17*
X368300Y95250D03*
X368300Y19050D03*
D18*
X431800Y133350D03*
X444500Y114300D03*
X457200Y133350D03*
D15*
X444500Y19050D03*
X444500Y95250D03*
D10*
X331165Y260350D02*
X316535Y260350D01*
X316535Y285750D02*
X331165Y285750D01*
X331165Y311150D02*
X316535Y311150D01*
X316535Y336550D02*
X331165Y336550D01*
X331165Y361950D02*
X316535Y361950D01*
X316535Y387350D02*
X331165Y387350D01*
D19*
X101600Y520700D03*
X101600Y469900D03*
D16*
X457200Y806450D03*
X406400Y806450D03*
X660400Y793750D03*
X609600Y793750D03*
D19*
X914400Y419100D03*
X914400Y368300D03*
X57150Y234950D03*
X57150Y184150D03*
X57150Y133350D03*
X57150Y82550D03*
D16*
X469900Y387350D03*
X419100Y387350D03*
D17*
X368300Y215900D03*
X368300Y139700D03*
D13*
X850900Y34544D02*
X850900Y16256D01*
X825500Y16256D02*
X825500Y34544D01*
X800100Y34544D02*
X800100Y16256D01*
X88900Y16256D02*
X88900Y34544D01*
X114300Y34544D02*
X114300Y16256D01*
X139700Y16256D02*
X139700Y34544D01*
D17*
X406400Y95250D03*
X406400Y19050D03*
D13*
X508000Y797306D02*
X508000Y815594D01*
X533400Y815594D02*
X533400Y797306D01*
X558800Y797306D02*
X558800Y815594D01*
D10*
X528015Y355600D02*
X513385Y355600D01*
X513385Y330200D02*
X528015Y330200D01*
X528015Y203200D02*
X513385Y203200D01*
X513385Y177800D02*
X528015Y177800D01*
X528015Y304800D02*
X513385Y304800D01*
X513385Y279400D02*
X528015Y279400D01*
X528015Y228600D02*
X513385Y228600D01*
X513385Y254000D02*
X528015Y254000D01*
X528015Y152400D02*
X513385Y152400D01*
X513385Y127000D02*
X528015Y127000D01*
X528015Y101600D02*
X513385Y101600D01*
X513385Y76200D02*
X528015Y76200D01*
X528015Y50800D02*
X513385Y50800D01*
X513385Y25400D02*
X528015Y25400D01*
X665785Y25400D02*
X680415Y25400D01*
X680415Y50800D02*
X665785Y50800D01*
X665785Y76200D02*
X680415Y76200D01*
X680415Y101600D02*
X665785Y101600D01*
X665785Y127000D02*
X680415Y127000D01*
X680415Y152400D02*
X665785Y152400D01*
X665785Y177800D02*
X680415Y177800D01*
X680415Y203200D02*
X665785Y203200D01*
X665785Y228600D02*
X680415Y228600D01*
X680415Y254000D02*
X665785Y254000D01*
X665785Y279400D02*
X680415Y279400D01*
X680415Y304800D02*
X665785Y304800D01*
X665785Y330200D02*
X680415Y330200D01*
X680415Y355600D02*
X665785Y355600D01*
D19*
X717550Y260350D03*
X717550Y209550D03*
D17*
X482600Y95250D03*
X482600Y19050D03*
D20*
X184150Y25400D03*
X234950Y25400D03*
D13*
X721106Y127000D02*
X739394Y127000D01*
X739394Y152400D02*
X721106Y152400D01*
X721106Y177800D02*
X739394Y177800D01*
D10*
X528015Y749300D02*
X513385Y749300D01*
X513385Y723900D02*
X528015Y723900D01*
X528015Y698500D02*
X513385Y698500D01*
X513385Y673100D02*
X528015Y673100D01*
X528015Y647700D02*
X513385Y647700D01*
X513385Y622300D02*
X528015Y622300D01*
X528015Y596900D02*
X513385Y596900D01*
X513385Y571500D02*
X528015Y571500D01*
X528015Y546100D02*
X513385Y546100D01*
X513385Y520700D02*
X528015Y520700D01*
X528015Y495300D02*
X513385Y495300D01*
X513385Y469900D02*
X528015Y469900D01*
X528015Y444500D02*
X513385Y444500D01*
X513385Y419100D02*
X528015Y419100D01*
X665785Y419100D02*
X680415Y419100D01*
X680415Y444500D02*
X665785Y444500D01*
X665785Y469900D02*
X680415Y469900D01*
X680415Y495300D02*
X665785Y495300D01*
X665785Y520700D02*
X680415Y520700D01*
X680415Y546100D02*
X665785Y546100D01*
X665785Y571500D02*
X680415Y571500D01*
X680415Y596900D02*
X665785Y596900D01*
X665785Y622300D02*
X680415Y622300D01*
X680415Y647700D02*
X665785Y647700D01*
X665785Y673100D02*
X680415Y673100D01*
X680415Y698500D02*
X665785Y698500D01*
X665785Y723900D02*
X680415Y723900D01*
X680415Y749300D02*
X665785Y749300D01*
D16*
X807720Y127000D03*
D21*
X843280Y127000D03*
D22*
X336550Y177800D03*
D23*
X501650Y273050D02*
X520700Y254000D01*
X501650Y273050D02*
X501650Y400050D01*
X520700Y419100D01*
X304800Y469900D02*
X279400Y495300D01*
X304800Y469900D02*
X304800Y438150D01*
X323850Y419100D01*
X476250Y400050D02*
X501650Y400050D01*
X419100Y793750D02*
X406400Y806450D01*
X419100Y793750D02*
X419100Y387350D01*
X914400Y368300D02*
X933450Y387350D01*
X933450Y495300D01*
X806450Y127000D02*
X800100Y120650D01*
X800100Y25400D01*
X806450Y184150D02*
X793750Y196850D01*
X806450Y184150D02*
X806450Y127000D01*
X807720Y127000D01*
X247650Y63500D02*
X234950Y50800D01*
X234950Y25400D01*
X76200Y476250D02*
X63500Y488950D01*
X63500Y495300D01*
X69850Y69850D02*
X82550Y57150D01*
X69850Y69850D02*
X57150Y82550D01*
X82550Y57150D02*
X82550Y31750D01*
X88900Y25400D01*
X69850Y171450D02*
X57150Y184150D01*
X69850Y171450D02*
X69850Y69850D01*
X76200Y203200D02*
X76200Y476250D01*
X76200Y203200D02*
X57150Y184150D01*
X247650Y177800D02*
X260350Y165100D01*
X260350Y76200D01*
X247650Y63500D01*
X914400Y215900D02*
X914400Y368300D01*
X425450Y381000D02*
X419100Y387350D01*
X425450Y381000D02*
X425450Y196850D01*
X406400Y177800D01*
D24*
X476250Y400050D03*
X933450Y495300D03*
X793750Y196850D03*
X76200Y476250D03*
X914400Y215900D03*
D23*
X323850Y749300D02*
X304800Y768350D01*
X304800Y806450D01*
X457200Y717550D02*
X476250Y698500D01*
X457200Y749300D02*
X457200Y806450D01*
X457200Y749300D02*
X457200Y717550D01*
X457200Y749300D02*
X476250Y749300D01*
X654050Y717550D02*
X673100Y698500D01*
X654050Y717550D02*
X654050Y730250D01*
X673100Y749300D01*
X673100Y781050D02*
X660400Y793750D01*
X673100Y781050D02*
X673100Y749300D01*
X647700Y279400D02*
X673100Y254000D01*
X647700Y406400D02*
X647700Y431800D01*
X647700Y406400D02*
X647700Y279400D01*
X647700Y431800D02*
X654050Y438150D01*
X654050Y717550D01*
X844550Y127000D02*
X850900Y120650D01*
X850900Y50800D02*
X850900Y25400D01*
X850900Y50800D02*
X850900Y120650D01*
X1003300Y495300D02*
X977900Y520700D01*
X1003300Y495300D02*
X1003300Y203200D01*
X850900Y50800D01*
X901700Y406400D02*
X914400Y419100D01*
X901700Y406400D02*
X901700Y323850D01*
X882650Y304800D01*
X844550Y304800D01*
X844550Y127000D01*
X843280Y127000D01*
X101600Y520700D02*
X88900Y508000D01*
X88900Y260350D01*
X95250Y254000D01*
X469900Y387350D02*
X482600Y374650D01*
X482600Y355600D01*
X387350Y38100D02*
X368300Y19050D01*
X387350Y38100D02*
X387350Y215900D01*
X374650Y228600D01*
X336550Y228600D01*
X336550Y222250D01*
X323850Y222250D01*
X323850Y260350D01*
D24*
X647700Y406400D03*
D23*
X495300Y50800D02*
X520700Y25400D01*
X495300Y50800D02*
X495300Y139700D01*
X438150Y196850D01*
X438150Y444500D01*
X425450Y806450D02*
X463550Y844550D01*
X425450Y806450D02*
X425450Y457200D01*
X438150Y444500D01*
D24*
X438150Y444500D03*
X463550Y844550D03*
D23*
X107950Y190500D02*
X120650Y177800D01*
X107950Y190500D02*
X107950Y298450D01*
X127000Y317500D01*
X222250Y311150D02*
X222250Y254000D01*
D24*
X222250Y311150D03*
D23*
X146050Y254000D02*
X127000Y273050D01*
X127000Y292100D01*
X501650Y107950D02*
X520700Y127000D01*
X501650Y107950D02*
X501650Y95250D01*
X590550Y673100D02*
X603250Y685800D01*
X590550Y673100D02*
X590550Y190500D01*
X527050Y127000D01*
X520700Y127000D01*
D24*
X501650Y95250D03*
X603250Y685800D03*
D23*
X279400Y260350D02*
X298450Y241300D01*
X279400Y260350D02*
X279400Y292100D01*
X831850Y361950D02*
X831850Y641350D01*
X831850Y361950D02*
X749300Y279400D01*
X749300Y273050D01*
D24*
X298450Y241300D03*
X831850Y641350D03*
X749300Y273050D03*
D23*
X215900Y273050D02*
X196850Y254000D01*
X215900Y273050D02*
X215900Y323850D01*
X241300Y349250D01*
X260350Y349250D01*
X260350Y336550D01*
X279400Y317500D01*
X279400Y368300D02*
X292100Y381000D01*
X304800Y381000D01*
X304800Y355600D01*
X323850Y336550D01*
X152400Y279400D02*
X146050Y285750D01*
X146050Y374650D01*
X127000Y393700D01*
X546100Y76200D02*
X622300Y76200D01*
X546100Y76200D02*
X520700Y76200D01*
X622300Y76200D02*
X622300Y44450D01*
X660400Y6350D01*
X787400Y6350D01*
X787400Y260350D01*
X869950Y342900D01*
X323850Y285750D02*
X304800Y266700D01*
X304800Y234950D01*
X323850Y215900D01*
X323850Y190500D01*
X317500Y184150D01*
X317500Y158750D01*
X368300Y107950D01*
X381000Y107950D01*
X381000Y50800D01*
X355600Y25400D01*
X355600Y12700D01*
X361950Y6350D01*
X546100Y6350D01*
X546100Y76200D01*
D24*
X152400Y279400D03*
D23*
X298450Y336550D02*
X323850Y311150D01*
X298450Y336550D02*
X298450Y374650D01*
D24*
X298450Y374650D03*
D23*
X431800Y133350D02*
X431800Y69850D01*
X431800Y133350D02*
X431800Y368300D01*
D24*
X431800Y69850D03*
X431800Y368300D03*
D23*
X755650Y279400D02*
X869950Y393700D01*
X755650Y279400D02*
X755650Y146050D01*
X736600Y127000D01*
X730250Y127000D01*
X158750Y615950D02*
X127000Y647700D01*
X158750Y615950D02*
X158750Y76200D01*
X171450Y63500D01*
X692150Y88900D02*
X730250Y127000D01*
X692150Y88900D02*
X692150Y44450D01*
X673100Y25400D01*
X673100Y101600D02*
X641350Y133350D01*
X641350Y228600D01*
X622300Y247650D01*
X622300Y501650D01*
X622300Y615950D02*
X641350Y635000D01*
X622300Y615950D02*
X622300Y501650D01*
D24*
X622300Y501650D03*
X641350Y635000D03*
D23*
X615950Y146050D02*
X628650Y133350D01*
X615950Y146050D02*
X615950Y539750D01*
X615950Y635000D02*
X641350Y660400D01*
X615950Y635000D02*
X615950Y539750D01*
D24*
X628650Y133350D03*
X615950Y539750D03*
X641350Y660400D03*
D23*
X571500Y323850D02*
X565150Y317500D01*
X571500Y323850D02*
X571500Y596900D01*
X520700Y647700D01*
D24*
X565150Y317500D03*
D23*
X133350Y241300D02*
X120650Y254000D01*
X133350Y241300D02*
X133350Y165100D01*
X127000Y158750D01*
X82550Y158750D01*
X82550Y679450D01*
X63500Y698500D01*
X260350Y666750D02*
X266700Y660400D01*
X260350Y666750D02*
X260350Y704850D01*
X279400Y723900D01*
D24*
X266700Y660400D03*
D23*
X336550Y660400D02*
X349250Y647700D01*
X336550Y660400D02*
X298450Y660400D01*
X298450Y730250D01*
X279400Y749300D01*
D24*
X349250Y647700D03*
D23*
X444500Y603250D02*
X476250Y571500D01*
X444500Y603250D02*
X444500Y755650D01*
D24*
X444500Y755650D03*
D23*
X114300Y850900D02*
X38100Y774700D01*
X114300Y850900D02*
X469900Y850900D01*
X469900Y838200D01*
X444500Y812800D01*
X444500Y768350D01*
X450850Y762000D01*
X450850Y647700D01*
X476250Y622300D01*
X260350Y749300D02*
X127000Y749300D01*
X260350Y749300D02*
X260350Y755650D01*
X266700Y762000D01*
X304800Y762000D01*
X304800Y742950D01*
X323850Y723900D01*
X190500Y349250D02*
X209550Y330200D01*
X190500Y349250D02*
X190500Y660400D01*
X127000Y723900D01*
D24*
X209550Y330200D03*
D23*
X374650Y323850D02*
X374650Y819150D01*
X361950Y831850D01*
X107950Y831850D01*
X107950Y717550D01*
X127000Y698500D01*
D24*
X374650Y323850D03*
D23*
X184150Y190500D02*
X171450Y177800D01*
X184150Y190500D02*
X184150Y495300D01*
X165100Y514350D01*
X165100Y635000D01*
X127000Y673100D01*
X673100Y279400D02*
X711200Y317500D01*
X717550Y317500D01*
X673100Y279400D02*
X692150Y260350D01*
X692150Y247650D01*
X685800Y241300D01*
X635000Y241300D01*
X635000Y488950D01*
D24*
X635000Y488950D03*
D23*
X692150Y323850D02*
X673100Y304800D01*
X692150Y323850D02*
X692150Y457200D01*
X349250Y431800D02*
X342900Y438150D01*
X342900Y450850D01*
X323850Y469900D01*
D24*
X692150Y457200D03*
X349250Y431800D03*
D23*
X654050Y349250D02*
X673100Y330200D01*
X654050Y349250D02*
X654050Y425450D01*
X717550Y774700D02*
X679450Y812800D01*
X647700Y812800D01*
X647700Y444500D01*
X266700Y431800D02*
X228600Y469900D01*
X266700Y431800D02*
X304800Y431800D01*
X304800Y412750D01*
X311150Y406400D01*
X342900Y406400D01*
X342900Y425450D01*
X323850Y444500D01*
D24*
X654050Y425450D03*
X647700Y444500D03*
X228600Y469900D03*
D23*
X673100Y419100D02*
X673100Y355600D01*
X819150Y723900D02*
X869950Y774700D01*
X819150Y723900D02*
X819150Y368300D01*
X431800Y463550D02*
X431800Y609600D01*
X431800Y463550D02*
X476250Y419100D01*
D24*
X819150Y368300D03*
X431800Y609600D03*
D23*
X533400Y368300D02*
X520700Y355600D01*
X533400Y368300D02*
X533400Y406400D01*
X539750Y412750D01*
X539750Y450850D01*
X825500Y704850D02*
X869950Y749300D01*
X825500Y704850D02*
X825500Y476250D01*
X438150Y628650D02*
X431800Y635000D01*
X438150Y628650D02*
X438150Y482600D01*
X476250Y444500D01*
D24*
X539750Y450850D03*
X825500Y476250D03*
X431800Y635000D03*
D23*
X539750Y349250D02*
X520700Y330200D01*
X539750Y349250D02*
X539750Y406400D01*
X552450Y419100D01*
X552450Y463550D01*
X838200Y692150D02*
X869950Y723900D01*
X838200Y692150D02*
X838200Y400050D01*
X457200Y571500D02*
X444500Y584200D01*
X457200Y571500D02*
X457200Y488950D01*
X476250Y469900D01*
D24*
X552450Y463550D03*
X838200Y400050D03*
X444500Y584200D03*
D23*
X546100Y330200D02*
X520700Y304800D01*
X546100Y330200D02*
X546100Y406400D01*
X558800Y419100D01*
X558800Y495300D01*
X698500Y704850D02*
X717550Y723900D01*
X698500Y704850D02*
X698500Y520700D01*
X673100Y495300D01*
X152400Y520700D02*
X127000Y546100D01*
X152400Y520700D02*
X152400Y501650D01*
D24*
X558800Y495300D03*
X152400Y501650D03*
D23*
X520700Y279400D02*
X552450Y311150D01*
X552450Y406400D01*
X565150Y419100D01*
X565150Y514350D01*
X508000Y533400D02*
X501650Y527050D01*
X508000Y533400D02*
X565150Y533400D01*
X565150Y514350D01*
X692150Y723900D02*
X717550Y749300D01*
X692150Y723900D02*
X692150Y539750D01*
X673100Y520700D01*
D24*
X565150Y514350D03*
X501650Y527050D03*
D23*
X450850Y387350D02*
X450850Y285750D01*
X450850Y387350D02*
X469900Y406400D01*
X495300Y406400D01*
X495300Y647700D01*
X520700Y673100D01*
D24*
X450850Y285750D03*
D23*
X368300Y266700D02*
X330200Y228600D01*
X368300Y266700D02*
X368300Y590550D01*
X806450Y361950D02*
X812800Y355600D01*
X806450Y361950D02*
X806450Y577850D01*
D24*
X330200Y228600D03*
X368300Y590550D03*
X812800Y355600D03*
X806450Y577850D03*
D23*
X260350Y266700D02*
X247650Y254000D01*
X260350Y266700D02*
X260350Y298450D01*
X266700Y304800D01*
X304800Y304800D01*
X311150Y298450D01*
X355600Y298450D01*
X355600Y806450D01*
X933450Y298450D02*
X952500Y317500D01*
D24*
X933450Y298450D03*
D23*
X406400Y279400D02*
X387350Y298450D01*
X387350Y533400D01*
D24*
X387350Y533400D03*
D23*
X457200Y273050D02*
X444500Y260350D01*
X457200Y273050D02*
X457200Y355600D01*
X641350Y393700D02*
X641350Y546100D01*
D24*
X444500Y260350D03*
X457200Y355600D03*
X641350Y393700D03*
X641350Y546100D03*
D23*
X609600Y279400D02*
X596900Y266700D01*
X609600Y279400D02*
X609600Y774700D01*
X641350Y806450D01*
X641350Y812800D01*
X647700Y819150D01*
X736600Y819150D01*
X736600Y717550D01*
X717550Y698500D01*
D24*
X596900Y266700D03*
D23*
X635000Y88900D02*
X673100Y50800D01*
X635000Y88900D02*
X635000Y203200D01*
D24*
X635000Y203200D03*
D23*
X628650Y101600D02*
X520700Y101600D01*
X628650Y101600D02*
X628650Y44450D01*
X660400Y12700D01*
X781050Y12700D01*
X781050Y279400D01*
X869950Y368300D01*
X895350Y342900D02*
X869950Y317500D01*
X895350Y342900D02*
X895350Y438150D01*
D24*
X895350Y438150D03*
D23*
X501650Y203200D02*
X482600Y203200D01*
X501650Y203200D02*
X501650Y196850D01*
X508000Y190500D01*
X565150Y190500D01*
X565150Y304800D01*
X584200Y323850D01*
X584200Y476250D01*
D24*
X584200Y476250D03*
D23*
X774700Y425450D02*
X787400Y438150D01*
X787400Y717550D01*
X806450Y736600D01*
D24*
X774700Y425450D03*
X806450Y736600D03*
D23*
X768350Y444500D02*
X717550Y444500D01*
X768350Y444500D02*
X768350Y412750D01*
X793750Y412750D01*
X793750Y698500D01*
X806450Y711200D01*
D24*
X806450Y711200D03*
D23*
X781050Y469900D02*
X717550Y469900D01*
X781050Y469900D02*
X781050Y723900D01*
X850900Y793750D01*
X939800Y793750D01*
X939800Y762000D01*
X952500Y749300D01*
X812800Y742950D02*
X812800Y514350D01*
X812800Y742950D02*
X857250Y787400D01*
X933450Y787400D01*
X933450Y749300D01*
X946150Y736600D01*
X977900Y736600D01*
X977900Y749300D01*
D24*
X812800Y514350D03*
D23*
X844550Y571500D02*
X850900Y577850D01*
X850900Y679450D01*
X857250Y685800D01*
X933450Y685800D01*
X933450Y704850D01*
X952500Y723900D01*
D24*
X844550Y571500D03*
D23*
X762000Y615950D02*
X717550Y571500D01*
X762000Y615950D02*
X762000Y685800D01*
D24*
X762000Y685800D03*
D23*
X882650Y609600D02*
X939800Y666750D01*
X939800Y685800D01*
X952500Y698500D01*
D24*
X882650Y609600D03*
D23*
X800100Y406400D02*
X742950Y349250D01*
X800100Y406400D02*
X800100Y635000D01*
D24*
X742950Y349250D03*
X800100Y635000D03*
D23*
X698500Y412750D02*
X717550Y393700D01*
X698500Y412750D02*
X698500Y501650D01*
X704850Y508000D01*
X768350Y508000D01*
X768350Y723900D01*
X844550Y800100D01*
X990600Y800100D01*
X990600Y685800D01*
X977900Y673100D01*
X908050Y508000D02*
X869950Y469900D01*
X908050Y508000D02*
X908050Y571500D01*
X920750Y584200D01*
X920750Y635000D01*
X946150Y660400D01*
X977900Y660400D01*
X977900Y647700D01*
X933450Y508000D02*
X927100Y501650D01*
X933450Y508000D02*
X933450Y603250D01*
X952500Y622300D01*
D24*
X927100Y501650D03*
D23*
X914400Y527050D02*
X927100Y539750D01*
X927100Y615950D01*
X946150Y635000D01*
X977900Y635000D01*
X977900Y622300D01*
D24*
X914400Y527050D03*
D23*
X869950Y546100D02*
X914400Y590550D01*
D24*
X914400Y590550D03*
D23*
X869950Y292100D02*
X908050Y254000D01*
X908050Y203200D01*
X920750Y203200D01*
X920750Y355600D01*
X939800Y374650D01*
X939800Y533400D01*
X952500Y546100D01*
X952500Y381000D02*
X965200Y381000D01*
X965200Y533400D01*
X977900Y546100D01*
D24*
X952500Y381000D03*
D23*
X996950Y450850D02*
X996950Y222250D01*
X996950Y450850D02*
X977900Y469900D01*
D24*
X996950Y222250D03*
D23*
X406400Y228600D02*
X381000Y254000D01*
X381000Y514350D01*
D24*
X381000Y514350D03*
D23*
X704850Y158750D02*
X685800Y139700D01*
X704850Y158750D02*
X704850Y228600D01*
X736600Y260350D01*
X736600Y438150D01*
D24*
X685800Y139700D03*
X736600Y438150D03*
D23*
X342900Y76200D02*
X311150Y44450D01*
X311150Y38100D01*
X412750Y50800D02*
X444500Y19050D01*
D24*
X412750Y50800D03*
D23*
X196850Y63500D02*
X184150Y50800D01*
X184150Y25400D01*
X304800Y95250D02*
X368300Y95250D01*
X304800Y95250D02*
X304800Y76200D01*
X241300Y12700D01*
X184150Y12700D01*
X184150Y25400D01*
X444500Y215900D02*
X463550Y234950D01*
X463550Y311150D01*
X482600Y330200D01*
D24*
X444500Y215900D03*
D23*
X234950Y190500D02*
X222250Y177800D01*
X234950Y190500D02*
X234950Y330200D01*
X247650Y342900D01*
D24*
X247650Y342900D03*
D23*
X222250Y139700D02*
X247650Y114300D01*
X933450Y273050D02*
X952500Y292100D01*
X933450Y273050D02*
X933450Y177800D01*
D24*
X247650Y114300D03*
X933450Y177800D03*
D23*
X476250Y723900D02*
X501650Y749300D01*
X501650Y768350D01*
X533400Y800100D01*
X533400Y806450D01*
X482600Y95250D02*
X488950Y88900D01*
X488950Y31750D01*
X508000Y12700D01*
X539750Y12700D01*
X539750Y31750D01*
X520700Y50800D01*
X977900Y444500D02*
X990600Y431800D01*
X990600Y203200D01*
D24*
X990600Y203200D03*
D23*
X558800Y241300D02*
X520700Y203200D01*
X558800Y241300D02*
X558800Y374650D01*
D24*
X558800Y374650D03*
D23*
X698500Y228600D02*
X673100Y203200D01*
X698500Y228600D02*
X698500Y234950D01*
D24*
X698500Y234950D03*
D23*
X571500Y177800D02*
X520700Y177800D01*
X571500Y177800D02*
X571500Y285750D01*
X584200Y298450D01*
D24*
X584200Y298450D03*
D23*
X946150Y190500D02*
X965200Y209550D01*
X965200Y355600D01*
X977900Y368300D01*
D24*
X946150Y190500D03*
D23*
X927100Y203200D02*
X889000Y165100D01*
X927100Y203200D02*
X927100Y342900D01*
X952500Y368300D01*
D24*
X889000Y165100D03*
D23*
X742950Y285750D02*
X787400Y330200D01*
X742950Y285750D02*
X742950Y190500D01*
X730250Y177800D01*
D24*
X787400Y330200D03*
D23*
X311150Y165100D02*
X292100Y146050D01*
X311150Y165100D02*
X311150Y209550D01*
X292100Y146050D02*
X292100Y144780D01*
X342900Y152400D02*
X368300Y177800D01*
X368300Y215900D01*
X152400Y69850D02*
X146050Y63500D01*
X152400Y69850D02*
X152400Y114300D01*
D24*
X152400Y114300D03*
M02*
