%
M48
M72
T01C0.02400
T02C0.03200
T03C0.03600
T04C0.04000
T05C0.11024
%
T01
X57750Y46250
X90250Y50000
X115250Y15000
X161500Y27500
X172750Y37500
X172750Y50000
X192750Y26250
X215250Y45000
X229000Y57500
X231500Y50000
X242750Y40000
X252750Y53750
X259000Y61250
X242750Y61250
X241500Y67500
X244000Y76250
X260250Y90000
X277750Y110000
X285250Y108750
X287750Y96250
X295250Y86250
X302750Y82500
X299000Y103750
X320250Y113750
X309000Y122500
X325250Y125000
X325250Y130000
X332750Y133750
X339000Y133750
X339000Y121250
X355250Y110000
X376500Y113750
X386500Y113750
X382750Y92500
X370250Y63750
X345250Y88750
X329000Y90000
X329000Y71250
X341500Y36250
X359000Y25000
X314000Y36250
X302750Y31250
X294000Y33750
X285250Y46250
X275250Y36250
X276500Y31250
X255250Y26250
X220250Y16250
X219000Y71250
X189000Y87500
X192750Y103750
X197750Y105000
X195250Y126250
X166500Y133750
X185250Y153750
X190250Y162500
X215250Y180000
X197750Y191250
X222750Y210000
X247750Y188750
X251500Y203750
X272750Y215000
X274000Y195000
X252750Y166250
X261500Y161250
X256500Y150000
X251500Y138750
X237750Y138750
X240250Y148750
X240250Y162500
X240250Y175000
X255250Y126250
X255250Y120000
X307750Y151250
X312750Y162500
X324000Y157500
X330250Y166250
X342750Y173750
X339000Y186250
X324000Y193750
X320250Y203750
X330250Y211250
X322750Y218750
X310250Y215000
X345250Y250000
X334000Y258750
X330250Y262500
X365250Y238750
X369000Y245000
X369000Y235000
X362750Y225000
X366500Y210000
X369000Y195000
X362750Y195000
X362750Y175000
X372750Y165000
X391500Y176250
X372750Y145000
X364000Y136250
X337750Y147500
X372750Y255000
X369000Y288750
X372750Y295000
X365250Y308750
X346500Y315000
X341500Y302500
X322750Y298750
X262750Y315000
X219000Y331250
X177750Y317500
X170250Y310000
X137750Y306250
X120250Y265000
X137750Y261250
X145250Y245000
X159000Y238750
X170250Y215000
X176500Y215000
X162750Y208750
X137750Y186250
X155250Y176250
X100250Y185000
X95250Y196250
X99000Y203750
X94000Y223750
X82750Y228750
X57750Y208750
X70250Y186250
X57750Y176250
X86500Y171250
X89000Y158750
X87750Y123750
X107750Y112500
X116500Y121250
X137750Y123750
X142750Y80000
X70250Y88750
X244000Y258750
X212750Y285000
X386500Y316250
X310250Y20000
X302750Y16250
T02
X314000Y47500
X324000Y47500
X334000Y47500
X344000Y47500
X354000Y47500
X364000Y47500
X374000Y47500
X384000Y47500
X384000Y77500
X374000Y77500
X364000Y77500
X354000Y77500
X344000Y77500
X334000Y77500
X324000Y77500
X314000Y77500
X299000Y75000
X299000Y55000
X266500Y55000
X266500Y45000
X266500Y35000
X266500Y25000
X266500Y15000
X266500Y65000
X266500Y75000
X266500Y85000
X266500Y95000
X266500Y105000
X266500Y115000
X266500Y125000
X266500Y135000
X266500Y145000
X281500Y140000
X281500Y130000
X296500Y130000
X296500Y120000
X296500Y140000
X296500Y150000
X296500Y160000
X296500Y170000
X296500Y180000
X296500Y190000
X296500Y200000
X296500Y210000
X296500Y220000
X296500Y230000
X296500Y240000
X296500Y250000
X296500Y260000
X296500Y270000
X296500Y280000
X296500Y290000
X296500Y300000
X296500Y310000
X266500Y300000
X266500Y290000
X266500Y280000
X266500Y270000
X266500Y260000
X266500Y250000
X266500Y240000
X266500Y230000
X266500Y220000
X266500Y210000
X266500Y200000
X266500Y190000
X266500Y180000
X266500Y170000
X281500Y170000
X281500Y160000
X281500Y150000
X256500Y157500
X236500Y157500
X206500Y145000
X206500Y135000
X206500Y125000
X206500Y115000
X206500Y105000
X206500Y95000
X206500Y85000
X206500Y75000
X206500Y65000
X206500Y55000
X206500Y45000
X206500Y35000
X206500Y25000
X206500Y15000
X191500Y12500
X176500Y12500
X161500Y12500
X146500Y12500
X121500Y20000
X111500Y20000
X96500Y30000
X86500Y30000
X76500Y30000
X66500Y30000
X56500Y30000
X46500Y30000
X36500Y30000
X16500Y40000
X16500Y60000
X36500Y60000
X46500Y60000
X56500Y60000
X66500Y60000
X76500Y60000
X86500Y60000
X96500Y60000
X96500Y75000
X86500Y75000
X76500Y75000
X66500Y75000
X56500Y75000
X46500Y75000
X36500Y75000
X16500Y80000
X16500Y100000
X36500Y105000
X46500Y105000
X56500Y105000
X66500Y105000
X76500Y105000
X86500Y105000
X96500Y105000
X106500Y120000
X106500Y130000
X106500Y140000
X106500Y150000
X106500Y160000
X106500Y170000
X106500Y180000
X106500Y190000
X106500Y200000
X106500Y210000
X106500Y220000
X106500Y230000
X106500Y240000
X106500Y250000
X106500Y260000
X106500Y270000
X106500Y280000
X106500Y290000
X106500Y300000
X106500Y310000
X96500Y325000
X76500Y325000
X46500Y310000
X46500Y300000
X46500Y290000
X46500Y280000
X46500Y270000
X46500Y260000
X46500Y250000
X46500Y240000
X46500Y230000
X46500Y220000
X46500Y210000
X46500Y200000
X46500Y190000
X46500Y180000
X46500Y170000
X46500Y160000
X46500Y150000
X46500Y140000
X46500Y130000
X46500Y120000
X111500Y87500
X121500Y87500
X126500Y107500
X126500Y117500
X126500Y127500
X126500Y137500
X126500Y147500
X126500Y157500
X126500Y170000
X126500Y180000
X126500Y190000
X126500Y200000
X126500Y210000
X126500Y220000
X126500Y230000
X126500Y240000
X126500Y250000
X126500Y260000
X126500Y270000
X126500Y280000
X126500Y290000
X126500Y300000
X161500Y322500
X181500Y322500
X186500Y300000
X186500Y290000
X186500Y280000
X186500Y270000
X186500Y260000
X186500Y250000
X186500Y240000
X186500Y230000
X186500Y220000
X186500Y210000
X186500Y200000
X186500Y190000
X186500Y180000
X186500Y170000
X206500Y170000
X206500Y180000
X206500Y190000
X206500Y200000
X206500Y210000
X206500Y220000
X206500Y230000
X206500Y240000
X206500Y250000
X206500Y260000
X206500Y270000
X206500Y280000
X206500Y290000
X206500Y300000
X241500Y322500
X261500Y322500
X356500Y310000
X356500Y300000
X356500Y290000
X356500Y280000
X356500Y270000
X356500Y260000
X356500Y250000
X356500Y240000
X356500Y230000
X356500Y220000
X356500Y210000
X356500Y200000
X356500Y190000
X356500Y180000
X356500Y170000
X356500Y160000
X356500Y150000
X356500Y140000
X356500Y130000
X356500Y120000
X336500Y100000
X316500Y100000
X281500Y180000
X281500Y190000
X281500Y200000
X281500Y210000
X181500Y100000
X176500Y92500
X171500Y100000
X146500Y90000
X136500Y65000
X146500Y60000
X146500Y42500
X136500Y35000
X116500Y43000
X116500Y62000
X161500Y42500
X176500Y42500
X191500Y42500
X94000Y15000
X74000Y15000
T03
X26500Y120000
X16500Y120000
X16500Y130000
X26500Y130000
X26500Y140000
X16500Y140000
X16500Y150000
X26500Y150000
X26500Y160000
X16500Y160000
X16500Y170000
X26500Y170000
X26500Y180000
X26500Y190000
X16500Y190000
X16500Y180000
X16500Y200000
X26500Y200000
X26500Y210000
X16500Y210000
X16500Y220000
X26500Y220000
X26500Y230000
X16500Y230000
X16500Y240000
X26500Y240000
X26500Y250000
X16500Y250000
X16500Y260000
X26500Y260000
X26500Y270000
X26500Y280000
X16500Y280000
X16500Y270000
X16500Y290000
X26500Y290000
X26500Y300000
X16500Y300000
X16500Y310000
X26500Y310000
X376500Y310000
X386500Y310000
X386500Y300000
X376500Y300000
X376500Y290000
X386500Y290000
X386500Y280000
X386500Y270000
X376500Y270000
X376500Y280000
X376500Y260000
X386500Y260000
X386500Y250000
X376500Y250000
X376500Y240000
X386500Y240000
X386500Y230000
X376500Y230000
X376500Y220000
X386500Y220000
X386500Y210000
X376500Y210000
X376500Y200000
X386500Y200000
X386500Y190000
X386500Y180000
X376500Y180000
X376500Y190000
X376500Y170000
X386500Y170000
X386500Y160000
X376500Y160000
X376500Y150000
X386500Y150000
X386500Y140000
X376500Y140000
X376500Y130000
X386500Y130000
X386500Y120000
X376500Y120000
T04
X281500Y75000
X281500Y65000
X281500Y55000
X316500Y15000
X326500Y15000
X336500Y15000
X56500Y15000
X46500Y15000
X36500Y15000
X121500Y322500
X131500Y322500
X141500Y322500
X201500Y322500
X211500Y322500
X221500Y322500
T05
X16500Y20000
X16500Y330000
X386500Y330000
X386500Y20000
M30
