G75*
%MOIN*%
%OFA0B0*%
%FSLAX25Y25*%
%IPPOS*%
%LPD*%
%AMOC8*
5,1,8,0,0,1.08239X$1,22.5*
%
%ADD10C,0.00000*%
%ADD11C,0.00600*%
%ADD12C,0.00700*%
%ADD13C,0.00500*%
%ADD14C,0.01600*%
%ADD15C,0.00400*%
%ADD16R,0.02000X0.01500*%
%ADD17C,0.01000*%
%ADD18C,0.01200*%
D10*
X0001500Y0005000D02*
X0001500Y0344961D01*
X0400201Y0344961D01*
X0400201Y0005000D01*
X0001500Y0005000D01*
X0010988Y0020000D02*
X0010990Y0020148D01*
X0010996Y0020296D01*
X0011006Y0020444D01*
X0011020Y0020591D01*
X0011038Y0020738D01*
X0011059Y0020884D01*
X0011085Y0021030D01*
X0011115Y0021175D01*
X0011148Y0021319D01*
X0011186Y0021462D01*
X0011227Y0021604D01*
X0011272Y0021745D01*
X0011320Y0021885D01*
X0011373Y0022024D01*
X0011429Y0022161D01*
X0011489Y0022296D01*
X0011552Y0022430D01*
X0011619Y0022562D01*
X0011690Y0022692D01*
X0011764Y0022820D01*
X0011841Y0022946D01*
X0011922Y0023070D01*
X0012006Y0023192D01*
X0012093Y0023311D01*
X0012184Y0023428D01*
X0012278Y0023543D01*
X0012374Y0023655D01*
X0012474Y0023765D01*
X0012576Y0023871D01*
X0012682Y0023975D01*
X0012790Y0024076D01*
X0012901Y0024174D01*
X0013014Y0024270D01*
X0013130Y0024362D01*
X0013248Y0024451D01*
X0013369Y0024536D01*
X0013492Y0024619D01*
X0013617Y0024698D01*
X0013744Y0024774D01*
X0013873Y0024846D01*
X0014004Y0024915D01*
X0014137Y0024980D01*
X0014272Y0025041D01*
X0014408Y0025099D01*
X0014545Y0025154D01*
X0014684Y0025204D01*
X0014825Y0025251D01*
X0014966Y0025294D01*
X0015109Y0025334D01*
X0015253Y0025369D01*
X0015397Y0025401D01*
X0015543Y0025428D01*
X0015689Y0025452D01*
X0015836Y0025472D01*
X0015983Y0025488D01*
X0016130Y0025500D01*
X0016278Y0025508D01*
X0016426Y0025512D01*
X0016574Y0025512D01*
X0016722Y0025508D01*
X0016870Y0025500D01*
X0017017Y0025488D01*
X0017164Y0025472D01*
X0017311Y0025452D01*
X0017457Y0025428D01*
X0017603Y0025401D01*
X0017747Y0025369D01*
X0017891Y0025334D01*
X0018034Y0025294D01*
X0018175Y0025251D01*
X0018316Y0025204D01*
X0018455Y0025154D01*
X0018592Y0025099D01*
X0018728Y0025041D01*
X0018863Y0024980D01*
X0018996Y0024915D01*
X0019127Y0024846D01*
X0019256Y0024774D01*
X0019383Y0024698D01*
X0019508Y0024619D01*
X0019631Y0024536D01*
X0019752Y0024451D01*
X0019870Y0024362D01*
X0019986Y0024270D01*
X0020099Y0024174D01*
X0020210Y0024076D01*
X0020318Y0023975D01*
X0020424Y0023871D01*
X0020526Y0023765D01*
X0020626Y0023655D01*
X0020722Y0023543D01*
X0020816Y0023428D01*
X0020907Y0023311D01*
X0020994Y0023192D01*
X0021078Y0023070D01*
X0021159Y0022946D01*
X0021236Y0022820D01*
X0021310Y0022692D01*
X0021381Y0022562D01*
X0021448Y0022430D01*
X0021511Y0022296D01*
X0021571Y0022161D01*
X0021627Y0022024D01*
X0021680Y0021885D01*
X0021728Y0021745D01*
X0021773Y0021604D01*
X0021814Y0021462D01*
X0021852Y0021319D01*
X0021885Y0021175D01*
X0021915Y0021030D01*
X0021941Y0020884D01*
X0021962Y0020738D01*
X0021980Y0020591D01*
X0021994Y0020444D01*
X0022004Y0020296D01*
X0022010Y0020148D01*
X0022012Y0020000D01*
X0022010Y0019852D01*
X0022004Y0019704D01*
X0021994Y0019556D01*
X0021980Y0019409D01*
X0021962Y0019262D01*
X0021941Y0019116D01*
X0021915Y0018970D01*
X0021885Y0018825D01*
X0021852Y0018681D01*
X0021814Y0018538D01*
X0021773Y0018396D01*
X0021728Y0018255D01*
X0021680Y0018115D01*
X0021627Y0017976D01*
X0021571Y0017839D01*
X0021511Y0017704D01*
X0021448Y0017570D01*
X0021381Y0017438D01*
X0021310Y0017308D01*
X0021236Y0017180D01*
X0021159Y0017054D01*
X0021078Y0016930D01*
X0020994Y0016808D01*
X0020907Y0016689D01*
X0020816Y0016572D01*
X0020722Y0016457D01*
X0020626Y0016345D01*
X0020526Y0016235D01*
X0020424Y0016129D01*
X0020318Y0016025D01*
X0020210Y0015924D01*
X0020099Y0015826D01*
X0019986Y0015730D01*
X0019870Y0015638D01*
X0019752Y0015549D01*
X0019631Y0015464D01*
X0019508Y0015381D01*
X0019383Y0015302D01*
X0019256Y0015226D01*
X0019127Y0015154D01*
X0018996Y0015085D01*
X0018863Y0015020D01*
X0018728Y0014959D01*
X0018592Y0014901D01*
X0018455Y0014846D01*
X0018316Y0014796D01*
X0018175Y0014749D01*
X0018034Y0014706D01*
X0017891Y0014666D01*
X0017747Y0014631D01*
X0017603Y0014599D01*
X0017457Y0014572D01*
X0017311Y0014548D01*
X0017164Y0014528D01*
X0017017Y0014512D01*
X0016870Y0014500D01*
X0016722Y0014492D01*
X0016574Y0014488D01*
X0016426Y0014488D01*
X0016278Y0014492D01*
X0016130Y0014500D01*
X0015983Y0014512D01*
X0015836Y0014528D01*
X0015689Y0014548D01*
X0015543Y0014572D01*
X0015397Y0014599D01*
X0015253Y0014631D01*
X0015109Y0014666D01*
X0014966Y0014706D01*
X0014825Y0014749D01*
X0014684Y0014796D01*
X0014545Y0014846D01*
X0014408Y0014901D01*
X0014272Y0014959D01*
X0014137Y0015020D01*
X0014004Y0015085D01*
X0013873Y0015154D01*
X0013744Y0015226D01*
X0013617Y0015302D01*
X0013492Y0015381D01*
X0013369Y0015464D01*
X0013248Y0015549D01*
X0013130Y0015638D01*
X0013014Y0015730D01*
X0012901Y0015826D01*
X0012790Y0015924D01*
X0012682Y0016025D01*
X0012576Y0016129D01*
X0012474Y0016235D01*
X0012374Y0016345D01*
X0012278Y0016457D01*
X0012184Y0016572D01*
X0012093Y0016689D01*
X0012006Y0016808D01*
X0011922Y0016930D01*
X0011841Y0017054D01*
X0011764Y0017180D01*
X0011690Y0017308D01*
X0011619Y0017438D01*
X0011552Y0017570D01*
X0011489Y0017704D01*
X0011429Y0017839D01*
X0011373Y0017976D01*
X0011320Y0018115D01*
X0011272Y0018255D01*
X0011227Y0018396D01*
X0011186Y0018538D01*
X0011148Y0018681D01*
X0011115Y0018825D01*
X0011085Y0018970D01*
X0011059Y0019116D01*
X0011038Y0019262D01*
X0011020Y0019409D01*
X0011006Y0019556D01*
X0010996Y0019704D01*
X0010990Y0019852D01*
X0010988Y0020000D01*
X0010988Y0330000D02*
X0010990Y0330148D01*
X0010996Y0330296D01*
X0011006Y0330444D01*
X0011020Y0330591D01*
X0011038Y0330738D01*
X0011059Y0330884D01*
X0011085Y0331030D01*
X0011115Y0331175D01*
X0011148Y0331319D01*
X0011186Y0331462D01*
X0011227Y0331604D01*
X0011272Y0331745D01*
X0011320Y0331885D01*
X0011373Y0332024D01*
X0011429Y0332161D01*
X0011489Y0332296D01*
X0011552Y0332430D01*
X0011619Y0332562D01*
X0011690Y0332692D01*
X0011764Y0332820D01*
X0011841Y0332946D01*
X0011922Y0333070D01*
X0012006Y0333192D01*
X0012093Y0333311D01*
X0012184Y0333428D01*
X0012278Y0333543D01*
X0012374Y0333655D01*
X0012474Y0333765D01*
X0012576Y0333871D01*
X0012682Y0333975D01*
X0012790Y0334076D01*
X0012901Y0334174D01*
X0013014Y0334270D01*
X0013130Y0334362D01*
X0013248Y0334451D01*
X0013369Y0334536D01*
X0013492Y0334619D01*
X0013617Y0334698D01*
X0013744Y0334774D01*
X0013873Y0334846D01*
X0014004Y0334915D01*
X0014137Y0334980D01*
X0014272Y0335041D01*
X0014408Y0335099D01*
X0014545Y0335154D01*
X0014684Y0335204D01*
X0014825Y0335251D01*
X0014966Y0335294D01*
X0015109Y0335334D01*
X0015253Y0335369D01*
X0015397Y0335401D01*
X0015543Y0335428D01*
X0015689Y0335452D01*
X0015836Y0335472D01*
X0015983Y0335488D01*
X0016130Y0335500D01*
X0016278Y0335508D01*
X0016426Y0335512D01*
X0016574Y0335512D01*
X0016722Y0335508D01*
X0016870Y0335500D01*
X0017017Y0335488D01*
X0017164Y0335472D01*
X0017311Y0335452D01*
X0017457Y0335428D01*
X0017603Y0335401D01*
X0017747Y0335369D01*
X0017891Y0335334D01*
X0018034Y0335294D01*
X0018175Y0335251D01*
X0018316Y0335204D01*
X0018455Y0335154D01*
X0018592Y0335099D01*
X0018728Y0335041D01*
X0018863Y0334980D01*
X0018996Y0334915D01*
X0019127Y0334846D01*
X0019256Y0334774D01*
X0019383Y0334698D01*
X0019508Y0334619D01*
X0019631Y0334536D01*
X0019752Y0334451D01*
X0019870Y0334362D01*
X0019986Y0334270D01*
X0020099Y0334174D01*
X0020210Y0334076D01*
X0020318Y0333975D01*
X0020424Y0333871D01*
X0020526Y0333765D01*
X0020626Y0333655D01*
X0020722Y0333543D01*
X0020816Y0333428D01*
X0020907Y0333311D01*
X0020994Y0333192D01*
X0021078Y0333070D01*
X0021159Y0332946D01*
X0021236Y0332820D01*
X0021310Y0332692D01*
X0021381Y0332562D01*
X0021448Y0332430D01*
X0021511Y0332296D01*
X0021571Y0332161D01*
X0021627Y0332024D01*
X0021680Y0331885D01*
X0021728Y0331745D01*
X0021773Y0331604D01*
X0021814Y0331462D01*
X0021852Y0331319D01*
X0021885Y0331175D01*
X0021915Y0331030D01*
X0021941Y0330884D01*
X0021962Y0330738D01*
X0021980Y0330591D01*
X0021994Y0330444D01*
X0022004Y0330296D01*
X0022010Y0330148D01*
X0022012Y0330000D01*
X0022010Y0329852D01*
X0022004Y0329704D01*
X0021994Y0329556D01*
X0021980Y0329409D01*
X0021962Y0329262D01*
X0021941Y0329116D01*
X0021915Y0328970D01*
X0021885Y0328825D01*
X0021852Y0328681D01*
X0021814Y0328538D01*
X0021773Y0328396D01*
X0021728Y0328255D01*
X0021680Y0328115D01*
X0021627Y0327976D01*
X0021571Y0327839D01*
X0021511Y0327704D01*
X0021448Y0327570D01*
X0021381Y0327438D01*
X0021310Y0327308D01*
X0021236Y0327180D01*
X0021159Y0327054D01*
X0021078Y0326930D01*
X0020994Y0326808D01*
X0020907Y0326689D01*
X0020816Y0326572D01*
X0020722Y0326457D01*
X0020626Y0326345D01*
X0020526Y0326235D01*
X0020424Y0326129D01*
X0020318Y0326025D01*
X0020210Y0325924D01*
X0020099Y0325826D01*
X0019986Y0325730D01*
X0019870Y0325638D01*
X0019752Y0325549D01*
X0019631Y0325464D01*
X0019508Y0325381D01*
X0019383Y0325302D01*
X0019256Y0325226D01*
X0019127Y0325154D01*
X0018996Y0325085D01*
X0018863Y0325020D01*
X0018728Y0324959D01*
X0018592Y0324901D01*
X0018455Y0324846D01*
X0018316Y0324796D01*
X0018175Y0324749D01*
X0018034Y0324706D01*
X0017891Y0324666D01*
X0017747Y0324631D01*
X0017603Y0324599D01*
X0017457Y0324572D01*
X0017311Y0324548D01*
X0017164Y0324528D01*
X0017017Y0324512D01*
X0016870Y0324500D01*
X0016722Y0324492D01*
X0016574Y0324488D01*
X0016426Y0324488D01*
X0016278Y0324492D01*
X0016130Y0324500D01*
X0015983Y0324512D01*
X0015836Y0324528D01*
X0015689Y0324548D01*
X0015543Y0324572D01*
X0015397Y0324599D01*
X0015253Y0324631D01*
X0015109Y0324666D01*
X0014966Y0324706D01*
X0014825Y0324749D01*
X0014684Y0324796D01*
X0014545Y0324846D01*
X0014408Y0324901D01*
X0014272Y0324959D01*
X0014137Y0325020D01*
X0014004Y0325085D01*
X0013873Y0325154D01*
X0013744Y0325226D01*
X0013617Y0325302D01*
X0013492Y0325381D01*
X0013369Y0325464D01*
X0013248Y0325549D01*
X0013130Y0325638D01*
X0013014Y0325730D01*
X0012901Y0325826D01*
X0012790Y0325924D01*
X0012682Y0326025D01*
X0012576Y0326129D01*
X0012474Y0326235D01*
X0012374Y0326345D01*
X0012278Y0326457D01*
X0012184Y0326572D01*
X0012093Y0326689D01*
X0012006Y0326808D01*
X0011922Y0326930D01*
X0011841Y0327054D01*
X0011764Y0327180D01*
X0011690Y0327308D01*
X0011619Y0327438D01*
X0011552Y0327570D01*
X0011489Y0327704D01*
X0011429Y0327839D01*
X0011373Y0327976D01*
X0011320Y0328115D01*
X0011272Y0328255D01*
X0011227Y0328396D01*
X0011186Y0328538D01*
X0011148Y0328681D01*
X0011115Y0328825D01*
X0011085Y0328970D01*
X0011059Y0329116D01*
X0011038Y0329262D01*
X0011020Y0329409D01*
X0011006Y0329556D01*
X0010996Y0329704D01*
X0010990Y0329852D01*
X0010988Y0330000D01*
X0380988Y0330000D02*
X0380990Y0330148D01*
X0380996Y0330296D01*
X0381006Y0330444D01*
X0381020Y0330591D01*
X0381038Y0330738D01*
X0381059Y0330884D01*
X0381085Y0331030D01*
X0381115Y0331175D01*
X0381148Y0331319D01*
X0381186Y0331462D01*
X0381227Y0331604D01*
X0381272Y0331745D01*
X0381320Y0331885D01*
X0381373Y0332024D01*
X0381429Y0332161D01*
X0381489Y0332296D01*
X0381552Y0332430D01*
X0381619Y0332562D01*
X0381690Y0332692D01*
X0381764Y0332820D01*
X0381841Y0332946D01*
X0381922Y0333070D01*
X0382006Y0333192D01*
X0382093Y0333311D01*
X0382184Y0333428D01*
X0382278Y0333543D01*
X0382374Y0333655D01*
X0382474Y0333765D01*
X0382576Y0333871D01*
X0382682Y0333975D01*
X0382790Y0334076D01*
X0382901Y0334174D01*
X0383014Y0334270D01*
X0383130Y0334362D01*
X0383248Y0334451D01*
X0383369Y0334536D01*
X0383492Y0334619D01*
X0383617Y0334698D01*
X0383744Y0334774D01*
X0383873Y0334846D01*
X0384004Y0334915D01*
X0384137Y0334980D01*
X0384272Y0335041D01*
X0384408Y0335099D01*
X0384545Y0335154D01*
X0384684Y0335204D01*
X0384825Y0335251D01*
X0384966Y0335294D01*
X0385109Y0335334D01*
X0385253Y0335369D01*
X0385397Y0335401D01*
X0385543Y0335428D01*
X0385689Y0335452D01*
X0385836Y0335472D01*
X0385983Y0335488D01*
X0386130Y0335500D01*
X0386278Y0335508D01*
X0386426Y0335512D01*
X0386574Y0335512D01*
X0386722Y0335508D01*
X0386870Y0335500D01*
X0387017Y0335488D01*
X0387164Y0335472D01*
X0387311Y0335452D01*
X0387457Y0335428D01*
X0387603Y0335401D01*
X0387747Y0335369D01*
X0387891Y0335334D01*
X0388034Y0335294D01*
X0388175Y0335251D01*
X0388316Y0335204D01*
X0388455Y0335154D01*
X0388592Y0335099D01*
X0388728Y0335041D01*
X0388863Y0334980D01*
X0388996Y0334915D01*
X0389127Y0334846D01*
X0389256Y0334774D01*
X0389383Y0334698D01*
X0389508Y0334619D01*
X0389631Y0334536D01*
X0389752Y0334451D01*
X0389870Y0334362D01*
X0389986Y0334270D01*
X0390099Y0334174D01*
X0390210Y0334076D01*
X0390318Y0333975D01*
X0390424Y0333871D01*
X0390526Y0333765D01*
X0390626Y0333655D01*
X0390722Y0333543D01*
X0390816Y0333428D01*
X0390907Y0333311D01*
X0390994Y0333192D01*
X0391078Y0333070D01*
X0391159Y0332946D01*
X0391236Y0332820D01*
X0391310Y0332692D01*
X0391381Y0332562D01*
X0391448Y0332430D01*
X0391511Y0332296D01*
X0391571Y0332161D01*
X0391627Y0332024D01*
X0391680Y0331885D01*
X0391728Y0331745D01*
X0391773Y0331604D01*
X0391814Y0331462D01*
X0391852Y0331319D01*
X0391885Y0331175D01*
X0391915Y0331030D01*
X0391941Y0330884D01*
X0391962Y0330738D01*
X0391980Y0330591D01*
X0391994Y0330444D01*
X0392004Y0330296D01*
X0392010Y0330148D01*
X0392012Y0330000D01*
X0392010Y0329852D01*
X0392004Y0329704D01*
X0391994Y0329556D01*
X0391980Y0329409D01*
X0391962Y0329262D01*
X0391941Y0329116D01*
X0391915Y0328970D01*
X0391885Y0328825D01*
X0391852Y0328681D01*
X0391814Y0328538D01*
X0391773Y0328396D01*
X0391728Y0328255D01*
X0391680Y0328115D01*
X0391627Y0327976D01*
X0391571Y0327839D01*
X0391511Y0327704D01*
X0391448Y0327570D01*
X0391381Y0327438D01*
X0391310Y0327308D01*
X0391236Y0327180D01*
X0391159Y0327054D01*
X0391078Y0326930D01*
X0390994Y0326808D01*
X0390907Y0326689D01*
X0390816Y0326572D01*
X0390722Y0326457D01*
X0390626Y0326345D01*
X0390526Y0326235D01*
X0390424Y0326129D01*
X0390318Y0326025D01*
X0390210Y0325924D01*
X0390099Y0325826D01*
X0389986Y0325730D01*
X0389870Y0325638D01*
X0389752Y0325549D01*
X0389631Y0325464D01*
X0389508Y0325381D01*
X0389383Y0325302D01*
X0389256Y0325226D01*
X0389127Y0325154D01*
X0388996Y0325085D01*
X0388863Y0325020D01*
X0388728Y0324959D01*
X0388592Y0324901D01*
X0388455Y0324846D01*
X0388316Y0324796D01*
X0388175Y0324749D01*
X0388034Y0324706D01*
X0387891Y0324666D01*
X0387747Y0324631D01*
X0387603Y0324599D01*
X0387457Y0324572D01*
X0387311Y0324548D01*
X0387164Y0324528D01*
X0387017Y0324512D01*
X0386870Y0324500D01*
X0386722Y0324492D01*
X0386574Y0324488D01*
X0386426Y0324488D01*
X0386278Y0324492D01*
X0386130Y0324500D01*
X0385983Y0324512D01*
X0385836Y0324528D01*
X0385689Y0324548D01*
X0385543Y0324572D01*
X0385397Y0324599D01*
X0385253Y0324631D01*
X0385109Y0324666D01*
X0384966Y0324706D01*
X0384825Y0324749D01*
X0384684Y0324796D01*
X0384545Y0324846D01*
X0384408Y0324901D01*
X0384272Y0324959D01*
X0384137Y0325020D01*
X0384004Y0325085D01*
X0383873Y0325154D01*
X0383744Y0325226D01*
X0383617Y0325302D01*
X0383492Y0325381D01*
X0383369Y0325464D01*
X0383248Y0325549D01*
X0383130Y0325638D01*
X0383014Y0325730D01*
X0382901Y0325826D01*
X0382790Y0325924D01*
X0382682Y0326025D01*
X0382576Y0326129D01*
X0382474Y0326235D01*
X0382374Y0326345D01*
X0382278Y0326457D01*
X0382184Y0326572D01*
X0382093Y0326689D01*
X0382006Y0326808D01*
X0381922Y0326930D01*
X0381841Y0327054D01*
X0381764Y0327180D01*
X0381690Y0327308D01*
X0381619Y0327438D01*
X0381552Y0327570D01*
X0381489Y0327704D01*
X0381429Y0327839D01*
X0381373Y0327976D01*
X0381320Y0328115D01*
X0381272Y0328255D01*
X0381227Y0328396D01*
X0381186Y0328538D01*
X0381148Y0328681D01*
X0381115Y0328825D01*
X0381085Y0328970D01*
X0381059Y0329116D01*
X0381038Y0329262D01*
X0381020Y0329409D01*
X0381006Y0329556D01*
X0380996Y0329704D01*
X0380990Y0329852D01*
X0380988Y0330000D01*
X0380988Y0020000D02*
X0380990Y0020148D01*
X0380996Y0020296D01*
X0381006Y0020444D01*
X0381020Y0020591D01*
X0381038Y0020738D01*
X0381059Y0020884D01*
X0381085Y0021030D01*
X0381115Y0021175D01*
X0381148Y0021319D01*
X0381186Y0021462D01*
X0381227Y0021604D01*
X0381272Y0021745D01*
X0381320Y0021885D01*
X0381373Y0022024D01*
X0381429Y0022161D01*
X0381489Y0022296D01*
X0381552Y0022430D01*
X0381619Y0022562D01*
X0381690Y0022692D01*
X0381764Y0022820D01*
X0381841Y0022946D01*
X0381922Y0023070D01*
X0382006Y0023192D01*
X0382093Y0023311D01*
X0382184Y0023428D01*
X0382278Y0023543D01*
X0382374Y0023655D01*
X0382474Y0023765D01*
X0382576Y0023871D01*
X0382682Y0023975D01*
X0382790Y0024076D01*
X0382901Y0024174D01*
X0383014Y0024270D01*
X0383130Y0024362D01*
X0383248Y0024451D01*
X0383369Y0024536D01*
X0383492Y0024619D01*
X0383617Y0024698D01*
X0383744Y0024774D01*
X0383873Y0024846D01*
X0384004Y0024915D01*
X0384137Y0024980D01*
X0384272Y0025041D01*
X0384408Y0025099D01*
X0384545Y0025154D01*
X0384684Y0025204D01*
X0384825Y0025251D01*
X0384966Y0025294D01*
X0385109Y0025334D01*
X0385253Y0025369D01*
X0385397Y0025401D01*
X0385543Y0025428D01*
X0385689Y0025452D01*
X0385836Y0025472D01*
X0385983Y0025488D01*
X0386130Y0025500D01*
X0386278Y0025508D01*
X0386426Y0025512D01*
X0386574Y0025512D01*
X0386722Y0025508D01*
X0386870Y0025500D01*
X0387017Y0025488D01*
X0387164Y0025472D01*
X0387311Y0025452D01*
X0387457Y0025428D01*
X0387603Y0025401D01*
X0387747Y0025369D01*
X0387891Y0025334D01*
X0388034Y0025294D01*
X0388175Y0025251D01*
X0388316Y0025204D01*
X0388455Y0025154D01*
X0388592Y0025099D01*
X0388728Y0025041D01*
X0388863Y0024980D01*
X0388996Y0024915D01*
X0389127Y0024846D01*
X0389256Y0024774D01*
X0389383Y0024698D01*
X0389508Y0024619D01*
X0389631Y0024536D01*
X0389752Y0024451D01*
X0389870Y0024362D01*
X0389986Y0024270D01*
X0390099Y0024174D01*
X0390210Y0024076D01*
X0390318Y0023975D01*
X0390424Y0023871D01*
X0390526Y0023765D01*
X0390626Y0023655D01*
X0390722Y0023543D01*
X0390816Y0023428D01*
X0390907Y0023311D01*
X0390994Y0023192D01*
X0391078Y0023070D01*
X0391159Y0022946D01*
X0391236Y0022820D01*
X0391310Y0022692D01*
X0391381Y0022562D01*
X0391448Y0022430D01*
X0391511Y0022296D01*
X0391571Y0022161D01*
X0391627Y0022024D01*
X0391680Y0021885D01*
X0391728Y0021745D01*
X0391773Y0021604D01*
X0391814Y0021462D01*
X0391852Y0021319D01*
X0391885Y0021175D01*
X0391915Y0021030D01*
X0391941Y0020884D01*
X0391962Y0020738D01*
X0391980Y0020591D01*
X0391994Y0020444D01*
X0392004Y0020296D01*
X0392010Y0020148D01*
X0392012Y0020000D01*
X0392010Y0019852D01*
X0392004Y0019704D01*
X0391994Y0019556D01*
X0391980Y0019409D01*
X0391962Y0019262D01*
X0391941Y0019116D01*
X0391915Y0018970D01*
X0391885Y0018825D01*
X0391852Y0018681D01*
X0391814Y0018538D01*
X0391773Y0018396D01*
X0391728Y0018255D01*
X0391680Y0018115D01*
X0391627Y0017976D01*
X0391571Y0017839D01*
X0391511Y0017704D01*
X0391448Y0017570D01*
X0391381Y0017438D01*
X0391310Y0017308D01*
X0391236Y0017180D01*
X0391159Y0017054D01*
X0391078Y0016930D01*
X0390994Y0016808D01*
X0390907Y0016689D01*
X0390816Y0016572D01*
X0390722Y0016457D01*
X0390626Y0016345D01*
X0390526Y0016235D01*
X0390424Y0016129D01*
X0390318Y0016025D01*
X0390210Y0015924D01*
X0390099Y0015826D01*
X0389986Y0015730D01*
X0389870Y0015638D01*
X0389752Y0015549D01*
X0389631Y0015464D01*
X0389508Y0015381D01*
X0389383Y0015302D01*
X0389256Y0015226D01*
X0389127Y0015154D01*
X0388996Y0015085D01*
X0388863Y0015020D01*
X0388728Y0014959D01*
X0388592Y0014901D01*
X0388455Y0014846D01*
X0388316Y0014796D01*
X0388175Y0014749D01*
X0388034Y0014706D01*
X0387891Y0014666D01*
X0387747Y0014631D01*
X0387603Y0014599D01*
X0387457Y0014572D01*
X0387311Y0014548D01*
X0387164Y0014528D01*
X0387017Y0014512D01*
X0386870Y0014500D01*
X0386722Y0014492D01*
X0386574Y0014488D01*
X0386426Y0014488D01*
X0386278Y0014492D01*
X0386130Y0014500D01*
X0385983Y0014512D01*
X0385836Y0014528D01*
X0385689Y0014548D01*
X0385543Y0014572D01*
X0385397Y0014599D01*
X0385253Y0014631D01*
X0385109Y0014666D01*
X0384966Y0014706D01*
X0384825Y0014749D01*
X0384684Y0014796D01*
X0384545Y0014846D01*
X0384408Y0014901D01*
X0384272Y0014959D01*
X0384137Y0015020D01*
X0384004Y0015085D01*
X0383873Y0015154D01*
X0383744Y0015226D01*
X0383617Y0015302D01*
X0383492Y0015381D01*
X0383369Y0015464D01*
X0383248Y0015549D01*
X0383130Y0015638D01*
X0383014Y0015730D01*
X0382901Y0015826D01*
X0382790Y0015924D01*
X0382682Y0016025D01*
X0382576Y0016129D01*
X0382474Y0016235D01*
X0382374Y0016345D01*
X0382278Y0016457D01*
X0382184Y0016572D01*
X0382093Y0016689D01*
X0382006Y0016808D01*
X0381922Y0016930D01*
X0381841Y0017054D01*
X0381764Y0017180D01*
X0381690Y0017308D01*
X0381619Y0017438D01*
X0381552Y0017570D01*
X0381489Y0017704D01*
X0381429Y0017839D01*
X0381373Y0017976D01*
X0381320Y0018115D01*
X0381272Y0018255D01*
X0381227Y0018396D01*
X0381186Y0018538D01*
X0381148Y0018681D01*
X0381115Y0018825D01*
X0381085Y0018970D01*
X0381059Y0019116D01*
X0381038Y0019262D01*
X0381020Y0019409D01*
X0381006Y0019556D01*
X0380996Y0019704D01*
X0380990Y0019852D01*
X0380988Y0020000D01*
D11*
X0389000Y0051000D02*
X0389000Y0074000D01*
X0309000Y0074000D01*
X0309000Y0066500D01*
X0309126Y0066498D01*
X0309251Y0066492D01*
X0309376Y0066482D01*
X0309501Y0066468D01*
X0309626Y0066451D01*
X0309750Y0066429D01*
X0309873Y0066404D01*
X0309995Y0066374D01*
X0310116Y0066341D01*
X0310236Y0066304D01*
X0310355Y0066264D01*
X0310472Y0066219D01*
X0310589Y0066171D01*
X0310703Y0066119D01*
X0310816Y0066064D01*
X0310927Y0066005D01*
X0311036Y0065943D01*
X0311143Y0065877D01*
X0311248Y0065808D01*
X0311351Y0065736D01*
X0311452Y0065661D01*
X0311550Y0065582D01*
X0311645Y0065500D01*
X0311738Y0065416D01*
X0311828Y0065328D01*
X0311916Y0065238D01*
X0312000Y0065145D01*
X0312082Y0065050D01*
X0312161Y0064952D01*
X0312236Y0064851D01*
X0312308Y0064748D01*
X0312377Y0064643D01*
X0312443Y0064536D01*
X0312505Y0064427D01*
X0312564Y0064316D01*
X0312619Y0064203D01*
X0312671Y0064089D01*
X0312719Y0063972D01*
X0312764Y0063855D01*
X0312804Y0063736D01*
X0312841Y0063616D01*
X0312874Y0063495D01*
X0312904Y0063373D01*
X0312929Y0063250D01*
X0312951Y0063126D01*
X0312968Y0063001D01*
X0312982Y0062876D01*
X0312992Y0062751D01*
X0312998Y0062626D01*
X0313000Y0062500D01*
X0312998Y0062374D01*
X0312992Y0062249D01*
X0312982Y0062124D01*
X0312968Y0061999D01*
X0312951Y0061874D01*
X0312929Y0061750D01*
X0312904Y0061627D01*
X0312874Y0061505D01*
X0312841Y0061384D01*
X0312804Y0061264D01*
X0312764Y0061145D01*
X0312719Y0061028D01*
X0312671Y0060911D01*
X0312619Y0060797D01*
X0312564Y0060684D01*
X0312505Y0060573D01*
X0312443Y0060464D01*
X0312377Y0060357D01*
X0312308Y0060252D01*
X0312236Y0060149D01*
X0312161Y0060048D01*
X0312082Y0059950D01*
X0312000Y0059855D01*
X0311916Y0059762D01*
X0311828Y0059672D01*
X0311738Y0059584D01*
X0311645Y0059500D01*
X0311550Y0059418D01*
X0311452Y0059339D01*
X0311351Y0059264D01*
X0311248Y0059192D01*
X0311143Y0059123D01*
X0311036Y0059057D01*
X0310927Y0058995D01*
X0310816Y0058936D01*
X0310703Y0058881D01*
X0310589Y0058829D01*
X0310472Y0058781D01*
X0310355Y0058736D01*
X0310236Y0058696D01*
X0310116Y0058659D01*
X0309995Y0058626D01*
X0309873Y0058596D01*
X0309750Y0058571D01*
X0309626Y0058549D01*
X0309501Y0058532D01*
X0309376Y0058518D01*
X0309251Y0058508D01*
X0309126Y0058502D01*
X0309000Y0058500D01*
X0309000Y0051000D01*
X0389000Y0051000D01*
X0341500Y0017500D02*
X0341500Y0012500D01*
X0339000Y0010000D01*
X0334000Y0010000D01*
X0331500Y0012500D01*
X0329000Y0010000D01*
X0324000Y0010000D01*
X0321500Y0012500D01*
X0319000Y0010000D01*
X0314000Y0010000D01*
X0311500Y0012500D01*
X0311500Y0017500D01*
X0314000Y0020000D01*
X0319000Y0020000D01*
X0321500Y0017500D01*
X0324000Y0020000D01*
X0329000Y0020000D01*
X0331500Y0017500D01*
X0334000Y0020000D01*
X0339000Y0020000D01*
X0341500Y0017500D01*
X0305000Y0051500D02*
X0305000Y0078500D01*
X0304998Y0078560D01*
X0304993Y0078621D01*
X0304984Y0078680D01*
X0304971Y0078739D01*
X0304955Y0078798D01*
X0304935Y0078855D01*
X0304912Y0078910D01*
X0304885Y0078965D01*
X0304856Y0079017D01*
X0304823Y0079068D01*
X0304787Y0079117D01*
X0304749Y0079163D01*
X0304707Y0079207D01*
X0304663Y0079249D01*
X0304617Y0079287D01*
X0304568Y0079323D01*
X0304517Y0079356D01*
X0304465Y0079385D01*
X0304410Y0079412D01*
X0304355Y0079435D01*
X0304298Y0079455D01*
X0304239Y0079471D01*
X0304180Y0079484D01*
X0304121Y0079493D01*
X0304060Y0079498D01*
X0304000Y0079500D01*
X0294000Y0079500D01*
X0293940Y0079498D01*
X0293879Y0079493D01*
X0293820Y0079484D01*
X0293761Y0079471D01*
X0293702Y0079455D01*
X0293645Y0079435D01*
X0293590Y0079412D01*
X0293535Y0079385D01*
X0293483Y0079356D01*
X0293432Y0079323D01*
X0293383Y0079287D01*
X0293337Y0079249D01*
X0293293Y0079207D01*
X0293251Y0079163D01*
X0293213Y0079117D01*
X0293177Y0079068D01*
X0293144Y0079017D01*
X0293115Y0078965D01*
X0293088Y0078910D01*
X0293065Y0078855D01*
X0293045Y0078798D01*
X0293029Y0078739D01*
X0293016Y0078680D01*
X0293007Y0078621D01*
X0293002Y0078560D01*
X0293000Y0078500D01*
X0293000Y0051500D01*
X0293002Y0051440D01*
X0293007Y0051379D01*
X0293016Y0051320D01*
X0293029Y0051261D01*
X0293045Y0051202D01*
X0293065Y0051145D01*
X0293088Y0051090D01*
X0293115Y0051035D01*
X0293144Y0050983D01*
X0293177Y0050932D01*
X0293213Y0050883D01*
X0293251Y0050837D01*
X0293293Y0050793D01*
X0293337Y0050751D01*
X0293383Y0050713D01*
X0293432Y0050677D01*
X0293483Y0050644D01*
X0293535Y0050615D01*
X0293590Y0050588D01*
X0293645Y0050565D01*
X0293702Y0050545D01*
X0293761Y0050529D01*
X0293820Y0050516D01*
X0293879Y0050507D01*
X0293940Y0050502D01*
X0294000Y0050500D01*
X0304000Y0050500D01*
X0304060Y0050502D01*
X0304121Y0050507D01*
X0304180Y0050516D01*
X0304239Y0050529D01*
X0304298Y0050545D01*
X0304355Y0050565D01*
X0304410Y0050588D01*
X0304465Y0050615D01*
X0304517Y0050644D01*
X0304568Y0050677D01*
X0304617Y0050713D01*
X0304663Y0050751D01*
X0304707Y0050793D01*
X0304749Y0050837D01*
X0304787Y0050883D01*
X0304823Y0050932D01*
X0304856Y0050983D01*
X0304885Y0051035D01*
X0304912Y0051090D01*
X0304935Y0051145D01*
X0304955Y0051202D01*
X0304971Y0051261D01*
X0304984Y0051320D01*
X0304993Y0051379D01*
X0304998Y0051440D01*
X0305000Y0051500D01*
X0299000Y0059000D02*
X0299000Y0063700D01*
X0299000Y0066200D02*
X0299000Y0071000D01*
X0286500Y0072500D02*
X0284000Y0070000D01*
X0286500Y0067500D01*
X0286500Y0062500D01*
X0284000Y0060000D01*
X0286500Y0057500D01*
X0286500Y0052500D01*
X0284000Y0050000D01*
X0279000Y0050000D01*
X0276500Y0052500D01*
X0276500Y0057500D01*
X0279000Y0060000D01*
X0276500Y0062500D01*
X0276500Y0067500D01*
X0279000Y0070000D01*
X0276500Y0072500D01*
X0276500Y0077500D01*
X0279000Y0080000D01*
X0284000Y0080000D01*
X0286500Y0077500D01*
X0286500Y0072500D01*
X0283700Y0082800D02*
X0277295Y0082800D01*
X0277295Y0087070D01*
X0277295Y0089245D02*
X0283700Y0093516D01*
X0283700Y0097826D02*
X0277295Y0097826D01*
X0277295Y0095691D02*
X0277295Y0099961D01*
X0277295Y0093516D02*
X0283700Y0089245D01*
X0283700Y0087070D02*
X0283700Y0082800D01*
X0280497Y0082800D02*
X0280497Y0084935D01*
X0312000Y0095000D02*
X0312000Y0105000D01*
X0312002Y0105060D01*
X0312007Y0105121D01*
X0312016Y0105180D01*
X0312029Y0105239D01*
X0312045Y0105298D01*
X0312065Y0105355D01*
X0312088Y0105410D01*
X0312115Y0105465D01*
X0312144Y0105517D01*
X0312177Y0105568D01*
X0312213Y0105617D01*
X0312251Y0105663D01*
X0312293Y0105707D01*
X0312337Y0105749D01*
X0312383Y0105787D01*
X0312432Y0105823D01*
X0312483Y0105856D01*
X0312535Y0105885D01*
X0312590Y0105912D01*
X0312645Y0105935D01*
X0312702Y0105955D01*
X0312761Y0105971D01*
X0312820Y0105984D01*
X0312879Y0105993D01*
X0312940Y0105998D01*
X0313000Y0106000D01*
X0340000Y0106000D01*
X0340060Y0105998D01*
X0340121Y0105993D01*
X0340180Y0105984D01*
X0340239Y0105971D01*
X0340298Y0105955D01*
X0340355Y0105935D01*
X0340410Y0105912D01*
X0340465Y0105885D01*
X0340517Y0105856D01*
X0340568Y0105823D01*
X0340617Y0105787D01*
X0340663Y0105749D01*
X0340707Y0105707D01*
X0340749Y0105663D01*
X0340787Y0105617D01*
X0340823Y0105568D01*
X0340856Y0105517D01*
X0340885Y0105465D01*
X0340912Y0105410D01*
X0340935Y0105355D01*
X0340955Y0105298D01*
X0340971Y0105239D01*
X0340984Y0105180D01*
X0340993Y0105121D01*
X0340998Y0105060D01*
X0341000Y0105000D01*
X0341000Y0095000D01*
X0340998Y0094940D01*
X0340993Y0094879D01*
X0340984Y0094820D01*
X0340971Y0094761D01*
X0340955Y0094702D01*
X0340935Y0094645D01*
X0340912Y0094590D01*
X0340885Y0094535D01*
X0340856Y0094483D01*
X0340823Y0094432D01*
X0340787Y0094383D01*
X0340749Y0094337D01*
X0340707Y0094293D01*
X0340663Y0094251D01*
X0340617Y0094213D01*
X0340568Y0094177D01*
X0340517Y0094144D01*
X0340465Y0094115D01*
X0340410Y0094088D01*
X0340355Y0094065D01*
X0340298Y0094045D01*
X0340239Y0094029D01*
X0340180Y0094016D01*
X0340121Y0094007D01*
X0340060Y0094002D01*
X0340000Y0094000D01*
X0313000Y0094000D01*
X0312940Y0094002D01*
X0312879Y0094007D01*
X0312820Y0094016D01*
X0312761Y0094029D01*
X0312702Y0094045D01*
X0312645Y0094065D01*
X0312590Y0094088D01*
X0312535Y0094115D01*
X0312483Y0094144D01*
X0312432Y0094177D01*
X0312383Y0094213D01*
X0312337Y0094251D01*
X0312293Y0094293D01*
X0312251Y0094337D01*
X0312213Y0094383D01*
X0312177Y0094432D01*
X0312144Y0094483D01*
X0312115Y0094535D01*
X0312088Y0094590D01*
X0312065Y0094645D01*
X0312045Y0094702D01*
X0312029Y0094761D01*
X0312016Y0094820D01*
X0312007Y0094879D01*
X0312002Y0094940D01*
X0312000Y0095000D01*
X0320500Y0100000D02*
X0325200Y0100000D01*
X0327700Y0100000D02*
X0332500Y0100000D01*
X0335612Y0106300D02*
X0337747Y0106300D01*
X0336680Y0106300D02*
X0336680Y0112705D01*
X0337747Y0112705D02*
X0335612Y0112705D01*
X0339909Y0111638D02*
X0339909Y0107368D01*
X0340977Y0106300D01*
X0343112Y0106300D01*
X0344179Y0107368D01*
X0346354Y0107368D02*
X0346354Y0106300D01*
X0346354Y0107368D02*
X0350625Y0111638D01*
X0350625Y0112705D01*
X0346354Y0112705D01*
X0344179Y0111638D02*
X0343112Y0112705D01*
X0340977Y0112705D01*
X0339909Y0111638D01*
X0331000Y0115000D02*
X0353000Y0115000D01*
X0353000Y0315000D01*
X0300000Y0315000D01*
X0300000Y0115000D01*
X0323000Y0115000D01*
X0323002Y0115126D01*
X0323008Y0115251D01*
X0323018Y0115376D01*
X0323032Y0115501D01*
X0323049Y0115626D01*
X0323071Y0115750D01*
X0323096Y0115873D01*
X0323126Y0115995D01*
X0323159Y0116116D01*
X0323196Y0116236D01*
X0323236Y0116355D01*
X0323281Y0116472D01*
X0323329Y0116589D01*
X0323381Y0116703D01*
X0323436Y0116816D01*
X0323495Y0116927D01*
X0323557Y0117036D01*
X0323623Y0117143D01*
X0323692Y0117248D01*
X0323764Y0117351D01*
X0323839Y0117452D01*
X0323918Y0117550D01*
X0324000Y0117645D01*
X0324084Y0117738D01*
X0324172Y0117828D01*
X0324262Y0117916D01*
X0324355Y0118000D01*
X0324450Y0118082D01*
X0324548Y0118161D01*
X0324649Y0118236D01*
X0324752Y0118308D01*
X0324857Y0118377D01*
X0324964Y0118443D01*
X0325073Y0118505D01*
X0325184Y0118564D01*
X0325297Y0118619D01*
X0325411Y0118671D01*
X0325528Y0118719D01*
X0325645Y0118764D01*
X0325764Y0118804D01*
X0325884Y0118841D01*
X0326005Y0118874D01*
X0326127Y0118904D01*
X0326250Y0118929D01*
X0326374Y0118951D01*
X0326499Y0118968D01*
X0326624Y0118982D01*
X0326749Y0118992D01*
X0326874Y0118998D01*
X0327000Y0119000D01*
X0327126Y0118998D01*
X0327251Y0118992D01*
X0327376Y0118982D01*
X0327501Y0118968D01*
X0327626Y0118951D01*
X0327750Y0118929D01*
X0327873Y0118904D01*
X0327995Y0118874D01*
X0328116Y0118841D01*
X0328236Y0118804D01*
X0328355Y0118764D01*
X0328472Y0118719D01*
X0328589Y0118671D01*
X0328703Y0118619D01*
X0328816Y0118564D01*
X0328927Y0118505D01*
X0329036Y0118443D01*
X0329143Y0118377D01*
X0329248Y0118308D01*
X0329351Y0118236D01*
X0329452Y0118161D01*
X0329550Y0118082D01*
X0329645Y0118000D01*
X0329738Y0117916D01*
X0329828Y0117828D01*
X0329916Y0117738D01*
X0330000Y0117645D01*
X0330082Y0117550D01*
X0330161Y0117452D01*
X0330236Y0117351D01*
X0330308Y0117248D01*
X0330377Y0117143D01*
X0330443Y0117036D01*
X0330505Y0116927D01*
X0330564Y0116816D01*
X0330619Y0116703D01*
X0330671Y0116589D01*
X0330719Y0116472D01*
X0330764Y0116355D01*
X0330804Y0116236D01*
X0330841Y0116116D01*
X0330874Y0115995D01*
X0330904Y0115873D01*
X0330929Y0115750D01*
X0330951Y0115626D01*
X0330968Y0115501D01*
X0330982Y0115376D01*
X0330992Y0115251D01*
X0330998Y0115126D01*
X0331000Y0115000D01*
X0369500Y0117500D02*
X0369500Y0312500D01*
X0369502Y0312598D01*
X0369508Y0312696D01*
X0369517Y0312794D01*
X0369531Y0312891D01*
X0369548Y0312988D01*
X0369569Y0313084D01*
X0369594Y0313179D01*
X0369622Y0313273D01*
X0369655Y0313365D01*
X0369690Y0313457D01*
X0369730Y0313547D01*
X0369772Y0313635D01*
X0369819Y0313722D01*
X0369868Y0313806D01*
X0369921Y0313889D01*
X0369977Y0313969D01*
X0370037Y0314048D01*
X0370099Y0314124D01*
X0370164Y0314197D01*
X0370232Y0314268D01*
X0370303Y0314336D01*
X0370376Y0314401D01*
X0370452Y0314463D01*
X0370531Y0314523D01*
X0370611Y0314579D01*
X0370694Y0314632D01*
X0370778Y0314681D01*
X0370865Y0314728D01*
X0370953Y0314770D01*
X0371043Y0314810D01*
X0371135Y0314845D01*
X0371227Y0314878D01*
X0371321Y0314906D01*
X0371416Y0314931D01*
X0371512Y0314952D01*
X0371609Y0314969D01*
X0371706Y0314983D01*
X0371804Y0314992D01*
X0371902Y0314998D01*
X0372000Y0315000D01*
X0391000Y0315000D01*
X0391098Y0314998D01*
X0391196Y0314992D01*
X0391294Y0314983D01*
X0391391Y0314969D01*
X0391488Y0314952D01*
X0391584Y0314931D01*
X0391679Y0314906D01*
X0391773Y0314878D01*
X0391865Y0314845D01*
X0391957Y0314810D01*
X0392047Y0314770D01*
X0392135Y0314728D01*
X0392222Y0314681D01*
X0392306Y0314632D01*
X0392389Y0314579D01*
X0392469Y0314523D01*
X0392548Y0314463D01*
X0392624Y0314401D01*
X0392697Y0314336D01*
X0392768Y0314268D01*
X0392836Y0314197D01*
X0392901Y0314124D01*
X0392963Y0314048D01*
X0393023Y0313969D01*
X0393079Y0313889D01*
X0393132Y0313806D01*
X0393181Y0313722D01*
X0393228Y0313635D01*
X0393270Y0313547D01*
X0393310Y0313457D01*
X0393345Y0313365D01*
X0393378Y0313273D01*
X0393406Y0313179D01*
X0393431Y0313084D01*
X0393452Y0312988D01*
X0393469Y0312891D01*
X0393483Y0312794D01*
X0393492Y0312696D01*
X0393498Y0312598D01*
X0393500Y0312500D01*
X0393500Y0117500D01*
X0393498Y0117402D01*
X0393492Y0117304D01*
X0393483Y0117206D01*
X0393469Y0117109D01*
X0393452Y0117012D01*
X0393431Y0116916D01*
X0393406Y0116821D01*
X0393378Y0116727D01*
X0393345Y0116635D01*
X0393310Y0116543D01*
X0393270Y0116453D01*
X0393228Y0116365D01*
X0393181Y0116278D01*
X0393132Y0116194D01*
X0393079Y0116111D01*
X0393023Y0116031D01*
X0392963Y0115952D01*
X0392901Y0115876D01*
X0392836Y0115803D01*
X0392768Y0115732D01*
X0392697Y0115664D01*
X0392624Y0115599D01*
X0392548Y0115537D01*
X0392469Y0115477D01*
X0392389Y0115421D01*
X0392306Y0115368D01*
X0392222Y0115319D01*
X0392135Y0115272D01*
X0392047Y0115230D01*
X0391957Y0115190D01*
X0391865Y0115155D01*
X0391773Y0115122D01*
X0391679Y0115094D01*
X0391584Y0115069D01*
X0391488Y0115048D01*
X0391391Y0115031D01*
X0391294Y0115017D01*
X0391196Y0115008D01*
X0391098Y0115002D01*
X0391000Y0115000D01*
X0372000Y0115000D01*
X0371902Y0115002D01*
X0371804Y0115008D01*
X0371706Y0115017D01*
X0371609Y0115031D01*
X0371512Y0115048D01*
X0371416Y0115069D01*
X0371321Y0115094D01*
X0371227Y0115122D01*
X0371135Y0115155D01*
X0371043Y0115190D01*
X0370953Y0115230D01*
X0370865Y0115272D01*
X0370778Y0115319D01*
X0370694Y0115368D01*
X0370611Y0115421D01*
X0370531Y0115477D01*
X0370452Y0115537D01*
X0370376Y0115599D01*
X0370303Y0115664D01*
X0370232Y0115732D01*
X0370164Y0115803D01*
X0370099Y0115876D01*
X0370037Y0115952D01*
X0369977Y0116031D01*
X0369921Y0116111D01*
X0369868Y0116194D01*
X0369819Y0116278D01*
X0369772Y0116365D01*
X0369730Y0116453D01*
X0369690Y0116543D01*
X0369655Y0116635D01*
X0369622Y0116727D01*
X0369594Y0116821D01*
X0369569Y0116916D01*
X0369548Y0117012D01*
X0369531Y0117109D01*
X0369517Y0117206D01*
X0369508Y0117304D01*
X0369502Y0117402D01*
X0369500Y0117500D01*
X0286500Y0125000D02*
X0286500Y0135000D01*
X0286500Y0215000D01*
X0276500Y0215000D01*
X0276500Y0135000D01*
X0276500Y0125000D01*
X0279000Y0127500D01*
X0276500Y0125000D02*
X0286500Y0125000D01*
X0284000Y0127500D01*
X0284000Y0132500D02*
X0286500Y0135000D01*
X0276500Y0135000D01*
X0279000Y0132500D01*
X0263000Y0150000D02*
X0240500Y0150000D01*
X0240498Y0149874D01*
X0240492Y0149749D01*
X0240482Y0149624D01*
X0240468Y0149499D01*
X0240451Y0149374D01*
X0240429Y0149250D01*
X0240404Y0149127D01*
X0240374Y0149005D01*
X0240341Y0148884D01*
X0240304Y0148764D01*
X0240264Y0148645D01*
X0240219Y0148528D01*
X0240171Y0148411D01*
X0240119Y0148297D01*
X0240064Y0148184D01*
X0240005Y0148073D01*
X0239943Y0147964D01*
X0239877Y0147857D01*
X0239808Y0147752D01*
X0239736Y0147649D01*
X0239661Y0147548D01*
X0239582Y0147450D01*
X0239500Y0147355D01*
X0239416Y0147262D01*
X0239328Y0147172D01*
X0239238Y0147084D01*
X0239145Y0147000D01*
X0239050Y0146918D01*
X0238952Y0146839D01*
X0238851Y0146764D01*
X0238748Y0146692D01*
X0238643Y0146623D01*
X0238536Y0146557D01*
X0238427Y0146495D01*
X0238316Y0146436D01*
X0238203Y0146381D01*
X0238089Y0146329D01*
X0237972Y0146281D01*
X0237855Y0146236D01*
X0237736Y0146196D01*
X0237616Y0146159D01*
X0237495Y0146126D01*
X0237373Y0146096D01*
X0237250Y0146071D01*
X0237126Y0146049D01*
X0237001Y0146032D01*
X0236876Y0146018D01*
X0236751Y0146008D01*
X0236626Y0146002D01*
X0236500Y0146000D01*
X0236374Y0146002D01*
X0236249Y0146008D01*
X0236124Y0146018D01*
X0235999Y0146032D01*
X0235874Y0146049D01*
X0235750Y0146071D01*
X0235627Y0146096D01*
X0235505Y0146126D01*
X0235384Y0146159D01*
X0235264Y0146196D01*
X0235145Y0146236D01*
X0235028Y0146281D01*
X0234911Y0146329D01*
X0234797Y0146381D01*
X0234684Y0146436D01*
X0234573Y0146495D01*
X0234464Y0146557D01*
X0234357Y0146623D01*
X0234252Y0146692D01*
X0234149Y0146764D01*
X0234048Y0146839D01*
X0233950Y0146918D01*
X0233855Y0147000D01*
X0233762Y0147084D01*
X0233672Y0147172D01*
X0233584Y0147262D01*
X0233500Y0147355D01*
X0233418Y0147450D01*
X0233339Y0147548D01*
X0233264Y0147649D01*
X0233192Y0147752D01*
X0233123Y0147857D01*
X0233057Y0147964D01*
X0232995Y0148073D01*
X0232936Y0148184D01*
X0232881Y0148297D01*
X0232829Y0148411D01*
X0232781Y0148528D01*
X0232736Y0148645D01*
X0232696Y0148764D01*
X0232659Y0148884D01*
X0232626Y0149005D01*
X0232596Y0149127D01*
X0232571Y0149250D01*
X0232549Y0149374D01*
X0232532Y0149499D01*
X0232518Y0149624D01*
X0232508Y0149749D01*
X0232502Y0149874D01*
X0232500Y0150000D01*
X0210000Y0150000D01*
X0210000Y0010000D01*
X0263000Y0010000D01*
X0263000Y0150000D01*
X0261000Y0152500D02*
X0261000Y0162500D01*
X0260998Y0162560D01*
X0260993Y0162621D01*
X0260984Y0162680D01*
X0260971Y0162739D01*
X0260955Y0162798D01*
X0260935Y0162855D01*
X0260912Y0162910D01*
X0260885Y0162965D01*
X0260856Y0163017D01*
X0260823Y0163068D01*
X0260787Y0163117D01*
X0260749Y0163163D01*
X0260707Y0163207D01*
X0260663Y0163249D01*
X0260617Y0163287D01*
X0260568Y0163323D01*
X0260517Y0163356D01*
X0260465Y0163385D01*
X0260410Y0163412D01*
X0260355Y0163435D01*
X0260298Y0163455D01*
X0260239Y0163471D01*
X0260180Y0163484D01*
X0260121Y0163493D01*
X0260060Y0163498D01*
X0260000Y0163500D01*
X0233000Y0163500D01*
X0232940Y0163498D01*
X0232879Y0163493D01*
X0232820Y0163484D01*
X0232761Y0163471D01*
X0232702Y0163455D01*
X0232645Y0163435D01*
X0232590Y0163412D01*
X0232535Y0163385D01*
X0232483Y0163356D01*
X0232432Y0163323D01*
X0232383Y0163287D01*
X0232337Y0163249D01*
X0232293Y0163207D01*
X0232251Y0163163D01*
X0232213Y0163117D01*
X0232177Y0163068D01*
X0232144Y0163017D01*
X0232115Y0162965D01*
X0232088Y0162910D01*
X0232065Y0162855D01*
X0232045Y0162798D01*
X0232029Y0162739D01*
X0232016Y0162680D01*
X0232007Y0162621D01*
X0232002Y0162560D01*
X0232000Y0162500D01*
X0232000Y0152500D01*
X0232002Y0152440D01*
X0232007Y0152379D01*
X0232016Y0152320D01*
X0232029Y0152261D01*
X0232045Y0152202D01*
X0232065Y0152145D01*
X0232088Y0152090D01*
X0232115Y0152035D01*
X0232144Y0151983D01*
X0232177Y0151932D01*
X0232213Y0151883D01*
X0232251Y0151837D01*
X0232293Y0151793D01*
X0232337Y0151751D01*
X0232383Y0151713D01*
X0232432Y0151677D01*
X0232483Y0151644D01*
X0232535Y0151615D01*
X0232590Y0151588D01*
X0232645Y0151565D01*
X0232702Y0151545D01*
X0232761Y0151529D01*
X0232820Y0151516D01*
X0232879Y0151507D01*
X0232940Y0151502D01*
X0233000Y0151500D01*
X0260000Y0151500D01*
X0260060Y0151502D01*
X0260121Y0151507D01*
X0260180Y0151516D01*
X0260239Y0151529D01*
X0260298Y0151545D01*
X0260355Y0151565D01*
X0260410Y0151588D01*
X0260465Y0151615D01*
X0260517Y0151644D01*
X0260568Y0151677D01*
X0260617Y0151713D01*
X0260663Y0151751D01*
X0260707Y0151793D01*
X0260749Y0151837D01*
X0260787Y0151883D01*
X0260823Y0151932D01*
X0260856Y0151983D01*
X0260885Y0152035D01*
X0260912Y0152090D01*
X0260935Y0152145D01*
X0260955Y0152202D01*
X0260971Y0152261D01*
X0260984Y0152320D01*
X0260993Y0152379D01*
X0260998Y0152440D01*
X0261000Y0152500D01*
X0252500Y0157500D02*
X0247700Y0157500D01*
X0245200Y0157500D02*
X0240500Y0157500D01*
X0225813Y0155003D02*
X0221542Y0155003D01*
X0224745Y0158205D01*
X0224745Y0151800D01*
X0219367Y0152868D02*
X0218300Y0151800D01*
X0216165Y0151800D01*
X0215097Y0152868D01*
X0215097Y0157138D01*
X0216165Y0158205D01*
X0218300Y0158205D01*
X0219367Y0157138D01*
X0212935Y0158205D02*
X0210800Y0158205D01*
X0211868Y0158205D02*
X0211868Y0151800D01*
X0212935Y0151800D02*
X0210800Y0151800D01*
X0210500Y0165500D02*
X0210500Y0304500D01*
X0231500Y0304500D01*
X0231502Y0304360D01*
X0231508Y0304220D01*
X0231518Y0304080D01*
X0231531Y0303940D01*
X0231549Y0303801D01*
X0231571Y0303662D01*
X0231596Y0303525D01*
X0231625Y0303387D01*
X0231658Y0303251D01*
X0231695Y0303116D01*
X0231736Y0302982D01*
X0231781Y0302849D01*
X0231829Y0302717D01*
X0231881Y0302587D01*
X0231936Y0302458D01*
X0231995Y0302331D01*
X0232058Y0302205D01*
X0232124Y0302081D01*
X0232193Y0301960D01*
X0232266Y0301840D01*
X0232343Y0301722D01*
X0232422Y0301607D01*
X0232505Y0301493D01*
X0232591Y0301383D01*
X0232680Y0301274D01*
X0232772Y0301168D01*
X0232867Y0301065D01*
X0232964Y0300964D01*
X0233065Y0300867D01*
X0233168Y0300772D01*
X0233274Y0300680D01*
X0233383Y0300591D01*
X0233493Y0300505D01*
X0233607Y0300422D01*
X0233722Y0300343D01*
X0233840Y0300266D01*
X0233960Y0300193D01*
X0234081Y0300124D01*
X0234205Y0300058D01*
X0234331Y0299995D01*
X0234458Y0299936D01*
X0234587Y0299881D01*
X0234717Y0299829D01*
X0234849Y0299781D01*
X0234982Y0299736D01*
X0235116Y0299695D01*
X0235251Y0299658D01*
X0235387Y0299625D01*
X0235525Y0299596D01*
X0235662Y0299571D01*
X0235801Y0299549D01*
X0235940Y0299531D01*
X0236080Y0299518D01*
X0236220Y0299508D01*
X0236360Y0299502D01*
X0236500Y0299500D01*
X0236640Y0299502D01*
X0236780Y0299508D01*
X0236920Y0299518D01*
X0237060Y0299531D01*
X0237199Y0299549D01*
X0237338Y0299571D01*
X0237475Y0299596D01*
X0237613Y0299625D01*
X0237749Y0299658D01*
X0237884Y0299695D01*
X0238018Y0299736D01*
X0238151Y0299781D01*
X0238283Y0299829D01*
X0238413Y0299881D01*
X0238542Y0299936D01*
X0238669Y0299995D01*
X0238795Y0300058D01*
X0238919Y0300124D01*
X0239040Y0300193D01*
X0239160Y0300266D01*
X0239278Y0300343D01*
X0239393Y0300422D01*
X0239507Y0300505D01*
X0239617Y0300591D01*
X0239726Y0300680D01*
X0239832Y0300772D01*
X0239935Y0300867D01*
X0240036Y0300964D01*
X0240133Y0301065D01*
X0240228Y0301168D01*
X0240320Y0301274D01*
X0240409Y0301383D01*
X0240495Y0301493D01*
X0240578Y0301607D01*
X0240657Y0301722D01*
X0240734Y0301840D01*
X0240807Y0301960D01*
X0240876Y0302081D01*
X0240942Y0302205D01*
X0241005Y0302331D01*
X0241064Y0302458D01*
X0241119Y0302587D01*
X0241171Y0302717D01*
X0241219Y0302849D01*
X0241264Y0302982D01*
X0241305Y0303116D01*
X0241342Y0303251D01*
X0241375Y0303387D01*
X0241404Y0303525D01*
X0241429Y0303662D01*
X0241451Y0303801D01*
X0241469Y0303940D01*
X0241482Y0304080D01*
X0241492Y0304220D01*
X0241498Y0304360D01*
X0241500Y0304500D01*
X0262500Y0304500D01*
X0262500Y0165500D01*
X0210500Y0165500D01*
X0182500Y0165500D02*
X0182500Y0304500D01*
X0161500Y0304500D01*
X0161498Y0304360D01*
X0161492Y0304220D01*
X0161482Y0304080D01*
X0161469Y0303940D01*
X0161451Y0303801D01*
X0161429Y0303662D01*
X0161404Y0303525D01*
X0161375Y0303387D01*
X0161342Y0303251D01*
X0161305Y0303116D01*
X0161264Y0302982D01*
X0161219Y0302849D01*
X0161171Y0302717D01*
X0161119Y0302587D01*
X0161064Y0302458D01*
X0161005Y0302331D01*
X0160942Y0302205D01*
X0160876Y0302081D01*
X0160807Y0301960D01*
X0160734Y0301840D01*
X0160657Y0301722D01*
X0160578Y0301607D01*
X0160495Y0301493D01*
X0160409Y0301383D01*
X0160320Y0301274D01*
X0160228Y0301168D01*
X0160133Y0301065D01*
X0160036Y0300964D01*
X0159935Y0300867D01*
X0159832Y0300772D01*
X0159726Y0300680D01*
X0159617Y0300591D01*
X0159507Y0300505D01*
X0159393Y0300422D01*
X0159278Y0300343D01*
X0159160Y0300266D01*
X0159040Y0300193D01*
X0158919Y0300124D01*
X0158795Y0300058D01*
X0158669Y0299995D01*
X0158542Y0299936D01*
X0158413Y0299881D01*
X0158283Y0299829D01*
X0158151Y0299781D01*
X0158018Y0299736D01*
X0157884Y0299695D01*
X0157749Y0299658D01*
X0157613Y0299625D01*
X0157475Y0299596D01*
X0157338Y0299571D01*
X0157199Y0299549D01*
X0157060Y0299531D01*
X0156920Y0299518D01*
X0156780Y0299508D01*
X0156640Y0299502D01*
X0156500Y0299500D01*
X0156360Y0299502D01*
X0156220Y0299508D01*
X0156080Y0299518D01*
X0155940Y0299531D01*
X0155801Y0299549D01*
X0155662Y0299571D01*
X0155525Y0299596D01*
X0155387Y0299625D01*
X0155251Y0299658D01*
X0155116Y0299695D01*
X0154982Y0299736D01*
X0154849Y0299781D01*
X0154717Y0299829D01*
X0154587Y0299881D01*
X0154458Y0299936D01*
X0154331Y0299995D01*
X0154205Y0300058D01*
X0154081Y0300124D01*
X0153960Y0300193D01*
X0153840Y0300266D01*
X0153722Y0300343D01*
X0153607Y0300422D01*
X0153493Y0300505D01*
X0153383Y0300591D01*
X0153274Y0300680D01*
X0153168Y0300772D01*
X0153065Y0300867D01*
X0152964Y0300964D01*
X0152867Y0301065D01*
X0152772Y0301168D01*
X0152680Y0301274D01*
X0152591Y0301383D01*
X0152505Y0301493D01*
X0152422Y0301607D01*
X0152343Y0301722D01*
X0152266Y0301840D01*
X0152193Y0301960D01*
X0152124Y0302081D01*
X0152058Y0302205D01*
X0151995Y0302331D01*
X0151936Y0302458D01*
X0151881Y0302587D01*
X0151829Y0302717D01*
X0151781Y0302849D01*
X0151736Y0302982D01*
X0151695Y0303116D01*
X0151658Y0303251D01*
X0151625Y0303387D01*
X0151596Y0303525D01*
X0151571Y0303662D01*
X0151549Y0303801D01*
X0151531Y0303940D01*
X0151518Y0304080D01*
X0151508Y0304220D01*
X0151502Y0304360D01*
X0151500Y0304500D01*
X0130500Y0304500D01*
X0130500Y0165500D01*
X0182500Y0165500D01*
X0131500Y0162500D02*
X0131500Y0112500D01*
X0121500Y0112500D01*
X0121500Y0102500D01*
X0124000Y0105000D01*
X0121500Y0102500D02*
X0131500Y0102500D01*
X0131500Y0112500D01*
X0129000Y0110000D01*
X0129000Y0105000D02*
X0131500Y0102500D01*
X0125000Y0096500D02*
X0108000Y0096500D01*
X0107940Y0096498D01*
X0107879Y0096493D01*
X0107820Y0096484D01*
X0107761Y0096471D01*
X0107702Y0096455D01*
X0107645Y0096435D01*
X0107590Y0096412D01*
X0107535Y0096385D01*
X0107483Y0096356D01*
X0107432Y0096323D01*
X0107383Y0096287D01*
X0107337Y0096249D01*
X0107293Y0096207D01*
X0107251Y0096163D01*
X0107213Y0096117D01*
X0107177Y0096068D01*
X0107144Y0096017D01*
X0107115Y0095965D01*
X0107088Y0095910D01*
X0107065Y0095855D01*
X0107045Y0095798D01*
X0107029Y0095739D01*
X0107016Y0095680D01*
X0107007Y0095621D01*
X0107002Y0095560D01*
X0107000Y0095500D01*
X0107000Y0079500D01*
X0107002Y0079440D01*
X0107007Y0079379D01*
X0107016Y0079320D01*
X0107029Y0079261D01*
X0107045Y0079202D01*
X0107065Y0079145D01*
X0107088Y0079090D01*
X0107115Y0079035D01*
X0107144Y0078983D01*
X0107177Y0078932D01*
X0107213Y0078883D01*
X0107251Y0078837D01*
X0107293Y0078793D01*
X0107337Y0078751D01*
X0107383Y0078713D01*
X0107432Y0078677D01*
X0107483Y0078644D01*
X0107535Y0078615D01*
X0107590Y0078588D01*
X0107645Y0078565D01*
X0107702Y0078545D01*
X0107761Y0078529D01*
X0107820Y0078516D01*
X0107879Y0078507D01*
X0107940Y0078502D01*
X0108000Y0078500D01*
X0125000Y0078500D01*
X0125060Y0078502D01*
X0125121Y0078507D01*
X0125180Y0078516D01*
X0125239Y0078529D01*
X0125298Y0078545D01*
X0125355Y0078565D01*
X0125410Y0078588D01*
X0125465Y0078615D01*
X0125517Y0078644D01*
X0125568Y0078677D01*
X0125617Y0078713D01*
X0125663Y0078751D01*
X0125707Y0078793D01*
X0125749Y0078837D01*
X0125787Y0078883D01*
X0125823Y0078932D01*
X0125856Y0078983D01*
X0125885Y0079035D01*
X0125912Y0079090D01*
X0125935Y0079145D01*
X0125955Y0079202D01*
X0125971Y0079261D01*
X0125984Y0079320D01*
X0125993Y0079379D01*
X0125998Y0079440D01*
X0126000Y0079500D01*
X0126000Y0095500D01*
X0125998Y0095560D01*
X0125993Y0095621D01*
X0125984Y0095680D01*
X0125971Y0095739D01*
X0125955Y0095798D01*
X0125935Y0095855D01*
X0125912Y0095910D01*
X0125885Y0095965D01*
X0125856Y0096017D01*
X0125823Y0096068D01*
X0125787Y0096117D01*
X0125749Y0096163D01*
X0125707Y0096207D01*
X0125663Y0096249D01*
X0125617Y0096287D01*
X0125568Y0096323D01*
X0125517Y0096356D01*
X0125465Y0096385D01*
X0125410Y0096412D01*
X0125355Y0096435D01*
X0125298Y0096455D01*
X0125239Y0096471D01*
X0125180Y0096484D01*
X0125121Y0096493D01*
X0125060Y0096498D01*
X0125000Y0096500D01*
X0118000Y0087500D02*
X0117500Y0087500D01*
X0115500Y0087500D02*
X0115000Y0087500D01*
X0101500Y0078500D02*
X0101500Y0101500D01*
X0031500Y0101500D01*
X0031500Y0094000D01*
X0031626Y0093998D01*
X0031751Y0093992D01*
X0031876Y0093982D01*
X0032001Y0093968D01*
X0032126Y0093951D01*
X0032250Y0093929D01*
X0032373Y0093904D01*
X0032495Y0093874D01*
X0032616Y0093841D01*
X0032736Y0093804D01*
X0032855Y0093764D01*
X0032972Y0093719D01*
X0033089Y0093671D01*
X0033203Y0093619D01*
X0033316Y0093564D01*
X0033427Y0093505D01*
X0033536Y0093443D01*
X0033643Y0093377D01*
X0033748Y0093308D01*
X0033851Y0093236D01*
X0033952Y0093161D01*
X0034050Y0093082D01*
X0034145Y0093000D01*
X0034238Y0092916D01*
X0034328Y0092828D01*
X0034416Y0092738D01*
X0034500Y0092645D01*
X0034582Y0092550D01*
X0034661Y0092452D01*
X0034736Y0092351D01*
X0034808Y0092248D01*
X0034877Y0092143D01*
X0034943Y0092036D01*
X0035005Y0091927D01*
X0035064Y0091816D01*
X0035119Y0091703D01*
X0035171Y0091589D01*
X0035219Y0091472D01*
X0035264Y0091355D01*
X0035304Y0091236D01*
X0035341Y0091116D01*
X0035374Y0090995D01*
X0035404Y0090873D01*
X0035429Y0090750D01*
X0035451Y0090626D01*
X0035468Y0090501D01*
X0035482Y0090376D01*
X0035492Y0090251D01*
X0035498Y0090126D01*
X0035500Y0090000D01*
X0035498Y0089874D01*
X0035492Y0089749D01*
X0035482Y0089624D01*
X0035468Y0089499D01*
X0035451Y0089374D01*
X0035429Y0089250D01*
X0035404Y0089127D01*
X0035374Y0089005D01*
X0035341Y0088884D01*
X0035304Y0088764D01*
X0035264Y0088645D01*
X0035219Y0088528D01*
X0035171Y0088411D01*
X0035119Y0088297D01*
X0035064Y0088184D01*
X0035005Y0088073D01*
X0034943Y0087964D01*
X0034877Y0087857D01*
X0034808Y0087752D01*
X0034736Y0087649D01*
X0034661Y0087548D01*
X0034582Y0087450D01*
X0034500Y0087355D01*
X0034416Y0087262D01*
X0034328Y0087172D01*
X0034238Y0087084D01*
X0034145Y0087000D01*
X0034050Y0086918D01*
X0033952Y0086839D01*
X0033851Y0086764D01*
X0033748Y0086692D01*
X0033643Y0086623D01*
X0033536Y0086557D01*
X0033427Y0086495D01*
X0033316Y0086436D01*
X0033203Y0086381D01*
X0033089Y0086329D01*
X0032972Y0086281D01*
X0032855Y0086236D01*
X0032736Y0086196D01*
X0032616Y0086159D01*
X0032495Y0086126D01*
X0032373Y0086096D01*
X0032250Y0086071D01*
X0032126Y0086049D01*
X0032001Y0086032D01*
X0031876Y0086018D01*
X0031751Y0086008D01*
X0031626Y0086002D01*
X0031500Y0086000D01*
X0031500Y0078500D01*
X0101500Y0078500D01*
X0110000Y0064500D02*
X0110000Y0040500D01*
X0110002Y0040340D01*
X0110008Y0040181D01*
X0110018Y0040022D01*
X0110031Y0039863D01*
X0110049Y0039704D01*
X0110070Y0039546D01*
X0110096Y0039389D01*
X0110125Y0039232D01*
X0110158Y0039076D01*
X0110195Y0038921D01*
X0110235Y0038766D01*
X0110280Y0038613D01*
X0110328Y0038461D01*
X0110380Y0038310D01*
X0110436Y0038161D01*
X0110495Y0038013D01*
X0110558Y0037866D01*
X0110624Y0037721D01*
X0110694Y0037578D01*
X0110768Y0037436D01*
X0110844Y0037296D01*
X0110925Y0037158D01*
X0111008Y0037023D01*
X0111095Y0036889D01*
X0111186Y0036757D01*
X0111279Y0036628D01*
X0111376Y0036501D01*
X0111475Y0036376D01*
X0111578Y0036254D01*
X0111684Y0036135D01*
X0111792Y0036018D01*
X0111904Y0035904D01*
X0112018Y0035792D01*
X0112135Y0035684D01*
X0112254Y0035578D01*
X0112376Y0035475D01*
X0112501Y0035376D01*
X0112628Y0035279D01*
X0112757Y0035186D01*
X0112889Y0035095D01*
X0113023Y0035008D01*
X0113158Y0034925D01*
X0113296Y0034844D01*
X0113436Y0034768D01*
X0113578Y0034694D01*
X0113721Y0034624D01*
X0113866Y0034558D01*
X0114013Y0034495D01*
X0114161Y0034436D01*
X0114310Y0034380D01*
X0114461Y0034328D01*
X0114613Y0034280D01*
X0114766Y0034235D01*
X0114921Y0034195D01*
X0115076Y0034158D01*
X0115232Y0034125D01*
X0115389Y0034096D01*
X0115546Y0034070D01*
X0115704Y0034049D01*
X0115863Y0034031D01*
X0116022Y0034018D01*
X0116181Y0034008D01*
X0116340Y0034002D01*
X0116500Y0034000D01*
X0116660Y0034002D01*
X0116819Y0034008D01*
X0116978Y0034018D01*
X0117137Y0034031D01*
X0117296Y0034049D01*
X0117454Y0034070D01*
X0117611Y0034096D01*
X0117768Y0034125D01*
X0117924Y0034158D01*
X0118079Y0034195D01*
X0118234Y0034235D01*
X0118387Y0034280D01*
X0118539Y0034328D01*
X0118690Y0034380D01*
X0118839Y0034436D01*
X0118987Y0034495D01*
X0119134Y0034558D01*
X0119279Y0034624D01*
X0119422Y0034694D01*
X0119564Y0034768D01*
X0119704Y0034844D01*
X0119842Y0034925D01*
X0119977Y0035008D01*
X0120111Y0035095D01*
X0120243Y0035186D01*
X0120372Y0035279D01*
X0120499Y0035376D01*
X0120624Y0035475D01*
X0120746Y0035578D01*
X0120865Y0035684D01*
X0120982Y0035792D01*
X0121096Y0035904D01*
X0121208Y0036018D01*
X0121316Y0036135D01*
X0121422Y0036254D01*
X0121525Y0036376D01*
X0121624Y0036501D01*
X0121721Y0036628D01*
X0121814Y0036757D01*
X0121905Y0036889D01*
X0121992Y0037023D01*
X0122075Y0037158D01*
X0122156Y0037296D01*
X0122232Y0037436D01*
X0122306Y0037578D01*
X0122376Y0037721D01*
X0122442Y0037866D01*
X0122505Y0038013D01*
X0122564Y0038161D01*
X0122620Y0038310D01*
X0122672Y0038461D01*
X0122720Y0038613D01*
X0122765Y0038766D01*
X0122805Y0038921D01*
X0122842Y0039076D01*
X0122875Y0039232D01*
X0122904Y0039389D01*
X0122930Y0039546D01*
X0122951Y0039704D01*
X0122969Y0039863D01*
X0122982Y0040022D01*
X0122992Y0040181D01*
X0122998Y0040340D01*
X0123000Y0040500D01*
X0123000Y0064500D01*
X0122998Y0064660D01*
X0122992Y0064819D01*
X0122982Y0064978D01*
X0122969Y0065137D01*
X0122951Y0065296D01*
X0122930Y0065454D01*
X0122904Y0065611D01*
X0122875Y0065768D01*
X0122842Y0065924D01*
X0122805Y0066079D01*
X0122765Y0066234D01*
X0122720Y0066387D01*
X0122672Y0066539D01*
X0122620Y0066690D01*
X0122564Y0066839D01*
X0122505Y0066987D01*
X0122442Y0067134D01*
X0122376Y0067279D01*
X0122306Y0067422D01*
X0122232Y0067564D01*
X0122156Y0067704D01*
X0122075Y0067842D01*
X0121992Y0067977D01*
X0121905Y0068111D01*
X0121814Y0068243D01*
X0121721Y0068372D01*
X0121624Y0068499D01*
X0121525Y0068624D01*
X0121422Y0068746D01*
X0121316Y0068865D01*
X0121208Y0068982D01*
X0121096Y0069096D01*
X0120982Y0069208D01*
X0120865Y0069316D01*
X0120746Y0069422D01*
X0120624Y0069525D01*
X0120499Y0069624D01*
X0120372Y0069721D01*
X0120243Y0069814D01*
X0120111Y0069905D01*
X0119977Y0069992D01*
X0119842Y0070075D01*
X0119704Y0070156D01*
X0119564Y0070232D01*
X0119422Y0070306D01*
X0119279Y0070376D01*
X0119134Y0070442D01*
X0118987Y0070505D01*
X0118839Y0070564D01*
X0118690Y0070620D01*
X0118539Y0070672D01*
X0118387Y0070720D01*
X0118234Y0070765D01*
X0118079Y0070805D01*
X0117924Y0070842D01*
X0117768Y0070875D01*
X0117611Y0070904D01*
X0117454Y0070930D01*
X0117296Y0070951D01*
X0117137Y0070969D01*
X0116978Y0070982D01*
X0116819Y0070992D01*
X0116660Y0070998D01*
X0116500Y0071000D01*
X0116340Y0070998D01*
X0116181Y0070992D01*
X0116022Y0070982D01*
X0115863Y0070969D01*
X0115704Y0070951D01*
X0115546Y0070930D01*
X0115389Y0070904D01*
X0115232Y0070875D01*
X0115076Y0070842D01*
X0114921Y0070805D01*
X0114766Y0070765D01*
X0114613Y0070720D01*
X0114461Y0070672D01*
X0114310Y0070620D01*
X0114161Y0070564D01*
X0114013Y0070505D01*
X0113866Y0070442D01*
X0113721Y0070376D01*
X0113578Y0070306D01*
X0113436Y0070232D01*
X0113296Y0070156D01*
X0113158Y0070075D01*
X0113023Y0069992D01*
X0112889Y0069905D01*
X0112757Y0069814D01*
X0112628Y0069721D01*
X0112501Y0069624D01*
X0112376Y0069525D01*
X0112254Y0069422D01*
X0112135Y0069316D01*
X0112018Y0069208D01*
X0111904Y0069096D01*
X0111792Y0068982D01*
X0111684Y0068865D01*
X0111578Y0068746D01*
X0111475Y0068624D01*
X0111376Y0068499D01*
X0111279Y0068372D01*
X0111186Y0068243D01*
X0111095Y0068111D01*
X0111008Y0067977D01*
X0110925Y0067842D01*
X0110844Y0067704D01*
X0110768Y0067564D01*
X0110694Y0067422D01*
X0110624Y0067279D01*
X0110558Y0067134D01*
X0110495Y0066987D01*
X0110436Y0066839D01*
X0110380Y0066690D01*
X0110328Y0066539D01*
X0110280Y0066387D01*
X0110235Y0066234D01*
X0110195Y0066079D01*
X0110158Y0065924D01*
X0110125Y0065768D01*
X0110096Y0065611D01*
X0110070Y0065454D01*
X0110049Y0065296D01*
X0110031Y0065137D01*
X0110018Y0064978D01*
X0110008Y0064819D01*
X0110002Y0064660D01*
X0110000Y0064500D01*
X0116500Y0057500D02*
X0116500Y0055000D01*
X0119500Y0055000D01*
X0119500Y0053500D02*
X0119500Y0051500D01*
X0113500Y0051500D01*
X0113500Y0053500D01*
X0119500Y0053500D01*
X0116500Y0055000D02*
X0113500Y0055000D01*
X0113500Y0050000D02*
X0116500Y0050000D01*
X0116500Y0047500D01*
X0116500Y0050000D02*
X0119500Y0050000D01*
X0132500Y0042500D02*
X0132500Y0041000D01*
X0132502Y0040940D01*
X0132507Y0040879D01*
X0132516Y0040820D01*
X0132529Y0040761D01*
X0132545Y0040702D01*
X0132565Y0040645D01*
X0132588Y0040590D01*
X0132615Y0040535D01*
X0132644Y0040483D01*
X0132677Y0040432D01*
X0132713Y0040383D01*
X0132751Y0040337D01*
X0132793Y0040293D01*
X0132837Y0040251D01*
X0132883Y0040213D01*
X0132932Y0040177D01*
X0132983Y0040144D01*
X0133035Y0040115D01*
X0133090Y0040088D01*
X0133145Y0040065D01*
X0133202Y0040045D01*
X0133261Y0040029D01*
X0133320Y0040016D01*
X0133379Y0040007D01*
X0133440Y0040002D01*
X0133500Y0040000D01*
X0139500Y0040000D01*
X0139560Y0040002D01*
X0139621Y0040007D01*
X0139680Y0040016D01*
X0139739Y0040029D01*
X0139798Y0040045D01*
X0139855Y0040065D01*
X0139910Y0040088D01*
X0139965Y0040115D01*
X0140017Y0040144D01*
X0140068Y0040177D01*
X0140117Y0040213D01*
X0140163Y0040251D01*
X0140207Y0040293D01*
X0140249Y0040337D01*
X0140287Y0040383D01*
X0140323Y0040432D01*
X0140356Y0040483D01*
X0140385Y0040535D01*
X0140412Y0040590D01*
X0140435Y0040645D01*
X0140455Y0040702D01*
X0140471Y0040761D01*
X0140484Y0040820D01*
X0140493Y0040879D01*
X0140498Y0040940D01*
X0140500Y0041000D01*
X0140500Y0042500D01*
X0140000Y0043000D01*
X0140000Y0057000D01*
X0140500Y0057500D01*
X0140500Y0059000D01*
X0140498Y0059060D01*
X0140493Y0059121D01*
X0140484Y0059180D01*
X0140471Y0059239D01*
X0140455Y0059298D01*
X0140435Y0059355D01*
X0140412Y0059410D01*
X0140385Y0059465D01*
X0140356Y0059517D01*
X0140323Y0059568D01*
X0140287Y0059617D01*
X0140249Y0059663D01*
X0140207Y0059707D01*
X0140163Y0059749D01*
X0140117Y0059787D01*
X0140068Y0059823D01*
X0140017Y0059856D01*
X0139965Y0059885D01*
X0139910Y0059912D01*
X0139855Y0059935D01*
X0139798Y0059955D01*
X0139739Y0059971D01*
X0139680Y0059984D01*
X0139621Y0059993D01*
X0139560Y0059998D01*
X0139500Y0060000D01*
X0133500Y0060000D01*
X0133440Y0059998D01*
X0133379Y0059993D01*
X0133320Y0059984D01*
X0133261Y0059971D01*
X0133202Y0059955D01*
X0133145Y0059935D01*
X0133090Y0059912D01*
X0133035Y0059885D01*
X0132983Y0059856D01*
X0132932Y0059823D01*
X0132883Y0059787D01*
X0132837Y0059749D01*
X0132793Y0059707D01*
X0132751Y0059663D01*
X0132713Y0059617D01*
X0132677Y0059568D01*
X0132644Y0059517D01*
X0132615Y0059465D01*
X0132588Y0059410D01*
X0132565Y0059355D01*
X0132545Y0059298D01*
X0132529Y0059239D01*
X0132516Y0059180D01*
X0132507Y0059121D01*
X0132502Y0059060D01*
X0132500Y0059000D01*
X0132500Y0057500D01*
X0133000Y0057000D01*
X0133000Y0043000D01*
X0132500Y0042500D01*
X0142500Y0036500D02*
X0142500Y0035000D01*
X0143000Y0034500D01*
X0143000Y0020500D01*
X0142500Y0020000D01*
X0142500Y0018500D01*
X0142502Y0018440D01*
X0142507Y0018379D01*
X0142516Y0018320D01*
X0142529Y0018261D01*
X0142545Y0018202D01*
X0142565Y0018145D01*
X0142588Y0018090D01*
X0142615Y0018035D01*
X0142644Y0017983D01*
X0142677Y0017932D01*
X0142713Y0017883D01*
X0142751Y0017837D01*
X0142793Y0017793D01*
X0142837Y0017751D01*
X0142883Y0017713D01*
X0142932Y0017677D01*
X0142983Y0017644D01*
X0143035Y0017615D01*
X0143090Y0017588D01*
X0143145Y0017565D01*
X0143202Y0017545D01*
X0143261Y0017529D01*
X0143320Y0017516D01*
X0143379Y0017507D01*
X0143440Y0017502D01*
X0143500Y0017500D01*
X0149500Y0017500D01*
X0149560Y0017502D01*
X0149621Y0017507D01*
X0149680Y0017516D01*
X0149739Y0017529D01*
X0149798Y0017545D01*
X0149855Y0017565D01*
X0149910Y0017588D01*
X0149965Y0017615D01*
X0150017Y0017644D01*
X0150068Y0017677D01*
X0150117Y0017713D01*
X0150163Y0017751D01*
X0150207Y0017793D01*
X0150249Y0017837D01*
X0150287Y0017883D01*
X0150323Y0017932D01*
X0150356Y0017983D01*
X0150385Y0018035D01*
X0150412Y0018090D01*
X0150435Y0018145D01*
X0150455Y0018202D01*
X0150471Y0018261D01*
X0150484Y0018320D01*
X0150493Y0018379D01*
X0150498Y0018440D01*
X0150500Y0018500D01*
X0150500Y0020000D01*
X0150000Y0020500D01*
X0150000Y0034500D01*
X0150500Y0035000D01*
X0150500Y0036500D01*
X0150498Y0036560D01*
X0150493Y0036621D01*
X0150484Y0036680D01*
X0150471Y0036739D01*
X0150455Y0036798D01*
X0150435Y0036855D01*
X0150412Y0036910D01*
X0150385Y0036965D01*
X0150356Y0037017D01*
X0150323Y0037068D01*
X0150287Y0037117D01*
X0150249Y0037163D01*
X0150207Y0037207D01*
X0150163Y0037249D01*
X0150117Y0037287D01*
X0150068Y0037323D01*
X0150017Y0037356D01*
X0149965Y0037385D01*
X0149910Y0037412D01*
X0149855Y0037435D01*
X0149798Y0037455D01*
X0149739Y0037471D01*
X0149680Y0037484D01*
X0149621Y0037493D01*
X0149560Y0037498D01*
X0149500Y0037500D01*
X0143500Y0037500D01*
X0143440Y0037498D01*
X0143379Y0037493D01*
X0143320Y0037484D01*
X0143261Y0037471D01*
X0143202Y0037455D01*
X0143145Y0037435D01*
X0143090Y0037412D01*
X0143035Y0037385D01*
X0142983Y0037356D01*
X0142932Y0037323D01*
X0142883Y0037287D01*
X0142837Y0037249D01*
X0142793Y0037207D01*
X0142751Y0037163D01*
X0142713Y0037117D01*
X0142677Y0037068D01*
X0142644Y0037017D01*
X0142615Y0036965D01*
X0142588Y0036910D01*
X0142565Y0036855D01*
X0142545Y0036798D01*
X0142529Y0036739D01*
X0142516Y0036680D01*
X0142507Y0036621D01*
X0142502Y0036560D01*
X0142500Y0036500D01*
X0157500Y0036500D02*
X0157500Y0035000D01*
X0158000Y0034500D01*
X0158000Y0020500D01*
X0157500Y0020000D01*
X0157500Y0018500D01*
X0157502Y0018440D01*
X0157507Y0018379D01*
X0157516Y0018320D01*
X0157529Y0018261D01*
X0157545Y0018202D01*
X0157565Y0018145D01*
X0157588Y0018090D01*
X0157615Y0018035D01*
X0157644Y0017983D01*
X0157677Y0017932D01*
X0157713Y0017883D01*
X0157751Y0017837D01*
X0157793Y0017793D01*
X0157837Y0017751D01*
X0157883Y0017713D01*
X0157932Y0017677D01*
X0157983Y0017644D01*
X0158035Y0017615D01*
X0158090Y0017588D01*
X0158145Y0017565D01*
X0158202Y0017545D01*
X0158261Y0017529D01*
X0158320Y0017516D01*
X0158379Y0017507D01*
X0158440Y0017502D01*
X0158500Y0017500D01*
X0164500Y0017500D01*
X0164560Y0017502D01*
X0164621Y0017507D01*
X0164680Y0017516D01*
X0164739Y0017529D01*
X0164798Y0017545D01*
X0164855Y0017565D01*
X0164910Y0017588D01*
X0164965Y0017615D01*
X0165017Y0017644D01*
X0165068Y0017677D01*
X0165117Y0017713D01*
X0165163Y0017751D01*
X0165207Y0017793D01*
X0165249Y0017837D01*
X0165287Y0017883D01*
X0165323Y0017932D01*
X0165356Y0017983D01*
X0165385Y0018035D01*
X0165412Y0018090D01*
X0165435Y0018145D01*
X0165455Y0018202D01*
X0165471Y0018261D01*
X0165484Y0018320D01*
X0165493Y0018379D01*
X0165498Y0018440D01*
X0165500Y0018500D01*
X0165500Y0020000D01*
X0165000Y0020500D01*
X0165000Y0034500D01*
X0165500Y0035000D01*
X0165500Y0036500D01*
X0165498Y0036560D01*
X0165493Y0036621D01*
X0165484Y0036680D01*
X0165471Y0036739D01*
X0165455Y0036798D01*
X0165435Y0036855D01*
X0165412Y0036910D01*
X0165385Y0036965D01*
X0165356Y0037017D01*
X0165323Y0037068D01*
X0165287Y0037117D01*
X0165249Y0037163D01*
X0165207Y0037207D01*
X0165163Y0037249D01*
X0165117Y0037287D01*
X0165068Y0037323D01*
X0165017Y0037356D01*
X0164965Y0037385D01*
X0164910Y0037412D01*
X0164855Y0037435D01*
X0164798Y0037455D01*
X0164739Y0037471D01*
X0164680Y0037484D01*
X0164621Y0037493D01*
X0164560Y0037498D01*
X0164500Y0037500D01*
X0158500Y0037500D01*
X0158440Y0037498D01*
X0158379Y0037493D01*
X0158320Y0037484D01*
X0158261Y0037471D01*
X0158202Y0037455D01*
X0158145Y0037435D01*
X0158090Y0037412D01*
X0158035Y0037385D01*
X0157983Y0037356D01*
X0157932Y0037323D01*
X0157883Y0037287D01*
X0157837Y0037249D01*
X0157793Y0037207D01*
X0157751Y0037163D01*
X0157713Y0037117D01*
X0157677Y0037068D01*
X0157644Y0037017D01*
X0157615Y0036965D01*
X0157588Y0036910D01*
X0157565Y0036855D01*
X0157545Y0036798D01*
X0157529Y0036739D01*
X0157516Y0036680D01*
X0157507Y0036621D01*
X0157502Y0036560D01*
X0157500Y0036500D01*
X0172500Y0036500D02*
X0172500Y0035000D01*
X0173000Y0034500D01*
X0173000Y0020500D01*
X0172500Y0020000D01*
X0172500Y0018500D01*
X0172502Y0018440D01*
X0172507Y0018379D01*
X0172516Y0018320D01*
X0172529Y0018261D01*
X0172545Y0018202D01*
X0172565Y0018145D01*
X0172588Y0018090D01*
X0172615Y0018035D01*
X0172644Y0017983D01*
X0172677Y0017932D01*
X0172713Y0017883D01*
X0172751Y0017837D01*
X0172793Y0017793D01*
X0172837Y0017751D01*
X0172883Y0017713D01*
X0172932Y0017677D01*
X0172983Y0017644D01*
X0173035Y0017615D01*
X0173090Y0017588D01*
X0173145Y0017565D01*
X0173202Y0017545D01*
X0173261Y0017529D01*
X0173320Y0017516D01*
X0173379Y0017507D01*
X0173440Y0017502D01*
X0173500Y0017500D01*
X0179500Y0017500D01*
X0179560Y0017502D01*
X0179621Y0017507D01*
X0179680Y0017516D01*
X0179739Y0017529D01*
X0179798Y0017545D01*
X0179855Y0017565D01*
X0179910Y0017588D01*
X0179965Y0017615D01*
X0180017Y0017644D01*
X0180068Y0017677D01*
X0180117Y0017713D01*
X0180163Y0017751D01*
X0180207Y0017793D01*
X0180249Y0017837D01*
X0180287Y0017883D01*
X0180323Y0017932D01*
X0180356Y0017983D01*
X0180385Y0018035D01*
X0180412Y0018090D01*
X0180435Y0018145D01*
X0180455Y0018202D01*
X0180471Y0018261D01*
X0180484Y0018320D01*
X0180493Y0018379D01*
X0180498Y0018440D01*
X0180500Y0018500D01*
X0180500Y0020000D01*
X0180000Y0020500D01*
X0180000Y0034500D01*
X0180500Y0035000D01*
X0180500Y0036500D01*
X0180498Y0036560D01*
X0180493Y0036621D01*
X0180484Y0036680D01*
X0180471Y0036739D01*
X0180455Y0036798D01*
X0180435Y0036855D01*
X0180412Y0036910D01*
X0180385Y0036965D01*
X0180356Y0037017D01*
X0180323Y0037068D01*
X0180287Y0037117D01*
X0180249Y0037163D01*
X0180207Y0037207D01*
X0180163Y0037249D01*
X0180117Y0037287D01*
X0180068Y0037323D01*
X0180017Y0037356D01*
X0179965Y0037385D01*
X0179910Y0037412D01*
X0179855Y0037435D01*
X0179798Y0037455D01*
X0179739Y0037471D01*
X0179680Y0037484D01*
X0179621Y0037493D01*
X0179560Y0037498D01*
X0179500Y0037500D01*
X0173500Y0037500D01*
X0173440Y0037498D01*
X0173379Y0037493D01*
X0173320Y0037484D01*
X0173261Y0037471D01*
X0173202Y0037455D01*
X0173145Y0037435D01*
X0173090Y0037412D01*
X0173035Y0037385D01*
X0172983Y0037356D01*
X0172932Y0037323D01*
X0172883Y0037287D01*
X0172837Y0037249D01*
X0172793Y0037207D01*
X0172751Y0037163D01*
X0172713Y0037117D01*
X0172677Y0037068D01*
X0172644Y0037017D01*
X0172615Y0036965D01*
X0172588Y0036910D01*
X0172565Y0036855D01*
X0172545Y0036798D01*
X0172529Y0036739D01*
X0172516Y0036680D01*
X0172507Y0036621D01*
X0172502Y0036560D01*
X0172500Y0036500D01*
X0187500Y0036500D02*
X0187500Y0035000D01*
X0188000Y0034500D01*
X0188000Y0020500D01*
X0187500Y0020000D01*
X0187500Y0018500D01*
X0187502Y0018440D01*
X0187507Y0018379D01*
X0187516Y0018320D01*
X0187529Y0018261D01*
X0187545Y0018202D01*
X0187565Y0018145D01*
X0187588Y0018090D01*
X0187615Y0018035D01*
X0187644Y0017983D01*
X0187677Y0017932D01*
X0187713Y0017883D01*
X0187751Y0017837D01*
X0187793Y0017793D01*
X0187837Y0017751D01*
X0187883Y0017713D01*
X0187932Y0017677D01*
X0187983Y0017644D01*
X0188035Y0017615D01*
X0188090Y0017588D01*
X0188145Y0017565D01*
X0188202Y0017545D01*
X0188261Y0017529D01*
X0188320Y0017516D01*
X0188379Y0017507D01*
X0188440Y0017502D01*
X0188500Y0017500D01*
X0194500Y0017500D01*
X0194560Y0017502D01*
X0194621Y0017507D01*
X0194680Y0017516D01*
X0194739Y0017529D01*
X0194798Y0017545D01*
X0194855Y0017565D01*
X0194910Y0017588D01*
X0194965Y0017615D01*
X0195017Y0017644D01*
X0195068Y0017677D01*
X0195117Y0017713D01*
X0195163Y0017751D01*
X0195207Y0017793D01*
X0195249Y0017837D01*
X0195287Y0017883D01*
X0195323Y0017932D01*
X0195356Y0017983D01*
X0195385Y0018035D01*
X0195412Y0018090D01*
X0195435Y0018145D01*
X0195455Y0018202D01*
X0195471Y0018261D01*
X0195484Y0018320D01*
X0195493Y0018379D01*
X0195498Y0018440D01*
X0195500Y0018500D01*
X0195500Y0020000D01*
X0195000Y0020500D01*
X0195000Y0034500D01*
X0195500Y0035000D01*
X0195500Y0036500D01*
X0195498Y0036560D01*
X0195493Y0036621D01*
X0195484Y0036680D01*
X0195471Y0036739D01*
X0195455Y0036798D01*
X0195435Y0036855D01*
X0195412Y0036910D01*
X0195385Y0036965D01*
X0195356Y0037017D01*
X0195323Y0037068D01*
X0195287Y0037117D01*
X0195249Y0037163D01*
X0195207Y0037207D01*
X0195163Y0037249D01*
X0195117Y0037287D01*
X0195068Y0037323D01*
X0195017Y0037356D01*
X0194965Y0037385D01*
X0194910Y0037412D01*
X0194855Y0037435D01*
X0194798Y0037455D01*
X0194739Y0037471D01*
X0194680Y0037484D01*
X0194621Y0037493D01*
X0194560Y0037498D01*
X0194500Y0037500D01*
X0188500Y0037500D01*
X0188440Y0037498D01*
X0188379Y0037493D01*
X0188320Y0037484D01*
X0188261Y0037471D01*
X0188202Y0037455D01*
X0188145Y0037435D01*
X0188090Y0037412D01*
X0188035Y0037385D01*
X0187983Y0037356D01*
X0187932Y0037323D01*
X0187883Y0037287D01*
X0187837Y0037249D01*
X0187793Y0037207D01*
X0187751Y0037163D01*
X0187713Y0037117D01*
X0187677Y0037068D01*
X0187644Y0037017D01*
X0187615Y0036965D01*
X0187588Y0036910D01*
X0187565Y0036855D01*
X0187545Y0036798D01*
X0187529Y0036739D01*
X0187516Y0036680D01*
X0187507Y0036621D01*
X0187502Y0036560D01*
X0187500Y0036500D01*
X0150500Y0066000D02*
X0150500Y0067500D01*
X0150000Y0068000D01*
X0150000Y0082000D01*
X0150500Y0082500D01*
X0150500Y0084000D01*
X0150498Y0084060D01*
X0150493Y0084121D01*
X0150484Y0084180D01*
X0150471Y0084239D01*
X0150455Y0084298D01*
X0150435Y0084355D01*
X0150412Y0084410D01*
X0150385Y0084465D01*
X0150356Y0084517D01*
X0150323Y0084568D01*
X0150287Y0084617D01*
X0150249Y0084663D01*
X0150207Y0084707D01*
X0150163Y0084749D01*
X0150117Y0084787D01*
X0150068Y0084823D01*
X0150017Y0084856D01*
X0149965Y0084885D01*
X0149910Y0084912D01*
X0149855Y0084935D01*
X0149798Y0084955D01*
X0149739Y0084971D01*
X0149680Y0084984D01*
X0149621Y0084993D01*
X0149560Y0084998D01*
X0149500Y0085000D01*
X0143500Y0085000D01*
X0143440Y0084998D01*
X0143379Y0084993D01*
X0143320Y0084984D01*
X0143261Y0084971D01*
X0143202Y0084955D01*
X0143145Y0084935D01*
X0143090Y0084912D01*
X0143035Y0084885D01*
X0142983Y0084856D01*
X0142932Y0084823D01*
X0142883Y0084787D01*
X0142837Y0084749D01*
X0142793Y0084707D01*
X0142751Y0084663D01*
X0142713Y0084617D01*
X0142677Y0084568D01*
X0142644Y0084517D01*
X0142615Y0084465D01*
X0142588Y0084410D01*
X0142565Y0084355D01*
X0142545Y0084298D01*
X0142529Y0084239D01*
X0142516Y0084180D01*
X0142507Y0084121D01*
X0142502Y0084060D01*
X0142500Y0084000D01*
X0142500Y0082500D01*
X0143000Y0082000D01*
X0143000Y0068000D01*
X0142500Y0067500D01*
X0142500Y0066000D01*
X0142502Y0065940D01*
X0142507Y0065879D01*
X0142516Y0065820D01*
X0142529Y0065761D01*
X0142545Y0065702D01*
X0142565Y0065645D01*
X0142588Y0065590D01*
X0142615Y0065535D01*
X0142644Y0065483D01*
X0142677Y0065432D01*
X0142713Y0065383D01*
X0142751Y0065337D01*
X0142793Y0065293D01*
X0142837Y0065251D01*
X0142883Y0065213D01*
X0142932Y0065177D01*
X0142983Y0065144D01*
X0143035Y0065115D01*
X0143090Y0065088D01*
X0143145Y0065065D01*
X0143202Y0065045D01*
X0143261Y0065029D01*
X0143320Y0065016D01*
X0143379Y0065007D01*
X0143440Y0065002D01*
X0143500Y0065000D01*
X0149500Y0065000D01*
X0149560Y0065002D01*
X0149621Y0065007D01*
X0149680Y0065016D01*
X0149739Y0065029D01*
X0149798Y0065045D01*
X0149855Y0065065D01*
X0149910Y0065088D01*
X0149965Y0065115D01*
X0150017Y0065144D01*
X0150068Y0065177D01*
X0150117Y0065213D01*
X0150163Y0065251D01*
X0150207Y0065293D01*
X0150249Y0065337D01*
X0150287Y0065383D01*
X0150323Y0065432D01*
X0150356Y0065483D01*
X0150385Y0065535D01*
X0150412Y0065590D01*
X0150435Y0065645D01*
X0150455Y0065702D01*
X0150471Y0065761D01*
X0150484Y0065820D01*
X0150493Y0065879D01*
X0150498Y0065940D01*
X0150500Y0066000D01*
X0125000Y0029000D02*
X0108000Y0029000D01*
X0107940Y0028998D01*
X0107879Y0028993D01*
X0107820Y0028984D01*
X0107761Y0028971D01*
X0107702Y0028955D01*
X0107645Y0028935D01*
X0107590Y0028912D01*
X0107535Y0028885D01*
X0107483Y0028856D01*
X0107432Y0028823D01*
X0107383Y0028787D01*
X0107337Y0028749D01*
X0107293Y0028707D01*
X0107251Y0028663D01*
X0107213Y0028617D01*
X0107177Y0028568D01*
X0107144Y0028517D01*
X0107115Y0028465D01*
X0107088Y0028410D01*
X0107065Y0028355D01*
X0107045Y0028298D01*
X0107029Y0028239D01*
X0107016Y0028180D01*
X0107007Y0028121D01*
X0107002Y0028060D01*
X0107000Y0028000D01*
X0107000Y0012000D01*
X0107002Y0011940D01*
X0107007Y0011879D01*
X0107016Y0011820D01*
X0107029Y0011761D01*
X0107045Y0011702D01*
X0107065Y0011645D01*
X0107088Y0011590D01*
X0107115Y0011535D01*
X0107144Y0011483D01*
X0107177Y0011432D01*
X0107213Y0011383D01*
X0107251Y0011337D01*
X0107293Y0011293D01*
X0107337Y0011251D01*
X0107383Y0011213D01*
X0107432Y0011177D01*
X0107483Y0011144D01*
X0107535Y0011115D01*
X0107590Y0011088D01*
X0107645Y0011065D01*
X0107702Y0011045D01*
X0107761Y0011029D01*
X0107820Y0011016D01*
X0107879Y0011007D01*
X0107940Y0011002D01*
X0108000Y0011000D01*
X0125000Y0011000D01*
X0125060Y0011002D01*
X0125121Y0011007D01*
X0125180Y0011016D01*
X0125239Y0011029D01*
X0125298Y0011045D01*
X0125355Y0011065D01*
X0125410Y0011088D01*
X0125465Y0011115D01*
X0125517Y0011144D01*
X0125568Y0011177D01*
X0125617Y0011213D01*
X0125663Y0011251D01*
X0125707Y0011293D01*
X0125749Y0011337D01*
X0125787Y0011383D01*
X0125823Y0011432D01*
X0125856Y0011483D01*
X0125885Y0011535D01*
X0125912Y0011590D01*
X0125935Y0011645D01*
X0125955Y0011702D01*
X0125971Y0011761D01*
X0125984Y0011820D01*
X0125993Y0011879D01*
X0125998Y0011940D01*
X0126000Y0012000D01*
X0126000Y0028000D01*
X0125998Y0028060D01*
X0125993Y0028121D01*
X0125984Y0028180D01*
X0125971Y0028239D01*
X0125955Y0028298D01*
X0125935Y0028355D01*
X0125912Y0028410D01*
X0125885Y0028465D01*
X0125856Y0028517D01*
X0125823Y0028568D01*
X0125787Y0028617D01*
X0125749Y0028663D01*
X0125707Y0028707D01*
X0125663Y0028749D01*
X0125617Y0028787D01*
X0125568Y0028823D01*
X0125517Y0028856D01*
X0125465Y0028885D01*
X0125410Y0028912D01*
X0125355Y0028935D01*
X0125298Y0028955D01*
X0125239Y0028971D01*
X0125180Y0028984D01*
X0125121Y0028993D01*
X0125060Y0028998D01*
X0125000Y0029000D01*
X0118000Y0020000D02*
X0117500Y0020000D01*
X0115500Y0020000D02*
X0115000Y0020000D01*
X0098500Y0020000D02*
X0098500Y0010000D01*
X0098498Y0009940D01*
X0098493Y0009879D01*
X0098484Y0009820D01*
X0098471Y0009761D01*
X0098455Y0009702D01*
X0098435Y0009645D01*
X0098412Y0009590D01*
X0098385Y0009535D01*
X0098356Y0009483D01*
X0098323Y0009432D01*
X0098287Y0009383D01*
X0098249Y0009337D01*
X0098207Y0009293D01*
X0098163Y0009251D01*
X0098117Y0009213D01*
X0098068Y0009177D01*
X0098017Y0009144D01*
X0097965Y0009115D01*
X0097910Y0009088D01*
X0097855Y0009065D01*
X0097798Y0009045D01*
X0097739Y0009029D01*
X0097680Y0009016D01*
X0097621Y0009007D01*
X0097560Y0009002D01*
X0097500Y0009000D01*
X0070500Y0009000D01*
X0070440Y0009002D01*
X0070379Y0009007D01*
X0070320Y0009016D01*
X0070261Y0009029D01*
X0070202Y0009045D01*
X0070145Y0009065D01*
X0070090Y0009088D01*
X0070035Y0009115D01*
X0069983Y0009144D01*
X0069932Y0009177D01*
X0069883Y0009213D01*
X0069837Y0009251D01*
X0069793Y0009293D01*
X0069751Y0009337D01*
X0069713Y0009383D01*
X0069677Y0009432D01*
X0069644Y0009483D01*
X0069615Y0009535D01*
X0069588Y0009590D01*
X0069565Y0009645D01*
X0069545Y0009702D01*
X0069529Y0009761D01*
X0069516Y0009820D01*
X0069507Y0009879D01*
X0069502Y0009940D01*
X0069500Y0010000D01*
X0069500Y0020000D01*
X0069502Y0020060D01*
X0069507Y0020121D01*
X0069516Y0020180D01*
X0069529Y0020239D01*
X0069545Y0020298D01*
X0069565Y0020355D01*
X0069588Y0020410D01*
X0069615Y0020465D01*
X0069644Y0020517D01*
X0069677Y0020568D01*
X0069713Y0020617D01*
X0069751Y0020663D01*
X0069793Y0020707D01*
X0069837Y0020749D01*
X0069883Y0020787D01*
X0069932Y0020823D01*
X0069983Y0020856D01*
X0070035Y0020885D01*
X0070090Y0020912D01*
X0070145Y0020935D01*
X0070202Y0020955D01*
X0070261Y0020971D01*
X0070320Y0020984D01*
X0070379Y0020993D01*
X0070440Y0020998D01*
X0070500Y0021000D01*
X0097500Y0021000D01*
X0097560Y0020998D01*
X0097621Y0020993D01*
X0097680Y0020984D01*
X0097739Y0020971D01*
X0097798Y0020955D01*
X0097855Y0020935D01*
X0097910Y0020912D01*
X0097965Y0020885D01*
X0098017Y0020856D01*
X0098068Y0020823D01*
X0098117Y0020787D01*
X0098163Y0020749D01*
X0098207Y0020707D01*
X0098249Y0020663D01*
X0098287Y0020617D01*
X0098323Y0020568D01*
X0098356Y0020517D01*
X0098385Y0020465D01*
X0098412Y0020410D01*
X0098435Y0020355D01*
X0098455Y0020298D01*
X0098471Y0020239D01*
X0098484Y0020180D01*
X0098493Y0020121D01*
X0098498Y0020060D01*
X0098500Y0020000D01*
X0090000Y0015000D02*
X0085300Y0015000D01*
X0082800Y0015000D02*
X0078000Y0015000D01*
X0061500Y0017500D02*
X0061500Y0012500D01*
X0059000Y0010000D01*
X0054000Y0010000D01*
X0051500Y0012500D01*
X0049000Y0010000D01*
X0044000Y0010000D01*
X0041500Y0012500D01*
X0039000Y0010000D01*
X0034000Y0010000D01*
X0031500Y0012500D01*
X0031500Y0017500D01*
X0034000Y0020000D01*
X0039000Y0020000D01*
X0041500Y0017500D01*
X0044000Y0020000D01*
X0049000Y0020000D01*
X0051500Y0017500D01*
X0054000Y0020000D01*
X0059000Y0020000D01*
X0061500Y0017500D01*
X0031500Y0033500D02*
X0031500Y0041000D01*
X0031626Y0041002D01*
X0031751Y0041008D01*
X0031876Y0041018D01*
X0032001Y0041032D01*
X0032126Y0041049D01*
X0032250Y0041071D01*
X0032373Y0041096D01*
X0032495Y0041126D01*
X0032616Y0041159D01*
X0032736Y0041196D01*
X0032855Y0041236D01*
X0032972Y0041281D01*
X0033089Y0041329D01*
X0033203Y0041381D01*
X0033316Y0041436D01*
X0033427Y0041495D01*
X0033536Y0041557D01*
X0033643Y0041623D01*
X0033748Y0041692D01*
X0033851Y0041764D01*
X0033952Y0041839D01*
X0034050Y0041918D01*
X0034145Y0042000D01*
X0034238Y0042084D01*
X0034328Y0042172D01*
X0034416Y0042262D01*
X0034500Y0042355D01*
X0034582Y0042450D01*
X0034661Y0042548D01*
X0034736Y0042649D01*
X0034808Y0042752D01*
X0034877Y0042857D01*
X0034943Y0042964D01*
X0035005Y0043073D01*
X0035064Y0043184D01*
X0035119Y0043297D01*
X0035171Y0043411D01*
X0035219Y0043528D01*
X0035264Y0043645D01*
X0035304Y0043764D01*
X0035341Y0043884D01*
X0035374Y0044005D01*
X0035404Y0044127D01*
X0035429Y0044250D01*
X0035451Y0044374D01*
X0035468Y0044499D01*
X0035482Y0044624D01*
X0035492Y0044749D01*
X0035498Y0044874D01*
X0035500Y0045000D01*
X0035498Y0045126D01*
X0035492Y0045251D01*
X0035482Y0045376D01*
X0035468Y0045501D01*
X0035451Y0045626D01*
X0035429Y0045750D01*
X0035404Y0045873D01*
X0035374Y0045995D01*
X0035341Y0046116D01*
X0035304Y0046236D01*
X0035264Y0046355D01*
X0035219Y0046472D01*
X0035171Y0046589D01*
X0035119Y0046703D01*
X0035064Y0046816D01*
X0035005Y0046927D01*
X0034943Y0047036D01*
X0034877Y0047143D01*
X0034808Y0047248D01*
X0034736Y0047351D01*
X0034661Y0047452D01*
X0034582Y0047550D01*
X0034500Y0047645D01*
X0034416Y0047738D01*
X0034328Y0047828D01*
X0034238Y0047916D01*
X0034145Y0048000D01*
X0034050Y0048082D01*
X0033952Y0048161D01*
X0033851Y0048236D01*
X0033748Y0048308D01*
X0033643Y0048377D01*
X0033536Y0048443D01*
X0033427Y0048505D01*
X0033316Y0048564D01*
X0033203Y0048619D01*
X0033089Y0048671D01*
X0032972Y0048719D01*
X0032855Y0048764D01*
X0032736Y0048804D01*
X0032616Y0048841D01*
X0032495Y0048874D01*
X0032373Y0048904D01*
X0032250Y0048929D01*
X0032126Y0048951D01*
X0032001Y0048968D01*
X0031876Y0048982D01*
X0031751Y0048992D01*
X0031626Y0048998D01*
X0031500Y0049000D01*
X0031500Y0056500D01*
X0101500Y0056500D01*
X0101500Y0033500D01*
X0031500Y0033500D01*
X0022500Y0036500D02*
X0022500Y0063500D01*
X0022498Y0063560D01*
X0022493Y0063621D01*
X0022484Y0063680D01*
X0022471Y0063739D01*
X0022455Y0063798D01*
X0022435Y0063855D01*
X0022412Y0063910D01*
X0022385Y0063965D01*
X0022356Y0064017D01*
X0022323Y0064068D01*
X0022287Y0064117D01*
X0022249Y0064163D01*
X0022207Y0064207D01*
X0022163Y0064249D01*
X0022117Y0064287D01*
X0022068Y0064323D01*
X0022017Y0064356D01*
X0021965Y0064385D01*
X0021910Y0064412D01*
X0021855Y0064435D01*
X0021798Y0064455D01*
X0021739Y0064471D01*
X0021680Y0064484D01*
X0021621Y0064493D01*
X0021560Y0064498D01*
X0021500Y0064500D01*
X0011500Y0064500D01*
X0011440Y0064498D01*
X0011379Y0064493D01*
X0011320Y0064484D01*
X0011261Y0064471D01*
X0011202Y0064455D01*
X0011145Y0064435D01*
X0011090Y0064412D01*
X0011035Y0064385D01*
X0010983Y0064356D01*
X0010932Y0064323D01*
X0010883Y0064287D01*
X0010837Y0064249D01*
X0010793Y0064207D01*
X0010751Y0064163D01*
X0010713Y0064117D01*
X0010677Y0064068D01*
X0010644Y0064017D01*
X0010615Y0063965D01*
X0010588Y0063910D01*
X0010565Y0063855D01*
X0010545Y0063798D01*
X0010529Y0063739D01*
X0010516Y0063680D01*
X0010507Y0063621D01*
X0010502Y0063560D01*
X0010500Y0063500D01*
X0010500Y0036500D01*
X0010502Y0036440D01*
X0010507Y0036379D01*
X0010516Y0036320D01*
X0010529Y0036261D01*
X0010545Y0036202D01*
X0010565Y0036145D01*
X0010588Y0036090D01*
X0010615Y0036035D01*
X0010644Y0035983D01*
X0010677Y0035932D01*
X0010713Y0035883D01*
X0010751Y0035837D01*
X0010793Y0035793D01*
X0010837Y0035751D01*
X0010883Y0035713D01*
X0010932Y0035677D01*
X0010983Y0035644D01*
X0011035Y0035615D01*
X0011090Y0035588D01*
X0011145Y0035565D01*
X0011202Y0035545D01*
X0011261Y0035529D01*
X0011320Y0035516D01*
X0011379Y0035507D01*
X0011440Y0035502D01*
X0011500Y0035500D01*
X0021500Y0035500D01*
X0021560Y0035502D01*
X0021621Y0035507D01*
X0021680Y0035516D01*
X0021739Y0035529D01*
X0021798Y0035545D01*
X0021855Y0035565D01*
X0021910Y0035588D01*
X0021965Y0035615D01*
X0022017Y0035644D01*
X0022068Y0035677D01*
X0022117Y0035713D01*
X0022163Y0035751D01*
X0022207Y0035793D01*
X0022249Y0035837D01*
X0022287Y0035883D01*
X0022323Y0035932D01*
X0022356Y0035983D01*
X0022385Y0036035D01*
X0022412Y0036090D01*
X0022435Y0036145D01*
X0022455Y0036202D01*
X0022471Y0036261D01*
X0022484Y0036320D01*
X0022493Y0036379D01*
X0022498Y0036440D01*
X0022500Y0036500D01*
X0016500Y0044000D02*
X0016500Y0048700D01*
X0016500Y0051200D02*
X0016500Y0056000D01*
X0011500Y0075500D02*
X0021500Y0075500D01*
X0021560Y0075502D01*
X0021621Y0075507D01*
X0021680Y0075516D01*
X0021739Y0075529D01*
X0021798Y0075545D01*
X0021855Y0075565D01*
X0021910Y0075588D01*
X0021965Y0075615D01*
X0022017Y0075644D01*
X0022068Y0075677D01*
X0022117Y0075713D01*
X0022163Y0075751D01*
X0022207Y0075793D01*
X0022249Y0075837D01*
X0022287Y0075883D01*
X0022323Y0075932D01*
X0022356Y0075983D01*
X0022385Y0076035D01*
X0022412Y0076090D01*
X0022435Y0076145D01*
X0022455Y0076202D01*
X0022471Y0076261D01*
X0022484Y0076320D01*
X0022493Y0076379D01*
X0022498Y0076440D01*
X0022500Y0076500D01*
X0022500Y0103500D01*
X0022498Y0103560D01*
X0022493Y0103621D01*
X0022484Y0103680D01*
X0022471Y0103739D01*
X0022455Y0103798D01*
X0022435Y0103855D01*
X0022412Y0103910D01*
X0022385Y0103965D01*
X0022356Y0104017D01*
X0022323Y0104068D01*
X0022287Y0104117D01*
X0022249Y0104163D01*
X0022207Y0104207D01*
X0022163Y0104249D01*
X0022117Y0104287D01*
X0022068Y0104323D01*
X0022017Y0104356D01*
X0021965Y0104385D01*
X0021910Y0104412D01*
X0021855Y0104435D01*
X0021798Y0104455D01*
X0021739Y0104471D01*
X0021680Y0104484D01*
X0021621Y0104493D01*
X0021560Y0104498D01*
X0021500Y0104500D01*
X0011500Y0104500D01*
X0011440Y0104498D01*
X0011379Y0104493D01*
X0011320Y0104484D01*
X0011261Y0104471D01*
X0011202Y0104455D01*
X0011145Y0104435D01*
X0011090Y0104412D01*
X0011035Y0104385D01*
X0010983Y0104356D01*
X0010932Y0104323D01*
X0010883Y0104287D01*
X0010837Y0104249D01*
X0010793Y0104207D01*
X0010751Y0104163D01*
X0010713Y0104117D01*
X0010677Y0104068D01*
X0010644Y0104017D01*
X0010615Y0103965D01*
X0010588Y0103910D01*
X0010565Y0103855D01*
X0010545Y0103798D01*
X0010529Y0103739D01*
X0010516Y0103680D01*
X0010507Y0103621D01*
X0010502Y0103560D01*
X0010500Y0103500D01*
X0010500Y0076500D01*
X0010502Y0076440D01*
X0010507Y0076379D01*
X0010516Y0076320D01*
X0010529Y0076261D01*
X0010545Y0076202D01*
X0010565Y0076145D01*
X0010588Y0076090D01*
X0010615Y0076035D01*
X0010644Y0075983D01*
X0010677Y0075932D01*
X0010713Y0075883D01*
X0010751Y0075837D01*
X0010793Y0075793D01*
X0010837Y0075751D01*
X0010883Y0075713D01*
X0010932Y0075677D01*
X0010983Y0075644D01*
X0011035Y0075615D01*
X0011090Y0075588D01*
X0011145Y0075565D01*
X0011202Y0075545D01*
X0011261Y0075529D01*
X0011320Y0075516D01*
X0011379Y0075507D01*
X0011440Y0075502D01*
X0011500Y0075500D01*
X0016500Y0084000D02*
X0016500Y0088700D01*
X0016500Y0091200D02*
X0016500Y0096000D01*
X0012000Y0115000D02*
X0031000Y0115000D01*
X0031098Y0115002D01*
X0031196Y0115008D01*
X0031294Y0115017D01*
X0031391Y0115031D01*
X0031488Y0115048D01*
X0031584Y0115069D01*
X0031679Y0115094D01*
X0031773Y0115122D01*
X0031865Y0115155D01*
X0031957Y0115190D01*
X0032047Y0115230D01*
X0032135Y0115272D01*
X0032222Y0115319D01*
X0032306Y0115368D01*
X0032389Y0115421D01*
X0032469Y0115477D01*
X0032548Y0115537D01*
X0032624Y0115599D01*
X0032697Y0115664D01*
X0032768Y0115732D01*
X0032836Y0115803D01*
X0032901Y0115876D01*
X0032963Y0115952D01*
X0033023Y0116031D01*
X0033079Y0116111D01*
X0033132Y0116194D01*
X0033181Y0116278D01*
X0033228Y0116365D01*
X0033270Y0116453D01*
X0033310Y0116543D01*
X0033345Y0116635D01*
X0033378Y0116727D01*
X0033406Y0116821D01*
X0033431Y0116916D01*
X0033452Y0117012D01*
X0033469Y0117109D01*
X0033483Y0117206D01*
X0033492Y0117304D01*
X0033498Y0117402D01*
X0033500Y0117500D01*
X0033500Y0312500D01*
X0033498Y0312598D01*
X0033492Y0312696D01*
X0033483Y0312794D01*
X0033469Y0312891D01*
X0033452Y0312988D01*
X0033431Y0313084D01*
X0033406Y0313179D01*
X0033378Y0313273D01*
X0033345Y0313365D01*
X0033310Y0313457D01*
X0033270Y0313547D01*
X0033228Y0313635D01*
X0033181Y0313722D01*
X0033132Y0313806D01*
X0033079Y0313889D01*
X0033023Y0313969D01*
X0032963Y0314048D01*
X0032901Y0314124D01*
X0032836Y0314197D01*
X0032768Y0314268D01*
X0032697Y0314336D01*
X0032624Y0314401D01*
X0032548Y0314463D01*
X0032469Y0314523D01*
X0032389Y0314579D01*
X0032306Y0314632D01*
X0032222Y0314681D01*
X0032135Y0314728D01*
X0032047Y0314770D01*
X0031957Y0314810D01*
X0031865Y0314845D01*
X0031773Y0314878D01*
X0031679Y0314906D01*
X0031584Y0314931D01*
X0031488Y0314952D01*
X0031391Y0314969D01*
X0031294Y0314983D01*
X0031196Y0314992D01*
X0031098Y0314998D01*
X0031000Y0315000D01*
X0012000Y0315000D01*
X0011902Y0314998D01*
X0011804Y0314992D01*
X0011706Y0314983D01*
X0011609Y0314969D01*
X0011512Y0314952D01*
X0011416Y0314931D01*
X0011321Y0314906D01*
X0011227Y0314878D01*
X0011135Y0314845D01*
X0011043Y0314810D01*
X0010953Y0314770D01*
X0010865Y0314728D01*
X0010778Y0314681D01*
X0010694Y0314632D01*
X0010611Y0314579D01*
X0010531Y0314523D01*
X0010452Y0314463D01*
X0010376Y0314401D01*
X0010303Y0314336D01*
X0010232Y0314268D01*
X0010164Y0314197D01*
X0010099Y0314124D01*
X0010037Y0314048D01*
X0009977Y0313969D01*
X0009921Y0313889D01*
X0009868Y0313806D01*
X0009819Y0313722D01*
X0009772Y0313635D01*
X0009730Y0313547D01*
X0009690Y0313457D01*
X0009655Y0313365D01*
X0009622Y0313273D01*
X0009594Y0313179D01*
X0009569Y0313084D01*
X0009548Y0312988D01*
X0009531Y0312891D01*
X0009517Y0312794D01*
X0009508Y0312696D01*
X0009502Y0312598D01*
X0009500Y0312500D01*
X0009500Y0117500D01*
X0009502Y0117402D01*
X0009508Y0117304D01*
X0009517Y0117206D01*
X0009531Y0117109D01*
X0009548Y0117012D01*
X0009569Y0116916D01*
X0009594Y0116821D01*
X0009622Y0116727D01*
X0009655Y0116635D01*
X0009690Y0116543D01*
X0009730Y0116453D01*
X0009772Y0116365D01*
X0009819Y0116278D01*
X0009868Y0116194D01*
X0009921Y0116111D01*
X0009977Y0116031D01*
X0010037Y0115952D01*
X0010099Y0115876D01*
X0010164Y0115803D01*
X0010232Y0115732D01*
X0010303Y0115664D01*
X0010376Y0115599D01*
X0010452Y0115537D01*
X0010531Y0115477D01*
X0010611Y0115421D01*
X0010694Y0115368D01*
X0010778Y0115319D01*
X0010865Y0115272D01*
X0010953Y0115230D01*
X0011043Y0115190D01*
X0011135Y0115155D01*
X0011227Y0115122D01*
X0011321Y0115094D01*
X0011416Y0115069D01*
X0011512Y0115048D01*
X0011609Y0115031D01*
X0011706Y0115017D01*
X0011804Y0115008D01*
X0011902Y0115002D01*
X0012000Y0115000D01*
X0050000Y0115000D02*
X0103000Y0115000D01*
X0103000Y0315000D01*
X0080000Y0315000D01*
X0079998Y0314874D01*
X0079992Y0314749D01*
X0079982Y0314624D01*
X0079968Y0314499D01*
X0079951Y0314374D01*
X0079929Y0314250D01*
X0079904Y0314127D01*
X0079874Y0314005D01*
X0079841Y0313884D01*
X0079804Y0313764D01*
X0079764Y0313645D01*
X0079719Y0313528D01*
X0079671Y0313411D01*
X0079619Y0313297D01*
X0079564Y0313184D01*
X0079505Y0313073D01*
X0079443Y0312964D01*
X0079377Y0312857D01*
X0079308Y0312752D01*
X0079236Y0312649D01*
X0079161Y0312548D01*
X0079082Y0312450D01*
X0079000Y0312355D01*
X0078916Y0312262D01*
X0078828Y0312172D01*
X0078738Y0312084D01*
X0078645Y0312000D01*
X0078550Y0311918D01*
X0078452Y0311839D01*
X0078351Y0311764D01*
X0078248Y0311692D01*
X0078143Y0311623D01*
X0078036Y0311557D01*
X0077927Y0311495D01*
X0077816Y0311436D01*
X0077703Y0311381D01*
X0077589Y0311329D01*
X0077472Y0311281D01*
X0077355Y0311236D01*
X0077236Y0311196D01*
X0077116Y0311159D01*
X0076995Y0311126D01*
X0076873Y0311096D01*
X0076750Y0311071D01*
X0076626Y0311049D01*
X0076501Y0311032D01*
X0076376Y0311018D01*
X0076251Y0311008D01*
X0076126Y0311002D01*
X0076000Y0311000D01*
X0075874Y0311002D01*
X0075749Y0311008D01*
X0075624Y0311018D01*
X0075499Y0311032D01*
X0075374Y0311049D01*
X0075250Y0311071D01*
X0075127Y0311096D01*
X0075005Y0311126D01*
X0074884Y0311159D01*
X0074764Y0311196D01*
X0074645Y0311236D01*
X0074528Y0311281D01*
X0074411Y0311329D01*
X0074297Y0311381D01*
X0074184Y0311436D01*
X0074073Y0311495D01*
X0073964Y0311557D01*
X0073857Y0311623D01*
X0073752Y0311692D01*
X0073649Y0311764D01*
X0073548Y0311839D01*
X0073450Y0311918D01*
X0073355Y0312000D01*
X0073262Y0312084D01*
X0073172Y0312172D01*
X0073084Y0312262D01*
X0073000Y0312355D01*
X0072918Y0312450D01*
X0072839Y0312548D01*
X0072764Y0312649D01*
X0072692Y0312752D01*
X0072623Y0312857D01*
X0072557Y0312964D01*
X0072495Y0313073D01*
X0072436Y0313184D01*
X0072381Y0313297D01*
X0072329Y0313411D01*
X0072281Y0313528D01*
X0072236Y0313645D01*
X0072196Y0313764D01*
X0072159Y0313884D01*
X0072126Y0314005D01*
X0072096Y0314127D01*
X0072071Y0314250D01*
X0072049Y0314374D01*
X0072032Y0314499D01*
X0072018Y0314624D01*
X0072008Y0314749D01*
X0072002Y0314874D01*
X0072000Y0315000D01*
X0050000Y0315000D01*
X0050000Y0115000D01*
X0121500Y0112500D02*
X0124000Y0110000D01*
X0121500Y0112500D02*
X0121500Y0162500D01*
X0131500Y0162500D01*
X0277295Y0042461D02*
X0281565Y0038191D01*
X0280497Y0039259D02*
X0283700Y0042461D01*
X0283700Y0038191D02*
X0277295Y0038191D01*
X0277295Y0031745D02*
X0283700Y0031745D01*
X0283700Y0036016D01*
X0282632Y0029570D02*
X0283700Y0028503D01*
X0283700Y0026368D01*
X0282632Y0025300D01*
X0278362Y0025300D01*
X0277295Y0026368D01*
X0277295Y0028503D01*
X0278362Y0029570D01*
X0265000Y0316500D02*
X0238000Y0316500D01*
X0237940Y0316502D01*
X0237879Y0316507D01*
X0237820Y0316516D01*
X0237761Y0316529D01*
X0237702Y0316545D01*
X0237645Y0316565D01*
X0237590Y0316588D01*
X0237535Y0316615D01*
X0237483Y0316644D01*
X0237432Y0316677D01*
X0237383Y0316713D01*
X0237337Y0316751D01*
X0237293Y0316793D01*
X0237251Y0316837D01*
X0237213Y0316883D01*
X0237177Y0316932D01*
X0237144Y0316983D01*
X0237115Y0317035D01*
X0237088Y0317090D01*
X0237065Y0317145D01*
X0237045Y0317202D01*
X0237029Y0317261D01*
X0237016Y0317320D01*
X0237007Y0317379D01*
X0237002Y0317440D01*
X0237000Y0317500D01*
X0237000Y0327500D01*
X0237002Y0327560D01*
X0237007Y0327621D01*
X0237016Y0327680D01*
X0237029Y0327739D01*
X0237045Y0327798D01*
X0237065Y0327855D01*
X0237088Y0327910D01*
X0237115Y0327965D01*
X0237144Y0328017D01*
X0237177Y0328068D01*
X0237213Y0328117D01*
X0237251Y0328163D01*
X0237293Y0328207D01*
X0237337Y0328249D01*
X0237383Y0328287D01*
X0237432Y0328323D01*
X0237483Y0328356D01*
X0237535Y0328385D01*
X0237590Y0328412D01*
X0237645Y0328435D01*
X0237702Y0328455D01*
X0237761Y0328471D01*
X0237820Y0328484D01*
X0237879Y0328493D01*
X0237940Y0328498D01*
X0238000Y0328500D01*
X0265000Y0328500D01*
X0265060Y0328498D01*
X0265121Y0328493D01*
X0265180Y0328484D01*
X0265239Y0328471D01*
X0265298Y0328455D01*
X0265355Y0328435D01*
X0265410Y0328412D01*
X0265465Y0328385D01*
X0265517Y0328356D01*
X0265568Y0328323D01*
X0265617Y0328287D01*
X0265663Y0328249D01*
X0265707Y0328207D01*
X0265749Y0328163D01*
X0265787Y0328117D01*
X0265823Y0328068D01*
X0265856Y0328017D01*
X0265885Y0327965D01*
X0265912Y0327910D01*
X0265935Y0327855D01*
X0265955Y0327798D01*
X0265971Y0327739D01*
X0265984Y0327680D01*
X0265993Y0327621D01*
X0265998Y0327560D01*
X0266000Y0327500D01*
X0266000Y0317500D01*
X0265998Y0317440D01*
X0265993Y0317379D01*
X0265984Y0317320D01*
X0265971Y0317261D01*
X0265955Y0317202D01*
X0265935Y0317145D01*
X0265912Y0317090D01*
X0265885Y0317035D01*
X0265856Y0316983D01*
X0265823Y0316932D01*
X0265787Y0316883D01*
X0265749Y0316837D01*
X0265707Y0316793D01*
X0265663Y0316751D01*
X0265617Y0316713D01*
X0265568Y0316677D01*
X0265517Y0316644D01*
X0265465Y0316615D01*
X0265410Y0316588D01*
X0265355Y0316565D01*
X0265298Y0316545D01*
X0265239Y0316529D01*
X0265180Y0316516D01*
X0265121Y0316507D01*
X0265060Y0316502D01*
X0265000Y0316500D01*
X0257500Y0322500D02*
X0252700Y0322500D01*
X0250200Y0322500D02*
X0245500Y0322500D01*
X0229743Y0335300D02*
X0229743Y0341705D01*
X0227608Y0339570D01*
X0225473Y0341705D01*
X0225473Y0335300D01*
X0223298Y0335300D02*
X0223298Y0339570D01*
X0221163Y0341705D01*
X0219027Y0339570D01*
X0219027Y0335300D01*
X0216852Y0335300D02*
X0214717Y0337435D01*
X0215785Y0337435D02*
X0212582Y0337435D01*
X0212582Y0335300D02*
X0212582Y0341705D01*
X0215785Y0341705D01*
X0216852Y0340638D01*
X0216852Y0338503D01*
X0215785Y0337435D01*
X0219027Y0338503D02*
X0223298Y0338503D01*
X0224000Y0327500D02*
X0219000Y0327500D01*
X0216500Y0325000D01*
X0214000Y0327500D01*
X0209000Y0327500D01*
X0206500Y0325000D01*
X0204000Y0327500D01*
X0199000Y0327500D01*
X0196500Y0325000D01*
X0196500Y0320000D01*
X0199000Y0317500D01*
X0204000Y0317500D01*
X0206500Y0320000D01*
X0209000Y0317500D01*
X0214000Y0317500D01*
X0216500Y0320000D01*
X0219000Y0317500D01*
X0224000Y0317500D01*
X0226500Y0320000D01*
X0226500Y0325000D01*
X0224000Y0327500D01*
X0206136Y0335300D02*
X0210407Y0341705D01*
X0203961Y0341705D02*
X0203961Y0335300D01*
X0199691Y0335300D02*
X0199691Y0341705D01*
X0201826Y0339570D01*
X0203961Y0341705D01*
X0197516Y0340638D02*
X0197516Y0336368D01*
X0196448Y0335300D01*
X0194313Y0335300D01*
X0193245Y0336368D01*
X0193245Y0340638D01*
X0194313Y0341705D01*
X0196448Y0341705D01*
X0197516Y0340638D01*
X0191070Y0340638D02*
X0191070Y0338503D01*
X0190003Y0337435D01*
X0186800Y0337435D01*
X0186800Y0335300D02*
X0186800Y0341705D01*
X0190003Y0341705D01*
X0191070Y0340638D01*
X0188935Y0337435D02*
X0191070Y0335300D01*
X0185000Y0328500D02*
X0158000Y0328500D01*
X0157940Y0328498D01*
X0157879Y0328493D01*
X0157820Y0328484D01*
X0157761Y0328471D01*
X0157702Y0328455D01*
X0157645Y0328435D01*
X0157590Y0328412D01*
X0157535Y0328385D01*
X0157483Y0328356D01*
X0157432Y0328323D01*
X0157383Y0328287D01*
X0157337Y0328249D01*
X0157293Y0328207D01*
X0157251Y0328163D01*
X0157213Y0328117D01*
X0157177Y0328068D01*
X0157144Y0328017D01*
X0157115Y0327965D01*
X0157088Y0327910D01*
X0157065Y0327855D01*
X0157045Y0327798D01*
X0157029Y0327739D01*
X0157016Y0327680D01*
X0157007Y0327621D01*
X0157002Y0327560D01*
X0157000Y0327500D01*
X0157000Y0317500D01*
X0157002Y0317440D01*
X0157007Y0317379D01*
X0157016Y0317320D01*
X0157029Y0317261D01*
X0157045Y0317202D01*
X0157065Y0317145D01*
X0157088Y0317090D01*
X0157115Y0317035D01*
X0157144Y0316983D01*
X0157177Y0316932D01*
X0157213Y0316883D01*
X0157251Y0316837D01*
X0157293Y0316793D01*
X0157337Y0316751D01*
X0157383Y0316713D01*
X0157432Y0316677D01*
X0157483Y0316644D01*
X0157535Y0316615D01*
X0157590Y0316588D01*
X0157645Y0316565D01*
X0157702Y0316545D01*
X0157761Y0316529D01*
X0157820Y0316516D01*
X0157879Y0316507D01*
X0157940Y0316502D01*
X0158000Y0316500D01*
X0185000Y0316500D01*
X0185060Y0316502D01*
X0185121Y0316507D01*
X0185180Y0316516D01*
X0185239Y0316529D01*
X0185298Y0316545D01*
X0185355Y0316565D01*
X0185410Y0316588D01*
X0185465Y0316615D01*
X0185517Y0316644D01*
X0185568Y0316677D01*
X0185617Y0316713D01*
X0185663Y0316751D01*
X0185707Y0316793D01*
X0185749Y0316837D01*
X0185787Y0316883D01*
X0185823Y0316932D01*
X0185856Y0316983D01*
X0185885Y0317035D01*
X0185912Y0317090D01*
X0185935Y0317145D01*
X0185955Y0317202D01*
X0185971Y0317261D01*
X0185984Y0317320D01*
X0185993Y0317379D01*
X0185998Y0317440D01*
X0186000Y0317500D01*
X0186000Y0327500D01*
X0185998Y0327560D01*
X0185993Y0327621D01*
X0185984Y0327680D01*
X0185971Y0327739D01*
X0185955Y0327798D01*
X0185935Y0327855D01*
X0185912Y0327910D01*
X0185885Y0327965D01*
X0185856Y0328017D01*
X0185823Y0328068D01*
X0185787Y0328117D01*
X0185749Y0328163D01*
X0185707Y0328207D01*
X0185663Y0328249D01*
X0185617Y0328287D01*
X0185568Y0328323D01*
X0185517Y0328356D01*
X0185465Y0328385D01*
X0185410Y0328412D01*
X0185355Y0328435D01*
X0185298Y0328455D01*
X0185239Y0328471D01*
X0185180Y0328484D01*
X0185121Y0328493D01*
X0185060Y0328498D01*
X0185000Y0328500D01*
X0177500Y0322500D02*
X0172700Y0322500D01*
X0170200Y0322500D02*
X0165500Y0322500D01*
X0149743Y0335300D02*
X0149743Y0341705D01*
X0147608Y0339570D01*
X0145473Y0341705D01*
X0145473Y0335300D01*
X0143298Y0335300D02*
X0143298Y0339570D01*
X0141163Y0341705D01*
X0139027Y0339570D01*
X0139027Y0335300D01*
X0136852Y0335300D02*
X0134717Y0337435D01*
X0135785Y0337435D02*
X0132582Y0337435D01*
X0132582Y0335300D02*
X0132582Y0341705D01*
X0135785Y0341705D01*
X0136852Y0340638D01*
X0136852Y0338503D01*
X0135785Y0337435D01*
X0139027Y0338503D02*
X0143298Y0338503D01*
X0144000Y0327500D02*
X0139000Y0327500D01*
X0136500Y0325000D01*
X0134000Y0327500D01*
X0129000Y0327500D01*
X0126500Y0325000D01*
X0124000Y0327500D01*
X0119000Y0327500D01*
X0116500Y0325000D01*
X0116500Y0320000D01*
X0119000Y0317500D01*
X0124000Y0317500D01*
X0126500Y0320000D01*
X0129000Y0317500D01*
X0134000Y0317500D01*
X0136500Y0320000D01*
X0139000Y0317500D01*
X0144000Y0317500D01*
X0146500Y0320000D01*
X0146500Y0325000D01*
X0144000Y0327500D01*
X0126136Y0335300D02*
X0130407Y0341705D01*
X0123961Y0341705D02*
X0123961Y0335300D01*
X0119691Y0335300D02*
X0119691Y0341705D01*
X0121826Y0339570D01*
X0123961Y0341705D01*
X0117516Y0340638D02*
X0117516Y0336368D01*
X0116448Y0335300D01*
X0114313Y0335300D01*
X0113245Y0336368D01*
X0113245Y0340638D01*
X0114313Y0341705D01*
X0116448Y0341705D01*
X0117516Y0340638D01*
X0111070Y0340638D02*
X0111070Y0338503D01*
X0110003Y0337435D01*
X0106800Y0337435D01*
X0106800Y0335300D02*
X0106800Y0341705D01*
X0110003Y0341705D01*
X0111070Y0340638D01*
X0108935Y0337435D02*
X0111070Y0335300D01*
X0101000Y0330000D02*
X0101000Y0320000D01*
X0100998Y0319940D01*
X0100993Y0319879D01*
X0100984Y0319820D01*
X0100971Y0319761D01*
X0100955Y0319702D01*
X0100935Y0319645D01*
X0100912Y0319590D01*
X0100885Y0319535D01*
X0100856Y0319483D01*
X0100823Y0319432D01*
X0100787Y0319383D01*
X0100749Y0319337D01*
X0100707Y0319293D01*
X0100663Y0319251D01*
X0100617Y0319213D01*
X0100568Y0319177D01*
X0100517Y0319144D01*
X0100465Y0319115D01*
X0100410Y0319088D01*
X0100355Y0319065D01*
X0100298Y0319045D01*
X0100239Y0319029D01*
X0100180Y0319016D01*
X0100121Y0319007D01*
X0100060Y0319002D01*
X0100000Y0319000D01*
X0073000Y0319000D01*
X0072940Y0319002D01*
X0072879Y0319007D01*
X0072820Y0319016D01*
X0072761Y0319029D01*
X0072702Y0319045D01*
X0072645Y0319065D01*
X0072590Y0319088D01*
X0072535Y0319115D01*
X0072483Y0319144D01*
X0072432Y0319177D01*
X0072383Y0319213D01*
X0072337Y0319251D01*
X0072293Y0319293D01*
X0072251Y0319337D01*
X0072213Y0319383D01*
X0072177Y0319432D01*
X0072144Y0319483D01*
X0072115Y0319535D01*
X0072088Y0319590D01*
X0072065Y0319645D01*
X0072045Y0319702D01*
X0072029Y0319761D01*
X0072016Y0319820D01*
X0072007Y0319879D01*
X0072002Y0319940D01*
X0072000Y0320000D01*
X0072000Y0330000D01*
X0072002Y0330060D01*
X0072007Y0330121D01*
X0072016Y0330180D01*
X0072029Y0330239D01*
X0072045Y0330298D01*
X0072065Y0330355D01*
X0072088Y0330410D01*
X0072115Y0330465D01*
X0072144Y0330517D01*
X0072177Y0330568D01*
X0072213Y0330617D01*
X0072251Y0330663D01*
X0072293Y0330707D01*
X0072337Y0330749D01*
X0072383Y0330787D01*
X0072432Y0330823D01*
X0072483Y0330856D01*
X0072535Y0330885D01*
X0072590Y0330912D01*
X0072645Y0330935D01*
X0072702Y0330955D01*
X0072761Y0330971D01*
X0072820Y0330984D01*
X0072879Y0330993D01*
X0072940Y0330998D01*
X0073000Y0331000D01*
X0100000Y0331000D01*
X0100060Y0330998D01*
X0100121Y0330993D01*
X0100180Y0330984D01*
X0100239Y0330971D01*
X0100298Y0330955D01*
X0100355Y0330935D01*
X0100410Y0330912D01*
X0100465Y0330885D01*
X0100517Y0330856D01*
X0100568Y0330823D01*
X0100617Y0330787D01*
X0100663Y0330749D01*
X0100707Y0330707D01*
X0100749Y0330663D01*
X0100787Y0330617D01*
X0100823Y0330568D01*
X0100856Y0330517D01*
X0100885Y0330465D01*
X0100912Y0330410D01*
X0100935Y0330355D01*
X0100955Y0330298D01*
X0100971Y0330239D01*
X0100984Y0330180D01*
X0100993Y0330121D01*
X0100998Y0330060D01*
X0101000Y0330000D01*
X0092500Y0325000D02*
X0087800Y0325000D01*
X0085300Y0325000D02*
X0080500Y0325000D01*
X0065813Y0317300D02*
X0061542Y0317300D01*
X0063678Y0317300D02*
X0063678Y0323705D01*
X0061542Y0321570D01*
X0059367Y0322638D02*
X0058300Y0323705D01*
X0056165Y0323705D01*
X0055097Y0322638D01*
X0055097Y0318368D01*
X0056165Y0317300D01*
X0058300Y0317300D01*
X0059367Y0318368D01*
X0052935Y0317300D02*
X0050800Y0317300D01*
X0051868Y0317300D02*
X0051868Y0323705D01*
X0052935Y0323705D02*
X0050800Y0323705D01*
X0296800Y0335300D02*
X0301070Y0335300D01*
X0303245Y0336368D02*
X0303245Y0337435D01*
X0304313Y0338503D01*
X0306448Y0338503D01*
X0307516Y0337435D01*
X0307516Y0336368D01*
X0306448Y0335300D01*
X0304313Y0335300D01*
X0303245Y0336368D01*
X0304313Y0338503D02*
X0303245Y0339570D01*
X0303245Y0340638D01*
X0304313Y0341705D01*
X0306448Y0341705D01*
X0307516Y0340638D01*
X0307516Y0339570D01*
X0306448Y0338503D01*
X0309691Y0336368D02*
X0309691Y0340638D01*
X0310759Y0341705D01*
X0312894Y0341705D01*
X0313961Y0340638D01*
X0309691Y0336368D01*
X0310759Y0335300D01*
X0312894Y0335300D01*
X0313961Y0336368D01*
X0313961Y0340638D01*
X0322582Y0341705D02*
X0322582Y0335300D01*
X0326852Y0335300D01*
X0329027Y0336368D02*
X0330095Y0335300D01*
X0332230Y0335300D01*
X0333298Y0336368D01*
X0333298Y0337435D01*
X0332230Y0338503D01*
X0330095Y0338503D01*
X0329027Y0339570D01*
X0329027Y0340638D01*
X0330095Y0341705D01*
X0332230Y0341705D01*
X0333298Y0340638D01*
X0335473Y0341705D02*
X0335473Y0337435D01*
X0337608Y0335300D01*
X0339743Y0337435D01*
X0339743Y0341705D01*
X0341918Y0339570D02*
X0344054Y0341705D01*
X0344054Y0335300D01*
X0346189Y0335300D02*
X0341918Y0335300D01*
X0348364Y0335300D02*
X0349432Y0335300D01*
X0349432Y0336368D01*
X0348364Y0336368D01*
X0348364Y0335300D01*
X0351587Y0336368D02*
X0355857Y0340638D01*
X0355857Y0336368D01*
X0354789Y0335300D01*
X0352654Y0335300D01*
X0351587Y0336368D01*
X0351587Y0340638D01*
X0352654Y0341705D01*
X0354789Y0341705D01*
X0355857Y0340638D01*
X0326852Y0341705D02*
X0322582Y0341705D01*
X0322582Y0338503D02*
X0324717Y0338503D01*
X0301070Y0340638D02*
X0296800Y0336368D01*
X0296800Y0335300D01*
X0296800Y0341705D02*
X0301070Y0341705D01*
X0301070Y0340638D01*
D12*
X0226796Y0310604D02*
X0226796Y0309554D01*
X0225745Y0308503D01*
X0226796Y0307452D01*
X0226796Y0306401D01*
X0225745Y0305350D01*
X0223643Y0305350D01*
X0222592Y0306401D01*
X0220351Y0306401D02*
X0219300Y0305350D01*
X0217198Y0305350D01*
X0216147Y0306401D01*
X0216147Y0310604D01*
X0217198Y0311655D01*
X0219300Y0311655D01*
X0220351Y0310604D01*
X0222592Y0310604D02*
X0223643Y0311655D01*
X0225745Y0311655D01*
X0226796Y0310604D01*
X0225745Y0308503D02*
X0224694Y0308503D01*
X0213952Y0311655D02*
X0211850Y0311655D01*
X0212901Y0311655D02*
X0212901Y0305350D01*
X0211850Y0305350D02*
X0213952Y0305350D01*
X0146796Y0305350D02*
X0142592Y0305350D01*
X0146796Y0309554D01*
X0146796Y0310604D01*
X0145745Y0311655D01*
X0143643Y0311655D01*
X0142592Y0310604D01*
X0140351Y0310604D02*
X0139300Y0311655D01*
X0137198Y0311655D01*
X0136147Y0310604D01*
X0136147Y0306401D01*
X0137198Y0305350D01*
X0139300Y0305350D01*
X0140351Y0306401D01*
X0133952Y0305350D02*
X0131850Y0305350D01*
X0132901Y0305350D02*
X0132901Y0311655D01*
X0131850Y0311655D02*
X0133952Y0311655D01*
D13*
X0128960Y0329250D02*
X0125958Y0329250D01*
X0128960Y0332253D01*
X0128960Y0333003D01*
X0128210Y0333754D01*
X0126708Y0333754D01*
X0125958Y0333003D01*
X0124356Y0333754D02*
X0124356Y0330751D01*
X0122855Y0329250D01*
X0121354Y0330751D01*
X0121354Y0333754D01*
X0119753Y0333003D02*
X0119002Y0333754D01*
X0117501Y0333754D01*
X0116750Y0333003D01*
X0116750Y0332253D01*
X0117501Y0331502D01*
X0119002Y0331502D01*
X0119753Y0330751D01*
X0119753Y0330001D01*
X0119002Y0329250D01*
X0117501Y0329250D01*
X0116750Y0330001D01*
X0113251Y0324754D02*
X0111750Y0323253D01*
X0113251Y0324754D02*
X0113251Y0320250D01*
X0111750Y0320250D02*
X0114753Y0320250D01*
X0088960Y0332250D02*
X0085958Y0332250D01*
X0088960Y0335253D01*
X0088960Y0336003D01*
X0088210Y0336754D01*
X0086708Y0336754D01*
X0085958Y0336003D01*
X0082855Y0336754D02*
X0082855Y0332250D01*
X0081354Y0332250D02*
X0084356Y0332250D01*
X0081354Y0335253D02*
X0082855Y0336754D01*
X0079753Y0336003D02*
X0079002Y0336754D01*
X0077501Y0336754D01*
X0076750Y0336003D01*
X0076750Y0333001D01*
X0077501Y0332250D01*
X0079002Y0332250D01*
X0079753Y0333001D01*
X0039750Y0310149D02*
X0039750Y0307146D01*
X0039750Y0308647D02*
X0035246Y0308647D01*
X0036747Y0307146D01*
X0039750Y0293649D02*
X0039750Y0290646D01*
X0039750Y0292147D02*
X0035246Y0292147D01*
X0036747Y0290646D01*
X0035246Y0289045D02*
X0038249Y0289045D01*
X0039750Y0287543D01*
X0038249Y0286042D01*
X0035246Y0286042D01*
X0035997Y0284441D02*
X0035246Y0283690D01*
X0035246Y0282189D01*
X0035997Y0281438D01*
X0036747Y0281438D01*
X0037498Y0282189D01*
X0037498Y0283690D01*
X0038249Y0284441D01*
X0038999Y0284441D01*
X0039750Y0283690D01*
X0039750Y0282189D01*
X0038999Y0281438D01*
X0167938Y0311501D02*
X0168689Y0310750D01*
X0170190Y0310750D01*
X0170941Y0311501D01*
X0172542Y0310750D02*
X0175545Y0310750D01*
X0174043Y0310750D02*
X0174043Y0315254D01*
X0172542Y0313753D01*
X0170941Y0314503D02*
X0170190Y0315254D01*
X0168689Y0315254D01*
X0167938Y0314503D01*
X0167938Y0311501D01*
X0177146Y0311501D02*
X0177897Y0310750D01*
X0179398Y0310750D01*
X0180149Y0311501D01*
X0180149Y0312251D01*
X0179398Y0313002D01*
X0178647Y0313002D01*
X0179398Y0313002D02*
X0180149Y0313753D01*
X0180149Y0314503D01*
X0179398Y0315254D01*
X0177897Y0315254D01*
X0177146Y0314503D01*
X0191750Y0320250D02*
X0194753Y0320250D01*
X0193251Y0320250D02*
X0193251Y0324754D01*
X0191750Y0323253D01*
X0197501Y0329250D02*
X0196750Y0330001D01*
X0197501Y0329250D02*
X0199002Y0329250D01*
X0199753Y0330001D01*
X0199753Y0330751D01*
X0199002Y0331502D01*
X0197501Y0331502D01*
X0196750Y0332253D01*
X0196750Y0333003D01*
X0197501Y0333754D01*
X0199002Y0333754D01*
X0199753Y0333003D01*
X0201354Y0333754D02*
X0201354Y0330751D01*
X0202855Y0329250D01*
X0204356Y0330751D01*
X0204356Y0333754D01*
X0205958Y0331502D02*
X0208960Y0331502D01*
X0208210Y0333754D02*
X0205958Y0331502D01*
X0208210Y0329250D02*
X0208210Y0333754D01*
X0247938Y0314503D02*
X0247938Y0311501D01*
X0248689Y0310750D01*
X0250190Y0310750D01*
X0250941Y0311501D01*
X0252542Y0310750D02*
X0255545Y0310750D01*
X0254043Y0310750D02*
X0254043Y0315254D01*
X0252542Y0313753D01*
X0250941Y0314503D02*
X0250190Y0315254D01*
X0248689Y0315254D01*
X0247938Y0314503D01*
X0257146Y0313002D02*
X0260149Y0313002D01*
X0259398Y0310750D02*
X0259398Y0315254D01*
X0257146Y0313002D01*
X0395246Y0308647D02*
X0396747Y0307146D01*
X0395246Y0308647D02*
X0399750Y0308647D01*
X0399750Y0307146D02*
X0399750Y0310149D01*
X0398999Y0293649D02*
X0398249Y0293649D01*
X0397498Y0292898D01*
X0397498Y0292147D01*
X0397498Y0292898D02*
X0396747Y0293649D01*
X0395997Y0293649D01*
X0395246Y0292898D01*
X0395246Y0291397D01*
X0395997Y0290646D01*
X0395246Y0289045D02*
X0398249Y0289045D01*
X0399750Y0287543D01*
X0398249Y0286042D01*
X0395246Y0286042D01*
X0395997Y0284441D02*
X0395246Y0283690D01*
X0395246Y0282189D01*
X0395997Y0281438D01*
X0396747Y0281438D01*
X0397498Y0282189D01*
X0397498Y0283690D01*
X0398249Y0284441D01*
X0398999Y0284441D01*
X0399750Y0283690D01*
X0399750Y0282189D01*
X0398999Y0281438D01*
X0398999Y0290646D02*
X0399750Y0291397D01*
X0399750Y0292898D01*
X0398999Y0293649D01*
X0253647Y0150254D02*
X0253647Y0145750D01*
X0252146Y0145750D02*
X0255149Y0145750D01*
X0252146Y0148753D02*
X0253647Y0150254D01*
X0250545Y0149503D02*
X0249794Y0150254D01*
X0248293Y0150254D01*
X0247542Y0149503D01*
X0247542Y0146501D01*
X0248293Y0145750D01*
X0249794Y0145750D01*
X0250545Y0146501D01*
X0269246Y0146710D02*
X0271498Y0144458D01*
X0271498Y0147460D01*
X0273750Y0146710D02*
X0269246Y0146710D01*
X0269246Y0142856D02*
X0273750Y0142856D01*
X0269246Y0139854D01*
X0273750Y0139854D01*
X0273750Y0138253D02*
X0272249Y0136751D01*
X0272249Y0137502D02*
X0272249Y0135250D01*
X0273750Y0135250D02*
X0269246Y0135250D01*
X0269246Y0137502D01*
X0269997Y0138253D01*
X0271498Y0138253D01*
X0272249Y0137502D01*
X0322938Y0092003D02*
X0322938Y0089001D01*
X0323689Y0088250D01*
X0325190Y0088250D01*
X0325941Y0089001D01*
X0327542Y0088250D02*
X0330545Y0088250D01*
X0329043Y0088250D02*
X0329043Y0092754D01*
X0327542Y0091253D01*
X0325941Y0092003D02*
X0325190Y0092754D01*
X0323689Y0092754D01*
X0322938Y0092003D01*
X0332146Y0092754D02*
X0332146Y0090502D01*
X0333647Y0091253D01*
X0334398Y0091253D01*
X0335149Y0090502D01*
X0335149Y0089001D01*
X0334398Y0088250D01*
X0332897Y0088250D01*
X0332146Y0089001D01*
X0332146Y0092754D02*
X0335149Y0092754D01*
X0310750Y0072898D02*
X0310750Y0071397D01*
X0309999Y0070646D01*
X0309249Y0070646D01*
X0308498Y0071397D01*
X0308498Y0072898D01*
X0309249Y0073649D01*
X0309999Y0073649D01*
X0310750Y0072898D01*
X0308498Y0072898D02*
X0307747Y0073649D01*
X0306997Y0073649D01*
X0306246Y0072898D01*
X0306246Y0071397D01*
X0306997Y0070646D01*
X0307747Y0070646D01*
X0308498Y0071397D01*
X0310750Y0069045D02*
X0310750Y0066042D01*
X0310750Y0067543D02*
X0306246Y0067543D01*
X0307747Y0066042D01*
X0307250Y0065779D02*
X0307250Y0064278D01*
X0306499Y0063527D01*
X0303497Y0066530D01*
X0306499Y0066530D01*
X0307250Y0065779D01*
X0306997Y0064441D02*
X0306246Y0063690D01*
X0306246Y0062189D01*
X0306997Y0061438D01*
X0309999Y0061438D01*
X0310750Y0062189D01*
X0310750Y0063690D01*
X0309999Y0064441D01*
X0306499Y0063527D02*
X0303497Y0063527D01*
X0302746Y0064278D01*
X0302746Y0065779D01*
X0303497Y0066530D01*
X0307250Y0061926D02*
X0307250Y0058923D01*
X0307250Y0060424D02*
X0302746Y0060424D01*
X0304247Y0058923D01*
X0303497Y0057322D02*
X0302746Y0056571D01*
X0302746Y0055070D01*
X0303497Y0054319D01*
X0306499Y0054319D01*
X0307250Y0055070D01*
X0307250Y0056571D01*
X0306499Y0057322D01*
X0307250Y0052751D02*
X0307250Y0051250D01*
X0307250Y0052001D02*
X0302746Y0052001D01*
X0302746Y0052751D02*
X0302746Y0051250D01*
X0283750Y0048253D02*
X0283750Y0045250D01*
X0283750Y0046751D02*
X0279246Y0046751D01*
X0280747Y0045250D01*
X0274750Y0051001D02*
X0273999Y0050250D01*
X0274750Y0051001D02*
X0274750Y0052502D01*
X0273999Y0053253D01*
X0273249Y0053253D01*
X0272498Y0052502D01*
X0272498Y0051001D01*
X0271747Y0050250D01*
X0270997Y0050250D01*
X0270246Y0051001D01*
X0270246Y0052502D01*
X0270997Y0053253D01*
X0270246Y0054854D02*
X0273249Y0054854D01*
X0274750Y0056355D01*
X0273249Y0057856D01*
X0270246Y0057856D01*
X0270246Y0059458D02*
X0272498Y0059458D01*
X0271747Y0060959D01*
X0271747Y0061710D01*
X0272498Y0062460D01*
X0273999Y0062460D01*
X0274750Y0061710D01*
X0274750Y0060208D01*
X0273999Y0059458D01*
X0270246Y0059458D02*
X0270246Y0062460D01*
X0327938Y0007503D02*
X0327938Y0006753D01*
X0328689Y0006002D01*
X0330190Y0006002D01*
X0330941Y0005251D01*
X0330941Y0004501D01*
X0330190Y0003750D01*
X0328689Y0003750D01*
X0327938Y0004501D01*
X0327938Y0007503D02*
X0328689Y0008254D01*
X0330190Y0008254D01*
X0330941Y0007503D01*
X0332542Y0008254D02*
X0332542Y0005251D01*
X0334043Y0003750D01*
X0335545Y0005251D01*
X0335545Y0008254D01*
X0337146Y0006002D02*
X0339398Y0006002D01*
X0340149Y0005251D01*
X0340149Y0004501D01*
X0339398Y0003750D01*
X0337897Y0003750D01*
X0337146Y0004501D01*
X0337146Y0006002D01*
X0338647Y0007503D01*
X0340149Y0008254D01*
X0342146Y0012750D02*
X0345149Y0012750D01*
X0343647Y0012750D02*
X0343647Y0017254D01*
X0342146Y0015753D01*
X0365498Y0114542D02*
X0365498Y0117545D01*
X0363997Y0119146D02*
X0363246Y0119897D01*
X0363246Y0121398D01*
X0363997Y0122149D01*
X0366999Y0119146D01*
X0367750Y0119897D01*
X0367750Y0121398D01*
X0366999Y0122149D01*
X0363997Y0122149D01*
X0363997Y0119146D02*
X0366999Y0119146D01*
X0367750Y0116794D02*
X0363246Y0116794D01*
X0365498Y0114542D01*
X0186952Y0101000D02*
X0185373Y0101000D01*
X0184746Y0106500D02*
X0168254Y0106500D01*
X0167627Y0101000D02*
X0166048Y0101000D01*
X0161898Y0097254D02*
X0160397Y0097254D01*
X0159646Y0096503D01*
X0158045Y0097254D02*
X0155042Y0097254D01*
X0156543Y0097254D02*
X0156543Y0092750D01*
X0159646Y0092750D02*
X0162649Y0095753D01*
X0162649Y0096503D01*
X0161898Y0097254D01*
X0162649Y0092750D02*
X0159646Y0092750D01*
X0175373Y0101000D02*
X0177627Y0101000D01*
X0184746Y0106500D02*
X0184899Y0106301D01*
X0185047Y0106099D01*
X0185190Y0105894D01*
X0185328Y0105685D01*
X0185461Y0105473D01*
X0185589Y0105258D01*
X0185711Y0105040D01*
X0185829Y0104819D01*
X0185941Y0104595D01*
X0186048Y0104369D01*
X0186149Y0104140D01*
X0186245Y0103909D01*
X0186336Y0103675D01*
X0186421Y0103440D01*
X0186500Y0103202D01*
X0186573Y0102963D01*
X0186641Y0102722D01*
X0186703Y0102480D01*
X0186759Y0102236D01*
X0186810Y0101990D01*
X0186854Y0101744D01*
X0186893Y0101497D01*
X0186925Y0101249D01*
X0186952Y0101000D01*
X0186974Y0100745D01*
X0186989Y0100489D01*
X0186997Y0100233D01*
X0187000Y0099976D01*
X0186996Y0099720D01*
X0186986Y0099464D01*
X0186970Y0099208D01*
X0186948Y0098953D01*
X0186919Y0098698D01*
X0186884Y0098444D01*
X0186843Y0098191D01*
X0186796Y0097939D01*
X0186742Y0097689D01*
X0186683Y0097440D01*
X0186617Y0097192D01*
X0186546Y0096946D01*
X0186468Y0096701D01*
X0186385Y0096459D01*
X0186296Y0096219D01*
X0186200Y0095981D01*
X0186099Y0095745D01*
X0185993Y0095512D01*
X0185880Y0095282D01*
X0185762Y0095054D01*
X0185639Y0094830D01*
X0185510Y0094608D01*
X0185376Y0094390D01*
X0185236Y0094175D01*
X0185091Y0093964D01*
X0184941Y0093756D01*
X0184787Y0093552D01*
X0184627Y0093351D01*
X0184462Y0093155D01*
X0184293Y0092963D01*
X0184118Y0092774D01*
X0183940Y0092591D01*
X0183757Y0092411D01*
X0183569Y0092236D01*
X0183378Y0092066D01*
X0183182Y0091901D01*
X0182982Y0091740D01*
X0182779Y0091584D01*
X0182572Y0091434D01*
X0182361Y0091288D01*
X0182146Y0091147D01*
X0181929Y0091012D01*
X0181708Y0090882D01*
X0181484Y0090758D01*
X0181257Y0090639D01*
X0181027Y0090526D01*
X0180794Y0090418D01*
X0180559Y0090316D01*
X0180321Y0090220D01*
X0180082Y0090130D01*
X0179840Y0090045D01*
X0179596Y0089967D01*
X0173404Y0089967D02*
X0173162Y0090045D01*
X0172922Y0090129D01*
X0172684Y0090218D01*
X0172448Y0090313D01*
X0172214Y0090415D01*
X0171983Y0090521D01*
X0171755Y0090634D01*
X0171529Y0090751D01*
X0171306Y0090874D01*
X0171087Y0091003D01*
X0170870Y0091137D01*
X0170657Y0091276D01*
X0170447Y0091420D01*
X0170241Y0091569D01*
X0170039Y0091723D01*
X0169840Y0091882D01*
X0169645Y0092046D01*
X0169454Y0092215D01*
X0169268Y0092388D01*
X0169085Y0092565D01*
X0168907Y0092747D01*
X0168734Y0092933D01*
X0168565Y0093124D01*
X0168401Y0093318D01*
X0168241Y0093516D01*
X0168086Y0093718D01*
X0167937Y0093924D01*
X0167792Y0094133D01*
X0167652Y0094346D01*
X0167518Y0094562D01*
X0167389Y0094782D01*
X0167265Y0095004D01*
X0167146Y0095229D01*
X0167034Y0095457D01*
X0166926Y0095688D01*
X0166825Y0095921D01*
X0166729Y0096157D01*
X0166638Y0096395D01*
X0166554Y0096635D01*
X0166475Y0096877D01*
X0166402Y0097121D01*
X0166336Y0097367D01*
X0166275Y0097614D01*
X0166220Y0097862D01*
X0166171Y0098112D01*
X0166128Y0098363D01*
X0166092Y0098615D01*
X0166061Y0098867D01*
X0166037Y0099121D01*
X0166019Y0099374D01*
X0166007Y0099629D01*
X0166001Y0099883D01*
X0166001Y0100138D01*
X0166007Y0100392D01*
X0166020Y0100646D01*
X0166039Y0100900D01*
X0166064Y0101153D01*
X0166095Y0101406D01*
X0166132Y0101658D01*
X0166175Y0101908D01*
X0166224Y0102158D01*
X0166280Y0102407D01*
X0166341Y0102654D01*
X0166408Y0102899D01*
X0166481Y0103143D01*
X0166560Y0103385D01*
X0166645Y0103624D01*
X0166736Y0103862D01*
X0166833Y0104098D01*
X0166935Y0104331D01*
X0167043Y0104561D01*
X0167156Y0104789D01*
X0167275Y0105014D01*
X0167399Y0105236D01*
X0167529Y0105455D01*
X0167663Y0105671D01*
X0167803Y0105884D01*
X0167949Y0106093D01*
X0168099Y0106298D01*
X0168254Y0106500D01*
X0122149Y0076503D02*
X0122149Y0073501D01*
X0121398Y0072750D01*
X0119897Y0072750D01*
X0119146Y0073501D01*
X0122149Y0076503D01*
X0121398Y0077254D01*
X0119897Y0077254D01*
X0119146Y0076503D01*
X0119146Y0073501D01*
X0117545Y0072750D02*
X0114542Y0072750D01*
X0116043Y0072750D02*
X0116043Y0077254D01*
X0114542Y0075753D01*
X0112941Y0076503D02*
X0112190Y0077254D01*
X0110689Y0077254D01*
X0109938Y0076503D01*
X0109938Y0073501D01*
X0110689Y0072750D01*
X0112190Y0072750D01*
X0112941Y0073501D01*
X0105750Y0040356D02*
X0105750Y0037354D01*
X0102747Y0040356D01*
X0101997Y0040356D01*
X0101246Y0039606D01*
X0101246Y0038105D01*
X0101997Y0037354D01*
X0101997Y0035753D02*
X0104999Y0035753D01*
X0105750Y0035002D01*
X0105750Y0033501D01*
X0104999Y0032750D01*
X0101997Y0032750D01*
X0101246Y0033501D01*
X0101246Y0035002D01*
X0101997Y0035753D01*
X0104249Y0034251D02*
X0105750Y0035753D01*
X0081856Y0026003D02*
X0081106Y0026754D01*
X0079605Y0026754D01*
X0078854Y0026003D01*
X0077253Y0026003D02*
X0076502Y0026754D01*
X0075001Y0026754D01*
X0074250Y0026003D01*
X0074250Y0023001D01*
X0075001Y0022250D01*
X0076502Y0022250D01*
X0077253Y0023001D01*
X0078854Y0022250D02*
X0081856Y0025253D01*
X0081856Y0026003D01*
X0081856Y0022250D02*
X0078854Y0022250D01*
X0043960Y0025503D02*
X0040958Y0022501D01*
X0040958Y0021750D01*
X0039356Y0023251D02*
X0039356Y0026254D01*
X0040958Y0026254D02*
X0043960Y0026254D01*
X0043960Y0025503D01*
X0039356Y0023251D02*
X0037855Y0021750D01*
X0036354Y0023251D01*
X0036354Y0026254D01*
X0034753Y0025503D02*
X0034002Y0026254D01*
X0032501Y0026254D01*
X0031750Y0025503D01*
X0031750Y0024753D01*
X0032501Y0024002D01*
X0034002Y0024002D01*
X0034753Y0023251D01*
X0034753Y0022501D01*
X0034002Y0021750D01*
X0032501Y0021750D01*
X0031750Y0022501D01*
X0028251Y0017254D02*
X0026750Y0015753D01*
X0028251Y0017254D02*
X0028251Y0012750D01*
X0026750Y0012750D02*
X0029753Y0012750D01*
X0029750Y0033250D02*
X0029750Y0034751D01*
X0029750Y0034001D02*
X0025246Y0034001D01*
X0025246Y0034751D02*
X0025246Y0033250D01*
X0025997Y0036319D02*
X0028999Y0036319D01*
X0029750Y0037070D01*
X0029750Y0038571D01*
X0028999Y0039322D01*
X0028999Y0040923D02*
X0029750Y0041674D01*
X0029750Y0043175D01*
X0028999Y0043926D01*
X0025997Y0043926D01*
X0025246Y0043175D01*
X0025246Y0041674D01*
X0025997Y0040923D01*
X0026747Y0040923D01*
X0027498Y0041674D01*
X0027498Y0043926D01*
X0027499Y0046438D02*
X0028250Y0047189D01*
X0028250Y0048690D01*
X0027499Y0049441D01*
X0028250Y0051042D02*
X0028250Y0054045D01*
X0028250Y0052543D02*
X0023746Y0052543D01*
X0025247Y0051042D01*
X0024497Y0049441D02*
X0023746Y0048690D01*
X0023746Y0047189D01*
X0024497Y0046438D01*
X0027499Y0046438D01*
X0025997Y0039322D02*
X0025246Y0038571D01*
X0025246Y0037070D01*
X0025997Y0036319D01*
X0027499Y0055646D02*
X0028250Y0055646D01*
X0027499Y0055646D02*
X0024497Y0058649D01*
X0023746Y0058649D01*
X0023746Y0055646D01*
X0025246Y0078250D02*
X0025246Y0079751D01*
X0025246Y0079001D02*
X0029750Y0079001D01*
X0029750Y0079751D02*
X0029750Y0078250D01*
X0028999Y0081319D02*
X0025997Y0081319D01*
X0025246Y0082070D01*
X0025246Y0083571D01*
X0025997Y0084322D01*
X0025997Y0085923D02*
X0026747Y0085923D01*
X0027498Y0086674D01*
X0027498Y0088175D01*
X0028249Y0088926D01*
X0028999Y0088926D01*
X0029750Y0088175D01*
X0029750Y0086674D01*
X0028999Y0085923D01*
X0028249Y0085923D01*
X0027498Y0086674D01*
X0027499Y0086438D02*
X0028250Y0087189D01*
X0028250Y0088690D01*
X0027499Y0089441D01*
X0026747Y0088926D02*
X0027498Y0088175D01*
X0026747Y0088926D02*
X0025997Y0088926D01*
X0025246Y0088175D01*
X0025246Y0086674D01*
X0025997Y0085923D01*
X0024497Y0086438D02*
X0027499Y0086438D01*
X0028999Y0084322D02*
X0029750Y0083571D01*
X0029750Y0082070D01*
X0028999Y0081319D01*
X0024497Y0086438D02*
X0023746Y0087189D01*
X0023746Y0088690D01*
X0024497Y0089441D01*
X0025247Y0091042D02*
X0023746Y0092543D01*
X0028250Y0092543D01*
X0028250Y0091042D02*
X0028250Y0094045D01*
X0027499Y0095646D02*
X0028250Y0096397D01*
X0028250Y0097898D01*
X0027499Y0098649D01*
X0026749Y0098649D01*
X0025998Y0097898D01*
X0025998Y0095646D01*
X0027499Y0095646D01*
X0025998Y0095646D02*
X0024497Y0097147D01*
X0023746Y0098649D01*
X0007750Y0116794D02*
X0003246Y0116794D01*
X0005498Y0114542D01*
X0005498Y0117545D01*
X0003997Y0119146D02*
X0003246Y0119897D01*
X0003246Y0121398D01*
X0003997Y0122149D01*
X0006999Y0119146D01*
X0007750Y0119897D01*
X0007750Y0121398D01*
X0006999Y0122149D01*
X0003997Y0122149D01*
X0003997Y0119146D02*
X0006999Y0119146D01*
X0114246Y0120356D02*
X0118750Y0120356D01*
X0114246Y0117354D01*
X0118750Y0117354D01*
X0118750Y0115753D02*
X0117249Y0114251D01*
X0117249Y0115002D02*
X0117249Y0112750D01*
X0118750Y0112750D02*
X0114246Y0112750D01*
X0114246Y0115002D01*
X0114997Y0115753D01*
X0116498Y0115753D01*
X0117249Y0115002D01*
X0117999Y0121958D02*
X0118750Y0122708D01*
X0118750Y0124210D01*
X0117999Y0124960D01*
X0117249Y0124960D01*
X0116498Y0124210D01*
X0116498Y0123459D01*
X0116498Y0124210D02*
X0115747Y0124960D01*
X0114997Y0124960D01*
X0114246Y0124210D01*
X0114246Y0122708D01*
X0114997Y0121958D01*
X0115293Y0009754D02*
X0114542Y0009003D01*
X0114542Y0006001D01*
X0115293Y0005250D01*
X0116794Y0005250D01*
X0117545Y0006001D01*
X0119146Y0006001D02*
X0119897Y0005250D01*
X0121398Y0005250D01*
X0122149Y0006001D01*
X0122149Y0006751D01*
X0121398Y0007502D01*
X0120647Y0007502D01*
X0121398Y0007502D02*
X0122149Y0008253D01*
X0122149Y0009003D01*
X0121398Y0009754D01*
X0119897Y0009754D01*
X0119146Y0009003D01*
X0117545Y0009003D02*
X0116794Y0009754D01*
X0115293Y0009754D01*
D14*
X0108000Y0040500D02*
X0108003Y0040293D01*
X0108010Y0040086D01*
X0108023Y0039880D01*
X0108040Y0039673D01*
X0108063Y0039468D01*
X0108091Y0039262D01*
X0108123Y0039058D01*
X0108161Y0038854D01*
X0108203Y0038652D01*
X0108251Y0038450D01*
X0108303Y0038250D01*
X0108360Y0038051D01*
X0108422Y0037854D01*
X0108489Y0037658D01*
X0108561Y0037464D01*
X0108637Y0037271D01*
X0108718Y0037081D01*
X0108804Y0036892D01*
X0108894Y0036706D01*
X0108988Y0036522D01*
X0109088Y0036340D01*
X0109191Y0036161D01*
X0109299Y0035984D01*
X0109411Y0035810D01*
X0109527Y0035639D01*
X0109648Y0035470D01*
X0109772Y0035305D01*
X0109901Y0035143D01*
X0110033Y0034984D01*
X0110169Y0034828D01*
X0110309Y0034675D01*
X0110453Y0034526D01*
X0110600Y0034381D01*
X0110751Y0034239D01*
X0110905Y0034101D01*
X0111063Y0033966D01*
X0111223Y0033836D01*
X0111387Y0033710D01*
X0111554Y0033587D01*
X0111724Y0033469D01*
X0111897Y0033354D01*
X0112072Y0033244D01*
X0112250Y0033139D01*
X0112431Y0033037D01*
X0112613Y0032941D01*
X0112799Y0032848D01*
X0112986Y0032760D01*
X0113176Y0032677D01*
X0113367Y0032598D01*
X0113560Y0032524D01*
X0113756Y0032455D01*
X0113952Y0032391D01*
X0114150Y0032331D01*
X0114350Y0032276D01*
X0114551Y0032226D01*
X0114753Y0032181D01*
X0114956Y0032141D01*
X0115160Y0032106D01*
X0115365Y0032076D01*
X0115570Y0032051D01*
X0115776Y0032031D01*
X0115983Y0032016D01*
X0116190Y0032006D01*
X0116397Y0032001D01*
X0116603Y0032001D01*
X0116810Y0032006D01*
X0117017Y0032016D01*
X0117224Y0032031D01*
X0117430Y0032051D01*
X0117635Y0032076D01*
X0117840Y0032106D01*
X0118044Y0032141D01*
X0118247Y0032181D01*
X0118449Y0032226D01*
X0118650Y0032276D01*
X0118850Y0032331D01*
X0119048Y0032391D01*
X0119244Y0032455D01*
X0119440Y0032524D01*
X0119633Y0032598D01*
X0119824Y0032677D01*
X0120014Y0032760D01*
X0120201Y0032848D01*
X0120387Y0032941D01*
X0120569Y0033037D01*
X0120750Y0033139D01*
X0120928Y0033244D01*
X0121103Y0033354D01*
X0121276Y0033469D01*
X0121446Y0033587D01*
X0121613Y0033710D01*
X0121777Y0033836D01*
X0121937Y0033966D01*
X0122095Y0034101D01*
X0122249Y0034239D01*
X0122400Y0034381D01*
X0122547Y0034526D01*
X0122691Y0034675D01*
X0122831Y0034828D01*
X0122967Y0034984D01*
X0123099Y0035143D01*
X0123228Y0035305D01*
X0123352Y0035470D01*
X0123473Y0035639D01*
X0123589Y0035810D01*
X0123701Y0035984D01*
X0123809Y0036161D01*
X0123912Y0036340D01*
X0124012Y0036522D01*
X0124106Y0036706D01*
X0124196Y0036892D01*
X0124282Y0037081D01*
X0124363Y0037271D01*
X0124439Y0037464D01*
X0124511Y0037658D01*
X0124578Y0037854D01*
X0124640Y0038051D01*
X0124697Y0038250D01*
X0124749Y0038450D01*
X0124797Y0038652D01*
X0124839Y0038854D01*
X0124877Y0039058D01*
X0124909Y0039262D01*
X0124937Y0039468D01*
X0124960Y0039673D01*
X0124977Y0039880D01*
X0124990Y0040086D01*
X0124997Y0040293D01*
X0125000Y0040500D01*
X0125000Y0064500D01*
X0124997Y0064707D01*
X0124990Y0064914D01*
X0124977Y0065120D01*
X0124960Y0065327D01*
X0124937Y0065532D01*
X0124909Y0065738D01*
X0124877Y0065942D01*
X0124839Y0066146D01*
X0124797Y0066348D01*
X0124749Y0066550D01*
X0124697Y0066750D01*
X0124640Y0066949D01*
X0124578Y0067146D01*
X0124511Y0067342D01*
X0124439Y0067536D01*
X0124363Y0067729D01*
X0124282Y0067919D01*
X0124196Y0068108D01*
X0124106Y0068294D01*
X0124012Y0068478D01*
X0123912Y0068660D01*
X0123809Y0068839D01*
X0123701Y0069016D01*
X0123589Y0069190D01*
X0123473Y0069361D01*
X0123352Y0069530D01*
X0123228Y0069695D01*
X0123099Y0069857D01*
X0122967Y0070016D01*
X0122831Y0070172D01*
X0122691Y0070325D01*
X0122547Y0070474D01*
X0122400Y0070619D01*
X0122249Y0070761D01*
X0122095Y0070899D01*
X0121937Y0071034D01*
X0121777Y0071164D01*
X0121613Y0071290D01*
X0121446Y0071413D01*
X0121276Y0071531D01*
X0121103Y0071646D01*
X0120928Y0071756D01*
X0120750Y0071861D01*
X0120569Y0071963D01*
X0120387Y0072059D01*
X0120201Y0072152D01*
X0120014Y0072240D01*
X0119824Y0072323D01*
X0119633Y0072402D01*
X0119440Y0072476D01*
X0119244Y0072545D01*
X0119048Y0072609D01*
X0118850Y0072669D01*
X0118650Y0072724D01*
X0118449Y0072774D01*
X0118247Y0072819D01*
X0118044Y0072859D01*
X0117840Y0072894D01*
X0117635Y0072924D01*
X0117430Y0072949D01*
X0117224Y0072969D01*
X0117017Y0072984D01*
X0116810Y0072994D01*
X0116603Y0072999D01*
X0116397Y0072999D01*
X0116190Y0072994D01*
X0115983Y0072984D01*
X0115776Y0072969D01*
X0115570Y0072949D01*
X0115365Y0072924D01*
X0115160Y0072894D01*
X0114956Y0072859D01*
X0114753Y0072819D01*
X0114551Y0072774D01*
X0114350Y0072724D01*
X0114150Y0072669D01*
X0113952Y0072609D01*
X0113756Y0072545D01*
X0113560Y0072476D01*
X0113367Y0072402D01*
X0113176Y0072323D01*
X0112986Y0072240D01*
X0112799Y0072152D01*
X0112613Y0072059D01*
X0112431Y0071963D01*
X0112250Y0071861D01*
X0112072Y0071756D01*
X0111897Y0071646D01*
X0111724Y0071531D01*
X0111554Y0071413D01*
X0111387Y0071290D01*
X0111223Y0071164D01*
X0111063Y0071034D01*
X0110905Y0070899D01*
X0110751Y0070761D01*
X0110600Y0070619D01*
X0110453Y0070474D01*
X0110309Y0070325D01*
X0110169Y0070172D01*
X0110033Y0070016D01*
X0109901Y0069857D01*
X0109772Y0069695D01*
X0109648Y0069530D01*
X0109527Y0069361D01*
X0109411Y0069190D01*
X0109299Y0069016D01*
X0109191Y0068839D01*
X0109088Y0068660D01*
X0108988Y0068478D01*
X0108894Y0068294D01*
X0108804Y0068108D01*
X0108718Y0067919D01*
X0108637Y0067729D01*
X0108561Y0067536D01*
X0108489Y0067342D01*
X0108422Y0067146D01*
X0108360Y0066949D01*
X0108303Y0066750D01*
X0108251Y0066550D01*
X0108203Y0066348D01*
X0108161Y0066146D01*
X0108123Y0065942D01*
X0108091Y0065738D01*
X0108063Y0065532D01*
X0108040Y0065327D01*
X0108023Y0065120D01*
X0108010Y0064914D01*
X0108003Y0064707D01*
X0108000Y0064500D01*
X0108000Y0040500D01*
D15*
X0127697Y0040200D02*
X0127697Y0041951D01*
X0128281Y0042535D01*
X0129449Y0042535D01*
X0130032Y0041951D01*
X0130032Y0040200D01*
X0130032Y0041368D02*
X0131200Y0042535D01*
X0129449Y0043791D02*
X0129449Y0046126D01*
X0131200Y0045543D02*
X0127697Y0045543D01*
X0129449Y0043791D01*
X0131200Y0040200D02*
X0127697Y0040200D01*
X0151797Y0036444D02*
X0152381Y0035277D01*
X0153549Y0034109D01*
X0153549Y0035860D01*
X0154132Y0036444D01*
X0154716Y0036444D01*
X0155300Y0035860D01*
X0155300Y0034693D01*
X0154716Y0034109D01*
X0153549Y0034109D01*
X0153549Y0032853D02*
X0154132Y0032269D01*
X0154132Y0030518D01*
X0154132Y0031686D02*
X0155300Y0032853D01*
X0153549Y0032853D02*
X0152381Y0032853D01*
X0151797Y0032269D01*
X0151797Y0030518D01*
X0155300Y0030518D01*
X0166797Y0030518D02*
X0166797Y0032269D01*
X0167381Y0032853D01*
X0168549Y0032853D01*
X0169132Y0032269D01*
X0169132Y0030518D01*
X0169132Y0031686D02*
X0170300Y0032853D01*
X0170300Y0034109D02*
X0170300Y0036444D01*
X0170300Y0035277D02*
X0166797Y0035277D01*
X0167965Y0034109D01*
X0166797Y0030518D02*
X0170300Y0030518D01*
X0168281Y0023626D02*
X0170616Y0021291D01*
X0171200Y0021291D01*
X0171200Y0020035D02*
X0170032Y0018868D01*
X0170032Y0019451D02*
X0170032Y0017700D01*
X0171200Y0017700D02*
X0167697Y0017700D01*
X0167697Y0019451D01*
X0168281Y0020035D01*
X0169449Y0020035D01*
X0170032Y0019451D01*
X0167697Y0021291D02*
X0167697Y0023626D01*
X0168281Y0023626D01*
X0196797Y0030518D02*
X0196797Y0032269D01*
X0197381Y0032853D01*
X0198549Y0032853D01*
X0199132Y0032269D01*
X0199132Y0030518D01*
X0199132Y0031686D02*
X0200300Y0032853D01*
X0200300Y0034109D02*
X0197965Y0036444D01*
X0197381Y0036444D01*
X0196797Y0035860D01*
X0196797Y0034693D01*
X0197381Y0034109D01*
X0200300Y0034109D02*
X0200300Y0036444D01*
X0200300Y0030518D02*
X0196797Y0030518D01*
X0155300Y0078018D02*
X0151797Y0078018D01*
X0151797Y0079769D01*
X0152381Y0080353D01*
X0153549Y0080353D01*
X0154132Y0079769D01*
X0154132Y0078018D01*
X0154132Y0079186D02*
X0155300Y0080353D01*
X0154716Y0081609D02*
X0154132Y0081609D01*
X0153549Y0082193D01*
X0153549Y0083360D01*
X0154132Y0083944D01*
X0154716Y0083944D01*
X0155300Y0083360D01*
X0155300Y0082193D01*
X0154716Y0081609D01*
X0153549Y0082193D02*
X0152965Y0081609D01*
X0152381Y0081609D01*
X0151797Y0082193D01*
X0151797Y0083360D01*
X0152381Y0083944D01*
X0152965Y0083944D01*
X0153549Y0083360D01*
D16*
X0146500Y0085750D03*
X0146500Y0064250D03*
X0136500Y0060750D03*
X0136500Y0039250D03*
X0146500Y0038250D03*
X0161500Y0038250D03*
X0176500Y0038250D03*
X0191500Y0038250D03*
X0191500Y0016750D03*
X0176500Y0016750D03*
X0161500Y0016750D03*
X0146500Y0016750D03*
D17*
X0117500Y0017000D02*
X0117500Y0020000D01*
X0117500Y0023000D01*
X0115500Y0023000D02*
X0115500Y0020000D01*
X0115500Y0017000D01*
X0115500Y0084500D02*
X0115500Y0087500D01*
X0115500Y0090500D01*
X0117500Y0090500D02*
X0117500Y0087500D01*
X0117500Y0084500D01*
D18*
X0085300Y0017500D02*
X0085300Y0015000D01*
X0085300Y0012500D01*
X0082800Y0012500D02*
X0082800Y0015000D01*
X0082800Y0017500D01*
X0019000Y0048700D02*
X0016500Y0048700D01*
X0014000Y0048700D01*
X0014000Y0051200D02*
X0016500Y0051200D01*
X0019000Y0051200D01*
X0019000Y0088700D02*
X0016500Y0088700D01*
X0014000Y0088700D01*
X0014000Y0091200D02*
X0016500Y0091200D01*
X0019000Y0091200D01*
X0245200Y0155000D02*
X0245200Y0157500D01*
X0245200Y0160000D01*
X0247700Y0160000D02*
X0247700Y0157500D01*
X0247700Y0155000D01*
X0325200Y0102500D02*
X0325200Y0100000D01*
X0325200Y0097500D01*
X0327700Y0097500D02*
X0327700Y0100000D01*
X0327700Y0102500D01*
X0301500Y0066200D02*
X0299000Y0066200D01*
X0296500Y0066200D01*
X0296500Y0063700D02*
X0299000Y0063700D01*
X0301500Y0063700D01*
X0252700Y0320000D02*
X0252700Y0322500D01*
X0252700Y0325000D01*
X0250200Y0325000D02*
X0250200Y0322500D01*
X0250200Y0320000D01*
X0172700Y0320000D02*
X0172700Y0322500D01*
X0172700Y0325000D01*
X0170200Y0325000D02*
X0170200Y0322500D01*
X0170200Y0320000D01*
X0087800Y0322500D02*
X0087800Y0325000D01*
X0087800Y0327500D01*
X0085300Y0327500D02*
X0085300Y0325000D01*
X0085300Y0322500D01*
M02*
