G75*
%MOIN*%
%OFA0B0*%
%FSLAX25Y25*%
%IPPOS*%
%LPD*%
%AMOC8*
5,1,8,0,0,1.08239X$1,22.5*
%
%ADD10C,0.00000*%
%ADD11C,0.11824*%
%ADD12C,0.06000*%
%ADD13C,0.06400*%
%ADD14OC8,0.06400*%
%ADD15C,0.06800*%
%ADD16C,0.06000*%
%ADD17OC8,0.06000*%
%ADD18OC8,0.07100*%
%ADD19C,0.07100*%
%ADD20OC8,0.09300*%
%ADD21C,0.04800*%
D10*
X0001500Y0009721D02*
X0001500Y0349682D01*
X0400201Y0349682D01*
X0400201Y0009721D01*
X0001500Y0009721D01*
X0010988Y0024721D02*
X0010990Y0024869D01*
X0010996Y0025017D01*
X0011006Y0025165D01*
X0011020Y0025312D01*
X0011038Y0025459D01*
X0011059Y0025605D01*
X0011085Y0025751D01*
X0011115Y0025896D01*
X0011148Y0026040D01*
X0011186Y0026183D01*
X0011227Y0026325D01*
X0011272Y0026466D01*
X0011320Y0026606D01*
X0011373Y0026745D01*
X0011429Y0026882D01*
X0011489Y0027017D01*
X0011552Y0027151D01*
X0011619Y0027283D01*
X0011690Y0027413D01*
X0011764Y0027541D01*
X0011841Y0027667D01*
X0011922Y0027791D01*
X0012006Y0027913D01*
X0012093Y0028032D01*
X0012184Y0028149D01*
X0012278Y0028264D01*
X0012374Y0028376D01*
X0012474Y0028486D01*
X0012576Y0028592D01*
X0012682Y0028696D01*
X0012790Y0028797D01*
X0012901Y0028895D01*
X0013014Y0028991D01*
X0013130Y0029083D01*
X0013248Y0029172D01*
X0013369Y0029257D01*
X0013492Y0029340D01*
X0013617Y0029419D01*
X0013744Y0029495D01*
X0013873Y0029567D01*
X0014004Y0029636D01*
X0014137Y0029701D01*
X0014272Y0029762D01*
X0014408Y0029820D01*
X0014545Y0029875D01*
X0014684Y0029925D01*
X0014825Y0029972D01*
X0014966Y0030015D01*
X0015109Y0030055D01*
X0015253Y0030090D01*
X0015397Y0030122D01*
X0015543Y0030149D01*
X0015689Y0030173D01*
X0015836Y0030193D01*
X0015983Y0030209D01*
X0016130Y0030221D01*
X0016278Y0030229D01*
X0016426Y0030233D01*
X0016574Y0030233D01*
X0016722Y0030229D01*
X0016870Y0030221D01*
X0017017Y0030209D01*
X0017164Y0030193D01*
X0017311Y0030173D01*
X0017457Y0030149D01*
X0017603Y0030122D01*
X0017747Y0030090D01*
X0017891Y0030055D01*
X0018034Y0030015D01*
X0018175Y0029972D01*
X0018316Y0029925D01*
X0018455Y0029875D01*
X0018592Y0029820D01*
X0018728Y0029762D01*
X0018863Y0029701D01*
X0018996Y0029636D01*
X0019127Y0029567D01*
X0019256Y0029495D01*
X0019383Y0029419D01*
X0019508Y0029340D01*
X0019631Y0029257D01*
X0019752Y0029172D01*
X0019870Y0029083D01*
X0019986Y0028991D01*
X0020099Y0028895D01*
X0020210Y0028797D01*
X0020318Y0028696D01*
X0020424Y0028592D01*
X0020526Y0028486D01*
X0020626Y0028376D01*
X0020722Y0028264D01*
X0020816Y0028149D01*
X0020907Y0028032D01*
X0020994Y0027913D01*
X0021078Y0027791D01*
X0021159Y0027667D01*
X0021236Y0027541D01*
X0021310Y0027413D01*
X0021381Y0027283D01*
X0021448Y0027151D01*
X0021511Y0027017D01*
X0021571Y0026882D01*
X0021627Y0026745D01*
X0021680Y0026606D01*
X0021728Y0026466D01*
X0021773Y0026325D01*
X0021814Y0026183D01*
X0021852Y0026040D01*
X0021885Y0025896D01*
X0021915Y0025751D01*
X0021941Y0025605D01*
X0021962Y0025459D01*
X0021980Y0025312D01*
X0021994Y0025165D01*
X0022004Y0025017D01*
X0022010Y0024869D01*
X0022012Y0024721D01*
X0022010Y0024573D01*
X0022004Y0024425D01*
X0021994Y0024277D01*
X0021980Y0024130D01*
X0021962Y0023983D01*
X0021941Y0023837D01*
X0021915Y0023691D01*
X0021885Y0023546D01*
X0021852Y0023402D01*
X0021814Y0023259D01*
X0021773Y0023117D01*
X0021728Y0022976D01*
X0021680Y0022836D01*
X0021627Y0022697D01*
X0021571Y0022560D01*
X0021511Y0022425D01*
X0021448Y0022291D01*
X0021381Y0022159D01*
X0021310Y0022029D01*
X0021236Y0021901D01*
X0021159Y0021775D01*
X0021078Y0021651D01*
X0020994Y0021529D01*
X0020907Y0021410D01*
X0020816Y0021293D01*
X0020722Y0021178D01*
X0020626Y0021066D01*
X0020526Y0020956D01*
X0020424Y0020850D01*
X0020318Y0020746D01*
X0020210Y0020645D01*
X0020099Y0020547D01*
X0019986Y0020451D01*
X0019870Y0020359D01*
X0019752Y0020270D01*
X0019631Y0020185D01*
X0019508Y0020102D01*
X0019383Y0020023D01*
X0019256Y0019947D01*
X0019127Y0019875D01*
X0018996Y0019806D01*
X0018863Y0019741D01*
X0018728Y0019680D01*
X0018592Y0019622D01*
X0018455Y0019567D01*
X0018316Y0019517D01*
X0018175Y0019470D01*
X0018034Y0019427D01*
X0017891Y0019387D01*
X0017747Y0019352D01*
X0017603Y0019320D01*
X0017457Y0019293D01*
X0017311Y0019269D01*
X0017164Y0019249D01*
X0017017Y0019233D01*
X0016870Y0019221D01*
X0016722Y0019213D01*
X0016574Y0019209D01*
X0016426Y0019209D01*
X0016278Y0019213D01*
X0016130Y0019221D01*
X0015983Y0019233D01*
X0015836Y0019249D01*
X0015689Y0019269D01*
X0015543Y0019293D01*
X0015397Y0019320D01*
X0015253Y0019352D01*
X0015109Y0019387D01*
X0014966Y0019427D01*
X0014825Y0019470D01*
X0014684Y0019517D01*
X0014545Y0019567D01*
X0014408Y0019622D01*
X0014272Y0019680D01*
X0014137Y0019741D01*
X0014004Y0019806D01*
X0013873Y0019875D01*
X0013744Y0019947D01*
X0013617Y0020023D01*
X0013492Y0020102D01*
X0013369Y0020185D01*
X0013248Y0020270D01*
X0013130Y0020359D01*
X0013014Y0020451D01*
X0012901Y0020547D01*
X0012790Y0020645D01*
X0012682Y0020746D01*
X0012576Y0020850D01*
X0012474Y0020956D01*
X0012374Y0021066D01*
X0012278Y0021178D01*
X0012184Y0021293D01*
X0012093Y0021410D01*
X0012006Y0021529D01*
X0011922Y0021651D01*
X0011841Y0021775D01*
X0011764Y0021901D01*
X0011690Y0022029D01*
X0011619Y0022159D01*
X0011552Y0022291D01*
X0011489Y0022425D01*
X0011429Y0022560D01*
X0011373Y0022697D01*
X0011320Y0022836D01*
X0011272Y0022976D01*
X0011227Y0023117D01*
X0011186Y0023259D01*
X0011148Y0023402D01*
X0011115Y0023546D01*
X0011085Y0023691D01*
X0011059Y0023837D01*
X0011038Y0023983D01*
X0011020Y0024130D01*
X0011006Y0024277D01*
X0010996Y0024425D01*
X0010990Y0024573D01*
X0010988Y0024721D01*
X0010988Y0334721D02*
X0010990Y0334869D01*
X0010996Y0335017D01*
X0011006Y0335165D01*
X0011020Y0335312D01*
X0011038Y0335459D01*
X0011059Y0335605D01*
X0011085Y0335751D01*
X0011115Y0335896D01*
X0011148Y0336040D01*
X0011186Y0336183D01*
X0011227Y0336325D01*
X0011272Y0336466D01*
X0011320Y0336606D01*
X0011373Y0336745D01*
X0011429Y0336882D01*
X0011489Y0337017D01*
X0011552Y0337151D01*
X0011619Y0337283D01*
X0011690Y0337413D01*
X0011764Y0337541D01*
X0011841Y0337667D01*
X0011922Y0337791D01*
X0012006Y0337913D01*
X0012093Y0338032D01*
X0012184Y0338149D01*
X0012278Y0338264D01*
X0012374Y0338376D01*
X0012474Y0338486D01*
X0012576Y0338592D01*
X0012682Y0338696D01*
X0012790Y0338797D01*
X0012901Y0338895D01*
X0013014Y0338991D01*
X0013130Y0339083D01*
X0013248Y0339172D01*
X0013369Y0339257D01*
X0013492Y0339340D01*
X0013617Y0339419D01*
X0013744Y0339495D01*
X0013873Y0339567D01*
X0014004Y0339636D01*
X0014137Y0339701D01*
X0014272Y0339762D01*
X0014408Y0339820D01*
X0014545Y0339875D01*
X0014684Y0339925D01*
X0014825Y0339972D01*
X0014966Y0340015D01*
X0015109Y0340055D01*
X0015253Y0340090D01*
X0015397Y0340122D01*
X0015543Y0340149D01*
X0015689Y0340173D01*
X0015836Y0340193D01*
X0015983Y0340209D01*
X0016130Y0340221D01*
X0016278Y0340229D01*
X0016426Y0340233D01*
X0016574Y0340233D01*
X0016722Y0340229D01*
X0016870Y0340221D01*
X0017017Y0340209D01*
X0017164Y0340193D01*
X0017311Y0340173D01*
X0017457Y0340149D01*
X0017603Y0340122D01*
X0017747Y0340090D01*
X0017891Y0340055D01*
X0018034Y0340015D01*
X0018175Y0339972D01*
X0018316Y0339925D01*
X0018455Y0339875D01*
X0018592Y0339820D01*
X0018728Y0339762D01*
X0018863Y0339701D01*
X0018996Y0339636D01*
X0019127Y0339567D01*
X0019256Y0339495D01*
X0019383Y0339419D01*
X0019508Y0339340D01*
X0019631Y0339257D01*
X0019752Y0339172D01*
X0019870Y0339083D01*
X0019986Y0338991D01*
X0020099Y0338895D01*
X0020210Y0338797D01*
X0020318Y0338696D01*
X0020424Y0338592D01*
X0020526Y0338486D01*
X0020626Y0338376D01*
X0020722Y0338264D01*
X0020816Y0338149D01*
X0020907Y0338032D01*
X0020994Y0337913D01*
X0021078Y0337791D01*
X0021159Y0337667D01*
X0021236Y0337541D01*
X0021310Y0337413D01*
X0021381Y0337283D01*
X0021448Y0337151D01*
X0021511Y0337017D01*
X0021571Y0336882D01*
X0021627Y0336745D01*
X0021680Y0336606D01*
X0021728Y0336466D01*
X0021773Y0336325D01*
X0021814Y0336183D01*
X0021852Y0336040D01*
X0021885Y0335896D01*
X0021915Y0335751D01*
X0021941Y0335605D01*
X0021962Y0335459D01*
X0021980Y0335312D01*
X0021994Y0335165D01*
X0022004Y0335017D01*
X0022010Y0334869D01*
X0022012Y0334721D01*
X0022010Y0334573D01*
X0022004Y0334425D01*
X0021994Y0334277D01*
X0021980Y0334130D01*
X0021962Y0333983D01*
X0021941Y0333837D01*
X0021915Y0333691D01*
X0021885Y0333546D01*
X0021852Y0333402D01*
X0021814Y0333259D01*
X0021773Y0333117D01*
X0021728Y0332976D01*
X0021680Y0332836D01*
X0021627Y0332697D01*
X0021571Y0332560D01*
X0021511Y0332425D01*
X0021448Y0332291D01*
X0021381Y0332159D01*
X0021310Y0332029D01*
X0021236Y0331901D01*
X0021159Y0331775D01*
X0021078Y0331651D01*
X0020994Y0331529D01*
X0020907Y0331410D01*
X0020816Y0331293D01*
X0020722Y0331178D01*
X0020626Y0331066D01*
X0020526Y0330956D01*
X0020424Y0330850D01*
X0020318Y0330746D01*
X0020210Y0330645D01*
X0020099Y0330547D01*
X0019986Y0330451D01*
X0019870Y0330359D01*
X0019752Y0330270D01*
X0019631Y0330185D01*
X0019508Y0330102D01*
X0019383Y0330023D01*
X0019256Y0329947D01*
X0019127Y0329875D01*
X0018996Y0329806D01*
X0018863Y0329741D01*
X0018728Y0329680D01*
X0018592Y0329622D01*
X0018455Y0329567D01*
X0018316Y0329517D01*
X0018175Y0329470D01*
X0018034Y0329427D01*
X0017891Y0329387D01*
X0017747Y0329352D01*
X0017603Y0329320D01*
X0017457Y0329293D01*
X0017311Y0329269D01*
X0017164Y0329249D01*
X0017017Y0329233D01*
X0016870Y0329221D01*
X0016722Y0329213D01*
X0016574Y0329209D01*
X0016426Y0329209D01*
X0016278Y0329213D01*
X0016130Y0329221D01*
X0015983Y0329233D01*
X0015836Y0329249D01*
X0015689Y0329269D01*
X0015543Y0329293D01*
X0015397Y0329320D01*
X0015253Y0329352D01*
X0015109Y0329387D01*
X0014966Y0329427D01*
X0014825Y0329470D01*
X0014684Y0329517D01*
X0014545Y0329567D01*
X0014408Y0329622D01*
X0014272Y0329680D01*
X0014137Y0329741D01*
X0014004Y0329806D01*
X0013873Y0329875D01*
X0013744Y0329947D01*
X0013617Y0330023D01*
X0013492Y0330102D01*
X0013369Y0330185D01*
X0013248Y0330270D01*
X0013130Y0330359D01*
X0013014Y0330451D01*
X0012901Y0330547D01*
X0012790Y0330645D01*
X0012682Y0330746D01*
X0012576Y0330850D01*
X0012474Y0330956D01*
X0012374Y0331066D01*
X0012278Y0331178D01*
X0012184Y0331293D01*
X0012093Y0331410D01*
X0012006Y0331529D01*
X0011922Y0331651D01*
X0011841Y0331775D01*
X0011764Y0331901D01*
X0011690Y0332029D01*
X0011619Y0332159D01*
X0011552Y0332291D01*
X0011489Y0332425D01*
X0011429Y0332560D01*
X0011373Y0332697D01*
X0011320Y0332836D01*
X0011272Y0332976D01*
X0011227Y0333117D01*
X0011186Y0333259D01*
X0011148Y0333402D01*
X0011115Y0333546D01*
X0011085Y0333691D01*
X0011059Y0333837D01*
X0011038Y0333983D01*
X0011020Y0334130D01*
X0011006Y0334277D01*
X0010996Y0334425D01*
X0010990Y0334573D01*
X0010988Y0334721D01*
X0380988Y0334721D02*
X0380990Y0334869D01*
X0380996Y0335017D01*
X0381006Y0335165D01*
X0381020Y0335312D01*
X0381038Y0335459D01*
X0381059Y0335605D01*
X0381085Y0335751D01*
X0381115Y0335896D01*
X0381148Y0336040D01*
X0381186Y0336183D01*
X0381227Y0336325D01*
X0381272Y0336466D01*
X0381320Y0336606D01*
X0381373Y0336745D01*
X0381429Y0336882D01*
X0381489Y0337017D01*
X0381552Y0337151D01*
X0381619Y0337283D01*
X0381690Y0337413D01*
X0381764Y0337541D01*
X0381841Y0337667D01*
X0381922Y0337791D01*
X0382006Y0337913D01*
X0382093Y0338032D01*
X0382184Y0338149D01*
X0382278Y0338264D01*
X0382374Y0338376D01*
X0382474Y0338486D01*
X0382576Y0338592D01*
X0382682Y0338696D01*
X0382790Y0338797D01*
X0382901Y0338895D01*
X0383014Y0338991D01*
X0383130Y0339083D01*
X0383248Y0339172D01*
X0383369Y0339257D01*
X0383492Y0339340D01*
X0383617Y0339419D01*
X0383744Y0339495D01*
X0383873Y0339567D01*
X0384004Y0339636D01*
X0384137Y0339701D01*
X0384272Y0339762D01*
X0384408Y0339820D01*
X0384545Y0339875D01*
X0384684Y0339925D01*
X0384825Y0339972D01*
X0384966Y0340015D01*
X0385109Y0340055D01*
X0385253Y0340090D01*
X0385397Y0340122D01*
X0385543Y0340149D01*
X0385689Y0340173D01*
X0385836Y0340193D01*
X0385983Y0340209D01*
X0386130Y0340221D01*
X0386278Y0340229D01*
X0386426Y0340233D01*
X0386574Y0340233D01*
X0386722Y0340229D01*
X0386870Y0340221D01*
X0387017Y0340209D01*
X0387164Y0340193D01*
X0387311Y0340173D01*
X0387457Y0340149D01*
X0387603Y0340122D01*
X0387747Y0340090D01*
X0387891Y0340055D01*
X0388034Y0340015D01*
X0388175Y0339972D01*
X0388316Y0339925D01*
X0388455Y0339875D01*
X0388592Y0339820D01*
X0388728Y0339762D01*
X0388863Y0339701D01*
X0388996Y0339636D01*
X0389127Y0339567D01*
X0389256Y0339495D01*
X0389383Y0339419D01*
X0389508Y0339340D01*
X0389631Y0339257D01*
X0389752Y0339172D01*
X0389870Y0339083D01*
X0389986Y0338991D01*
X0390099Y0338895D01*
X0390210Y0338797D01*
X0390318Y0338696D01*
X0390424Y0338592D01*
X0390526Y0338486D01*
X0390626Y0338376D01*
X0390722Y0338264D01*
X0390816Y0338149D01*
X0390907Y0338032D01*
X0390994Y0337913D01*
X0391078Y0337791D01*
X0391159Y0337667D01*
X0391236Y0337541D01*
X0391310Y0337413D01*
X0391381Y0337283D01*
X0391448Y0337151D01*
X0391511Y0337017D01*
X0391571Y0336882D01*
X0391627Y0336745D01*
X0391680Y0336606D01*
X0391728Y0336466D01*
X0391773Y0336325D01*
X0391814Y0336183D01*
X0391852Y0336040D01*
X0391885Y0335896D01*
X0391915Y0335751D01*
X0391941Y0335605D01*
X0391962Y0335459D01*
X0391980Y0335312D01*
X0391994Y0335165D01*
X0392004Y0335017D01*
X0392010Y0334869D01*
X0392012Y0334721D01*
X0392010Y0334573D01*
X0392004Y0334425D01*
X0391994Y0334277D01*
X0391980Y0334130D01*
X0391962Y0333983D01*
X0391941Y0333837D01*
X0391915Y0333691D01*
X0391885Y0333546D01*
X0391852Y0333402D01*
X0391814Y0333259D01*
X0391773Y0333117D01*
X0391728Y0332976D01*
X0391680Y0332836D01*
X0391627Y0332697D01*
X0391571Y0332560D01*
X0391511Y0332425D01*
X0391448Y0332291D01*
X0391381Y0332159D01*
X0391310Y0332029D01*
X0391236Y0331901D01*
X0391159Y0331775D01*
X0391078Y0331651D01*
X0390994Y0331529D01*
X0390907Y0331410D01*
X0390816Y0331293D01*
X0390722Y0331178D01*
X0390626Y0331066D01*
X0390526Y0330956D01*
X0390424Y0330850D01*
X0390318Y0330746D01*
X0390210Y0330645D01*
X0390099Y0330547D01*
X0389986Y0330451D01*
X0389870Y0330359D01*
X0389752Y0330270D01*
X0389631Y0330185D01*
X0389508Y0330102D01*
X0389383Y0330023D01*
X0389256Y0329947D01*
X0389127Y0329875D01*
X0388996Y0329806D01*
X0388863Y0329741D01*
X0388728Y0329680D01*
X0388592Y0329622D01*
X0388455Y0329567D01*
X0388316Y0329517D01*
X0388175Y0329470D01*
X0388034Y0329427D01*
X0387891Y0329387D01*
X0387747Y0329352D01*
X0387603Y0329320D01*
X0387457Y0329293D01*
X0387311Y0329269D01*
X0387164Y0329249D01*
X0387017Y0329233D01*
X0386870Y0329221D01*
X0386722Y0329213D01*
X0386574Y0329209D01*
X0386426Y0329209D01*
X0386278Y0329213D01*
X0386130Y0329221D01*
X0385983Y0329233D01*
X0385836Y0329249D01*
X0385689Y0329269D01*
X0385543Y0329293D01*
X0385397Y0329320D01*
X0385253Y0329352D01*
X0385109Y0329387D01*
X0384966Y0329427D01*
X0384825Y0329470D01*
X0384684Y0329517D01*
X0384545Y0329567D01*
X0384408Y0329622D01*
X0384272Y0329680D01*
X0384137Y0329741D01*
X0384004Y0329806D01*
X0383873Y0329875D01*
X0383744Y0329947D01*
X0383617Y0330023D01*
X0383492Y0330102D01*
X0383369Y0330185D01*
X0383248Y0330270D01*
X0383130Y0330359D01*
X0383014Y0330451D01*
X0382901Y0330547D01*
X0382790Y0330645D01*
X0382682Y0330746D01*
X0382576Y0330850D01*
X0382474Y0330956D01*
X0382374Y0331066D01*
X0382278Y0331178D01*
X0382184Y0331293D01*
X0382093Y0331410D01*
X0382006Y0331529D01*
X0381922Y0331651D01*
X0381841Y0331775D01*
X0381764Y0331901D01*
X0381690Y0332029D01*
X0381619Y0332159D01*
X0381552Y0332291D01*
X0381489Y0332425D01*
X0381429Y0332560D01*
X0381373Y0332697D01*
X0381320Y0332836D01*
X0381272Y0332976D01*
X0381227Y0333117D01*
X0381186Y0333259D01*
X0381148Y0333402D01*
X0381115Y0333546D01*
X0381085Y0333691D01*
X0381059Y0333837D01*
X0381038Y0333983D01*
X0381020Y0334130D01*
X0381006Y0334277D01*
X0380996Y0334425D01*
X0380990Y0334573D01*
X0380988Y0334721D01*
X0380988Y0024721D02*
X0380990Y0024869D01*
X0380996Y0025017D01*
X0381006Y0025165D01*
X0381020Y0025312D01*
X0381038Y0025459D01*
X0381059Y0025605D01*
X0381085Y0025751D01*
X0381115Y0025896D01*
X0381148Y0026040D01*
X0381186Y0026183D01*
X0381227Y0026325D01*
X0381272Y0026466D01*
X0381320Y0026606D01*
X0381373Y0026745D01*
X0381429Y0026882D01*
X0381489Y0027017D01*
X0381552Y0027151D01*
X0381619Y0027283D01*
X0381690Y0027413D01*
X0381764Y0027541D01*
X0381841Y0027667D01*
X0381922Y0027791D01*
X0382006Y0027913D01*
X0382093Y0028032D01*
X0382184Y0028149D01*
X0382278Y0028264D01*
X0382374Y0028376D01*
X0382474Y0028486D01*
X0382576Y0028592D01*
X0382682Y0028696D01*
X0382790Y0028797D01*
X0382901Y0028895D01*
X0383014Y0028991D01*
X0383130Y0029083D01*
X0383248Y0029172D01*
X0383369Y0029257D01*
X0383492Y0029340D01*
X0383617Y0029419D01*
X0383744Y0029495D01*
X0383873Y0029567D01*
X0384004Y0029636D01*
X0384137Y0029701D01*
X0384272Y0029762D01*
X0384408Y0029820D01*
X0384545Y0029875D01*
X0384684Y0029925D01*
X0384825Y0029972D01*
X0384966Y0030015D01*
X0385109Y0030055D01*
X0385253Y0030090D01*
X0385397Y0030122D01*
X0385543Y0030149D01*
X0385689Y0030173D01*
X0385836Y0030193D01*
X0385983Y0030209D01*
X0386130Y0030221D01*
X0386278Y0030229D01*
X0386426Y0030233D01*
X0386574Y0030233D01*
X0386722Y0030229D01*
X0386870Y0030221D01*
X0387017Y0030209D01*
X0387164Y0030193D01*
X0387311Y0030173D01*
X0387457Y0030149D01*
X0387603Y0030122D01*
X0387747Y0030090D01*
X0387891Y0030055D01*
X0388034Y0030015D01*
X0388175Y0029972D01*
X0388316Y0029925D01*
X0388455Y0029875D01*
X0388592Y0029820D01*
X0388728Y0029762D01*
X0388863Y0029701D01*
X0388996Y0029636D01*
X0389127Y0029567D01*
X0389256Y0029495D01*
X0389383Y0029419D01*
X0389508Y0029340D01*
X0389631Y0029257D01*
X0389752Y0029172D01*
X0389870Y0029083D01*
X0389986Y0028991D01*
X0390099Y0028895D01*
X0390210Y0028797D01*
X0390318Y0028696D01*
X0390424Y0028592D01*
X0390526Y0028486D01*
X0390626Y0028376D01*
X0390722Y0028264D01*
X0390816Y0028149D01*
X0390907Y0028032D01*
X0390994Y0027913D01*
X0391078Y0027791D01*
X0391159Y0027667D01*
X0391236Y0027541D01*
X0391310Y0027413D01*
X0391381Y0027283D01*
X0391448Y0027151D01*
X0391511Y0027017D01*
X0391571Y0026882D01*
X0391627Y0026745D01*
X0391680Y0026606D01*
X0391728Y0026466D01*
X0391773Y0026325D01*
X0391814Y0026183D01*
X0391852Y0026040D01*
X0391885Y0025896D01*
X0391915Y0025751D01*
X0391941Y0025605D01*
X0391962Y0025459D01*
X0391980Y0025312D01*
X0391994Y0025165D01*
X0392004Y0025017D01*
X0392010Y0024869D01*
X0392012Y0024721D01*
X0392010Y0024573D01*
X0392004Y0024425D01*
X0391994Y0024277D01*
X0391980Y0024130D01*
X0391962Y0023983D01*
X0391941Y0023837D01*
X0391915Y0023691D01*
X0391885Y0023546D01*
X0391852Y0023402D01*
X0391814Y0023259D01*
X0391773Y0023117D01*
X0391728Y0022976D01*
X0391680Y0022836D01*
X0391627Y0022697D01*
X0391571Y0022560D01*
X0391511Y0022425D01*
X0391448Y0022291D01*
X0391381Y0022159D01*
X0391310Y0022029D01*
X0391236Y0021901D01*
X0391159Y0021775D01*
X0391078Y0021651D01*
X0390994Y0021529D01*
X0390907Y0021410D01*
X0390816Y0021293D01*
X0390722Y0021178D01*
X0390626Y0021066D01*
X0390526Y0020956D01*
X0390424Y0020850D01*
X0390318Y0020746D01*
X0390210Y0020645D01*
X0390099Y0020547D01*
X0389986Y0020451D01*
X0389870Y0020359D01*
X0389752Y0020270D01*
X0389631Y0020185D01*
X0389508Y0020102D01*
X0389383Y0020023D01*
X0389256Y0019947D01*
X0389127Y0019875D01*
X0388996Y0019806D01*
X0388863Y0019741D01*
X0388728Y0019680D01*
X0388592Y0019622D01*
X0388455Y0019567D01*
X0388316Y0019517D01*
X0388175Y0019470D01*
X0388034Y0019427D01*
X0387891Y0019387D01*
X0387747Y0019352D01*
X0387603Y0019320D01*
X0387457Y0019293D01*
X0387311Y0019269D01*
X0387164Y0019249D01*
X0387017Y0019233D01*
X0386870Y0019221D01*
X0386722Y0019213D01*
X0386574Y0019209D01*
X0386426Y0019209D01*
X0386278Y0019213D01*
X0386130Y0019221D01*
X0385983Y0019233D01*
X0385836Y0019249D01*
X0385689Y0019269D01*
X0385543Y0019293D01*
X0385397Y0019320D01*
X0385253Y0019352D01*
X0385109Y0019387D01*
X0384966Y0019427D01*
X0384825Y0019470D01*
X0384684Y0019517D01*
X0384545Y0019567D01*
X0384408Y0019622D01*
X0384272Y0019680D01*
X0384137Y0019741D01*
X0384004Y0019806D01*
X0383873Y0019875D01*
X0383744Y0019947D01*
X0383617Y0020023D01*
X0383492Y0020102D01*
X0383369Y0020185D01*
X0383248Y0020270D01*
X0383130Y0020359D01*
X0383014Y0020451D01*
X0382901Y0020547D01*
X0382790Y0020645D01*
X0382682Y0020746D01*
X0382576Y0020850D01*
X0382474Y0020956D01*
X0382374Y0021066D01*
X0382278Y0021178D01*
X0382184Y0021293D01*
X0382093Y0021410D01*
X0382006Y0021529D01*
X0381922Y0021651D01*
X0381841Y0021775D01*
X0381764Y0021901D01*
X0381690Y0022029D01*
X0381619Y0022159D01*
X0381552Y0022291D01*
X0381489Y0022425D01*
X0381429Y0022560D01*
X0381373Y0022697D01*
X0381320Y0022836D01*
X0381272Y0022976D01*
X0381227Y0023117D01*
X0381186Y0023259D01*
X0381148Y0023402D01*
X0381115Y0023546D01*
X0381085Y0023691D01*
X0381059Y0023837D01*
X0381038Y0023983D01*
X0381020Y0024130D01*
X0381006Y0024277D01*
X0380996Y0024425D01*
X0380990Y0024573D01*
X0380988Y0024721D01*
D11*
X0386500Y0024721D03*
X0386500Y0334721D03*
X0016500Y0334721D03*
X0016500Y0024721D03*
D12*
X0036500Y0032121D02*
X0036500Y0037321D01*
X0046500Y0037321D02*
X0046500Y0032121D01*
X0056500Y0032121D02*
X0056500Y0037321D01*
X0066500Y0037321D02*
X0066500Y0032121D01*
X0076500Y0032121D02*
X0076500Y0037321D01*
X0086500Y0037321D02*
X0086500Y0032121D01*
X0096500Y0032121D02*
X0096500Y0037321D01*
X0096500Y0062121D02*
X0096500Y0067321D01*
X0096500Y0077121D02*
X0096500Y0082321D01*
X0086500Y0082321D02*
X0086500Y0077121D01*
X0086500Y0067321D02*
X0086500Y0062121D01*
X0076500Y0062121D02*
X0076500Y0067321D01*
X0076500Y0077121D02*
X0076500Y0082321D01*
X0066500Y0082321D02*
X0066500Y0077121D01*
X0066500Y0067321D02*
X0066500Y0062121D01*
X0056500Y0062121D02*
X0056500Y0067321D01*
X0056500Y0077121D02*
X0056500Y0082321D01*
X0046500Y0082321D02*
X0046500Y0077121D01*
X0046500Y0067321D02*
X0046500Y0062121D01*
X0036500Y0062121D02*
X0036500Y0067321D01*
X0036500Y0077121D02*
X0036500Y0082321D01*
X0036500Y0107121D02*
X0036500Y0112321D01*
X0046500Y0112321D02*
X0046500Y0107121D01*
X0056500Y0107121D02*
X0056500Y0112321D01*
X0066500Y0112321D02*
X0066500Y0107121D01*
X0076500Y0107121D02*
X0076500Y0112321D01*
X0086500Y0112321D02*
X0086500Y0107121D01*
X0096500Y0107121D02*
X0096500Y0112321D01*
X0103900Y0124721D02*
X0109100Y0124721D01*
X0109100Y0134721D02*
X0103900Y0134721D01*
X0103900Y0144721D02*
X0109100Y0144721D01*
X0109100Y0154721D02*
X0103900Y0154721D01*
X0103900Y0164721D02*
X0109100Y0164721D01*
X0109100Y0174721D02*
X0103900Y0174721D01*
X0103900Y0184721D02*
X0109100Y0184721D01*
X0109100Y0194721D02*
X0103900Y0194721D01*
X0103900Y0204721D02*
X0109100Y0204721D01*
X0109100Y0214721D02*
X0103900Y0214721D01*
X0103900Y0224721D02*
X0109100Y0224721D01*
X0109100Y0234721D02*
X0103900Y0234721D01*
X0103900Y0244721D02*
X0109100Y0244721D01*
X0109100Y0254721D02*
X0103900Y0254721D01*
X0103900Y0264721D02*
X0109100Y0264721D01*
X0109100Y0274721D02*
X0103900Y0274721D01*
X0103900Y0284721D02*
X0109100Y0284721D01*
X0109100Y0294721D02*
X0103900Y0294721D01*
X0103900Y0304721D02*
X0109100Y0304721D01*
X0109100Y0314721D02*
X0103900Y0314721D01*
X0123900Y0304721D02*
X0129100Y0304721D01*
X0129100Y0294721D02*
X0123900Y0294721D01*
X0123900Y0284721D02*
X0129100Y0284721D01*
X0129100Y0274721D02*
X0123900Y0274721D01*
X0123900Y0264721D02*
X0129100Y0264721D01*
X0129100Y0254721D02*
X0123900Y0254721D01*
X0123900Y0244721D02*
X0129100Y0244721D01*
X0129100Y0234721D02*
X0123900Y0234721D01*
X0123900Y0224721D02*
X0129100Y0224721D01*
X0129100Y0214721D02*
X0123900Y0214721D01*
X0123900Y0204721D02*
X0129100Y0204721D01*
X0129100Y0194721D02*
X0123900Y0194721D01*
X0123900Y0184721D02*
X0129100Y0184721D01*
X0129100Y0174721D02*
X0123900Y0174721D01*
X0123900Y0162221D02*
X0129100Y0162221D01*
X0129100Y0152221D02*
X0123900Y0152221D01*
X0123900Y0142221D02*
X0129100Y0142221D01*
X0129100Y0132221D02*
X0123900Y0132221D01*
X0123900Y0122221D02*
X0129100Y0122221D01*
X0129100Y0112221D02*
X0123900Y0112221D01*
X0158900Y0117221D02*
X0164100Y0117221D01*
X0164100Y0127221D02*
X0158900Y0127221D01*
X0158900Y0137221D02*
X0164100Y0137221D01*
X0164100Y0147221D02*
X0158900Y0147221D01*
X0188900Y0147221D02*
X0194100Y0147221D01*
X0194100Y0137221D02*
X0188900Y0137221D01*
X0188900Y0127221D02*
X0194100Y0127221D01*
X0203900Y0129721D02*
X0209100Y0129721D01*
X0209100Y0119721D02*
X0203900Y0119721D01*
X0194100Y0117221D02*
X0188900Y0117221D01*
X0188900Y0107221D02*
X0194100Y0107221D01*
X0203900Y0109721D02*
X0209100Y0109721D01*
X0209100Y0099721D02*
X0203900Y0099721D01*
X0194100Y0097221D02*
X0188900Y0097221D01*
X0188900Y0087221D02*
X0194100Y0087221D01*
X0194100Y0077221D02*
X0188900Y0077221D01*
X0203900Y0079721D02*
X0209100Y0079721D01*
X0209100Y0089721D02*
X0203900Y0089721D01*
X0203900Y0069721D02*
X0209100Y0069721D01*
X0209100Y0059721D02*
X0203900Y0059721D01*
X0203900Y0049721D02*
X0209100Y0049721D01*
X0209100Y0039721D02*
X0203900Y0039721D01*
X0203900Y0029721D02*
X0209100Y0029721D01*
X0209100Y0019721D02*
X0203900Y0019721D01*
X0263900Y0019721D02*
X0269100Y0019721D01*
X0269100Y0029721D02*
X0263900Y0029721D01*
X0263900Y0039721D02*
X0269100Y0039721D01*
X0269100Y0049721D02*
X0263900Y0049721D01*
X0263900Y0059721D02*
X0269100Y0059721D01*
X0269100Y0069721D02*
X0263900Y0069721D01*
X0263900Y0079721D02*
X0269100Y0079721D01*
X0269100Y0089721D02*
X0263900Y0089721D01*
X0263900Y0099721D02*
X0269100Y0099721D01*
X0269100Y0109721D02*
X0263900Y0109721D01*
X0263900Y0119721D02*
X0269100Y0119721D01*
X0269100Y0129721D02*
X0263900Y0129721D01*
X0263900Y0139721D02*
X0269100Y0139721D01*
X0269100Y0149721D02*
X0263900Y0149721D01*
X0278900Y0154721D02*
X0284100Y0154721D01*
X0293900Y0154721D02*
X0299100Y0154721D01*
X0299100Y0164721D02*
X0293900Y0164721D01*
X0284100Y0164721D02*
X0278900Y0164721D01*
X0278900Y0174721D02*
X0284100Y0174721D01*
X0293900Y0174721D02*
X0299100Y0174721D01*
X0299100Y0184721D02*
X0293900Y0184721D01*
X0284100Y0184721D02*
X0278900Y0184721D01*
X0269100Y0184721D02*
X0263900Y0184721D01*
X0263900Y0194721D02*
X0269100Y0194721D01*
X0278900Y0194721D02*
X0284100Y0194721D01*
X0293900Y0194721D02*
X0299100Y0194721D01*
X0299100Y0204721D02*
X0293900Y0204721D01*
X0284100Y0204721D02*
X0278900Y0204721D01*
X0269100Y0204721D02*
X0263900Y0204721D01*
X0263900Y0214721D02*
X0269100Y0214721D01*
X0278900Y0214721D02*
X0284100Y0214721D01*
X0293900Y0214721D02*
X0299100Y0214721D01*
X0299100Y0224721D02*
X0293900Y0224721D01*
X0293900Y0234721D02*
X0299100Y0234721D01*
X0299100Y0244721D02*
X0293900Y0244721D01*
X0293900Y0254721D02*
X0299100Y0254721D01*
X0299100Y0264721D02*
X0293900Y0264721D01*
X0293900Y0274721D02*
X0299100Y0274721D01*
X0299100Y0284721D02*
X0293900Y0284721D01*
X0293900Y0294721D02*
X0299100Y0294721D01*
X0299100Y0304721D02*
X0293900Y0304721D01*
X0293900Y0314721D02*
X0299100Y0314721D01*
X0269100Y0304721D02*
X0263900Y0304721D01*
X0263900Y0294721D02*
X0269100Y0294721D01*
X0269100Y0284721D02*
X0263900Y0284721D01*
X0263900Y0274721D02*
X0269100Y0274721D01*
X0269100Y0264721D02*
X0263900Y0264721D01*
X0263900Y0254721D02*
X0269100Y0254721D01*
X0269100Y0244721D02*
X0263900Y0244721D01*
X0263900Y0234721D02*
X0269100Y0234721D01*
X0269100Y0224721D02*
X0263900Y0224721D01*
X0209100Y0224721D02*
X0203900Y0224721D01*
X0203900Y0234721D02*
X0209100Y0234721D01*
X0209100Y0244721D02*
X0203900Y0244721D01*
X0203900Y0254721D02*
X0209100Y0254721D01*
X0209100Y0264721D02*
X0203900Y0264721D01*
X0203900Y0274721D02*
X0209100Y0274721D01*
X0209100Y0284721D02*
X0203900Y0284721D01*
X0203900Y0294721D02*
X0209100Y0294721D01*
X0209100Y0304721D02*
X0203900Y0304721D01*
X0189100Y0304721D02*
X0183900Y0304721D01*
X0183900Y0294721D02*
X0189100Y0294721D01*
X0189100Y0284721D02*
X0183900Y0284721D01*
X0183900Y0274721D02*
X0189100Y0274721D01*
X0189100Y0264721D02*
X0183900Y0264721D01*
X0183900Y0254721D02*
X0189100Y0254721D01*
X0189100Y0244721D02*
X0183900Y0244721D01*
X0183900Y0234721D02*
X0189100Y0234721D01*
X0189100Y0224721D02*
X0183900Y0224721D01*
X0183900Y0214721D02*
X0189100Y0214721D01*
X0189100Y0204721D02*
X0183900Y0204721D01*
X0183900Y0194721D02*
X0189100Y0194721D01*
X0189100Y0184721D02*
X0183900Y0184721D01*
X0183900Y0174721D02*
X0189100Y0174721D01*
X0203900Y0174721D02*
X0209100Y0174721D01*
X0209100Y0184721D02*
X0203900Y0184721D01*
X0203900Y0194721D02*
X0209100Y0194721D01*
X0209100Y0204721D02*
X0203900Y0204721D01*
X0203900Y0214721D02*
X0209100Y0214721D01*
X0263900Y0174721D02*
X0269100Y0174721D01*
X0278900Y0144721D02*
X0284100Y0144721D01*
X0293900Y0144721D02*
X0299100Y0144721D01*
X0299100Y0134721D02*
X0293900Y0134721D01*
X0284100Y0134721D02*
X0278900Y0134721D01*
X0293900Y0124721D02*
X0299100Y0124721D01*
X0353900Y0124721D02*
X0359100Y0124721D01*
X0359100Y0134721D02*
X0353900Y0134721D01*
X0353900Y0144721D02*
X0359100Y0144721D01*
X0359100Y0154721D02*
X0353900Y0154721D01*
X0353900Y0164721D02*
X0359100Y0164721D01*
X0359100Y0174721D02*
X0353900Y0174721D01*
X0353900Y0184721D02*
X0359100Y0184721D01*
X0359100Y0194721D02*
X0353900Y0194721D01*
X0353900Y0204721D02*
X0359100Y0204721D01*
X0359100Y0214721D02*
X0353900Y0214721D01*
X0353900Y0224721D02*
X0359100Y0224721D01*
X0359100Y0234721D02*
X0353900Y0234721D01*
X0353900Y0244721D02*
X0359100Y0244721D01*
X0359100Y0254721D02*
X0353900Y0254721D01*
X0353900Y0264721D02*
X0359100Y0264721D01*
X0359100Y0274721D02*
X0353900Y0274721D01*
X0353900Y0284721D02*
X0359100Y0284721D01*
X0359100Y0294721D02*
X0353900Y0294721D01*
X0353900Y0304721D02*
X0359100Y0304721D01*
X0359100Y0314721D02*
X0353900Y0314721D01*
X0209100Y0149721D02*
X0203900Y0149721D01*
X0203900Y0139721D02*
X0209100Y0139721D01*
X0164100Y0107221D02*
X0158900Y0107221D01*
X0158900Y0097221D02*
X0164100Y0097221D01*
X0164100Y0087221D02*
X0158900Y0087221D01*
X0158900Y0077221D02*
X0164100Y0077221D01*
X0049100Y0124721D02*
X0043900Y0124721D01*
X0043900Y0134721D02*
X0049100Y0134721D01*
X0049100Y0144721D02*
X0043900Y0144721D01*
X0043900Y0154721D02*
X0049100Y0154721D01*
X0049100Y0164721D02*
X0043900Y0164721D01*
X0043900Y0174721D02*
X0049100Y0174721D01*
X0049100Y0184721D02*
X0043900Y0184721D01*
X0043900Y0194721D02*
X0049100Y0194721D01*
X0049100Y0204721D02*
X0043900Y0204721D01*
X0043900Y0214721D02*
X0049100Y0214721D01*
X0049100Y0224721D02*
X0043900Y0224721D01*
X0043900Y0234721D02*
X0049100Y0234721D01*
X0049100Y0244721D02*
X0043900Y0244721D01*
X0043900Y0254721D02*
X0049100Y0254721D01*
X0049100Y0264721D02*
X0043900Y0264721D01*
X0043900Y0274721D02*
X0049100Y0274721D01*
X0049100Y0284721D02*
X0043900Y0284721D01*
X0043900Y0294721D02*
X0049100Y0294721D01*
X0049100Y0304721D02*
X0043900Y0304721D01*
X0043900Y0314721D02*
X0049100Y0314721D01*
D13*
X0026500Y0314721D03*
X0386500Y0314721D03*
D14*
X0376500Y0314721D03*
X0376500Y0304721D03*
X0386500Y0304721D03*
X0386500Y0294721D03*
X0376500Y0294721D03*
X0376500Y0284721D03*
X0386500Y0284721D03*
X0386500Y0274721D03*
X0376500Y0274721D03*
X0376500Y0264721D03*
X0386500Y0264721D03*
X0386500Y0254721D03*
X0376500Y0254721D03*
X0376500Y0244721D03*
X0386500Y0244721D03*
X0386500Y0234721D03*
X0376500Y0234721D03*
X0376500Y0224721D03*
X0386500Y0224721D03*
X0386500Y0214721D03*
X0376500Y0214721D03*
X0376500Y0204721D03*
X0386500Y0204721D03*
X0386500Y0194721D03*
X0376500Y0194721D03*
X0376500Y0184721D03*
X0386500Y0184721D03*
X0386500Y0174721D03*
X0376500Y0174721D03*
X0376500Y0164721D03*
X0386500Y0164721D03*
X0386500Y0154721D03*
X0376500Y0154721D03*
X0376500Y0144721D03*
X0386500Y0144721D03*
X0386500Y0134721D03*
X0376500Y0134721D03*
X0376500Y0124721D03*
X0386500Y0124721D03*
X0026500Y0124721D03*
X0016500Y0124721D03*
X0016500Y0134721D03*
X0026500Y0134721D03*
X0026500Y0144721D03*
X0016500Y0144721D03*
X0016500Y0154721D03*
X0016500Y0164721D03*
X0026500Y0164721D03*
X0026500Y0154721D03*
X0026500Y0174721D03*
X0016500Y0174721D03*
X0016500Y0184721D03*
X0026500Y0184721D03*
X0026500Y0194721D03*
X0016500Y0194721D03*
X0016500Y0204721D03*
X0026500Y0204721D03*
X0026500Y0214721D03*
X0016500Y0214721D03*
X0016500Y0224721D03*
X0016500Y0234721D03*
X0026500Y0234721D03*
X0026500Y0224721D03*
X0026500Y0244721D03*
X0016500Y0244721D03*
X0016500Y0254721D03*
X0026500Y0254721D03*
X0026500Y0264721D03*
X0016500Y0264721D03*
X0016500Y0274721D03*
X0026500Y0274721D03*
X0026500Y0284721D03*
X0016500Y0284721D03*
X0016500Y0294721D03*
X0016500Y0304721D03*
X0026500Y0304721D03*
X0026500Y0294721D03*
X0016500Y0314721D03*
D15*
X0121500Y0324221D02*
X0121500Y0330221D01*
X0131500Y0330221D02*
X0131500Y0324221D01*
X0141500Y0324221D02*
X0141500Y0330221D01*
X0201500Y0330221D02*
X0201500Y0324221D01*
X0211500Y0324221D02*
X0211500Y0330221D01*
X0221500Y0330221D02*
X0221500Y0324221D01*
X0278500Y0079721D02*
X0284500Y0079721D01*
X0284500Y0069721D02*
X0278500Y0069721D01*
X0278500Y0059721D02*
X0284500Y0059721D01*
X0316500Y0022721D02*
X0316500Y0016721D01*
X0326500Y0016721D02*
X0326500Y0022721D01*
X0336500Y0022721D02*
X0336500Y0016721D01*
X0056500Y0016721D02*
X0056500Y0022721D01*
X0046500Y0022721D02*
X0046500Y0016721D01*
X0036500Y0016721D02*
X0036500Y0022721D01*
D16*
X0116500Y0047721D03*
X0116500Y0066721D03*
D17*
X0136500Y0069721D03*
X0146500Y0064721D03*
X0146500Y0047221D03*
X0136500Y0039721D03*
X0146500Y0017221D03*
X0161500Y0017221D03*
X0176500Y0017221D03*
X0191500Y0017221D03*
X0191500Y0047221D03*
X0176500Y0047221D03*
X0176500Y0054721D03*
X0171500Y0062221D03*
X0181500Y0062221D03*
X0161500Y0047221D03*
X0146500Y0094721D03*
D18*
X0124000Y0092221D03*
X0114000Y0092221D03*
X0114000Y0024721D03*
X0124000Y0024721D03*
X0094000Y0019721D03*
X0074000Y0019721D03*
X0016500Y0044721D03*
X0016500Y0064721D03*
X0016500Y0084721D03*
X0016500Y0104721D03*
X0166500Y0159721D03*
X0186500Y0159721D03*
X0236500Y0162221D03*
X0256500Y0162221D03*
X0316500Y0104721D03*
X0336500Y0104721D03*
X0319500Y0059721D03*
X0261500Y0322221D03*
X0241500Y0322221D03*
X0181500Y0327221D03*
X0161500Y0327221D03*
X0096500Y0329721D03*
X0076500Y0329721D03*
D19*
X0333500Y0059721D03*
D20*
X0134000Y0079721D03*
D21*
X0122750Y0083471D03*
X0115250Y0083471D03*
X0135250Y0062221D03*
X0129000Y0050971D03*
X0155250Y0063471D03*
X0170250Y0087221D03*
X0174000Y0118471D03*
X0170250Y0125971D03*
X0181500Y0144721D03*
X0166500Y0165971D03*
X0171500Y0174721D03*
X0156500Y0184721D03*
X0151500Y0189721D03*
X0151500Y0194721D03*
X0146500Y0199721D03*
X0146500Y0204721D03*
X0141500Y0204721D03*
X0151500Y0214721D03*
X0146500Y0224721D03*
X0161500Y0234721D03*
X0166500Y0234721D03*
X0171500Y0244721D03*
X0161500Y0254721D03*
X0156500Y0254721D03*
X0171500Y0264721D03*
X0179000Y0259721D03*
X0176500Y0274721D03*
X0176500Y0284721D03*
X0171500Y0294721D03*
X0180250Y0299721D03*
X0166500Y0309721D03*
X0167750Y0314721D03*
X0161500Y0314721D03*
X0090250Y0330971D03*
X0085250Y0288471D03*
X0175250Y0223471D03*
X0199000Y0198471D03*
X0215250Y0183471D03*
X0222750Y0204721D03*
X0232750Y0208471D03*
X0229000Y0217221D03*
X0230250Y0222221D03*
X0244000Y0198471D03*
X0251500Y0188471D03*
X0237750Y0170971D03*
X0251500Y0167221D03*
X0255250Y0155971D03*
X0251500Y0140971D03*
X0250250Y0130971D03*
X0250250Y0124721D03*
X0235250Y0114721D03*
X0227750Y0120971D03*
X0221500Y0129721D03*
X0214000Y0133471D03*
X0219000Y0144721D03*
X0219000Y0152221D03*
X0275250Y0129721D03*
X0297750Y0114721D03*
X0302750Y0095971D03*
X0285250Y0095971D03*
X0299000Y0078471D03*
X0322750Y0085971D03*
X0322750Y0067221D03*
X0341500Y0060971D03*
X0346500Y0045971D03*
X0341500Y0034721D03*
X0305250Y0052221D03*
X0350250Y0074721D03*
X0380250Y0070971D03*
X0369000Y0104721D03*
X0351500Y0110971D03*
X0350250Y0119721D03*
X0372750Y0119721D03*
X0390250Y0109721D03*
X0342750Y0144721D03*
X0340250Y0149721D03*
X0340250Y0155971D03*
X0330250Y0159721D03*
X0326500Y0167221D03*
X0332750Y0173471D03*
X0327750Y0182221D03*
X0332750Y0183471D03*
X0340250Y0194721D03*
X0344000Y0198471D03*
X0347750Y0190971D03*
X0369000Y0205971D03*
X0380250Y0189721D03*
X0371500Y0180971D03*
X0369000Y0159721D03*
X0325250Y0198471D03*
X0322750Y0209721D03*
X0316500Y0217221D03*
X0309000Y0222221D03*
X0332750Y0213471D03*
X0347750Y0234721D03*
X0370250Y0244721D03*
X0365250Y0257221D03*
X0390250Y0239721D03*
X0337750Y0264721D03*
X0309000Y0247221D03*
X0277750Y0259721D03*
X0255250Y0258471D03*
X0242750Y0309721D03*
X0252750Y0327221D03*
X0276500Y0314721D03*
X0349000Y0298471D03*
X0365250Y0303471D03*
X0364000Y0310971D03*
X0367750Y0314721D03*
X0372750Y0289721D03*
X0310250Y0178471D03*
X0307750Y0173471D03*
X0304000Y0178471D03*
X0310250Y0159721D03*
X0310250Y0143471D03*
X0252750Y0084721D03*
X0257750Y0069721D03*
X0221500Y0050971D03*
X0257750Y0028471D03*
X0225250Y0094721D03*
X0165250Y0028471D03*
X0090250Y0054721D03*
X0062750Y0050971D03*
X0087750Y0099721D03*
X0110250Y0110971D03*
X0134000Y0132221D03*
X0139000Y0122221D03*
X0134000Y0147221D03*
X0135250Y0153471D03*
X0139000Y0157221D03*
X0151500Y0174721D03*
X0141500Y0179721D03*
X0146500Y0184721D03*
X0161500Y0194721D03*
X0095250Y0139721D03*
X0086500Y0139721D03*
X0077750Y0149721D03*
X0077750Y0128471D03*
X0067750Y0120971D03*
M02*
