M48
;GenerationSoftware,Autodesk,EAGLE,9.6.2*%
;CreationDate,2021-04-05T21:24:24Z*%
FMAT,2
ICI,OFF
METRIC,TZ,000.000
T7C0.300
T6C0.700
T5C0.813
T4C0.914
T3C1.016
T2C2.800
%
G90
M71
T2
X3810Y3810
X97790Y3810
X97790Y82550
X3810Y82550
T3
X73660Y39370
X77470Y3810
X73660Y41910
X73660Y44450
X43180Y3810
X45720Y3810
X48260Y3810
X50800Y3810
X53340Y3810
X55880Y3810
X58420Y3810
X60960Y3810
X63500Y3810
X66040Y3810
X69850Y3810
X72390Y3810
X74930Y3810
X71120Y12065
X26035Y6350
X38735Y6350
X38735Y3810
X36195Y6350
X33655Y6350
X36195Y3810
X33655Y3810
X31115Y6350
X28575Y6350
X78105Y44450
X23495Y6350
X20955Y6350
X18415Y6350
X31115Y3810
X28575Y3810
X78105Y39370
X78105Y41910
X97790Y12065
X95250Y22225
X95250Y19685
X95250Y17145
X95250Y14605
X95250Y12065
X97790Y22225
X97790Y19685
X97790Y17145
X97790Y14605
X82550Y3810
X88900Y12065
X86360Y12065
X83820Y12065
X81280Y12065
X80010Y3810
X78740Y12065
X76200Y12065
X73660Y12065
X5715Y14605
X87630Y3810
X85090Y3810
X5715Y12065
X90170Y3810
X92710Y3810
X26035Y3810
X23495Y3810
X20955Y3810
X18415Y3810
X3175Y19685
X3175Y17145
X3175Y14605
X3175Y12065
X5715Y22225
X5715Y19685
X3175Y22225
X5715Y17145
T4
X95250Y72390
X97790Y69850
X95250Y69850
X97790Y67310
X95250Y67310
X97790Y59690
X6350Y39370
X97790Y64770
X95250Y64770
X97790Y62230
X95250Y62230
X97790Y72390
X95250Y74930
X97790Y74930
X95250Y77470
X97790Y77470
X3810Y29210
X6350Y29210
X3810Y31750
X6350Y31750
X3810Y34290
X6350Y34290
X3810Y36830
X6350Y36830
X3810Y39370
X95250Y44450
X95250Y29210
X97790Y29210
X95250Y31750
X97790Y31750
X95250Y34290
X97790Y34290
X95250Y36830
X97790Y36830
X95250Y39370
X97790Y39370
X95250Y41910
X97790Y41910
X95250Y59690
X97790Y44450
X95250Y46990
X97790Y46990
X95250Y49530
X97790Y49530
X95250Y52070
X97790Y52070
X6350Y59690
X95250Y54610
X97790Y54610
X95250Y57150
X97790Y57150
X6350Y41910
X6350Y77470
X3810Y77470
X6350Y74930
X3810Y74930
X6350Y72390
X3810Y72390
X6350Y69850
X3810Y69850
X6350Y67310
X3810Y67310
X6350Y64770
X3810Y64770
X6350Y62230
X3810Y62230
X3810Y59690
X3810Y41910
X3810Y44450
X6350Y44450
X3810Y46990
X6350Y46990
X3810Y49530
X6350Y49530
X3810Y52070
X6350Y52070
X3810Y54610
X6350Y54610
X3810Y57150
X6350Y57150
T5
X46990Y57150
X46990Y54610
X46990Y52070
X46990Y49530
X46990Y46990
X46990Y44450
X46990Y41910
X12065Y74930
X12065Y72390
X12065Y69850
X12065Y67310
X12065Y64770
X12065Y62230
X12065Y59690
X12065Y57150
X68580Y62230
X12065Y54610
X46990Y59690
X46990Y62230
X46990Y64770
X46990Y67310
X46990Y69850
X46990Y72390
X46990Y74930
X58420Y7620
X66040Y7620
X85090Y7620
X92710Y7620
X68580Y74930
X68580Y72390
X68580Y69850
X68580Y67310
X68580Y64770
X31750Y74930
X31750Y54610
X31750Y57150
X31750Y59690
X31750Y62230
X31750Y64770
X31750Y67310
X31750Y69850
X31750Y72390
X31750Y52070
X27305Y74930
X27305Y72390
X27305Y69850
X27305Y67310
X27305Y64770
X27305Y62230
X82550Y78740
X27305Y52070
X12065Y49530
X12065Y46990
X12065Y44450
X12065Y41910
X27305Y41910
X27305Y44450
X27305Y46990
X27305Y49530
X12065Y52070
X27305Y54610
X27305Y57150
X27305Y59690
X31750Y41910
X31750Y44450
X31750Y46990
X31750Y49530
X14605Y36068
X53340Y52070
X53340Y54610
X53340Y64770
X53340Y62230
X53340Y67310
X53340Y69850
X53340Y57150
X53340Y59690
X53340Y72390
X53340Y74930
X14605Y32512
X68580Y57150
X50165Y52705
X50165Y60325
X62865Y78740
X57785Y78740
X68580Y59690
X77470Y78740
X36195Y78740
X41275Y78740
X16510Y78740
X21590Y78740
X53340Y46990
X53340Y49530
X68580Y54610
X68580Y52070
X68580Y49530
X68580Y46990
X68580Y44450
X68580Y41910
X68580Y39370
X68580Y36830
X68580Y34290
X68580Y31750
X68580Y26670
X68580Y29210
X53340Y44450
X53340Y41910
X53340Y39370
X53340Y36830
X53340Y34290
X53340Y31750
X53340Y29210
X53340Y26670
T6
X76200Y71755
X83820Y71755
X76200Y64135
X83820Y64135
T7
X40437Y26822
X71120Y57302
X33528Y48768
X34341Y29667
X34950Y20523
X25400Y44094
X29261Y43282
X39827Y25400
X55474Y51003
X61570Y63602
X51410Y63602
X36373Y27635
X48768Y50394
X45314Y53848
X86157Y41046
X86157Y47346
X71526Y61570
X50394Y68478
X85344Y41046
X87579Y6096
X85344Y52426
X28651Y50597
X79654Y52222
X1829Y32309
X62992Y23368
X41656Y27229
X37592Y48971
X34747Y60147
X28448Y53238
X49784Y58318
X35357Y52832
X1422Y45314
X44704Y54661
X49784Y55880
X35154Y44298
X37998Y71120
X33528Y56490
X39827Y26213
X29058Y48362
X62179Y65227
X39014Y14224
X55677Y61773
X51410Y51613
X2032Y59741
X24587Y43688
X35560Y27026
X33528Y60554
X94285Y56286
X90424Y56083
X84734Y50394
X64414Y22352
X63602Y15240
X99365Y23368
X99162Y11582
X99771Y47549
X62789Y21742
X47549Y6502
X36982Y5080
X65634Y23978
X34138Y61773
X60147Y64211
X93675Y51410
X24587Y21336
X62992Y28854
X74778Y35560
X93066Y20930
X82499Y66853
X83922Y55677
X79248Y17882
X80467Y67259
X70104Y22352
X71730Y55677
X57506Y28245
X57506Y18288
X63195Y47346
X63195Y44704
X61976Y64211
X59944Y44704
X59944Y27026
X70510Y54254
X61163Y40843
X92050Y54458
X74981Y62789
X67259Y19507
X64414Y16662
X77419Y74168
X75590Y61163
X82702Y52426
X63602Y26010
X92659Y53035
X65227Y22352
X66853Y45923
X66243Y27838
M30